<?xml version="1.0" encoding="utf-8" standalone="no"?>
<!DOCTYPE svg PUBLIC "-//W3C//DTD SVG 1.1//EN"
  "http://www.w3.org/Graphics/SVG/1.1/DTD/svg11.dtd">
<svg xmlns:xlink="http://www.w3.org/1999/xlink" width="864pt" height="432pt" viewBox="0 0 864 432" xmlns="http://www.w3.org/2000/svg" version="1.1">
 <metadata>
  <rdf:RDF xmlns:dc="http://purl.org/dc/elements/1.1/" xmlns:cc="http://creativecommons.org/ns#" xmlns:rdf="http://www.w3.org/1999/02/22-rdf-syntax-ns#">
   <cc:Work>
    <dc:type rdf:resource="http://purl.org/dc/dcmitype/StillImage"/>
    <dc:date>2026-04-18T20:36:52.833023</dc:date>
    <dc:format>image/svg+xml</dc:format>
    <dc:creator>
     <cc:Agent>
      <dc:title>Matplotlib v3.9.4, https://matplotlib.org/</dc:title>
     </cc:Agent>
    </dc:creator>
   </cc:Work>
  </rdf:RDF>
 </metadata>
 <defs>
  <style type="text/css">*{stroke-linejoin: round; stroke-linecap: butt}</style>
 </defs>
 <g id="figure_1">
  <g id="patch_1">
   <path d="M 0 432 
L 864 432 
L 864 0 
L 0 0 
z
" style="fill: #ffffff"/>
  </g>
  <g id="axes_1">
   <g id="patch_2">
    <path d="M 108 384.48 
L 777.6 384.48 
L 777.6 51.84 
L 108 51.84 
z
" style="fill: #ffffff"/>
   </g>
   <g id="matplotlib.axis_1">
    <g id="xtick_1">
     <g id="line2d_1">
      <path d="M 108 384.48 
L 108 51.84 
" clip-path="url(#pb31de94663)" style="fill: none; stroke-dasharray: 2.96,1.28; stroke-dashoffset: 0; stroke: #b0b0b0; stroke-opacity: 0.5; stroke-width: 0.8"/>
     </g>
     <g id="line2d_2">
      <defs>
       <path id="m8bf43f9979" d="M 0 0 
L 0 3.5 
" style="stroke: #000000; stroke-width: 0.8"/>
      </defs>
      <g>
       <use xlink:href="#m8bf43f9979" x="108" y="384.48" style="stroke: #000000; stroke-width: 0.8"/>
      </g>
     </g>
     <g id="text_1">
      <!-- 0 -->
      <g transform="translate(104.81875 399.078438) scale(0.1 -0.1)">
       <defs>
        <path id="DejaVuSans-30" d="M 2034 4250 
Q 1547 4250 1301 3770 
Q 1056 3291 1056 2328 
Q 1056 1369 1301 889 
Q 1547 409 2034 409 
Q 2525 409 2770 889 
Q 3016 1369 3016 2328 
Q 3016 3291 2770 3770 
Q 2525 4250 2034 4250 
z
M 2034 4750 
Q 2819 4750 3233 4129 
Q 3647 3509 3647 2328 
Q 3647 1150 3233 529 
Q 2819 -91 2034 -91 
Q 1250 -91 836 529 
Q 422 1150 422 2328 
Q 422 3509 836 4129 
Q 1250 4750 2034 4750 
z
" transform="scale(0.015625)"/>
       </defs>
       <use xlink:href="#DejaVuSans-30"/>
      </g>
     </g>
    </g>
    <g id="xtick_2">
     <g id="line2d_3">
      <path d="M 436.003601 384.48 
L 436.003601 51.84 
" clip-path="url(#pb31de94663)" style="fill: none; stroke-dasharray: 2.96,1.28; stroke-dashoffset: 0; stroke: #b0b0b0; stroke-opacity: 0.5; stroke-width: 0.8"/>
     </g>
     <g id="line2d_4">
      <g>
       <use xlink:href="#m8bf43f9979" x="436.003601" y="384.48" style="stroke: #000000; stroke-width: 0.8"/>
      </g>
     </g>
     <g id="text_2">
      <!-- 1M -->
      <g transform="translate(428.508289 399.078438) scale(0.1 -0.1)">
       <defs>
        <path id="DejaVuSans-31" d="M 794 531 
L 1825 531 
L 1825 4091 
L 703 3866 
L 703 4441 
L 1819 4666 
L 2450 4666 
L 2450 531 
L 3481 531 
L 3481 0 
L 794 0 
L 794 531 
z
" transform="scale(0.015625)"/>
        <path id="DejaVuSans-4d" d="M 628 4666 
L 1569 4666 
L 2759 1491 
L 3956 4666 
L 4897 4666 
L 4897 0 
L 4281 0 
L 4281 4097 
L 3078 897 
L 2444 897 
L 1241 4097 
L 1241 0 
L 628 0 
L 628 4666 
z
" transform="scale(0.015625)"/>
       </defs>
       <use xlink:href="#DejaVuSans-31"/>
       <use xlink:href="#DejaVuSans-4d" x="63.623047"/>
      </g>
     </g>
    </g>
    <g id="xtick_3">
     <g id="line2d_5">
      <path d="M 764.007203 384.48 
L 764.007203 51.84 
" clip-path="url(#pb31de94663)" style="fill: none; stroke-dasharray: 2.96,1.28; stroke-dashoffset: 0; stroke: #b0b0b0; stroke-opacity: 0.5; stroke-width: 0.8"/>
     </g>
     <g id="line2d_6">
      <g>
       <use xlink:href="#m8bf43f9979" x="764.007203" y="384.48" style="stroke: #000000; stroke-width: 0.8"/>
      </g>
     </g>
     <g id="text_3">
      <!-- 2M -->
      <g transform="translate(756.51189 399.078438) scale(0.1 -0.1)">
       <defs>
        <path id="DejaVuSans-32" d="M 1228 531 
L 3431 531 
L 3431 0 
L 469 0 
L 469 531 
Q 828 903 1448 1529 
Q 2069 2156 2228 2338 
Q 2531 2678 2651 2914 
Q 2772 3150 2772 3378 
Q 2772 3750 2511 3984 
Q 2250 4219 1831 4219 
Q 1534 4219 1204 4116 
Q 875 4013 500 3803 
L 500 4441 
Q 881 4594 1212 4672 
Q 1544 4750 1819 4750 
Q 2544 4750 2975 4387 
Q 3406 4025 3406 3419 
Q 3406 3131 3298 2873 
Q 3191 2616 2906 2266 
Q 2828 2175 2409 1742 
Q 1991 1309 1228 531 
z
" transform="scale(0.015625)"/>
       </defs>
       <use xlink:href="#DejaVuSans-32"/>
       <use xlink:href="#DejaVuSans-4d" x="63.623047"/>
      </g>
     </g>
    </g>
    <g id="text_4">
     <!-- Training Step -->
     <g transform="translate(403.56 414.27625) scale(0.12 -0.12)">
      <defs>
       <path id="DejaVuSans-54" d="M -19 4666 
L 3928 4666 
L 3928 4134 
L 2272 4134 
L 2272 0 
L 1638 0 
L 1638 4134 
L -19 4134 
L -19 4666 
z
" transform="scale(0.015625)"/>
       <path id="DejaVuSans-72" d="M 2631 2963 
Q 2534 3019 2420 3045 
Q 2306 3072 2169 3072 
Q 1681 3072 1420 2755 
Q 1159 2438 1159 1844 
L 1159 0 
L 581 0 
L 581 3500 
L 1159 3500 
L 1159 2956 
Q 1341 3275 1631 3429 
Q 1922 3584 2338 3584 
Q 2397 3584 2469 3576 
Q 2541 3569 2628 3553 
L 2631 2963 
z
" transform="scale(0.015625)"/>
       <path id="DejaVuSans-61" d="M 2194 1759 
Q 1497 1759 1228 1600 
Q 959 1441 959 1056 
Q 959 750 1161 570 
Q 1363 391 1709 391 
Q 2188 391 2477 730 
Q 2766 1069 2766 1631 
L 2766 1759 
L 2194 1759 
z
M 3341 1997 
L 3341 0 
L 2766 0 
L 2766 531 
Q 2569 213 2275 61 
Q 1981 -91 1556 -91 
Q 1019 -91 701 211 
Q 384 513 384 1019 
Q 384 1609 779 1909 
Q 1175 2209 1959 2209 
L 2766 2209 
L 2766 2266 
Q 2766 2663 2505 2880 
Q 2244 3097 1772 3097 
Q 1472 3097 1187 3025 
Q 903 2953 641 2809 
L 641 3341 
Q 956 3463 1253 3523 
Q 1550 3584 1831 3584 
Q 2591 3584 2966 3190 
Q 3341 2797 3341 1997 
z
" transform="scale(0.015625)"/>
       <path id="DejaVuSans-69" d="M 603 3500 
L 1178 3500 
L 1178 0 
L 603 0 
L 603 3500 
z
M 603 4863 
L 1178 4863 
L 1178 4134 
L 603 4134 
L 603 4863 
z
" transform="scale(0.015625)"/>
       <path id="DejaVuSans-6e" d="M 3513 2113 
L 3513 0 
L 2938 0 
L 2938 2094 
Q 2938 2591 2744 2837 
Q 2550 3084 2163 3084 
Q 1697 3084 1428 2787 
Q 1159 2491 1159 1978 
L 1159 0 
L 581 0 
L 581 3500 
L 1159 3500 
L 1159 2956 
Q 1366 3272 1645 3428 
Q 1925 3584 2291 3584 
Q 2894 3584 3203 3211 
Q 3513 2838 3513 2113 
z
" transform="scale(0.015625)"/>
       <path id="DejaVuSans-67" d="M 2906 1791 
Q 2906 2416 2648 2759 
Q 2391 3103 1925 3103 
Q 1463 3103 1205 2759 
Q 947 2416 947 1791 
Q 947 1169 1205 825 
Q 1463 481 1925 481 
Q 2391 481 2648 825 
Q 2906 1169 2906 1791 
z
M 3481 434 
Q 3481 -459 3084 -895 
Q 2688 -1331 1869 -1331 
Q 1566 -1331 1297 -1286 
Q 1028 -1241 775 -1147 
L 775 -588 
Q 1028 -725 1275 -790 
Q 1522 -856 1778 -856 
Q 2344 -856 2625 -561 
Q 2906 -266 2906 331 
L 2906 616 
Q 2728 306 2450 153 
Q 2172 0 1784 0 
Q 1141 0 747 490 
Q 353 981 353 1791 
Q 353 2603 747 3093 
Q 1141 3584 1784 3584 
Q 2172 3584 2450 3431 
Q 2728 3278 2906 2969 
L 2906 3500 
L 3481 3500 
L 3481 434 
z
" transform="scale(0.015625)"/>
       <path id="DejaVuSans-20" transform="scale(0.015625)"/>
       <path id="DejaVuSans-53" d="M 3425 4513 
L 3425 3897 
Q 3066 4069 2747 4153 
Q 2428 4238 2131 4238 
Q 1616 4238 1336 4038 
Q 1056 3838 1056 3469 
Q 1056 3159 1242 3001 
Q 1428 2844 1947 2747 
L 2328 2669 
Q 3034 2534 3370 2195 
Q 3706 1856 3706 1288 
Q 3706 609 3251 259 
Q 2797 -91 1919 -91 
Q 1588 -91 1214 -16 
Q 841 59 441 206 
L 441 856 
Q 825 641 1194 531 
Q 1563 422 1919 422 
Q 2459 422 2753 634 
Q 3047 847 3047 1241 
Q 3047 1584 2836 1778 
Q 2625 1972 2144 2069 
L 1759 2144 
Q 1053 2284 737 2584 
Q 422 2884 422 3419 
Q 422 4038 858 4394 
Q 1294 4750 2059 4750 
Q 2388 4750 2728 4690 
Q 3069 4631 3425 4513 
z
" transform="scale(0.015625)"/>
       <path id="DejaVuSans-74" d="M 1172 4494 
L 1172 3500 
L 2356 3500 
L 2356 3053 
L 1172 3053 
L 1172 1153 
Q 1172 725 1289 603 
Q 1406 481 1766 481 
L 2356 481 
L 2356 0 
L 1766 0 
Q 1100 0 847 248 
Q 594 497 594 1153 
L 594 3053 
L 172 3053 
L 172 3500 
L 594 3500 
L 594 4494 
L 1172 4494 
z
" transform="scale(0.015625)"/>
       <path id="DejaVuSans-65" d="M 3597 1894 
L 3597 1613 
L 953 1613 
Q 991 1019 1311 708 
Q 1631 397 2203 397 
Q 2534 397 2845 478 
Q 3156 559 3463 722 
L 3463 178 
Q 3153 47 2828 -22 
Q 2503 -91 2169 -91 
Q 1331 -91 842 396 
Q 353 884 353 1716 
Q 353 2575 817 3079 
Q 1281 3584 2069 3584 
Q 2775 3584 3186 3129 
Q 3597 2675 3597 1894 
z
M 3022 2063 
Q 3016 2534 2758 2815 
Q 2500 3097 2075 3097 
Q 1594 3097 1305 2825 
Q 1016 2553 972 2059 
L 3022 2063 
z
" transform="scale(0.015625)"/>
       <path id="DejaVuSans-70" d="M 1159 525 
L 1159 -1331 
L 581 -1331 
L 581 3500 
L 1159 3500 
L 1159 2969 
Q 1341 3281 1617 3432 
Q 1894 3584 2278 3584 
Q 2916 3584 3314 3078 
Q 3713 2572 3713 1747 
Q 3713 922 3314 415 
Q 2916 -91 2278 -91 
Q 1894 -91 1617 61 
Q 1341 213 1159 525 
z
M 3116 1747 
Q 3116 2381 2855 2742 
Q 2594 3103 2138 3103 
Q 1681 3103 1420 2742 
Q 1159 2381 1159 1747 
Q 1159 1113 1420 752 
Q 1681 391 2138 391 
Q 2594 391 2855 752 
Q 3116 1113 3116 1747 
z
" transform="scale(0.015625)"/>
      </defs>
      <use xlink:href="#DejaVuSans-54"/>
      <use xlink:href="#DejaVuSans-72" x="46.333984"/>
      <use xlink:href="#DejaVuSans-61" x="87.447266"/>
      <use xlink:href="#DejaVuSans-69" x="148.726562"/>
      <use xlink:href="#DejaVuSans-6e" x="176.509766"/>
      <use xlink:href="#DejaVuSans-69" x="239.888672"/>
      <use xlink:href="#DejaVuSans-6e" x="267.671875"/>
      <use xlink:href="#DejaVuSans-67" x="331.050781"/>
      <use xlink:href="#DejaVuSans-20" x="394.527344"/>
      <use xlink:href="#DejaVuSans-53" x="426.314453"/>
      <use xlink:href="#DejaVuSans-74" x="489.791016"/>
      <use xlink:href="#DejaVuSans-65" x="529"/>
      <use xlink:href="#DejaVuSans-70" x="590.523438"/>
     </g>
    </g>
   </g>
   <g id="matplotlib.axis_2">
    <g id="ytick_1">
     <g id="line2d_7">
      <path d="M 108 384.48 
L 777.6 384.48 
" clip-path="url(#pb31de94663)" style="fill: none; stroke-dasharray: 2.96,1.28; stroke-dashoffset: 0; stroke: #b0b0b0; stroke-opacity: 0.5; stroke-width: 0.8"/>
     </g>
     <g id="line2d_8">
      <defs>
       <path id="m5e0ae9612c" d="M 0 0 
L -3.5 0 
" style="stroke: #000000; stroke-width: 0.8"/>
      </defs>
      <g>
       <use xlink:href="#m5e0ae9612c" x="108" y="384.48" style="stroke: #000000; stroke-width: 0.8"/>
      </g>
     </g>
     <g id="text_5">
      <!-- 0.0 -->
      <g transform="translate(85.096875 388.279219) scale(0.1 -0.1)">
       <defs>
        <path id="DejaVuSans-2e" d="M 684 794 
L 1344 794 
L 1344 0 
L 684 0 
L 684 794 
z
" transform="scale(0.015625)"/>
       </defs>
       <use xlink:href="#DejaVuSans-30"/>
       <use xlink:href="#DejaVuSans-2e" x="63.623047"/>
       <use xlink:href="#DejaVuSans-30" x="95.410156"/>
      </g>
     </g>
    </g>
    <g id="ytick_2">
     <g id="line2d_9">
      <path d="M 108 317.952 
L 777.6 317.952 
" clip-path="url(#pb31de94663)" style="fill: none; stroke-dasharray: 2.96,1.28; stroke-dashoffset: 0; stroke: #b0b0b0; stroke-opacity: 0.5; stroke-width: 0.8"/>
     </g>
     <g id="line2d_10">
      <g>
       <use xlink:href="#m5e0ae9612c" x="108" y="317.952" style="stroke: #000000; stroke-width: 0.8"/>
      </g>
     </g>
     <g id="text_6">
      <!-- 0.2 -->
      <g transform="translate(85.096875 321.751219) scale(0.1 -0.1)">
       <use xlink:href="#DejaVuSans-30"/>
       <use xlink:href="#DejaVuSans-2e" x="63.623047"/>
       <use xlink:href="#DejaVuSans-32" x="95.410156"/>
      </g>
     </g>
    </g>
    <g id="ytick_3">
     <g id="line2d_11">
      <path d="M 108 251.424 
L 777.6 251.424 
" clip-path="url(#pb31de94663)" style="fill: none; stroke-dasharray: 2.96,1.28; stroke-dashoffset: 0; stroke: #b0b0b0; stroke-opacity: 0.5; stroke-width: 0.8"/>
     </g>
     <g id="line2d_12">
      <g>
       <use xlink:href="#m5e0ae9612c" x="108" y="251.424" style="stroke: #000000; stroke-width: 0.8"/>
      </g>
     </g>
     <g id="text_7">
      <!-- 0.4 -->
      <g transform="translate(85.096875 255.223219) scale(0.1 -0.1)">
       <defs>
        <path id="DejaVuSans-34" d="M 2419 4116 
L 825 1625 
L 2419 1625 
L 2419 4116 
z
M 2253 4666 
L 3047 4666 
L 3047 1625 
L 3713 1625 
L 3713 1100 
L 3047 1100 
L 3047 0 
L 2419 0 
L 2419 1100 
L 313 1100 
L 313 1709 
L 2253 4666 
z
" transform="scale(0.015625)"/>
       </defs>
       <use xlink:href="#DejaVuSans-30"/>
       <use xlink:href="#DejaVuSans-2e" x="63.623047"/>
       <use xlink:href="#DejaVuSans-34" x="95.410156"/>
      </g>
     </g>
    </g>
    <g id="ytick_4">
     <g id="line2d_13">
      <path d="M 108 184.896 
L 777.6 184.896 
" clip-path="url(#pb31de94663)" style="fill: none; stroke-dasharray: 2.96,1.28; stroke-dashoffset: 0; stroke: #b0b0b0; stroke-opacity: 0.5; stroke-width: 0.8"/>
     </g>
     <g id="line2d_14">
      <g>
       <use xlink:href="#m5e0ae9612c" x="108" y="184.896" style="stroke: #000000; stroke-width: 0.8"/>
      </g>
     </g>
     <g id="text_8">
      <!-- 0.6 -->
      <g transform="translate(85.096875 188.695219) scale(0.1 -0.1)">
       <defs>
        <path id="DejaVuSans-36" d="M 2113 2584 
Q 1688 2584 1439 2293 
Q 1191 2003 1191 1497 
Q 1191 994 1439 701 
Q 1688 409 2113 409 
Q 2538 409 2786 701 
Q 3034 994 3034 1497 
Q 3034 2003 2786 2293 
Q 2538 2584 2113 2584 
z
M 3366 4563 
L 3366 3988 
Q 3128 4100 2886 4159 
Q 2644 4219 2406 4219 
Q 1781 4219 1451 3797 
Q 1122 3375 1075 2522 
Q 1259 2794 1537 2939 
Q 1816 3084 2150 3084 
Q 2853 3084 3261 2657 
Q 3669 2231 3669 1497 
Q 3669 778 3244 343 
Q 2819 -91 2113 -91 
Q 1303 -91 875 529 
Q 447 1150 447 2328 
Q 447 3434 972 4092 
Q 1497 4750 2381 4750 
Q 2619 4750 2861 4703 
Q 3103 4656 3366 4563 
z
" transform="scale(0.015625)"/>
       </defs>
       <use xlink:href="#DejaVuSans-30"/>
       <use xlink:href="#DejaVuSans-2e" x="63.623047"/>
       <use xlink:href="#DejaVuSans-36" x="95.410156"/>
      </g>
     </g>
    </g>
    <g id="ytick_5">
     <g id="line2d_15">
      <path d="M 108 118.368 
L 777.6 118.368 
" clip-path="url(#pb31de94663)" style="fill: none; stroke-dasharray: 2.96,1.28; stroke-dashoffset: 0; stroke: #b0b0b0; stroke-opacity: 0.5; stroke-width: 0.8"/>
     </g>
     <g id="line2d_16">
      <g>
       <use xlink:href="#m5e0ae9612c" x="108" y="118.368" style="stroke: #000000; stroke-width: 0.8"/>
      </g>
     </g>
     <g id="text_9">
      <!-- 0.8 -->
      <g transform="translate(85.096875 122.167219) scale(0.1 -0.1)">
       <defs>
        <path id="DejaVuSans-38" d="M 2034 2216 
Q 1584 2216 1326 1975 
Q 1069 1734 1069 1313 
Q 1069 891 1326 650 
Q 1584 409 2034 409 
Q 2484 409 2743 651 
Q 3003 894 3003 1313 
Q 3003 1734 2745 1975 
Q 2488 2216 2034 2216 
z
M 1403 2484 
Q 997 2584 770 2862 
Q 544 3141 544 3541 
Q 544 4100 942 4425 
Q 1341 4750 2034 4750 
Q 2731 4750 3128 4425 
Q 3525 4100 3525 3541 
Q 3525 3141 3298 2862 
Q 3072 2584 2669 2484 
Q 3125 2378 3379 2068 
Q 3634 1759 3634 1313 
Q 3634 634 3220 271 
Q 2806 -91 2034 -91 
Q 1263 -91 848 271 
Q 434 634 434 1313 
Q 434 1759 690 2068 
Q 947 2378 1403 2484 
z
M 1172 3481 
Q 1172 3119 1398 2916 
Q 1625 2713 2034 2713 
Q 2441 2713 2670 2916 
Q 2900 3119 2900 3481 
Q 2900 3844 2670 4047 
Q 2441 4250 2034 4250 
Q 1625 4250 1398 4047 
Q 1172 3844 1172 3481 
z
" transform="scale(0.015625)"/>
       </defs>
       <use xlink:href="#DejaVuSans-30"/>
       <use xlink:href="#DejaVuSans-2e" x="63.623047"/>
       <use xlink:href="#DejaVuSans-38" x="95.410156"/>
      </g>
     </g>
    </g>
    <g id="ytick_6">
     <g id="line2d_17">
      <path d="M 108 51.84 
L 777.6 51.84 
" clip-path="url(#pb31de94663)" style="fill: none; stroke-dasharray: 2.96,1.28; stroke-dashoffset: 0; stroke: #b0b0b0; stroke-opacity: 0.5; stroke-width: 0.8"/>
     </g>
     <g id="line2d_18">
      <g>
       <use xlink:href="#m5e0ae9612c" x="108" y="51.84" style="stroke: #000000; stroke-width: 0.8"/>
      </g>
     </g>
     <g id="text_10">
      <!-- 1.0 -->
      <g transform="translate(85.096875 55.639219) scale(0.1 -0.1)">
       <use xlink:href="#DejaVuSans-31"/>
       <use xlink:href="#DejaVuSans-2e" x="63.623047"/>
       <use xlink:href="#DejaVuSans-30" x="95.410156"/>
      </g>
     </g>
    </g>
    <g id="text_11">
     <!-- Battle Won Mean -->
     <g transform="translate(78.60125 269.232187) rotate(-90) scale(0.12 -0.12)">
      <defs>
       <path id="DejaVuSans-42" d="M 1259 2228 
L 1259 519 
L 2272 519 
Q 2781 519 3026 730 
Q 3272 941 3272 1375 
Q 3272 1813 3026 2020 
Q 2781 2228 2272 2228 
L 1259 2228 
z
M 1259 4147 
L 1259 2741 
L 2194 2741 
Q 2656 2741 2882 2914 
Q 3109 3088 3109 3444 
Q 3109 3797 2882 3972 
Q 2656 4147 2194 4147 
L 1259 4147 
z
M 628 4666 
L 2241 4666 
Q 2963 4666 3353 4366 
Q 3744 4066 3744 3513 
Q 3744 3084 3544 2831 
Q 3344 2578 2956 2516 
Q 3422 2416 3680 2098 
Q 3938 1781 3938 1306 
Q 3938 681 3513 340 
Q 3088 0 2303 0 
L 628 0 
L 628 4666 
z
" transform="scale(0.015625)"/>
       <path id="DejaVuSans-6c" d="M 603 4863 
L 1178 4863 
L 1178 0 
L 603 0 
L 603 4863 
z
" transform="scale(0.015625)"/>
       <path id="DejaVuSans-57" d="M 213 4666 
L 850 4666 
L 1831 722 
L 2809 4666 
L 3519 4666 
L 4500 722 
L 5478 4666 
L 6119 4666 
L 4947 0 
L 4153 0 
L 3169 4050 
L 2175 0 
L 1381 0 
L 213 4666 
z
" transform="scale(0.015625)"/>
       <path id="DejaVuSans-6f" d="M 1959 3097 
Q 1497 3097 1228 2736 
Q 959 2375 959 1747 
Q 959 1119 1226 758 
Q 1494 397 1959 397 
Q 2419 397 2687 759 
Q 2956 1122 2956 1747 
Q 2956 2369 2687 2733 
Q 2419 3097 1959 3097 
z
M 1959 3584 
Q 2709 3584 3137 3096 
Q 3566 2609 3566 1747 
Q 3566 888 3137 398 
Q 2709 -91 1959 -91 
Q 1206 -91 779 398 
Q 353 888 353 1747 
Q 353 2609 779 3096 
Q 1206 3584 1959 3584 
z
" transform="scale(0.015625)"/>
      </defs>
      <use xlink:href="#DejaVuSans-42"/>
      <use xlink:href="#DejaVuSans-61" x="68.603516"/>
      <use xlink:href="#DejaVuSans-74" x="129.882812"/>
      <use xlink:href="#DejaVuSans-74" x="169.091797"/>
      <use xlink:href="#DejaVuSans-6c" x="208.300781"/>
      <use xlink:href="#DejaVuSans-65" x="236.083984"/>
      <use xlink:href="#DejaVuSans-20" x="297.607422"/>
      <use xlink:href="#DejaVuSans-57" x="329.394531"/>
      <use xlink:href="#DejaVuSans-6f" x="422.396484"/>
      <use xlink:href="#DejaVuSans-6e" x="483.578125"/>
      <use xlink:href="#DejaVuSans-20" x="546.957031"/>
      <use xlink:href="#DejaVuSans-4d" x="578.744141"/>
      <use xlink:href="#DejaVuSans-65" x="665.023438"/>
      <use xlink:href="#DejaVuSans-61" x="726.546875"/>
      <use xlink:href="#DejaVuSans-6e" x="787.826172"/>
     </g>
    </g>
   </g>
   <g id="line2d_19">
    <path d="M 108.131201 384.48 
L 111.411237 373.609412 
L 117.971309 347.13538 
L 121.251345 338.095783 
L 124.531382 325.645013 
L 131.091454 309.277649 
L 134.37149 302.033876 
L 137.651526 303.07052 
L 140.931562 305.833082 
L 144.211598 307.772587 
L 147.491634 299.614189 
L 150.77167 296.550097 
L 154.051706 292.49528 
L 157.453103 297.031982 
L 160.860404 299.753273 
L 167.670415 302.337942 
L 170.950451 305.085712 
L 174.230487 298.833092 
L 177.638445 294.254408 
L 181.047386 299.402675 
L 184.405487 303.066177 
L 191.069864 302.419242 
L 194.3499 297.480282 
L 197.756874 287.362416 
L 201.165487 285.629185 
L 204.557372 284.340727 
L 207.837408 282.798617 
L 211.117444 272.88704 
L 214.51917 264.77957 
L 217.887439 259.538051 
L 221.28326 255.310257 
L 224.563296 250.019947 
L 227.972565 244.074707 
L 231.349034 238.462307 
L 234.759288 234.109334 
L 238.165605 231.944942 
L 241.537154 228.604017 
L 244.909359 222.824933 
L 248.29862 220.54439 
L 251.622937 215.354828 
L 255.010886 210.836348 
L 261.752344 208.096455 
L 265.065837 204.506726 
L 268.392449 204.250406 
L 271.721686 204.219759 
L 275.050922 200.909372 
L 278.406727 196.982927 
L 281.737276 190.312064 
L 285.120961 185.709986 
L 288.50727 179.279231 
L 291.857171 178.987093 
L 295.211336 181.58437 
L 298.492356 182.414414 
L 301.840288 185.409045 
L 305.209541 189.435765 
L 308.600443 188.879503 
L 311.98052 186.058033 
L 315.316972 184.236018 
L 318.600616 187.269457 
L 321.892132 190.002365 
L 325.212841 188.142 
L 328.549622 190.348339 
L 331.933635 191.505851 
L 335.290752 189.579079 
L 338.660989 186.304994 
L 341.993177 187.359831 
L 345.359478 189.789325 
L 348.702163 194.999313 
L 352.07076 201.036971 
L 355.445589 201.549062 
L 358.790898 198.399067 
L 362.186719 197.773637 
L 365.567452 198.154908 
L 368.943593 201.534171 
L 372.282998 200.720498 
L 375.638147 199.713262 
L 378.957543 199.301568 
L 382.349428 201.841255 
L 385.636024 199.78884 
L 388.918684 196.628002 
L 392.278753 195.922017 
L 395.642758 194.624015 
L 399.010699 196.418698 
L 402.394056 199.096162 
L 405.761341 193.83693 
L 409.069586 189.931945 
L 412.384718 188.804342 
L 415.704442 194.2156 
L 419.056639 196.726125 
L 422.349139 192.051364 
L 425.699696 190.62029 
L 429.061405 187.963432 
L 432.401138 187.110205 
L 435.774327 188.784164 
L 439.15834 187.467116 
L 442.475112 184.016073 
L 449.174258 183.032387 
L 452.489062 184.009911 
L 455.88062 183.348038 
L 459.235768 181.128963 
L 462.587637 175.696435 
L 465.880793 176.057946 
L 469.211342 178.241357 
L 472.557307 184.108284 
L 475.878999 185.173028 
L 479.2535 182.266423 
L 482.602745 181.953247 
L 485.923453 183.448999 
L 489.232354 186.897721 
L 492.634407 191.157404 
L 495.989228 189.602722 
L 499.399481 185.11322 
L 502.784479 186.406412 
L 506.15406 187.91873 
L 509.553161 193.051462 
L 512.943078 191.238099 
L 516.314955 188.344107 
L 519.642224 189.942324 
L 522.9895 192.228941 
L 526.329561 194.693552 
L 529.670278 194.98202 
L 532.971634 193.203483 
L 536.356959 191.246306 
L 539.646507 191.662021 
L 542.99608 190.308815 
L 546.322693 191.040653 
L 549.668657 190.293371 
L 556.389451 185.464472 
L 559.680639 182.098298 
L 563.059732 181.432321 
L 566.407665 181.750658 
L 569.718206 180.565325 
L 573.067778 177.369751 
L 576.443591 175.12364 
L 579.842365 176.257504 
L 583.173569 172.200159 
L 586.464757 169.822039 
L 589.827778 171.56963 
L 593.137007 172.241995 
L 596.537748 179.383069 
L 599.827624 181.372697 
L 603.131932 179.205225 
L 606.507089 178.318613 
L 609.870438 180.225449 
L 613.198691 182.591551 
L 616.509231 183.171242 
L 619.840108 176.296563 
L 623.194929 172.70588 
L 626.541877 173.074146 
L 629.871442 175.975515 
L 633.213471 176.987412 
L 636.514499 176.421143 
L 639.822743 173.385234 
L 643.211676 171.349877 
L 646.504833 170.928371 
L 649.863917 173.130538 
L 653.243011 170.655936 
L 656.637848 171.796593 
L 660.024485 170.958191 
L 663.357986 168.815554 
L 666.679022 169.370524 
L 670.015475 169.043857 
L 673.305679 167.082978 
L 676.630651 164.527383 
L 679.95792 167.276566 
L 683.249108 169.776943 
L 686.542592 169.949555 
L 689.894789 165.719214 
L 693.177449 162.931604 
L 696.577862 163.591689 
L 699.868067 162.124581 
L 703.168111 162.835024 
L 706.485867 163.10381 
L 709.797064 157.483048 
L 713.203709 157.180595 
L 716.574602 157.901121 
L 719.903183 159.841814 
L 723.263251 165.389649 
L 726.648577 164.367262 
L 729.981093 163.640034 
L 733.323122 166.936565 
L 736.671711 171.487413 
L 740.0449 173.055445 
L 743.430225 170.301488 
L 746.765037 165.448978 
L 750.054258 164.903181 
L 753.410718 165.85876 
L 756.750451 167.673298 
L 760.050167 168.45672 
L 763.410236 167.309374 
L 766.776537 166.29466 
L 770.057557 164.99615 
L 773.342185 165.914656 
L 773.342185 165.914656 
" clip-path="url(#pb31de94663)" style="fill: none; stroke: #1f77b4; stroke-opacity: 0.9; stroke-width: 2.5; stroke-linecap: square"/>
   </g>
   <g id="line2d_20">
    <path d="M 108.131201 384.48 
L 140.931562 384.48 
L 144.211598 374.062087 
L 147.601515 376.266879 
L 150.994712 377.98507 
L 154.383317 379.331427 
L 157.663353 380.390965 
L 160.995542 375.555896 
L 164.396283 375.962033 
L 167.804241 374.878004 
L 171.173494 375.418636 
L 174.552587 366.056558 
L 177.957264 369.768637 
L 181.2373 372.728381 
L 184.574737 375.089856 
L 187.967606 376.975007 
L 191.348011 367.358943 
L 194.7048 369.402094 
L 198.115381 372.42352 
L 201.429858 374.838553 
L 204.739086 365.667489 
L 208.028306 362.496851 
L 211.411991 362.73567 
L 214.800925 355.992262 
L 218.161978 361.6927 
L 221.501054 366.252009 
L 224.821763 369.898791 
L 228.212664 354.79311 
L 231.552725 360.731722 
L 234.908857 365.482167 
L 238.253182 369.282238 
L 241.589963 372.322114 
L 244.898207 374.753898 
L 248.213339 340.660797 
L 251.603913 300.912472 
L 254.996126 306.538222 
L 258.314866 317.968976 
L 261.676575 325.727397 
L 264.964811 337.47818 
L 268.335048 337.176539 
L 271.677077 346.637366 
L 275.040754 354.205979 
L 278.402135 360.260839 
L 281.707755 349.858595 
L 284.995663 352.624892 
L 288.348516 346.521885 
L 291.731217 338.867479 
L 295.050942 347.99001 
L 298.408715 326.181956 
L 301.740575 317.051547 
L 305.07834 319.449241 
L 308.398392 322.753397 
L 311.79815 319.852715 
L 315.177899 332.778182 
L 318.56224 315.398535 
L 321.872124 326.442834 
L 325.262697 332.506269 
L 328.596198 337.357017 
L 331.943475 346.781616 
L 335.231711 350.163293 
L 338.619988 355.640636 
L 341.989897 360.022509 
L 345.312246 362.142007 
L 348.592282 356.907606 
L 351.915614 341.632084 
L 355.321604 340.499667 
L 358.686592 342.365734 
L 362.041085 342.472587 
L 365.404106 338.40007 
L 368.741215 347.616056 
L 372.067171 354.988845 
L 375.442656 360.887076 
L 378.741389 365.605661 
L 382.076201 358.292528 
L 385.453654 363.530023 
L 388.757635 367.720018 
L 392.132136 361.370015 
L 395.481708 353.518012 
L 398.821769 326.446409 
L 402.203486 338.053128 
L 405.540595 329.320501 
L 408.847199 325.106401 
L 412.213828 321.73512 
L 415.51092 319.038096 
L 418.852621 318.266477 
L 422.149385 309.333181 
L 425.543567 298.028544 
L 428.881659 305.616836 
L 432.200728 307.529469 
L 435.55358 318.761575 
L 438.886097 318.04526 
L 442.280934 329.946208 
L 445.68102 333.922967 
L 449.053553 309.384375 
L 452.369341 314.7015 
L 455.683817 328.6572 
L 458.987798 332.89176 
L 462.386571 341.823408 
L 465.776488 325.406727 
L 472.503186 310.359906 
L 475.838327 307.165924 
L 479.170187 310.154739 
L 482.556825 305.615792 
L 485.859493 320.002633 
L 489.139857 323.196107 
L 492.501238 335.452886 
L 495.895091 345.258309 
L 499.192183 343.400647 
L 502.483699 336.370517 
L 505.822776 345.992414 
L 509.14742 345.373931 
L 512.54685 346.265145 
L 515.913807 317.872115 
L 519.2683 329.807692 
L 522.601144 333.812154 
L 525.947437 331.471723 
L 529.312098 332.371379 
L 532.710871 330.319103 
L 536.044044 330.063282 
L 539.387056 334.016626 
L 542.752045 331.635301 
L 546.083906 333.88824 
L 549.435119 337.076593 
L 552.789612 335.469274 
L 556.177233 341.113419 
L 559.533694 345.628735 
L 562.858666 346.468988 
L 566.245959 347.141191 
L 569.539444 343.520952 
L 572.830304 350.326762 
L 579.540929 350.147928 
L 582.937407 344.540342 
L 586.340116 334.510273 
L 589.673617 329.258218 
L 593.046806 322.284574 
L 596.415731 330.565659 
L 599.763991 327.488528 
L 603.151941 337.500822 
L 606.535298 346.896658 
L 609.857318 341.939326 
L 613.140306 332.42946 
L 616.442975 328.979569 
L 619.765979 331.763655 
L 623.099152 329.832924 
L 626.490709 333.832339 
L 629.844874 328.715871 
L 633.160006 321.850696 
L 636.490555 330.218557 
L 639.85456 327.210846 
L 643.224797 326.190677 
L 646.568465 332.304541 
L 649.921318 334.423633 
L 653.261379 340.276906 
L 656.588319 336.643525 
L 659.990373 336.50882 
L 663.342897 339.173056 
L 666.710182 339.918445 
L 670.078451 339.128756 
L 673.393256 326.023005 
L 676.712652 315.538403 
L 680.053697 325.168722 
L 683.39999 332.872978 
L 686.789907 326.562382 
L 690.095527 325.671906 
L 693.471012 308.327525 
L 696.873722 309.69802 
L 700.261343 299.706416 
L 703.556795 305.573133 
L 706.939824 303.336505 
L 710.270373 289.073204 
L 713.613057 302.610563 
L 716.917038 298.19445 
L 720.315155 308.52156 
L 723.674896 309.853249 
L 726.968708 309.532599 
L 730.348785 314.820079 
L 733.712134 328.752063 
L 737.055475 331.581651 
L 740.431288 336.61732 
L 743.809725 330.943856 
L 747.172418 331.949085 
L 750.493126 331.367268 
L 753.788251 329.515814 
L 757.187024 326.648652 
L 760.533645 309.108921 
L 763.91733 320.025137 
L 767.279367 321.828109 
L 770.571867 326.042487 
L 773.886015 332.18599 
L 773.886015 332.18599 
" clip-path="url(#pb31de94663)" style="fill: none; stroke: #ff7f0e; stroke-opacity: 0.9; stroke-width: 2.5; stroke-linecap: square"/>
   </g>
   <g id="line2d_21">
    <path d="M 108.131201 384.48 
L 168.036139 384.48 
L 171.446721 383.077834 
L 174.834014 383.360878 
L 178.237379 373.812246 
L 181.635168 375.958466 
L 185.032958 377.670859 
L 188.440259 379.037852 
L 191.840673 380.129581 
L 195.225342 381.001774 
L 198.584755 370.589278 
L 201.920551 371.98358 
L 205.319981 374.485962 
L 208.709242 376.486751 
L 212.084727 378.086668 
L 215.433972 359.94984 
L 218.829137 345.444517 
L 222.160341 343.548845 
L 225.50729 337.873235 
L 228.841119 337.492489 
L 232.23858 327.483913 
L 235.643913 326.408952 
L 238.974462 336.638521 
L 242.353883 336.504803 
L 245.708048 343.328423 
L 249.098949 341.856639 
L 252.444258 340.679247 
L 259.147012 355.339229 
L 262.513313 351.465275 
L 265.821557 353.910275 
L 269.179002 355.866255 
L 272.49807 343.570828 
L 275.883723 351.752756 
L 279.247728 345.82415 
L 282.637973 352.169367 
L 286.00001 337.84141 
L 289.395832 338.853132 
L 292.766725 328.574468 
L 296.068081 327.281571 
L 299.443566 317.931234 
L 302.830859 315.994983 
L 306.211592 326.920003 
L 309.545749 337.046015 
L 312.887778 343.760818 
L 316.263591 339.430651 
L 319.627596 337.352519 
L 322.944368 345.39202 
L 326.332973 353.209619 
L 329.72453 352.533695 
L 333.059999 342.290953 
L 336.45582 346.570764 
L 339.806377 345.836611 
L 343.16415 342.477288 
L 346.44681 335.631829 
L 349.739966 319.067461 
L 353.078387 304.429969 
L 356.466008 306.579975 
L 359.787701 299.983979 
L 363.100209 300.251184 
L 366.43535 307.394947 
L 369.78033 315.881958 
L 373.106287 312.969567 
L 376.438803 321.727653 
L 379.785424 314.874123 
L 383.169765 327.409299 
L 386.49605 323.577439 
L 389.785598 319.125951 
L 393.177483 323.880761 
L 399.813652 323.243287 
L 403.118288 316.08663 
L 406.475733 315.905304 
L 409.796442 294.970245 
L 413.156839 310.100196 
L 416.533636 306.958156 
L 419.876648 316.918525 
L 423.216709 315.184819 
L 426.541025 326.271855 
L 429.867638 326.825484 
L 433.169322 305.092387 
L 436.477239 308.49591 
L 439.869124 319.534728 
L 443.265929 317.277782 
L 446.58795 309.928226 
L 449.995251 304.04858 
L 453.37336 303.502864 
L 456.663892 305.838292 
L 460.060698 307.706634 
L 463.452583 310.587307 
L 466.82774 319.821845 
L 470.190433 314.735476 
L 473.533117 316.210381 
L 476.880066 309.074304 
L 480.206023 317.225444 
L 483.502787 311.272356 
L 486.859248 314.825884 
L 490.224565 313.510707 
L 493.525593 324.932566 
L 496.826949 324.368052 
L 500.136834 329.460442 
L 503.511663 321.060354 
L 506.798587 330.972283 
L 510.120607 326.427826 
L 513.468212 314.476262 
L 516.833857 321.54701 
L 520.204422 311.957607 
L 523.550715 308.444085 
L 526.899959 308.405268 
L 530.255436 313.918214 
L 533.561385 303.082572 
L 536.860445 281.940057 
L 540.209362 281.658046 
L 543.521542 288.362437 
L 546.874395 293.72595 
L 550.261032 298.01676 
L 553.604373 282.045408 
L 556.889001 296.988326 
L 560.189701 290.924662 
L 563.568138 279.143729 
L 566.907871 280.806984 
L 570.28598 272.435587 
L 573.645065 274.05447 
L 576.949373 278.121575 
L 580.284514 270.28726 
L 583.612438 282.037808 
L 586.993827 296.982246 
L 590.321752 306.165797 
L 593.617204 295.494637 
L 596.912328 292.501709 
L 600.200564 276.247369 
L 603.539969 286.805895 
L 606.901678 285.550716 
L 610.272571 297.020573 
L 613.610335 288.178457 
L 617.010093 297.736766 
L 620.381314 297.067412 
L 623.665286 289.60193 
L 627.010595 290.559543 
L 630.40412 294.097634 
L 633.761237 288.612108 
L 637.074729 291.153686 
L 640.471862 297.344949 
L 643.757802 310.613959 
L 647.160184 307.369167 
L 650.540261 300.615333 
L 653.820625 309.072266 
L 657.170526 295.047813 
L 660.494842 282.44225 
L 663.871967 293.1478 
L 667.225804 286.46624 
L 670.599321 283.892991 
L 673.969558 277.676392 
L 677.316179 264.387115 
L 680.615567 264.843693 
L 683.973996 261.050955 
L 687.286832 271.876764 
L 690.570804 263.905411 
L 693.925297 256.142329 
L 697.296518 265.177863 
L 700.661179 282.108291 
L 703.9832 279.020633 
L 707.370493 276.550507 
L 710.699073 282.890406 
L 713.998462 272.716324 
L 717.365747 271.50706 
L 720.760912 266.381648 
L 724.069484 263.667318 
L 727.367888 268.425855 
L 730.763054 270.846684 
L 734.068674 270.011348 
L 737.363798 259.641078 
L 740.750435 265.204863 
L 744.062616 282.129891 
L 747.443021 280.423912 
L 750.800138 276.28713 
L 754.120846 278.521704 
L 757.495019 270.607363 
L 760.800968 264.275891 
L 764.175469 260.596713 
L 767.54997 263.19737 
L 770.879862 272.207896 
L 774.213363 271.100317 
L 777.6 284.074254 
L 777.6 284.074254 
" clip-path="url(#pb31de94663)" style="fill: none; stroke: #2ca02c; stroke-opacity: 0.9; stroke-width: 2.5; stroke-linecap: square"/>
   </g>
   <g id="line2d_22">
    <path d="M 108.131201 384.48 
L 154.051706 384.48 
L 157.453103 383.82178 
L 164.270986 383.476802 
L 167.670415 382.382283 
L 174.230487 383.144491 
L 177.638445 382.769131 
L 181.047386 382.1481 
L 184.405487 378.760328 
L 187.685523 379.908601 
L 191.069864 378.259126 
L 194.3499 379.506316 
L 197.756874 379.221117 
L 201.165487 379.954182 
L 204.557372 378.298526 
L 207.837408 379.536047 
L 211.117444 380.525621 
L 214.51917 379.076655 
L 217.887439 375.997763 
L 221.28326 376.734971 
L 224.563296 378.28448 
L 227.972565 378.884047 
L 231.349034 375.844606 
L 234.759288 376.932174 
L 238.165605 377.802162 
L 241.537154 374.97943 
L 244.909359 372.721352 
L 248.29862 369.220843 
L 251.622937 365.235842 
L 255.010886 364.92666 
L 258.41786 359.597142 
L 261.752344 356.577476 
L 265.065837 357.040452 
L 268.392449 354.212311 
L 271.721686 352.269668 
L 275.050922 347.836915 
L 278.406727 347.80907 
L 281.737276 350.985279 
L 285.120961 353.526238 
L 288.50727 356.518543 
L 291.857171 355.394061 
L 295.211336 354.814324 
L 298.492356 350.512372 
L 301.840288 348.670047 
L 305.209541 353.273276 
L 308.600443 333.972597 
L 311.98052 340.23593 
L 315.316972 342.687823 
L 318.600616 339.211949 
L 321.892132 337.070942 
L 325.212841 338.556601 
L 328.549622 339.745128 
L 331.933635 345.493642 
L 335.290752 345.614606 
L 338.660989 349.869378 
L 341.993177 343.547501 
L 345.359478 347.256155 
L 348.702163 349.26354 
L 352.07076 350.549601 
L 355.445589 348.403681 
L 358.790898 350.821253 
L 362.186719 354.354541 
L 365.567452 355.901786 
L 368.943593 358.099121 
L 372.282998 356.978374 
L 375.638147 356.081776 
L 378.957543 356.324036 
L 382.349428 360.675844 
L 385.636024 353.922214 
L 388.918684 353.636848 
L 392.278753 347.177478 
L 395.642758 350.479982 
L 399.010699 340.955986 
L 402.394056 334.260789 
L 405.761341 340.146631 
L 409.069586 340.057612 
L 412.384718 337.747474 
L 415.704442 339.097826 
L 419.056639 343.376568 
L 422.349139 344.560639 
L 425.699696 348.066665 
L 429.061405 351.831024 
L 432.401138 352.283743 
L 435.774327 348.866994 
L 439.15834 352.791134 
L 442.475112 349.853369 
L 445.847645 345.382695 
L 449.174258 339.034155 
L 452.489062 340.127171 
L 455.88062 344.51989 
L 459.235768 343.271912 
L 462.587637 343.837222 
L 465.880793 340.771162 
L 469.211342 339.277852 
L 472.557307 341.281666 
L 475.878999 340.325948 
L 479.2535 334.372759 
L 482.602745 330.534207 
L 485.923453 332.367673 
L 489.232354 334.793985 
L 492.634407 334.875188 
L 495.989228 339.998458 
L 499.399481 348.255074 
L 502.784479 351.981751 
L 506.15406 353.683709 
L 509.553161 351.218967 
L 512.943078 347.399174 
L 516.314955 349.697801 
L 519.642224 351.216856 
L 522.9895 344.009485 
L 526.329561 349.544819 
L 529.670278 350.454778 
L 532.971634 346.065207 
L 536.356959 340.504166 
L 539.646507 330.819332 
L 542.99608 326.767465 
L 546.322693 329.354279 
L 549.668657 334.942039 
L 553.038894 329.141632 
L 556.389451 334.771921 
L 559.680639 335.757844 
L 563.059732 336.262275 
L 566.407665 340.788281 
L 569.718206 341.850317 
L 573.067778 340.780869 
L 576.443591 337.200696 
L 579.842365 335.260556 
L 583.173569 339.347214 
L 586.464757 328.661771 
L 589.827778 327.505417 
L 593.137007 330.584334 
L 596.537748 331.815467 
L 599.827624 332.433143 
L 603.131932 333.886821 
L 606.507089 330.453457 
L 609.870438 332.942766 
L 613.198691 333.654828 
L 616.509231 336.143555 
L 619.840108 336.855151 
L 623.194929 330.672121 
L 626.541877 329.729697 
L 629.871442 331.724065 
L 633.213471 331.803252 
L 636.514499 330.82414 
L 639.822743 332.599619 
L 643.211676 329.115696 
L 646.504833 329.633634 
L 649.863917 328.282907 
L 653.243011 326.278326 
L 656.637848 326.83066 
L 660.024485 328.504528 
L 663.357986 331.063776 
L 666.679022 330.967021 
L 670.015475 332.074233 
L 673.305679 329.441693 
L 676.630651 318.471355 
L 679.95792 310.729085 
L 683.249108 315.564037 
L 686.542592 319.112152 
L 689.894789 326.108645 
L 693.177449 324.669223 
L 699.868067 328.720918 
L 703.168111 328.678119 
L 706.485867 325.978496 
L 709.797064 326.164335 
L 713.203709 326.123468 
L 716.574602 324.858774 
L 723.263251 322.729615 
L 726.648577 319.987692 
L 729.981093 315.330153 
L 733.323122 310.988123 
L 736.671711 311.826498 
L 740.0449 311.573199 
L 743.430225 313.218559 
L 746.765037 308.374846 
L 750.054258 312.081415 
L 753.410718 310.853133 
L 756.750451 312.026506 
L 760.050167 310.193205 
L 763.410236 309.034564 
L 766.776537 310.879651 
L 770.057557 306.811721 
L 773.342185 311.150761 
L 773.342185 311.150761 
" clip-path="url(#pb31de94663)" style="fill: none; stroke: #d62728; stroke-opacity: 0.9; stroke-width: 2.5; stroke-linecap: square"/>
   </g>
   <g id="patch_3">
    <path d="M 108 384.48 
L 108 51.84 
" style="fill: none; stroke: #000000; stroke-width: 0.8; stroke-linejoin: miter; stroke-linecap: square"/>
   </g>
   <g id="patch_4">
    <path d="M 108 384.48 
L 777.6 384.48 
" style="fill: none; stroke: #000000; stroke-width: 0.8; stroke-linejoin: miter; stroke-linecap: square"/>
   </g>
   <g id="text_12">
    <!-- 1o_10b_vs_1r -->
    <g transform="translate(395.090625 45.84) scale(0.14 -0.14)">
     <defs>
      <path id="DejaVuSans-5f" d="M 3263 -1063 
L 3263 -1509 
L -63 -1509 
L -63 -1063 
L 3263 -1063 
z
" transform="scale(0.015625)"/>
      <path id="DejaVuSans-62" d="M 3116 1747 
Q 3116 2381 2855 2742 
Q 2594 3103 2138 3103 
Q 1681 3103 1420 2742 
Q 1159 2381 1159 1747 
Q 1159 1113 1420 752 
Q 1681 391 2138 391 
Q 2594 391 2855 752 
Q 3116 1113 3116 1747 
z
M 1159 2969 
Q 1341 3281 1617 3432 
Q 1894 3584 2278 3584 
Q 2916 3584 3314 3078 
Q 3713 2572 3713 1747 
Q 3713 922 3314 415 
Q 2916 -91 2278 -91 
Q 1894 -91 1617 61 
Q 1341 213 1159 525 
L 1159 0 
L 581 0 
L 581 4863 
L 1159 4863 
L 1159 2969 
z
" transform="scale(0.015625)"/>
      <path id="DejaVuSans-76" d="M 191 3500 
L 800 3500 
L 1894 563 
L 2988 3500 
L 3597 3500 
L 2284 0 
L 1503 0 
L 191 3500 
z
" transform="scale(0.015625)"/>
      <path id="DejaVuSans-73" d="M 2834 3397 
L 2834 2853 
Q 2591 2978 2328 3040 
Q 2066 3103 1784 3103 
Q 1356 3103 1142 2972 
Q 928 2841 928 2578 
Q 928 2378 1081 2264 
Q 1234 2150 1697 2047 
L 1894 2003 
Q 2506 1872 2764 1633 
Q 3022 1394 3022 966 
Q 3022 478 2636 193 
Q 2250 -91 1575 -91 
Q 1294 -91 989 -36 
Q 684 19 347 128 
L 347 722 
Q 666 556 975 473 
Q 1284 391 1588 391 
Q 1994 391 2212 530 
Q 2431 669 2431 922 
Q 2431 1156 2273 1281 
Q 2116 1406 1581 1522 
L 1381 1569 
Q 847 1681 609 1914 
Q 372 2147 372 2553 
Q 372 3047 722 3315 
Q 1072 3584 1716 3584 
Q 2034 3584 2315 3537 
Q 2597 3491 2834 3397 
z
" transform="scale(0.015625)"/>
     </defs>
     <use xlink:href="#DejaVuSans-31"/>
     <use xlink:href="#DejaVuSans-6f" x="63.623047"/>
     <use xlink:href="#DejaVuSans-5f" x="124.804688"/>
     <use xlink:href="#DejaVuSans-31" x="174.804688"/>
     <use xlink:href="#DejaVuSans-30" x="238.427734"/>
     <use xlink:href="#DejaVuSans-62" x="302.050781"/>
     <use xlink:href="#DejaVuSans-5f" x="365.527344"/>
     <use xlink:href="#DejaVuSans-76" x="415.527344"/>
     <use xlink:href="#DejaVuSans-73" x="474.707031"/>
     <use xlink:href="#DejaVuSans-5f" x="526.806641"/>
     <use xlink:href="#DejaVuSans-31" x="576.806641"/>
     <use xlink:href="#DejaVuSans-72" x="640.429688"/>
    </g>
   </g>
   <g id="legend_1">
    <g id="patch_5">
     <path d="M 677.648438 118.5525 
L 770.6 118.5525 
Q 772.6 118.5525 772.6 116.5525 
L 772.6 58.84 
Q 772.6 56.84 770.6 56.84 
L 677.648438 56.84 
Q 675.648438 56.84 675.648438 58.84 
L 675.648438 116.5525 
Q 675.648438 118.5525 677.648438 118.5525 
z
" style="fill: #ffffff; opacity: 0.8; stroke: #cccccc; stroke-linejoin: miter"/>
    </g>
    <g id="line2d_23">
     <path d="M 679.648438 64.938438 
L 689.648438 64.938438 
L 699.648438 64.938438 
" style="fill: none; stroke: #1f77b4; stroke-opacity: 0.9; stroke-width: 2.5; stroke-linecap: square"/>
    </g>
    <g id="text_13">
     <!-- Intent(Ours) -->
     <g transform="translate(707.648438 68.438438) scale(0.1 -0.1)">
      <defs>
       <path id="DejaVuSans-49" d="M 628 4666 
L 1259 4666 
L 1259 0 
L 628 0 
L 628 4666 
z
" transform="scale(0.015625)"/>
       <path id="DejaVuSans-28" d="M 1984 4856 
Q 1566 4138 1362 3434 
Q 1159 2731 1159 2009 
Q 1159 1288 1364 580 
Q 1569 -128 1984 -844 
L 1484 -844 
Q 1016 -109 783 600 
Q 550 1309 550 2009 
Q 550 2706 781 3412 
Q 1013 4119 1484 4856 
L 1984 4856 
z
" transform="scale(0.015625)"/>
       <path id="DejaVuSans-4f" d="M 2522 4238 
Q 1834 4238 1429 3725 
Q 1025 3213 1025 2328 
Q 1025 1447 1429 934 
Q 1834 422 2522 422 
Q 3209 422 3611 934 
Q 4013 1447 4013 2328 
Q 4013 3213 3611 3725 
Q 3209 4238 2522 4238 
z
M 2522 4750 
Q 3503 4750 4090 4092 
Q 4678 3434 4678 2328 
Q 4678 1225 4090 567 
Q 3503 -91 2522 -91 
Q 1538 -91 948 565 
Q 359 1222 359 2328 
Q 359 3434 948 4092 
Q 1538 4750 2522 4750 
z
" transform="scale(0.015625)"/>
       <path id="DejaVuSans-75" d="M 544 1381 
L 544 3500 
L 1119 3500 
L 1119 1403 
Q 1119 906 1312 657 
Q 1506 409 1894 409 
Q 2359 409 2629 706 
Q 2900 1003 2900 1516 
L 2900 3500 
L 3475 3500 
L 3475 0 
L 2900 0 
L 2900 538 
Q 2691 219 2414 64 
Q 2138 -91 1772 -91 
Q 1169 -91 856 284 
Q 544 659 544 1381 
z
M 1991 3584 
L 1991 3584 
z
" transform="scale(0.015625)"/>
       <path id="DejaVuSans-29" d="M 513 4856 
L 1013 4856 
Q 1481 4119 1714 3412 
Q 1947 2706 1947 2009 
Q 1947 1309 1714 600 
Q 1481 -109 1013 -844 
L 513 -844 
Q 928 -128 1133 580 
Q 1338 1288 1338 2009 
Q 1338 2731 1133 3434 
Q 928 4138 513 4856 
z
" transform="scale(0.015625)"/>
      </defs>
      <use xlink:href="#DejaVuSans-49"/>
      <use xlink:href="#DejaVuSans-6e" x="29.492188"/>
      <use xlink:href="#DejaVuSans-74" x="92.871094"/>
      <use xlink:href="#DejaVuSans-65" x="132.080078"/>
      <use xlink:href="#DejaVuSans-6e" x="193.603516"/>
      <use xlink:href="#DejaVuSans-74" x="256.982422"/>
      <use xlink:href="#DejaVuSans-28" x="296.191406"/>
      <use xlink:href="#DejaVuSans-4f" x="335.205078"/>
      <use xlink:href="#DejaVuSans-75" x="413.916016"/>
      <use xlink:href="#DejaVuSans-72" x="477.294922"/>
      <use xlink:href="#DejaVuSans-73" x="518.408203"/>
      <use xlink:href="#DejaVuSans-29" x="570.507812"/>
     </g>
    </g>
    <g id="line2d_24">
     <path d="M 679.648438 79.616563 
L 689.648438 79.616563 
L 699.648438 79.616563 
" style="fill: none; stroke: #ff7f0e; stroke-opacity: 0.9; stroke-width: 2.5; stroke-linecap: square"/>
    </g>
    <g id="text_14">
     <!-- QMIX -->
     <g transform="translate(707.648438 83.116563) scale(0.1 -0.1)">
      <defs>
       <path id="DejaVuSans-51" d="M 2522 4238 
Q 1834 4238 1429 3725 
Q 1025 3213 1025 2328 
Q 1025 1447 1429 934 
Q 1834 422 2522 422 
Q 3209 422 3611 934 
Q 4013 1447 4013 2328 
Q 4013 3213 3611 3725 
Q 3209 4238 2522 4238 
z
M 3406 84 
L 4238 -825 
L 3475 -825 
L 2784 -78 
Q 2681 -84 2626 -87 
Q 2572 -91 2522 -91 
Q 1538 -91 948 567 
Q 359 1225 359 2328 
Q 359 3434 948 4092 
Q 1538 4750 2522 4750 
Q 3503 4750 4090 4092 
Q 4678 3434 4678 2328 
Q 4678 1516 4351 937 
Q 4025 359 3406 84 
z
" transform="scale(0.015625)"/>
       <path id="DejaVuSans-58" d="M 403 4666 
L 1081 4666 
L 2241 2931 
L 3406 4666 
L 4084 4666 
L 2584 2425 
L 4184 0 
L 3506 0 
L 2194 1984 
L 872 0 
L 191 0 
L 1856 2491 
L 403 4666 
z
" transform="scale(0.015625)"/>
      </defs>
      <use xlink:href="#DejaVuSans-51"/>
      <use xlink:href="#DejaVuSans-4d" x="78.710938"/>
      <use xlink:href="#DejaVuSans-49" x="164.990234"/>
      <use xlink:href="#DejaVuSans-58" x="194.482422"/>
     </g>
    </g>
    <g id="line2d_25">
     <path d="M 679.648438 94.294688 
L 689.648438 94.294688 
L 699.648438 94.294688 
" style="fill: none; stroke: #2ca02c; stroke-opacity: 0.9; stroke-width: 2.5; stroke-linecap: square"/>
    </g>
    <g id="text_15">
     <!-- MAIC -->
     <g transform="translate(707.648438 97.794688) scale(0.1 -0.1)">
      <defs>
       <path id="DejaVuSans-41" d="M 2188 4044 
L 1331 1722 
L 3047 1722 
L 2188 4044 
z
M 1831 4666 
L 2547 4666 
L 4325 0 
L 3669 0 
L 3244 1197 
L 1141 1197 
L 716 0 
L 50 0 
L 1831 4666 
z
" transform="scale(0.015625)"/>
       <path id="DejaVuSans-43" d="M 4122 4306 
L 4122 3641 
Q 3803 3938 3442 4084 
Q 3081 4231 2675 4231 
Q 1875 4231 1450 3742 
Q 1025 3253 1025 2328 
Q 1025 1406 1450 917 
Q 1875 428 2675 428 
Q 3081 428 3442 575 
Q 3803 722 4122 1019 
L 4122 359 
Q 3791 134 3420 21 
Q 3050 -91 2638 -91 
Q 1578 -91 968 557 
Q 359 1206 359 2328 
Q 359 3453 968 4101 
Q 1578 4750 2638 4750 
Q 3056 4750 3426 4639 
Q 3797 4528 4122 4306 
z
" transform="scale(0.015625)"/>
      </defs>
      <use xlink:href="#DejaVuSans-4d"/>
      <use xlink:href="#DejaVuSans-41" x="86.279297"/>
      <use xlink:href="#DejaVuSans-49" x="154.6875"/>
      <use xlink:href="#DejaVuSans-43" x="184.179688"/>
     </g>
    </g>
    <g id="line2d_26">
     <path d="M 679.648438 108.972813 
L 689.648438 108.972813 
L 699.648438 108.972813 
" style="fill: none; stroke: #d62728; stroke-opacity: 0.9; stroke-width: 2.5; stroke-linecap: square"/>
    </g>
    <g id="text_16">
     <!-- T2MAC -->
     <g transform="translate(707.648438 112.472813) scale(0.1 -0.1)">
      <use xlink:href="#DejaVuSans-54"/>
      <use xlink:href="#DejaVuSans-32" x="61.083984"/>
      <use xlink:href="#DejaVuSans-4d" x="124.707031"/>
      <use xlink:href="#DejaVuSans-41" x="210.986328"/>
      <use xlink:href="#DejaVuSans-43" x="277.644531"/>
     </g>
    </g>
   </g>
  </g>
 </g>
 <defs>
  <clipPath id="pb31de94663">
   <rect x="108" y="51.84" width="669.6" height="332.64"/>
  </clipPath>
 </defs>
</svg>
