<?xml version="1.0" encoding="utf-8" standalone="no"?>
<!DOCTYPE svg PUBLIC "-//W3C//DTD SVG 1.1//EN"
  "http://www.w3.org/Graphics/SVG/1.1/DTD/svg11.dtd">
<svg xmlns:xlink="http://www.w3.org/1999/xlink" width="864pt" height="432pt" viewBox="0 0 864 432" xmlns="http://www.w3.org/2000/svg" version="1.1">
 <metadata>
  <rdf:RDF xmlns:dc="http://purl.org/dc/elements/1.1/" xmlns:cc="http://creativecommons.org/ns#" xmlns:rdf="http://www.w3.org/1999/02/22-rdf-syntax-ns#">
   <cc:Work>
    <dc:type rdf:resource="http://purl.org/dc/dcmitype/StillImage"/>
    <dc:date>2026-04-18T20:31:54.390266</dc:date>
    <dc:format>image/svg+xml</dc:format>
    <dc:creator>
     <cc:Agent>
      <dc:title>Matplotlib v3.9.4, https://matplotlib.org/</dc:title>
     </cc:Agent>
    </dc:creator>
   </cc:Work>
  </rdf:RDF>
 </metadata>
 <defs>
  <style type="text/css">*{stroke-linejoin: round; stroke-linecap: butt}</style>
 </defs>
 <g id="figure_1">
  <g id="patch_1">
   <path d="M 0 432 
L 864 432 
L 864 0 
L 0 0 
z
" style="fill: #ffffff"/>
  </g>
  <g id="axes_1">
   <g id="patch_2">
    <path d="M 108 384.48 
L 777.6 384.48 
L 777.6 51.84 
L 108 51.84 
z
" style="fill: #ffffff"/>
   </g>
   <g id="matplotlib.axis_1">
    <g id="xtick_1">
     <g id="line2d_1">
      <path d="M 108 384.48 
L 108 51.84 
" clip-path="url(#pe09f50a089)" style="fill: none; stroke-dasharray: 2.96,1.28; stroke-dashoffset: 0; stroke: #b0b0b0; stroke-opacity: 0.5; stroke-width: 0.8"/>
     </g>
     <g id="line2d_2">
      <defs>
       <path id="m25a4cf0f56" d="M 0 0 
L 0 3.5 
" style="stroke: #000000; stroke-width: 0.8"/>
      </defs>
      <g>
       <use xlink:href="#m25a4cf0f56" x="108" y="384.48" style="stroke: #000000; stroke-width: 0.8"/>
      </g>
     </g>
     <g id="text_1">
      <!-- 0 -->
      <g transform="translate(104.81875 399.078438) scale(0.1 -0.1)">
       <defs>
        <path id="DejaVuSans-30" d="M 2034 4250 
Q 1547 4250 1301 3770 
Q 1056 3291 1056 2328 
Q 1056 1369 1301 889 
Q 1547 409 2034 409 
Q 2525 409 2770 889 
Q 3016 1369 3016 2328 
Q 3016 3291 2770 3770 
Q 2525 4250 2034 4250 
z
M 2034 4750 
Q 2819 4750 3233 4129 
Q 3647 3509 3647 2328 
Q 3647 1150 3233 529 
Q 2819 -91 2034 -91 
Q 1250 -91 836 529 
Q 422 1150 422 2328 
Q 422 3509 836 4129 
Q 1250 4750 2034 4750 
z
" transform="scale(0.015625)"/>
       </defs>
       <use xlink:href="#DejaVuSans-30"/>
      </g>
     </g>
    </g>
    <g id="xtick_2">
     <g id="line2d_3">
      <path d="M 436.917799 384.48 
L 436.917799 51.84 
" clip-path="url(#pe09f50a089)" style="fill: none; stroke-dasharray: 2.96,1.28; stroke-dashoffset: 0; stroke: #b0b0b0; stroke-opacity: 0.5; stroke-width: 0.8"/>
     </g>
     <g id="line2d_4">
      <g>
       <use xlink:href="#m25a4cf0f56" x="436.917799" y="384.48" style="stroke: #000000; stroke-width: 0.8"/>
      </g>
     </g>
     <g id="text_2">
      <!-- 1M -->
      <g transform="translate(429.422486 399.078438) scale(0.1 -0.1)">
       <defs>
        <path id="DejaVuSans-31" d="M 794 531 
L 1825 531 
L 1825 4091 
L 703 3866 
L 703 4441 
L 1819 4666 
L 2450 4666 
L 2450 531 
L 3481 531 
L 3481 0 
L 794 0 
L 794 531 
z
" transform="scale(0.015625)"/>
        <path id="DejaVuSans-4d" d="M 628 4666 
L 1569 4666 
L 2759 1491 
L 3956 4666 
L 4897 4666 
L 4897 0 
L 4281 0 
L 4281 4097 
L 3078 897 
L 2444 897 
L 1241 4097 
L 1241 0 
L 628 0 
L 628 4666 
z
" transform="scale(0.015625)"/>
       </defs>
       <use xlink:href="#DejaVuSans-31"/>
       <use xlink:href="#DejaVuSans-4d" x="63.623047"/>
      </g>
     </g>
    </g>
    <g id="xtick_3">
     <g id="line2d_5">
      <path d="M 765.835597 384.48 
L 765.835597 51.84 
" clip-path="url(#pe09f50a089)" style="fill: none; stroke-dasharray: 2.96,1.28; stroke-dashoffset: 0; stroke: #b0b0b0; stroke-opacity: 0.5; stroke-width: 0.8"/>
     </g>
     <g id="line2d_6">
      <g>
       <use xlink:href="#m25a4cf0f56" x="765.835597" y="384.48" style="stroke: #000000; stroke-width: 0.8"/>
      </g>
     </g>
     <g id="text_3">
      <!-- 2M -->
      <g transform="translate(758.340285 399.078438) scale(0.1 -0.1)">
       <defs>
        <path id="DejaVuSans-32" d="M 1228 531 
L 3431 531 
L 3431 0 
L 469 0 
L 469 531 
Q 828 903 1448 1529 
Q 2069 2156 2228 2338 
Q 2531 2678 2651 2914 
Q 2772 3150 2772 3378 
Q 2772 3750 2511 3984 
Q 2250 4219 1831 4219 
Q 1534 4219 1204 4116 
Q 875 4013 500 3803 
L 500 4441 
Q 881 4594 1212 4672 
Q 1544 4750 1819 4750 
Q 2544 4750 2975 4387 
Q 3406 4025 3406 3419 
Q 3406 3131 3298 2873 
Q 3191 2616 2906 2266 
Q 2828 2175 2409 1742 
Q 1991 1309 1228 531 
z
" transform="scale(0.015625)"/>
       </defs>
       <use xlink:href="#DejaVuSans-32"/>
       <use xlink:href="#DejaVuSans-4d" x="63.623047"/>
      </g>
     </g>
    </g>
    <g id="text_4">
     <!-- Training Step -->
     <g transform="translate(403.56 414.27625) scale(0.12 -0.12)">
      <defs>
       <path id="DejaVuSans-54" d="M -19 4666 
L 3928 4666 
L 3928 4134 
L 2272 4134 
L 2272 0 
L 1638 0 
L 1638 4134 
L -19 4134 
L -19 4666 
z
" transform="scale(0.015625)"/>
       <path id="DejaVuSans-72" d="M 2631 2963 
Q 2534 3019 2420 3045 
Q 2306 3072 2169 3072 
Q 1681 3072 1420 2755 
Q 1159 2438 1159 1844 
L 1159 0 
L 581 0 
L 581 3500 
L 1159 3500 
L 1159 2956 
Q 1341 3275 1631 3429 
Q 1922 3584 2338 3584 
Q 2397 3584 2469 3576 
Q 2541 3569 2628 3553 
L 2631 2963 
z
" transform="scale(0.015625)"/>
       <path id="DejaVuSans-61" d="M 2194 1759 
Q 1497 1759 1228 1600 
Q 959 1441 959 1056 
Q 959 750 1161 570 
Q 1363 391 1709 391 
Q 2188 391 2477 730 
Q 2766 1069 2766 1631 
L 2766 1759 
L 2194 1759 
z
M 3341 1997 
L 3341 0 
L 2766 0 
L 2766 531 
Q 2569 213 2275 61 
Q 1981 -91 1556 -91 
Q 1019 -91 701 211 
Q 384 513 384 1019 
Q 384 1609 779 1909 
Q 1175 2209 1959 2209 
L 2766 2209 
L 2766 2266 
Q 2766 2663 2505 2880 
Q 2244 3097 1772 3097 
Q 1472 3097 1187 3025 
Q 903 2953 641 2809 
L 641 3341 
Q 956 3463 1253 3523 
Q 1550 3584 1831 3584 
Q 2591 3584 2966 3190 
Q 3341 2797 3341 1997 
z
" transform="scale(0.015625)"/>
       <path id="DejaVuSans-69" d="M 603 3500 
L 1178 3500 
L 1178 0 
L 603 0 
L 603 3500 
z
M 603 4863 
L 1178 4863 
L 1178 4134 
L 603 4134 
L 603 4863 
z
" transform="scale(0.015625)"/>
       <path id="DejaVuSans-6e" d="M 3513 2113 
L 3513 0 
L 2938 0 
L 2938 2094 
Q 2938 2591 2744 2837 
Q 2550 3084 2163 3084 
Q 1697 3084 1428 2787 
Q 1159 2491 1159 1978 
L 1159 0 
L 581 0 
L 581 3500 
L 1159 3500 
L 1159 2956 
Q 1366 3272 1645 3428 
Q 1925 3584 2291 3584 
Q 2894 3584 3203 3211 
Q 3513 2838 3513 2113 
z
" transform="scale(0.015625)"/>
       <path id="DejaVuSans-67" d="M 2906 1791 
Q 2906 2416 2648 2759 
Q 2391 3103 1925 3103 
Q 1463 3103 1205 2759 
Q 947 2416 947 1791 
Q 947 1169 1205 825 
Q 1463 481 1925 481 
Q 2391 481 2648 825 
Q 2906 1169 2906 1791 
z
M 3481 434 
Q 3481 -459 3084 -895 
Q 2688 -1331 1869 -1331 
Q 1566 -1331 1297 -1286 
Q 1028 -1241 775 -1147 
L 775 -588 
Q 1028 -725 1275 -790 
Q 1522 -856 1778 -856 
Q 2344 -856 2625 -561 
Q 2906 -266 2906 331 
L 2906 616 
Q 2728 306 2450 153 
Q 2172 0 1784 0 
Q 1141 0 747 490 
Q 353 981 353 1791 
Q 353 2603 747 3093 
Q 1141 3584 1784 3584 
Q 2172 3584 2450 3431 
Q 2728 3278 2906 2969 
L 2906 3500 
L 3481 3500 
L 3481 434 
z
" transform="scale(0.015625)"/>
       <path id="DejaVuSans-20" transform="scale(0.015625)"/>
       <path id="DejaVuSans-53" d="M 3425 4513 
L 3425 3897 
Q 3066 4069 2747 4153 
Q 2428 4238 2131 4238 
Q 1616 4238 1336 4038 
Q 1056 3838 1056 3469 
Q 1056 3159 1242 3001 
Q 1428 2844 1947 2747 
L 2328 2669 
Q 3034 2534 3370 2195 
Q 3706 1856 3706 1288 
Q 3706 609 3251 259 
Q 2797 -91 1919 -91 
Q 1588 -91 1214 -16 
Q 841 59 441 206 
L 441 856 
Q 825 641 1194 531 
Q 1563 422 1919 422 
Q 2459 422 2753 634 
Q 3047 847 3047 1241 
Q 3047 1584 2836 1778 
Q 2625 1972 2144 2069 
L 1759 2144 
Q 1053 2284 737 2584 
Q 422 2884 422 3419 
Q 422 4038 858 4394 
Q 1294 4750 2059 4750 
Q 2388 4750 2728 4690 
Q 3069 4631 3425 4513 
z
" transform="scale(0.015625)"/>
       <path id="DejaVuSans-74" d="M 1172 4494 
L 1172 3500 
L 2356 3500 
L 2356 3053 
L 1172 3053 
L 1172 1153 
Q 1172 725 1289 603 
Q 1406 481 1766 481 
L 2356 481 
L 2356 0 
L 1766 0 
Q 1100 0 847 248 
Q 594 497 594 1153 
L 594 3053 
L 172 3053 
L 172 3500 
L 594 3500 
L 594 4494 
L 1172 4494 
z
" transform="scale(0.015625)"/>
       <path id="DejaVuSans-65" d="M 3597 1894 
L 3597 1613 
L 953 1613 
Q 991 1019 1311 708 
Q 1631 397 2203 397 
Q 2534 397 2845 478 
Q 3156 559 3463 722 
L 3463 178 
Q 3153 47 2828 -22 
Q 2503 -91 2169 -91 
Q 1331 -91 842 396 
Q 353 884 353 1716 
Q 353 2575 817 3079 
Q 1281 3584 2069 3584 
Q 2775 3584 3186 3129 
Q 3597 2675 3597 1894 
z
M 3022 2063 
Q 3016 2534 2758 2815 
Q 2500 3097 2075 3097 
Q 1594 3097 1305 2825 
Q 1016 2553 972 2059 
L 3022 2063 
z
" transform="scale(0.015625)"/>
       <path id="DejaVuSans-70" d="M 1159 525 
L 1159 -1331 
L 581 -1331 
L 581 3500 
L 1159 3500 
L 1159 2969 
Q 1341 3281 1617 3432 
Q 1894 3584 2278 3584 
Q 2916 3584 3314 3078 
Q 3713 2572 3713 1747 
Q 3713 922 3314 415 
Q 2916 -91 2278 -91 
Q 1894 -91 1617 61 
Q 1341 213 1159 525 
z
M 3116 1747 
Q 3116 2381 2855 2742 
Q 2594 3103 2138 3103 
Q 1681 3103 1420 2742 
Q 1159 2381 1159 1747 
Q 1159 1113 1420 752 
Q 1681 391 2138 391 
Q 2594 391 2855 752 
Q 3116 1113 3116 1747 
z
" transform="scale(0.015625)"/>
      </defs>
      <use xlink:href="#DejaVuSans-54"/>
      <use xlink:href="#DejaVuSans-72" x="46.333984"/>
      <use xlink:href="#DejaVuSans-61" x="87.447266"/>
      <use xlink:href="#DejaVuSans-69" x="148.726562"/>
      <use xlink:href="#DejaVuSans-6e" x="176.509766"/>
      <use xlink:href="#DejaVuSans-69" x="239.888672"/>
      <use xlink:href="#DejaVuSans-6e" x="267.671875"/>
      <use xlink:href="#DejaVuSans-67" x="331.050781"/>
      <use xlink:href="#DejaVuSans-20" x="394.527344"/>
      <use xlink:href="#DejaVuSans-53" x="426.314453"/>
      <use xlink:href="#DejaVuSans-74" x="489.791016"/>
      <use xlink:href="#DejaVuSans-65" x="529"/>
      <use xlink:href="#DejaVuSans-70" x="590.523438"/>
     </g>
    </g>
   </g>
   <g id="matplotlib.axis_2">
    <g id="ytick_1">
     <g id="line2d_7">
      <path d="M 108 384.48 
L 777.6 384.48 
" clip-path="url(#pe09f50a089)" style="fill: none; stroke-dasharray: 2.96,1.28; stroke-dashoffset: 0; stroke: #b0b0b0; stroke-opacity: 0.5; stroke-width: 0.8"/>
     </g>
     <g id="line2d_8">
      <defs>
       <path id="m630327ad0d" d="M 0 0 
L -3.5 0 
" style="stroke: #000000; stroke-width: 0.8"/>
      </defs>
      <g>
       <use xlink:href="#m630327ad0d" x="108" y="384.48" style="stroke: #000000; stroke-width: 0.8"/>
      </g>
     </g>
     <g id="text_5">
      <!-- 0.0 -->
      <g transform="translate(85.096875 388.279219) scale(0.1 -0.1)">
       <defs>
        <path id="DejaVuSans-2e" d="M 684 794 
L 1344 794 
L 1344 0 
L 684 0 
L 684 794 
z
" transform="scale(0.015625)"/>
       </defs>
       <use xlink:href="#DejaVuSans-30"/>
       <use xlink:href="#DejaVuSans-2e" x="63.623047"/>
       <use xlink:href="#DejaVuSans-30" x="95.410156"/>
      </g>
     </g>
    </g>
    <g id="ytick_2">
     <g id="line2d_9">
      <path d="M 108 317.952 
L 777.6 317.952 
" clip-path="url(#pe09f50a089)" style="fill: none; stroke-dasharray: 2.96,1.28; stroke-dashoffset: 0; stroke: #b0b0b0; stroke-opacity: 0.5; stroke-width: 0.8"/>
     </g>
     <g id="line2d_10">
      <g>
       <use xlink:href="#m630327ad0d" x="108" y="317.952" style="stroke: #000000; stroke-width: 0.8"/>
      </g>
     </g>
     <g id="text_6">
      <!-- 0.2 -->
      <g transform="translate(85.096875 321.751219) scale(0.1 -0.1)">
       <use xlink:href="#DejaVuSans-30"/>
       <use xlink:href="#DejaVuSans-2e" x="63.623047"/>
       <use xlink:href="#DejaVuSans-32" x="95.410156"/>
      </g>
     </g>
    </g>
    <g id="ytick_3">
     <g id="line2d_11">
      <path d="M 108 251.424 
L 777.6 251.424 
" clip-path="url(#pe09f50a089)" style="fill: none; stroke-dasharray: 2.96,1.28; stroke-dashoffset: 0; stroke: #b0b0b0; stroke-opacity: 0.5; stroke-width: 0.8"/>
     </g>
     <g id="line2d_12">
      <g>
       <use xlink:href="#m630327ad0d" x="108" y="251.424" style="stroke: #000000; stroke-width: 0.8"/>
      </g>
     </g>
     <g id="text_7">
      <!-- 0.4 -->
      <g transform="translate(85.096875 255.223219) scale(0.1 -0.1)">
       <defs>
        <path id="DejaVuSans-34" d="M 2419 4116 
L 825 1625 
L 2419 1625 
L 2419 4116 
z
M 2253 4666 
L 3047 4666 
L 3047 1625 
L 3713 1625 
L 3713 1100 
L 3047 1100 
L 3047 0 
L 2419 0 
L 2419 1100 
L 313 1100 
L 313 1709 
L 2253 4666 
z
" transform="scale(0.015625)"/>
       </defs>
       <use xlink:href="#DejaVuSans-30"/>
       <use xlink:href="#DejaVuSans-2e" x="63.623047"/>
       <use xlink:href="#DejaVuSans-34" x="95.410156"/>
      </g>
     </g>
    </g>
    <g id="ytick_4">
     <g id="line2d_13">
      <path d="M 108 184.896 
L 777.6 184.896 
" clip-path="url(#pe09f50a089)" style="fill: none; stroke-dasharray: 2.96,1.28; stroke-dashoffset: 0; stroke: #b0b0b0; stroke-opacity: 0.5; stroke-width: 0.8"/>
     </g>
     <g id="line2d_14">
      <g>
       <use xlink:href="#m630327ad0d" x="108" y="184.896" style="stroke: #000000; stroke-width: 0.8"/>
      </g>
     </g>
     <g id="text_8">
      <!-- 0.6 -->
      <g transform="translate(85.096875 188.695219) scale(0.1 -0.1)">
       <defs>
        <path id="DejaVuSans-36" d="M 2113 2584 
Q 1688 2584 1439 2293 
Q 1191 2003 1191 1497 
Q 1191 994 1439 701 
Q 1688 409 2113 409 
Q 2538 409 2786 701 
Q 3034 994 3034 1497 
Q 3034 2003 2786 2293 
Q 2538 2584 2113 2584 
z
M 3366 4563 
L 3366 3988 
Q 3128 4100 2886 4159 
Q 2644 4219 2406 4219 
Q 1781 4219 1451 3797 
Q 1122 3375 1075 2522 
Q 1259 2794 1537 2939 
Q 1816 3084 2150 3084 
Q 2853 3084 3261 2657 
Q 3669 2231 3669 1497 
Q 3669 778 3244 343 
Q 2819 -91 2113 -91 
Q 1303 -91 875 529 
Q 447 1150 447 2328 
Q 447 3434 972 4092 
Q 1497 4750 2381 4750 
Q 2619 4750 2861 4703 
Q 3103 4656 3366 4563 
z
" transform="scale(0.015625)"/>
       </defs>
       <use xlink:href="#DejaVuSans-30"/>
       <use xlink:href="#DejaVuSans-2e" x="63.623047"/>
       <use xlink:href="#DejaVuSans-36" x="95.410156"/>
      </g>
     </g>
    </g>
    <g id="ytick_5">
     <g id="line2d_15">
      <path d="M 108 118.368 
L 777.6 118.368 
" clip-path="url(#pe09f50a089)" style="fill: none; stroke-dasharray: 2.96,1.28; stroke-dashoffset: 0; stroke: #b0b0b0; stroke-opacity: 0.5; stroke-width: 0.8"/>
     </g>
     <g id="line2d_16">
      <g>
       <use xlink:href="#m630327ad0d" x="108" y="118.368" style="stroke: #000000; stroke-width: 0.8"/>
      </g>
     </g>
     <g id="text_9">
      <!-- 0.8 -->
      <g transform="translate(85.096875 122.167219) scale(0.1 -0.1)">
       <defs>
        <path id="DejaVuSans-38" d="M 2034 2216 
Q 1584 2216 1326 1975 
Q 1069 1734 1069 1313 
Q 1069 891 1326 650 
Q 1584 409 2034 409 
Q 2484 409 2743 651 
Q 3003 894 3003 1313 
Q 3003 1734 2745 1975 
Q 2488 2216 2034 2216 
z
M 1403 2484 
Q 997 2584 770 2862 
Q 544 3141 544 3541 
Q 544 4100 942 4425 
Q 1341 4750 2034 4750 
Q 2731 4750 3128 4425 
Q 3525 4100 3525 3541 
Q 3525 3141 3298 2862 
Q 3072 2584 2669 2484 
Q 3125 2378 3379 2068 
Q 3634 1759 3634 1313 
Q 3634 634 3220 271 
Q 2806 -91 2034 -91 
Q 1263 -91 848 271 
Q 434 634 434 1313 
Q 434 1759 690 2068 
Q 947 2378 1403 2484 
z
M 1172 3481 
Q 1172 3119 1398 2916 
Q 1625 2713 2034 2713 
Q 2441 2713 2670 2916 
Q 2900 3119 2900 3481 
Q 2900 3844 2670 4047 
Q 2441 4250 2034 4250 
Q 1625 4250 1398 4047 
Q 1172 3844 1172 3481 
z
" transform="scale(0.015625)"/>
       </defs>
       <use xlink:href="#DejaVuSans-30"/>
       <use xlink:href="#DejaVuSans-2e" x="63.623047"/>
       <use xlink:href="#DejaVuSans-38" x="95.410156"/>
      </g>
     </g>
    </g>
    <g id="ytick_6">
     <g id="line2d_17">
      <path d="M 108 51.84 
L 777.6 51.84 
" clip-path="url(#pe09f50a089)" style="fill: none; stroke-dasharray: 2.96,1.28; stroke-dashoffset: 0; stroke: #b0b0b0; stroke-opacity: 0.5; stroke-width: 0.8"/>
     </g>
     <g id="line2d_18">
      <g>
       <use xlink:href="#m630327ad0d" x="108" y="51.84" style="stroke: #000000; stroke-width: 0.8"/>
      </g>
     </g>
     <g id="text_10">
      <!-- 1.0 -->
      <g transform="translate(85.096875 55.639219) scale(0.1 -0.1)">
       <use xlink:href="#DejaVuSans-31"/>
       <use xlink:href="#DejaVuSans-2e" x="63.623047"/>
       <use xlink:href="#DejaVuSans-30" x="95.410156"/>
      </g>
     </g>
    </g>
    <g id="text_11">
     <!-- Battle Won Mean -->
     <g transform="translate(78.60125 269.232187) rotate(-90) scale(0.12 -0.12)">
      <defs>
       <path id="DejaVuSans-42" d="M 1259 2228 
L 1259 519 
L 2272 519 
Q 2781 519 3026 730 
Q 3272 941 3272 1375 
Q 3272 1813 3026 2020 
Q 2781 2228 2272 2228 
L 1259 2228 
z
M 1259 4147 
L 1259 2741 
L 2194 2741 
Q 2656 2741 2882 2914 
Q 3109 3088 3109 3444 
Q 3109 3797 2882 3972 
Q 2656 4147 2194 4147 
L 1259 4147 
z
M 628 4666 
L 2241 4666 
Q 2963 4666 3353 4366 
Q 3744 4066 3744 3513 
Q 3744 3084 3544 2831 
Q 3344 2578 2956 2516 
Q 3422 2416 3680 2098 
Q 3938 1781 3938 1306 
Q 3938 681 3513 340 
Q 3088 0 2303 0 
L 628 0 
L 628 4666 
z
" transform="scale(0.015625)"/>
       <path id="DejaVuSans-6c" d="M 603 4863 
L 1178 4863 
L 1178 0 
L 603 0 
L 603 4863 
z
" transform="scale(0.015625)"/>
       <path id="DejaVuSans-57" d="M 213 4666 
L 850 4666 
L 1831 722 
L 2809 4666 
L 3519 4666 
L 4500 722 
L 5478 4666 
L 6119 4666 
L 4947 0 
L 4153 0 
L 3169 4050 
L 2175 0 
L 1381 0 
L 213 4666 
z
" transform="scale(0.015625)"/>
       <path id="DejaVuSans-6f" d="M 1959 3097 
Q 1497 3097 1228 2736 
Q 959 2375 959 1747 
Q 959 1119 1226 758 
Q 1494 397 1959 397 
Q 2419 397 2687 759 
Q 2956 1122 2956 1747 
Q 2956 2369 2687 2733 
Q 2419 3097 1959 3097 
z
M 1959 3584 
Q 2709 3584 3137 3096 
Q 3566 2609 3566 1747 
Q 3566 888 3137 398 
Q 2709 -91 1959 -91 
Q 1206 -91 779 398 
Q 353 888 353 1747 
Q 353 2609 779 3096 
Q 1206 3584 1959 3584 
z
" transform="scale(0.015625)"/>
      </defs>
      <use xlink:href="#DejaVuSans-42"/>
      <use xlink:href="#DejaVuSans-61" x="68.603516"/>
      <use xlink:href="#DejaVuSans-74" x="129.882812"/>
      <use xlink:href="#DejaVuSans-74" x="169.091797"/>
      <use xlink:href="#DejaVuSans-6c" x="208.300781"/>
      <use xlink:href="#DejaVuSans-65" x="236.083984"/>
      <use xlink:href="#DejaVuSans-20" x="297.607422"/>
      <use xlink:href="#DejaVuSans-57" x="329.394531"/>
      <use xlink:href="#DejaVuSans-6f" x="422.396484"/>
      <use xlink:href="#DejaVuSans-6e" x="483.578125"/>
      <use xlink:href="#DejaVuSans-20" x="546.957031"/>
      <use xlink:href="#DejaVuSans-4d" x="578.744141"/>
      <use xlink:href="#DejaVuSans-65" x="665.023438"/>
      <use xlink:href="#DejaVuSans-61" x="726.546875"/>
      <use xlink:href="#DejaVuSans-6e" x="787.826172"/>
     </g>
    </g>
   </g>
   <g id="line2d_19">
    <path d="M 108.016446 384.48 
L 111.320754 373.392 
L 114.614208 364.303475 
L 117.912596 341.840782 
L 121.211312 332.755352 
L 124.501477 323.332985 
L 127.790984 303.451094 
L 131.087727 295.744384 
L 134.384141 294.727134 
L 137.687463 301.421465 
L 140.981903 290.482305 
L 144.280291 282.094219 
L 147.579008 271.379443 
L 154.183348 260.072074 
L 157.473513 255.554172 
L 160.76302 254.709108 
L 164.057789 264.879785 
L 167.362098 251.349151 
L 170.651276 244.633899 
L 173.955584 260.776972 
L 177.252656 280.339685 
L 180.548412 293.260661 
L 183.839235 300.896106 
L 187.129728 282.95053 
L 190.425485 272.622328 
L 193.726833 267.038603 
L 197.016997 266.575906 
L 200.31703 274.201806 
L 203.608839 273.637226 
L 206.906569 271.853933 
L 210.199694 263.769861 
L 213.499726 251.979294 
L 216.794167 245.212004 
L 220.085318 233.143906 
L 223.383377 236.801111 
L 226.686698 237.064638 
L 229.978508 230.621251 
L 233.27262 218.813119 
L 236.575941 216.021003 
L 239.873671 213.787443 
L 243.177321 202.68597 
L 246.477025 201.789035 
L 249.774754 194.418345 
L 253.064261 193.844412 
L 256.361004 185.401636 
L 259.663668 178.647521 
L 262.954162 175.905474 
L 269.558831 161.046236 
L 272.86281 159.163368 
L 276.164487 161.648798 
L 279.461559 151.662006 
L 282.754026 151.656005 
L 286.045836 152.98177 
L 289.335343 154.04238 
L 292.63998 164.204813 
L 295.930802 160.359679 
L 299.230177 162.605828 
L 302.528564 161.741621 
L 305.829912 159.719695 
L 309.127642 162.093839 
L 312.426359 165.323714 
L 315.717181 155.932564 
L 319.018858 164.386375 
L 322.318233 172.479982 
L 325.618594 174.963185 
L 328.917639 176.949747 
L 332.217672 177.208437 
L 335.507507 190.720993 
L 338.799317 186.894875 
L 342.091126 189.15622 
L 345.382278 182.981935 
L 348.683626 186.025868 
L 351.978066 191.122136 
L 355.275467 193.868587 
L 358.573197 192.074068 
L 361.865664 193.299575 
L 365.155829 188.95774 
L 368.457177 182.823152 
L 371.757538 192.551641 
L 375.056913 193.681633 
L 378.355629 193.255067 
L 381.649083 194.244374 
L 384.948457 192.374697 
L 388.249476 193.540078 
L 391.553456 187.81958 
L 394.84691 187.234863 
L 398.140035 189.42821 
L 401.441054 177.877289 
L 404.737468 171.297669 
L 408.029606 174.017334 
L 411.327665 178.854187 
L 414.624079 180.062548 
L 417.92444 190.343158 
L 421.219539 185.262044 
L 424.517598 174.544356 
L 427.813683 169.961886 
L 431.117004 174.27927 
L 434.417037 167.088695 
L 437.710819 166.658474 
L 441.013812 168.975419 
L 444.315489 180.142896 
L 447.613876 183.754637 
L 450.907659 182.652349 
L 454.21131 177.778839 
L 457.500488 175.210589 
L 460.799204 181.13935 
L 464.090027 181.890678 
L 467.384796 179.830624 
L 470.689762 167.538098 
L 473.983874 167.017997 
L 477.275355 163.940798 
L 480.575058 160.148477 
L 483.869828 157.114619 
L 487.172491 152.026416 
L 490.469563 155.939214 
L 493.767622 155.077772 
L 497.064365 159.710857 
L 500.357819 172.731246 
L 503.651602 173.833637 
L 506.942424 173.38499 
L 510.243114 177.017753 
L 513.539858 179.923964 
L 516.840548 183.579491 
L 520.136304 179.851111 
L 523.425482 178.19897 
L 526.714989 176.877257 
L 530.01535 181.142125 
L 533.306173 185.884579 
L 536.604889 187.017424 
L 539.898672 182.601458 
L 543.189166 175.077004 
L 546.487225 178.371364 
L 549.78923 181.006853 
L 553.089591 180.454122 
L 559.68242 168.747597 
L 562.974229 163.993915 
L 566.274261 160.19097 
L 569.563439 158.479177 
L 572.86084 154.448621 
L 576.151663 152.554735 
L 579.442814 153.700747 
L 582.742847 155.948116 
L 586.037287 156.415453 
L 589.334688 167.433803 
L 592.630116 165.604002 
L 595.930477 169.4624 
L 599.229194 172.549119 
L 602.534488 176.349056 
L 605.823666 179.389006 
L 609.121396 181.820966 
L 612.410903 170.460935 
L 615.713238 168.025707 
L 619.008994 159.424728 
L 622.302777 159.196742 
L 625.604783 156.353231 
L 628.898895 152.747864 
L 632.192349 149.863571 
L 635.495341 155.539496 
L 638.791426 162.741358 
L 642.092445 164.511168 
L 645.387873 160.604772 
L 648.688892 156.149097 
L 651.989911 160.567917 
L 655.290272 161.441852 
L 658.586686 164.802121 
L 661.875864 163.498657 
L 665.175896 158.464205 
L 668.472311 158.428323 
L 671.775632 153.077379 
L 675.075007 154.118863 
L 678.379315 154.95205 
L 681.669479 159.61028 
L 684.973788 151.361823 
L 688.267899 158.068657 
L 691.568918 159.442444 
L 694.858425 159.210914 
L 698.159115 153.703452 
L 701.450267 162.603082 
L 704.742405 163.069984 
L 708.039806 159.451825 
L 711.339838 159.218419 
L 714.633621 156.370574 
L 717.929378 155.42286 
L 721.219213 150.673008 
L 724.514312 150.864808 
L 727.803819 149.687684 
L 731.094641 150.076548 
L 734.385793 146.395959 
L 737.684838 143.451488 
L 740.977963 143.757028 
L 744.270759 149.323704 
L 747.5652 152.446481 
L 750.85997 154.944703 
L 754.158357 155.612722 
L 757.463323 156.147137 
L 760.765 151.25243 
L 764.068651 151.328345 
L 767.361118 146.066838 
L 770.651612 148.51043 
L 773.946052 153.126425 
L 777.250031 154.158099 
L 777.250031 154.158099 
" clip-path="url(#pe09f50a089)" style="fill: none; stroke: #1f77b4; stroke-opacity: 0.9; stroke-width: 2.5; stroke-linecap: square"/>
   </g>
   <g id="line2d_20">
    <path d="M 108.131567 384.48 
L 111.524354 384.48 
L 114.85991 339.037376 
L 118.253026 335.65073 
L 121.653378 346.053297 
L 125.003406 341.441747 
L 128.31495 336.549398 
L 131.714315 308.098199 
L 135.012703 287.322029 
L 138.368323 309.091055 
L 141.726902 313.455769 
L 145.05259 311.147171 
L 148.45656 310.240705 
L 151.870727 325.771621 
L 155.273053 326.449134 
L 158.669787 304.164038 
L 162.016525 285.149052 
L 165.399116 299.73398 
L 168.713292 294.430756 
L 172.097856 301.433339 
L 175.429135 301.41046 
L 178.829159 297.203325 
L 182.143334 281.300788 
L 185.504545 292.286509 
L 188.821024 305.230107 
L 192.208219 290.543698 
L 195.513185 287.146744 
L 202.212583 301.141171 
L 205.597805 306.727853 
L 208.93336 301.483088 
L 212.268258 306.99884 
L 215.635718 300.314835 
L 218.956801 317.156408 
L 222.334458 330.62659 
L 225.691722 319.217569 
L 229.076286 300.387167 
L 232.455588 283.938318 
L 235.796735 304.049996 
L 239.131632 320.138135 
L 242.422126 313.601814 
L 245.727421 326.392539 
L 249.023506 333.852539 
L 252.349523 343.978582 
L 255.652844 320.199831 
L 258.944654 295.633009 
L 262.235805 299.542516 
L 265.571032 315.144361 
L 268.885536 291.589068 
L 272.177675 299.079361 
L 275.522111 270.421162 
L 278.878059 289.0751 
L 282.192564 283.208037 
L 285.513318 293.760492 
L 288.878476 282.798342 
L 292.252843 276.800651 
L 295.629514 290.02056 
L 302.336148 277.733534 
L 305.679597 269.976815 
L 308.977656 259.61344 
L 312.341827 267.95476 
L 315.715208 253.837797 
L 319.060302 263.334243 
L 322.436314 265.387395 
L 325.779106 251.783911 
L 329.174195 254.76113 
L 332.568956 266.844908 
L 335.89267 254.335922 
L 339.240396 242.942736 
L 342.62496 243.530189 
L 345.985184 257.860153 
L 349.376984 274.868124 
L 352.756286 264.912499 
L 356.162887 280.51 
L 359.481339 276.356 
L 362.794199 259.172801 
L 366.096863 278.690241 
L 369.508398 261.040194 
L 372.818627 255.236154 
L 376.177207 257.522924 
L 379.548614 242.720338 
L 382.949624 243.352271 
L 386.255906 236.927818 
L 389.584554 248.420254 
L 392.955961 256.228204 
L 396.247442 277.720563 
L 399.626414 289.370451 
L 402.979402 279.286361 
L 406.327457 272.605089 
L 409.672551 271.418072 
L 413.048892 277.398458 
L 416.429838 266.936767 
L 419.836111 276.585414 
L 423.213767 274.602332 
L 426.57136 277.173866 
L 429.876984 286.161093 
L 433.174714 289.192874 
L 436.470141 279.144299 
L 439.821156 278.035439 
L 446.521869 265.073481 
L 449.859398 276.480785 
L 456.474922 261.583702 
L 459.809491 259.828961 
L 463.130574 266.741168 
L 466.448367 251.480936 
L 469.75728 260.062748 
L 473.143818 248.910197 
L 476.550091 242.760158 
L 479.879726 243.384127 
L 483.17614 252.199302 
L 486.507419 260.637441 
L 489.845277 272.931953 
L 493.246945 275.837563 
L 496.558818 249.056049 
L 499.911806 248.42084 
L 503.257229 229.894672 
L 506.665476 240.021738 
L 510.007609 239.80739 
L 513.330666 243.793912 
L 516.650433 258.07113 
L 519.968227 251.474905 
L 523.258392 247.583923 
L 526.663349 248.629138 
L 530.000878 238.37731 
L 533.290714 242.649848 
L 536.67166 244.681878 
L 540.003926 250.465502 
L 543.30034 237.0744 
L 546.619449 261.01152 
L 550.018486 262.143217 
L 553.348121 267.206574 
L 556.69157 265.713259 
L 560.022192 268.676607 
L 563.39327 269.661285 
L 566.780137 278.765028 
L 570.17424 263.872021 
L 573.470654 242.255617 
L 576.851271 241.594494 
L 580.216758 231.363596 
L 583.554616 234.266878 
L 586.900368 244.905503 
L 590.275064 252.030402 
L 593.662589 256.344321 
L 597.032023 258.409458 
L 600.414942 268.377566 
L 603.723855 263.878053 
L 607.027506 257.506442 
L 610.362403 263.497154 
L 613.666382 266.903723 
L 620.301641 250.464783 
L 623.705283 260.635827 
L 627.064191 268.772661 
L 630.458623 275.282129 
L 633.871145 273.559704 
L 637.226435 274.953763 
L 640.581397 291.31501 
L 643.902151 297.474008 
L 647.192645 280.225208 
L 650.538726 287.216167 
L 653.910791 278.948934 
L 660.705246 265.658118 
L 664.026658 253.386493 
L 667.394776 250.499195 
L 670.744804 257.891356 
L 674.110291 259.647086 
L 677.423151 261.051669 
L 680.828108 267.719335 
L 684.181754 266.123468 
L 687.539675 257.916775 
L 690.933449 255.509421 
L 694.254532 263.285536 
L 697.637452 270.892429 
L 701.021029 263.117942 
L 704.34573 256.898353 
L 707.678654 256.080682 
L 711.061245 258.198546 
L 714.416207 251.576838 
L 717.725449 254.595471 
L 721.017258 257.010377 
L 724.422215 274.188302 
L 727.823883 264.368642 
L 731.187396 263.442914 
L 734.490389 253.000332 
L 737.886794 251.576266 
L 741.260175 254.595014 
L 744.665461 251.466011 
L 748.010555 251.734808 
L 751.376371 250.563847 
L 754.677719 257.943078 
L 758.027089 258.302463 
L 761.413955 257.20397 
L 764.802137 256.325175 
L 768.110064 268.09614 
L 768.110064 268.09614 
" clip-path="url(#pe09f50a089)" style="fill: none; stroke: #ff7f0e; stroke-opacity: 0.9; stroke-width: 2.5; stroke-linecap: square"/>
   </g>
   <g id="line2d_21">
    <path d="M 108.131567 384.48 
L 111.505277 380.63 
L 114.879974 359.486557 
L 118.19382 349.172682 
L 121.501747 326.691517 
L 124.802766 342.355409 
L 128.220551 296.894477 
L 131.52749 282.96933 
L 134.865677 277.603239 
L 138.237742 264.284503 
L 141.546326 278.452635 
L 144.920365 268.480852 
L 148.247369 246.09818 
L 151.618447 240.253492 
L 154.972093 235.673655 
L 161.696488 251.059599 
L 165.053424 242.947547 
L 168.46759 260.41781 
L 171.885704 279.910989 
L 175.187052 288.429359 
L 178.593654 296.611863 
L 181.958154 305.924463 
L 185.307853 321.710116 
L 188.697022 300.921556 
L 192.071389 309.342696 
L 195.38096 313.291704 
L 198.724739 310.892723 
L 202.091541 290.929288 
L 205.468869 309.662621 
L 208.861985 299.668199 
L 212.262666 284.740733 
L 215.558094 296.379964 
L 218.910424 307.075394 
L 222.250584 312.856661 
L 225.649621 324.413079 
L 228.964125 333.656863 
L 232.344085 343.823602 
L 235.651682 342.252621 
L 239.002368 345.154482 
L 242.369499 333.614359 
L 245.722816 325.768819 
L 249.058042 337.511855 
L 252.405439 339.975618 
L 255.695604 333.630218 
L 259.004188 343.800529 
L 262.363425 345.006457 
L 265.748647 341.813094 
L 269.048351 337.872405 
L 272.359237 330.561819 
L 275.68657 335.801515 
L 279.008639 315.045022 
L 282.411294 309.527978 
L 285.729417 317.58843 
L 289.067604 318.492748 
L 292.428814 320.602206 
L 295.779171 294.569688 
L 299.101899 294.53375 
L 302.490081 269.556953 
L 305.856226 286.997589 
L 309.191123 298.178085 
L 312.576016 305.736476 
L 315.961896 309.011183 
L 319.271467 294.998938 
L 322.636625 276.85914 
L 325.939947 291.453318 
L 329.301815 308.67266 
L 332.659079 291.956124 
L 335.96865 281.354897 
L 339.311442 268.715916 
L 342.687125 250.28873 
L 345.980908 272.968986 
L 349.323042 256.463189 
L 352.727341 266.820552 
L 356.096775 266.790442 
L 359.41128 268.152353 
L 362.739928 265.083882 
L 366.101468 275.103106 
L 369.463336 292.820485 
L 372.779157 288.976387 
L 376.153196 277.585109 
L 379.483488 268.472086 
L 382.881209 270.883669 
L 386.254261 267.268935 
L 389.571068 278.237148 
L 392.927674 282.853718 
L 396.225404 272.686974 
L 399.593194 281.185579 
L 402.918552 267.194465 
L 406.291933 278.177572 
L 409.616635 291.122058 
L 412.916667 291.775645 
L 416.329189 295.070516 
L 419.669349 290.776412 
L 423.041414 292.88513 
L 426.363155 290.414104 
L 429.691146 275.963283 
L 433.091827 278.262627 
L 436.432974 257.926102 
L 439.747807 277.692881 
L 443.135661 286.576305 
L 446.528119 268.735044 
L 449.889001 275.252035 
L 453.234753 267.991628 
L 456.555836 262.183302 
L 459.906192 267.238643 
L 463.243392 271.282915 
L 466.648349 275.904331 
L 469.941474 260.197465 
L 473.288871 261.491973 
L 476.634952 252.825578 
L 479.993202 250.050462 
L 483.315272 253.374371 
L 486.678786 260.191497 
L 490.031116 235.153198 
L 493.396274 238.684558 
L 496.734132 241.509645 
L 500.069687 249.313716 
L 503.44537 245.854972 
L 506.749021 237.543977 
L 510.111218 244.755181 
L 513.425065 264.384144 
L 516.805682 259.297316 
L 520.209982 263.543852 
L 523.539945 265.555081 
L 526.865304 271.322064 
L 530.240988 264.847652 
L 533.532468 272.142121 
L 536.905191 266.889698 
L 540.205881 269.617758 
L 543.565448 270.414206 
L 546.856599 265.507365 
L 550.233269 265.739893 
L 553.636582 275.627915 
L 557.011278 265.520332 
L 560.325783 268.522266 
L 563.658707 255.677811 
L 567.048205 259.262248 
L 570.436058 256.585799 
L 573.750563 259.988639 
L 577.134798 257.166912 
L 580.46838 259.06753 
L 583.837485 250.886024 
L 587.22797 262.358819 
L 590.58951 265.993055 
L 593.931315 263.356443 
L 597.267199 261.247154 
L 600.603412 266.489724 
L 603.974162 262.36778 
L 607.315967 256.298223 
L 610.665008 261.144579 
L 613.979841 256.705663 
L 617.2779 246.224529 
L 620.59076 236.453623 
L 623.926644 228.636899 
L 627.292789 223.769518 
L 630.606965 219.875613 
L 633.984293 237.55049 
L 637.369186 232.286393 
L 640.678428 239.163115 
L 644.021219 254.366492 
L 647.38868 248.511195 
L 650.705158 241.054957 
L 654.023938 232.317966 
L 657.352587 222.556371 
L 660.693405 223.063098 
L 663.9987 213.766478 
L 667.305968 204.943184 
L 670.653365 210.358546 
L 674.0376 223.006836 
L 677.373813 244.213469 
L 680.690949 237.616776 
L 684.101827 246.199421 
L 687.430146 244.749537 
L 690.732152 251.90563 
L 694.041394 240.998504 
L 697.343399 246.132804 
L 700.7352 232.222243 
L 704.094108 215.549796 
L 707.444794 225.773837 
L 710.770153 238.11107 
L 714.139916 231.348855 
L 717.48172 239.799083 
L 720.812342 235.471267 
L 724.107441 244.483013 
L 727.465691 235.060411 
L 730.795326 241.382329 
L 734.16772 249.211863 
L 737.517748 248.545491 
L 740.882248 243.854394 
L 744.276022 248.417516 
L 747.588882 239.594011 
L 750.93891 236.69321 
L 754.310317 230.214566 
L 757.619888 226.417654 
L 760.99623 226.152124 
L 764.358098 223.167701 
L 767.699903 226.324161 
L 771.038748 228.849328 
L 774.420681 215.623461 
L 774.420681 215.623461 
" clip-path="url(#pe09f50a089)" style="fill: none; stroke: #2ca02c; stroke-opacity: 0.9; stroke-width: 2.5; stroke-linecap: square"/>
   </g>
   <g id="line2d_22">
    <path d="M 108.131567 384.48 
L 118.202701 384.48 
L 121.581016 335.00356 
L 124.940911 333.387103 
L 128.315937 346.317352 
L 131.734708 342.165279 
L 135.088354 339.133274 
L 138.406477 349.293573 
L 141.818341 322.118542 
L 145.190078 335.511168 
L 148.484189 334.141643 
L 151.858228 333.074375 
L 155.182271 343.730427 
L 158.527694 329.298107 
L 161.826411 330.663226 
L 165.175123 341.624033 
L 168.524164 325.007761 
L 171.854786 331.432278 
L 175.214352 342.140589 
L 178.617007 339.500994 
L 181.96243 336.002142 
L 185.342389 312.321887 
L 188.717086 293.418093 
L 192.101979 311.685685 
L 195.460229 326.279834 
L 198.808284 326.832937 
L 202.209952 327.275033 
L 205.536955 324.853029 
L 208.850802 336.790245 
L 212.188002 343.561561 
L 215.559738 332.334133 
L 218.874243 320.581346 
L 222.171973 333.366263 
L 225.472005 343.592329 
L 228.891763 351.771987 
L 232.209557 347.224645 
L 235.516497 354.676954 
L 238.908297 360.638356 
L 242.274442 354.318012 
L 245.629074 360.350923 
L 248.953776 361.018784 
L 252.363337 365.711282 
L 255.680145 369.465189 
L 259.047605 365.538015 
L 262.345335 359.624247 
L 265.700296 350.7352 
L 269.116766 332.535835 
L 272.498369 338.766757 
L 275.795441 338.2074 
L 279.173756 347.462004 
L 282.498786 331.303486 
L 285.819869 321.148729 
L 289.129769 319.954978 
L 292.441313 320.385984 
L 295.792657 299.940726 
L 299.10157 300.216582 
L 302.437454 285.191237 
L 305.74538 305.04902 
L 309.135536 311.233224 
L 312.437542 295.390563 
L 315.740535 309.050461 
L 319.055368 311.662371 
L 322.417237 319.2959 
L 325.820878 318.47272 
L 329.114003 327.516179 
L 332.436073 319.504942 
L 335.761761 313.095953 
L 339.125274 295.49476 
L 342.491419 300.817809 
L 345.840131 306.462247 
L 349.175029 312.363799 
L 352.518478 296.295037 
L 355.896464 308.38803 
L 359.283002 311.132424 
L 362.652107 325.80194 
L 366.004766 337.537552 
L 369.375186 328.908041 
L 372.773894 330.320433 
L 376.06373 317.590347 
L 379.401588 278.300276 
L 382.765759 251.026219 
L 386.131246 272.172975 
L 389.436212 276.61638 
L 392.837551 278.785104 
L 396.157647 281.906083 
L 399.450443 291.332866 
L 402.763632 290.558293 
L 406.170234 285.780635 
L 409.465003 290.274508 
L 412.872592 302.185607 
L 416.238079 302.012485 
L 419.610144 304.645989 
L 422.914781 299.822791 
L 426.219747 304.280233 
L 429.515175 307.846186 
L 432.852046 288.52295 
L 436.16359 288.310361 
L 439.461649 299.228289 
L 442.844897 295.488631 
L 446.238013 286.952904 
L 449.55186 280.124323 
L 452.902875 242.783458 
L 456.215077 237.858766 
L 459.57859 242.235013 
L 462.956905 233.262011 
L 466.320418 224.69761 
L 469.615517 208.144086 
L 476.350767 184.029816 
L 479.737633 196.399854 
L 483.077136 203.523882 
L 486.409731 195.363105 
L 489.755154 206.852483 
L 493.152217 200.797986 
L 496.532834 184.866388 
L 499.947001 206.77111 
L 503.281898 206.276886 
L 506.648701 228.057509 
L 510.001689 216.376009 
L 516.65142 217.018246 
L 520.018551 211.702598 
L 523.328122 212.994078 
L 526.710713 230.659263 
L 530.048571 240.63341 
L 533.421294 233.366727 
L 536.764414 242.799381 
L 540.08484 236.485506 
L 543.441117 245.294405 
L 546.784566 259.271524 
L 550.112228 277.38322 
L 553.442849 276.626575 
L 556.746828 280.179259 
L 560.059689 258.073409 
L 563.456094 259.792728 
L 566.840987 266.712182 
L 570.237392 261.159745 
L 573.600248 256.717796 
L 576.989088 260.094236 
L 580.317407 247.549389 
L 583.625333 244.443511 
L 586.935891 254.432808 
L 590.336572 251.336246 
L 593.692191 259.946996 
L 597.015906 279.309597 
L 600.389287 280.939678 
L 603.702476 262.839744 
L 607.027835 252.517796 
L 610.324249 251.190238 
L 613.645003 248.74219 
L 620.405908 247.711803 
L 623.733241 243.187443 
L 627.048074 229.865954 
L 630.432967 223.366764 
L 633.7876 215.39541 
L 637.150455 221.492328 
L 640.492589 209.737861 
L 643.822224 197.56229 
L 647.161726 179.505834 
L 650.482152 188.622668 
L 653.874939 195.916135 
L 657.208521 190.662909 
L 660.506579 185.074326 
L 663.903971 181.989462 
L 667.28097 168.43357 
L 670.652707 175.606854 
L 673.954712 193.819484 
L 677.252442 187.599586 
L 680.570565 175.69367 
L 683.942301 174.484937 
L 687.345614 166.58795 
L 690.737085 171.358361 
L 694.132833 169.630688 
L 697.476282 171.02055 
L 700.79276 181.834441 
L 704.101015 198.801553 
L 707.453675 201.287244 
L 710.793506 215.749795 
L 714.094196 196.827834 
L 717.384361 195.550269 
L 720.737349 188.984214 
L 724.125531 190.661371 
L 727.416025 200.319097 
L 730.790392 198.343279 
L 734.133184 203.692624 
L 737.536496 205.2001 
L 740.835542 193.932082 
L 744.232934 189.075667 
L 747.542505 212.910533 
L 750.879376 215.346427 
L 754.181382 218.681141 
L 757.502794 221.348912 
L 760.7923 212.39513 
L 764.098253 194.144102 
L 767.446308 218.351282 
L 770.831858 204.453027 
L 774.224646 208.580422 
L 777.6 209.110339 
L 777.6 209.110339 
" clip-path="url(#pe09f50a089)" style="fill: none; stroke: #d62728; stroke-opacity: 0.9; stroke-width: 2.5; stroke-linecap: square"/>
   </g>
   <g id="patch_3">
    <path d="M 108 384.48 
L 108 51.84 
" style="fill: none; stroke: #000000; stroke-width: 0.8; stroke-linejoin: miter; stroke-linecap: square"/>
   </g>
   <g id="patch_4">
    <path d="M 108 384.48 
L 777.6 384.48 
" style="fill: none; stroke: #000000; stroke-width: 0.8; stroke-linejoin: miter; stroke-linecap: square"/>
   </g>
   <g id="text_12">
    <!-- 1o_2r_vs_4r -->
    <g transform="translate(401.110625 45.84) scale(0.14 -0.14)">
     <defs>
      <path id="DejaVuSans-5f" d="M 3263 -1063 
L 3263 -1509 
L -63 -1509 
L -63 -1063 
L 3263 -1063 
z
" transform="scale(0.015625)"/>
      <path id="DejaVuSans-76" d="M 191 3500 
L 800 3500 
L 1894 563 
L 2988 3500 
L 3597 3500 
L 2284 0 
L 1503 0 
L 191 3500 
z
" transform="scale(0.015625)"/>
      <path id="DejaVuSans-73" d="M 2834 3397 
L 2834 2853 
Q 2591 2978 2328 3040 
Q 2066 3103 1784 3103 
Q 1356 3103 1142 2972 
Q 928 2841 928 2578 
Q 928 2378 1081 2264 
Q 1234 2150 1697 2047 
L 1894 2003 
Q 2506 1872 2764 1633 
Q 3022 1394 3022 966 
Q 3022 478 2636 193 
Q 2250 -91 1575 -91 
Q 1294 -91 989 -36 
Q 684 19 347 128 
L 347 722 
Q 666 556 975 473 
Q 1284 391 1588 391 
Q 1994 391 2212 530 
Q 2431 669 2431 922 
Q 2431 1156 2273 1281 
Q 2116 1406 1581 1522 
L 1381 1569 
Q 847 1681 609 1914 
Q 372 2147 372 2553 
Q 372 3047 722 3315 
Q 1072 3584 1716 3584 
Q 2034 3584 2315 3537 
Q 2597 3491 2834 3397 
z
" transform="scale(0.015625)"/>
     </defs>
     <use xlink:href="#DejaVuSans-31"/>
     <use xlink:href="#DejaVuSans-6f" x="63.623047"/>
     <use xlink:href="#DejaVuSans-5f" x="124.804688"/>
     <use xlink:href="#DejaVuSans-32" x="174.804688"/>
     <use xlink:href="#DejaVuSans-72" x="238.427734"/>
     <use xlink:href="#DejaVuSans-5f" x="279.541016"/>
     <use xlink:href="#DejaVuSans-76" x="329.541016"/>
     <use xlink:href="#DejaVuSans-73" x="388.720703"/>
     <use xlink:href="#DejaVuSans-5f" x="440.820312"/>
     <use xlink:href="#DejaVuSans-34" x="490.820312"/>
     <use xlink:href="#DejaVuSans-72" x="554.443359"/>
    </g>
   </g>
   <g id="legend_1">
    <g id="patch_5">
     <path d="M 677.648438 118.5525 
L 770.6 118.5525 
Q 772.6 118.5525 772.6 116.5525 
L 772.6 58.84 
Q 772.6 56.84 770.6 56.84 
L 677.648438 56.84 
Q 675.648438 56.84 675.648438 58.84 
L 675.648438 116.5525 
Q 675.648438 118.5525 677.648438 118.5525 
z
" style="fill: #ffffff; opacity: 0.8; stroke: #cccccc; stroke-linejoin: miter"/>
    </g>
    <g id="line2d_23">
     <path d="M 679.648438 64.938438 
L 689.648438 64.938438 
L 699.648438 64.938438 
" style="fill: none; stroke: #1f77b4; stroke-opacity: 0.9; stroke-width: 2.5; stroke-linecap: square"/>
    </g>
    <g id="text_13">
     <!-- Intent(Ours) -->
     <g transform="translate(707.648438 68.438438) scale(0.1 -0.1)">
      <defs>
       <path id="DejaVuSans-49" d="M 628 4666 
L 1259 4666 
L 1259 0 
L 628 0 
L 628 4666 
z
" transform="scale(0.015625)"/>
       <path id="DejaVuSans-28" d="M 1984 4856 
Q 1566 4138 1362 3434 
Q 1159 2731 1159 2009 
Q 1159 1288 1364 580 
Q 1569 -128 1984 -844 
L 1484 -844 
Q 1016 -109 783 600 
Q 550 1309 550 2009 
Q 550 2706 781 3412 
Q 1013 4119 1484 4856 
L 1984 4856 
z
" transform="scale(0.015625)"/>
       <path id="DejaVuSans-4f" d="M 2522 4238 
Q 1834 4238 1429 3725 
Q 1025 3213 1025 2328 
Q 1025 1447 1429 934 
Q 1834 422 2522 422 
Q 3209 422 3611 934 
Q 4013 1447 4013 2328 
Q 4013 3213 3611 3725 
Q 3209 4238 2522 4238 
z
M 2522 4750 
Q 3503 4750 4090 4092 
Q 4678 3434 4678 2328 
Q 4678 1225 4090 567 
Q 3503 -91 2522 -91 
Q 1538 -91 948 565 
Q 359 1222 359 2328 
Q 359 3434 948 4092 
Q 1538 4750 2522 4750 
z
" transform="scale(0.015625)"/>
       <path id="DejaVuSans-75" d="M 544 1381 
L 544 3500 
L 1119 3500 
L 1119 1403 
Q 1119 906 1312 657 
Q 1506 409 1894 409 
Q 2359 409 2629 706 
Q 2900 1003 2900 1516 
L 2900 3500 
L 3475 3500 
L 3475 0 
L 2900 0 
L 2900 538 
Q 2691 219 2414 64 
Q 2138 -91 1772 -91 
Q 1169 -91 856 284 
Q 544 659 544 1381 
z
M 1991 3584 
L 1991 3584 
z
" transform="scale(0.015625)"/>
       <path id="DejaVuSans-29" d="M 513 4856 
L 1013 4856 
Q 1481 4119 1714 3412 
Q 1947 2706 1947 2009 
Q 1947 1309 1714 600 
Q 1481 -109 1013 -844 
L 513 -844 
Q 928 -128 1133 580 
Q 1338 1288 1338 2009 
Q 1338 2731 1133 3434 
Q 928 4138 513 4856 
z
" transform="scale(0.015625)"/>
      </defs>
      <use xlink:href="#DejaVuSans-49"/>
      <use xlink:href="#DejaVuSans-6e" x="29.492188"/>
      <use xlink:href="#DejaVuSans-74" x="92.871094"/>
      <use xlink:href="#DejaVuSans-65" x="132.080078"/>
      <use xlink:href="#DejaVuSans-6e" x="193.603516"/>
      <use xlink:href="#DejaVuSans-74" x="256.982422"/>
      <use xlink:href="#DejaVuSans-28" x="296.191406"/>
      <use xlink:href="#DejaVuSans-4f" x="335.205078"/>
      <use xlink:href="#DejaVuSans-75" x="413.916016"/>
      <use xlink:href="#DejaVuSans-72" x="477.294922"/>
      <use xlink:href="#DejaVuSans-73" x="518.408203"/>
      <use xlink:href="#DejaVuSans-29" x="570.507812"/>
     </g>
    </g>
    <g id="line2d_24">
     <path d="M 679.648438 79.616563 
L 689.648438 79.616563 
L 699.648438 79.616563 
" style="fill: none; stroke: #ff7f0e; stroke-opacity: 0.9; stroke-width: 2.5; stroke-linecap: square"/>
    </g>
    <g id="text_14">
     <!-- QMIX -->
     <g transform="translate(707.648438 83.116563) scale(0.1 -0.1)">
      <defs>
       <path id="DejaVuSans-51" d="M 2522 4238 
Q 1834 4238 1429 3725 
Q 1025 3213 1025 2328 
Q 1025 1447 1429 934 
Q 1834 422 2522 422 
Q 3209 422 3611 934 
Q 4013 1447 4013 2328 
Q 4013 3213 3611 3725 
Q 3209 4238 2522 4238 
z
M 3406 84 
L 4238 -825 
L 3475 -825 
L 2784 -78 
Q 2681 -84 2626 -87 
Q 2572 -91 2522 -91 
Q 1538 -91 948 567 
Q 359 1225 359 2328 
Q 359 3434 948 4092 
Q 1538 4750 2522 4750 
Q 3503 4750 4090 4092 
Q 4678 3434 4678 2328 
Q 4678 1516 4351 937 
Q 4025 359 3406 84 
z
" transform="scale(0.015625)"/>
       <path id="DejaVuSans-58" d="M 403 4666 
L 1081 4666 
L 2241 2931 
L 3406 4666 
L 4084 4666 
L 2584 2425 
L 4184 0 
L 3506 0 
L 2194 1984 
L 872 0 
L 191 0 
L 1856 2491 
L 403 4666 
z
" transform="scale(0.015625)"/>
      </defs>
      <use xlink:href="#DejaVuSans-51"/>
      <use xlink:href="#DejaVuSans-4d" x="78.710938"/>
      <use xlink:href="#DejaVuSans-49" x="164.990234"/>
      <use xlink:href="#DejaVuSans-58" x="194.482422"/>
     </g>
    </g>
    <g id="line2d_25">
     <path d="M 679.648438 94.294688 
L 689.648438 94.294688 
L 699.648438 94.294688 
" style="fill: none; stroke: #2ca02c; stroke-opacity: 0.9; stroke-width: 2.5; stroke-linecap: square"/>
    </g>
    <g id="text_15">
     <!-- MAIC -->
     <g transform="translate(707.648438 97.794688) scale(0.1 -0.1)">
      <defs>
       <path id="DejaVuSans-41" d="M 2188 4044 
L 1331 1722 
L 3047 1722 
L 2188 4044 
z
M 1831 4666 
L 2547 4666 
L 4325 0 
L 3669 0 
L 3244 1197 
L 1141 1197 
L 716 0 
L 50 0 
L 1831 4666 
z
" transform="scale(0.015625)"/>
       <path id="DejaVuSans-43" d="M 4122 4306 
L 4122 3641 
Q 3803 3938 3442 4084 
Q 3081 4231 2675 4231 
Q 1875 4231 1450 3742 
Q 1025 3253 1025 2328 
Q 1025 1406 1450 917 
Q 1875 428 2675 428 
Q 3081 428 3442 575 
Q 3803 722 4122 1019 
L 4122 359 
Q 3791 134 3420 21 
Q 3050 -91 2638 -91 
Q 1578 -91 968 557 
Q 359 1206 359 2328 
Q 359 3453 968 4101 
Q 1578 4750 2638 4750 
Q 3056 4750 3426 4639 
Q 3797 4528 4122 4306 
z
" transform="scale(0.015625)"/>
      </defs>
      <use xlink:href="#DejaVuSans-4d"/>
      <use xlink:href="#DejaVuSans-41" x="86.279297"/>
      <use xlink:href="#DejaVuSans-49" x="154.6875"/>
      <use xlink:href="#DejaVuSans-43" x="184.179688"/>
     </g>
    </g>
    <g id="line2d_26">
     <path d="M 679.648438 108.972813 
L 689.648438 108.972813 
L 699.648438 108.972813 
" style="fill: none; stroke: #d62728; stroke-opacity: 0.9; stroke-width: 2.5; stroke-linecap: square"/>
    </g>
    <g id="text_16">
     <!-- T2MAC -->
     <g transform="translate(707.648438 112.472813) scale(0.1 -0.1)">
      <use xlink:href="#DejaVuSans-54"/>
      <use xlink:href="#DejaVuSans-32" x="61.083984"/>
      <use xlink:href="#DejaVuSans-4d" x="124.707031"/>
      <use xlink:href="#DejaVuSans-41" x="210.986328"/>
      <use xlink:href="#DejaVuSans-43" x="277.644531"/>
     </g>
    </g>
   </g>
  </g>
 </g>
 <defs>
  <clipPath id="pe09f50a089">
   <rect x="108" y="51.84" width="669.6" height="332.64"/>
  </clipPath>
 </defs>
</svg>
