<?xml version="1.0" encoding="utf-8" standalone="no"?>
<!DOCTYPE svg PUBLIC "-//W3C//DTD SVG 1.1//EN"
  "http://www.w3.org/Graphics/SVG/1.1/DTD/svg11.dtd">
<svg xmlns:xlink="http://www.w3.org/1999/xlink" width="864pt" height="432pt" viewBox="0 0 864 432" xmlns="http://www.w3.org/2000/svg" version="1.1">
 <metadata>
  <rdf:RDF xmlns:dc="http://purl.org/dc/elements/1.1/" xmlns:cc="http://creativecommons.org/ns#" xmlns:rdf="http://www.w3.org/1999/02/22-rdf-syntax-ns#">
   <cc:Work>
    <dc:type rdf:resource="http://purl.org/dc/dcmitype/StillImage"/>
    <dc:date>2026-04-18T20:29:47.269141</dc:date>
    <dc:format>image/svg+xml</dc:format>
    <dc:creator>
     <cc:Agent>
      <dc:title>Matplotlib v3.9.4, https://matplotlib.org/</dc:title>
     </cc:Agent>
    </dc:creator>
   </cc:Work>
  </rdf:RDF>
 </metadata>
 <defs>
  <style type="text/css">*{stroke-linejoin: round; stroke-linecap: butt}</style>
 </defs>
 <g id="figure_1">
  <g id="patch_1">
   <path d="M 0 432 
L 864 432 
L 864 0 
L 0 0 
z
" style="fill: #ffffff"/>
  </g>
  <g id="axes_1">
   <g id="patch_2">
    <path d="M 108 384.48 
L 777.6 384.48 
L 777.6 51.84 
L 108 51.84 
z
" style="fill: #ffffff"/>
   </g>
   <g id="matplotlib.axis_1">
    <g id="xtick_1">
     <g id="line2d_1">
      <path d="M 108 384.48 
L 108 51.84 
" clip-path="url(#p46fc462abe)" style="fill: none; stroke-dasharray: 2.96,1.28; stroke-dashoffset: 0; stroke: #b0b0b0; stroke-opacity: 0.5; stroke-width: 0.8"/>
     </g>
     <g id="line2d_2">
      <defs>
       <path id="m9b0f646cd2" d="M 0 0 
L 0 3.5 
" style="stroke: #000000; stroke-width: 0.8"/>
      </defs>
      <g>
       <use xlink:href="#m9b0f646cd2" x="108" y="384.48" style="stroke: #000000; stroke-width: 0.8"/>
      </g>
     </g>
     <g id="text_1">
      <!-- 0 -->
      <g transform="translate(104.81875 399.078438) scale(0.1 -0.1)">
       <defs>
        <path id="DejaVuSans-30" d="M 2034 4250 
Q 1547 4250 1301 3770 
Q 1056 3291 1056 2328 
Q 1056 1369 1301 889 
Q 1547 409 2034 409 
Q 2525 409 2770 889 
Q 3016 1369 3016 2328 
Q 3016 3291 2770 3770 
Q 2525 4250 2034 4250 
z
M 2034 4750 
Q 2819 4750 3233 4129 
Q 3647 3509 3647 2328 
Q 3647 1150 3233 529 
Q 2819 -91 2034 -91 
Q 1250 -91 836 529 
Q 422 1150 422 2328 
Q 422 3509 836 4129 
Q 1250 4750 2034 4750 
z
" transform="scale(0.015625)"/>
       </defs>
       <use xlink:href="#DejaVuSans-30"/>
      </g>
     </g>
    </g>
    <g id="xtick_2">
     <g id="line2d_3">
      <path d="M 436.922646 384.48 
L 436.922646 51.84 
" clip-path="url(#p46fc462abe)" style="fill: none; stroke-dasharray: 2.96,1.28; stroke-dashoffset: 0; stroke: #b0b0b0; stroke-opacity: 0.5; stroke-width: 0.8"/>
     </g>
     <g id="line2d_4">
      <g>
       <use xlink:href="#m9b0f646cd2" x="436.922646" y="384.48" style="stroke: #000000; stroke-width: 0.8"/>
      </g>
     </g>
     <g id="text_2">
      <!-- 1M -->
      <g transform="translate(429.427333 399.078438) scale(0.1 -0.1)">
       <defs>
        <path id="DejaVuSans-31" d="M 794 531 
L 1825 531 
L 1825 4091 
L 703 3866 
L 703 4441 
L 1819 4666 
L 2450 4666 
L 2450 531 
L 3481 531 
L 3481 0 
L 794 0 
L 794 531 
z
" transform="scale(0.015625)"/>
        <path id="DejaVuSans-4d" d="M 628 4666 
L 1569 4666 
L 2759 1491 
L 3956 4666 
L 4897 4666 
L 4897 0 
L 4281 0 
L 4281 4097 
L 3078 897 
L 2444 897 
L 1241 4097 
L 1241 0 
L 628 0 
L 628 4666 
z
" transform="scale(0.015625)"/>
       </defs>
       <use xlink:href="#DejaVuSans-31"/>
       <use xlink:href="#DejaVuSans-4d" x="63.623047"/>
      </g>
     </g>
    </g>
    <g id="xtick_3">
     <g id="line2d_5">
      <path d="M 765.845291 384.48 
L 765.845291 51.84 
" clip-path="url(#p46fc462abe)" style="fill: none; stroke-dasharray: 2.96,1.28; stroke-dashoffset: 0; stroke: #b0b0b0; stroke-opacity: 0.5; stroke-width: 0.8"/>
     </g>
     <g id="line2d_6">
      <g>
       <use xlink:href="#m9b0f646cd2" x="765.845291" y="384.48" style="stroke: #000000; stroke-width: 0.8"/>
      </g>
     </g>
     <g id="text_3">
      <!-- 2M -->
      <g transform="translate(758.349979 399.078438) scale(0.1 -0.1)">
       <defs>
        <path id="DejaVuSans-32" d="M 1228 531 
L 3431 531 
L 3431 0 
L 469 0 
L 469 531 
Q 828 903 1448 1529 
Q 2069 2156 2228 2338 
Q 2531 2678 2651 2914 
Q 2772 3150 2772 3378 
Q 2772 3750 2511 3984 
Q 2250 4219 1831 4219 
Q 1534 4219 1204 4116 
Q 875 4013 500 3803 
L 500 4441 
Q 881 4594 1212 4672 
Q 1544 4750 1819 4750 
Q 2544 4750 2975 4387 
Q 3406 4025 3406 3419 
Q 3406 3131 3298 2873 
Q 3191 2616 2906 2266 
Q 2828 2175 2409 1742 
Q 1991 1309 1228 531 
z
" transform="scale(0.015625)"/>
       </defs>
       <use xlink:href="#DejaVuSans-32"/>
       <use xlink:href="#DejaVuSans-4d" x="63.623047"/>
      </g>
     </g>
    </g>
    <g id="text_4">
     <!-- Training Step -->
     <g transform="translate(403.56 414.27625) scale(0.12 -0.12)">
      <defs>
       <path id="DejaVuSans-54" d="M -19 4666 
L 3928 4666 
L 3928 4134 
L 2272 4134 
L 2272 0 
L 1638 0 
L 1638 4134 
L -19 4134 
L -19 4666 
z
" transform="scale(0.015625)"/>
       <path id="DejaVuSans-72" d="M 2631 2963 
Q 2534 3019 2420 3045 
Q 2306 3072 2169 3072 
Q 1681 3072 1420 2755 
Q 1159 2438 1159 1844 
L 1159 0 
L 581 0 
L 581 3500 
L 1159 3500 
L 1159 2956 
Q 1341 3275 1631 3429 
Q 1922 3584 2338 3584 
Q 2397 3584 2469 3576 
Q 2541 3569 2628 3553 
L 2631 2963 
z
" transform="scale(0.015625)"/>
       <path id="DejaVuSans-61" d="M 2194 1759 
Q 1497 1759 1228 1600 
Q 959 1441 959 1056 
Q 959 750 1161 570 
Q 1363 391 1709 391 
Q 2188 391 2477 730 
Q 2766 1069 2766 1631 
L 2766 1759 
L 2194 1759 
z
M 3341 1997 
L 3341 0 
L 2766 0 
L 2766 531 
Q 2569 213 2275 61 
Q 1981 -91 1556 -91 
Q 1019 -91 701 211 
Q 384 513 384 1019 
Q 384 1609 779 1909 
Q 1175 2209 1959 2209 
L 2766 2209 
L 2766 2266 
Q 2766 2663 2505 2880 
Q 2244 3097 1772 3097 
Q 1472 3097 1187 3025 
Q 903 2953 641 2809 
L 641 3341 
Q 956 3463 1253 3523 
Q 1550 3584 1831 3584 
Q 2591 3584 2966 3190 
Q 3341 2797 3341 1997 
z
" transform="scale(0.015625)"/>
       <path id="DejaVuSans-69" d="M 603 3500 
L 1178 3500 
L 1178 0 
L 603 0 
L 603 3500 
z
M 603 4863 
L 1178 4863 
L 1178 4134 
L 603 4134 
L 603 4863 
z
" transform="scale(0.015625)"/>
       <path id="DejaVuSans-6e" d="M 3513 2113 
L 3513 0 
L 2938 0 
L 2938 2094 
Q 2938 2591 2744 2837 
Q 2550 3084 2163 3084 
Q 1697 3084 1428 2787 
Q 1159 2491 1159 1978 
L 1159 0 
L 581 0 
L 581 3500 
L 1159 3500 
L 1159 2956 
Q 1366 3272 1645 3428 
Q 1925 3584 2291 3584 
Q 2894 3584 3203 3211 
Q 3513 2838 3513 2113 
z
" transform="scale(0.015625)"/>
       <path id="DejaVuSans-67" d="M 2906 1791 
Q 2906 2416 2648 2759 
Q 2391 3103 1925 3103 
Q 1463 3103 1205 2759 
Q 947 2416 947 1791 
Q 947 1169 1205 825 
Q 1463 481 1925 481 
Q 2391 481 2648 825 
Q 2906 1169 2906 1791 
z
M 3481 434 
Q 3481 -459 3084 -895 
Q 2688 -1331 1869 -1331 
Q 1566 -1331 1297 -1286 
Q 1028 -1241 775 -1147 
L 775 -588 
Q 1028 -725 1275 -790 
Q 1522 -856 1778 -856 
Q 2344 -856 2625 -561 
Q 2906 -266 2906 331 
L 2906 616 
Q 2728 306 2450 153 
Q 2172 0 1784 0 
Q 1141 0 747 490 
Q 353 981 353 1791 
Q 353 2603 747 3093 
Q 1141 3584 1784 3584 
Q 2172 3584 2450 3431 
Q 2728 3278 2906 2969 
L 2906 3500 
L 3481 3500 
L 3481 434 
z
" transform="scale(0.015625)"/>
       <path id="DejaVuSans-20" transform="scale(0.015625)"/>
       <path id="DejaVuSans-53" d="M 3425 4513 
L 3425 3897 
Q 3066 4069 2747 4153 
Q 2428 4238 2131 4238 
Q 1616 4238 1336 4038 
Q 1056 3838 1056 3469 
Q 1056 3159 1242 3001 
Q 1428 2844 1947 2747 
L 2328 2669 
Q 3034 2534 3370 2195 
Q 3706 1856 3706 1288 
Q 3706 609 3251 259 
Q 2797 -91 1919 -91 
Q 1588 -91 1214 -16 
Q 841 59 441 206 
L 441 856 
Q 825 641 1194 531 
Q 1563 422 1919 422 
Q 2459 422 2753 634 
Q 3047 847 3047 1241 
Q 3047 1584 2836 1778 
Q 2625 1972 2144 2069 
L 1759 2144 
Q 1053 2284 737 2584 
Q 422 2884 422 3419 
Q 422 4038 858 4394 
Q 1294 4750 2059 4750 
Q 2388 4750 2728 4690 
Q 3069 4631 3425 4513 
z
" transform="scale(0.015625)"/>
       <path id="DejaVuSans-74" d="M 1172 4494 
L 1172 3500 
L 2356 3500 
L 2356 3053 
L 1172 3053 
L 1172 1153 
Q 1172 725 1289 603 
Q 1406 481 1766 481 
L 2356 481 
L 2356 0 
L 1766 0 
Q 1100 0 847 248 
Q 594 497 594 1153 
L 594 3053 
L 172 3053 
L 172 3500 
L 594 3500 
L 594 4494 
L 1172 4494 
z
" transform="scale(0.015625)"/>
       <path id="DejaVuSans-65" d="M 3597 1894 
L 3597 1613 
L 953 1613 
Q 991 1019 1311 708 
Q 1631 397 2203 397 
Q 2534 397 2845 478 
Q 3156 559 3463 722 
L 3463 178 
Q 3153 47 2828 -22 
Q 2503 -91 2169 -91 
Q 1331 -91 842 396 
Q 353 884 353 1716 
Q 353 2575 817 3079 
Q 1281 3584 2069 3584 
Q 2775 3584 3186 3129 
Q 3597 2675 3597 1894 
z
M 3022 2063 
Q 3016 2534 2758 2815 
Q 2500 3097 2075 3097 
Q 1594 3097 1305 2825 
Q 1016 2553 972 2059 
L 3022 2063 
z
" transform="scale(0.015625)"/>
       <path id="DejaVuSans-70" d="M 1159 525 
L 1159 -1331 
L 581 -1331 
L 581 3500 
L 1159 3500 
L 1159 2969 
Q 1341 3281 1617 3432 
Q 1894 3584 2278 3584 
Q 2916 3584 3314 3078 
Q 3713 2572 3713 1747 
Q 3713 922 3314 415 
Q 2916 -91 2278 -91 
Q 1894 -91 1617 61 
Q 1341 213 1159 525 
z
M 3116 1747 
Q 3116 2381 2855 2742 
Q 2594 3103 2138 3103 
Q 1681 3103 1420 2742 
Q 1159 2381 1159 1747 
Q 1159 1113 1420 752 
Q 1681 391 2138 391 
Q 2594 391 2855 752 
Q 3116 1113 3116 1747 
z
" transform="scale(0.015625)"/>
      </defs>
      <use xlink:href="#DejaVuSans-54"/>
      <use xlink:href="#DejaVuSans-72" x="46.333984"/>
      <use xlink:href="#DejaVuSans-61" x="87.447266"/>
      <use xlink:href="#DejaVuSans-69" x="148.726562"/>
      <use xlink:href="#DejaVuSans-6e" x="176.509766"/>
      <use xlink:href="#DejaVuSans-69" x="239.888672"/>
      <use xlink:href="#DejaVuSans-6e" x="267.671875"/>
      <use xlink:href="#DejaVuSans-67" x="331.050781"/>
      <use xlink:href="#DejaVuSans-20" x="394.527344"/>
      <use xlink:href="#DejaVuSans-53" x="426.314453"/>
      <use xlink:href="#DejaVuSans-74" x="489.791016"/>
      <use xlink:href="#DejaVuSans-65" x="529"/>
      <use xlink:href="#DejaVuSans-70" x="590.523438"/>
     </g>
    </g>
   </g>
   <g id="matplotlib.axis_2">
    <g id="ytick_1">
     <g id="line2d_7">
      <path d="M 108 384.48 
L 777.6 384.48 
" clip-path="url(#p46fc462abe)" style="fill: none; stroke-dasharray: 2.96,1.28; stroke-dashoffset: 0; stroke: #b0b0b0; stroke-opacity: 0.5; stroke-width: 0.8"/>
     </g>
     <g id="line2d_8">
      <defs>
       <path id="m0596f3c15b" d="M 0 0 
L -3.5 0 
" style="stroke: #000000; stroke-width: 0.8"/>
      </defs>
      <g>
       <use xlink:href="#m0596f3c15b" x="108" y="384.48" style="stroke: #000000; stroke-width: 0.8"/>
      </g>
     </g>
     <g id="text_5">
      <!-- 0.0 -->
      <g transform="translate(85.096875 388.279219) scale(0.1 -0.1)">
       <defs>
        <path id="DejaVuSans-2e" d="M 684 794 
L 1344 794 
L 1344 0 
L 684 0 
L 684 794 
z
" transform="scale(0.015625)"/>
       </defs>
       <use xlink:href="#DejaVuSans-30"/>
       <use xlink:href="#DejaVuSans-2e" x="63.623047"/>
       <use xlink:href="#DejaVuSans-30" x="95.410156"/>
      </g>
     </g>
    </g>
    <g id="ytick_2">
     <g id="line2d_9">
      <path d="M 108 317.952 
L 777.6 317.952 
" clip-path="url(#p46fc462abe)" style="fill: none; stroke-dasharray: 2.96,1.28; stroke-dashoffset: 0; stroke: #b0b0b0; stroke-opacity: 0.5; stroke-width: 0.8"/>
     </g>
     <g id="line2d_10">
      <g>
       <use xlink:href="#m0596f3c15b" x="108" y="317.952" style="stroke: #000000; stroke-width: 0.8"/>
      </g>
     </g>
     <g id="text_6">
      <!-- 0.2 -->
      <g transform="translate(85.096875 321.751219) scale(0.1 -0.1)">
       <use xlink:href="#DejaVuSans-30"/>
       <use xlink:href="#DejaVuSans-2e" x="63.623047"/>
       <use xlink:href="#DejaVuSans-32" x="95.410156"/>
      </g>
     </g>
    </g>
    <g id="ytick_3">
     <g id="line2d_11">
      <path d="M 108 251.424 
L 777.6 251.424 
" clip-path="url(#p46fc462abe)" style="fill: none; stroke-dasharray: 2.96,1.28; stroke-dashoffset: 0; stroke: #b0b0b0; stroke-opacity: 0.5; stroke-width: 0.8"/>
     </g>
     <g id="line2d_12">
      <g>
       <use xlink:href="#m0596f3c15b" x="108" y="251.424" style="stroke: #000000; stroke-width: 0.8"/>
      </g>
     </g>
     <g id="text_7">
      <!-- 0.4 -->
      <g transform="translate(85.096875 255.223219) scale(0.1 -0.1)">
       <defs>
        <path id="DejaVuSans-34" d="M 2419 4116 
L 825 1625 
L 2419 1625 
L 2419 4116 
z
M 2253 4666 
L 3047 4666 
L 3047 1625 
L 3713 1625 
L 3713 1100 
L 3047 1100 
L 3047 0 
L 2419 0 
L 2419 1100 
L 313 1100 
L 313 1709 
L 2253 4666 
z
" transform="scale(0.015625)"/>
       </defs>
       <use xlink:href="#DejaVuSans-30"/>
       <use xlink:href="#DejaVuSans-2e" x="63.623047"/>
       <use xlink:href="#DejaVuSans-34" x="95.410156"/>
      </g>
     </g>
    </g>
    <g id="ytick_4">
     <g id="line2d_13">
      <path d="M 108 184.896 
L 777.6 184.896 
" clip-path="url(#p46fc462abe)" style="fill: none; stroke-dasharray: 2.96,1.28; stroke-dashoffset: 0; stroke: #b0b0b0; stroke-opacity: 0.5; stroke-width: 0.8"/>
     </g>
     <g id="line2d_14">
      <g>
       <use xlink:href="#m0596f3c15b" x="108" y="184.896" style="stroke: #000000; stroke-width: 0.8"/>
      </g>
     </g>
     <g id="text_8">
      <!-- 0.6 -->
      <g transform="translate(85.096875 188.695219) scale(0.1 -0.1)">
       <defs>
        <path id="DejaVuSans-36" d="M 2113 2584 
Q 1688 2584 1439 2293 
Q 1191 2003 1191 1497 
Q 1191 994 1439 701 
Q 1688 409 2113 409 
Q 2538 409 2786 701 
Q 3034 994 3034 1497 
Q 3034 2003 2786 2293 
Q 2538 2584 2113 2584 
z
M 3366 4563 
L 3366 3988 
Q 3128 4100 2886 4159 
Q 2644 4219 2406 4219 
Q 1781 4219 1451 3797 
Q 1122 3375 1075 2522 
Q 1259 2794 1537 2939 
Q 1816 3084 2150 3084 
Q 2853 3084 3261 2657 
Q 3669 2231 3669 1497 
Q 3669 778 3244 343 
Q 2819 -91 2113 -91 
Q 1303 -91 875 529 
Q 447 1150 447 2328 
Q 447 3434 972 4092 
Q 1497 4750 2381 4750 
Q 2619 4750 2861 4703 
Q 3103 4656 3366 4563 
z
" transform="scale(0.015625)"/>
       </defs>
       <use xlink:href="#DejaVuSans-30"/>
       <use xlink:href="#DejaVuSans-2e" x="63.623047"/>
       <use xlink:href="#DejaVuSans-36" x="95.410156"/>
      </g>
     </g>
    </g>
    <g id="ytick_5">
     <g id="line2d_15">
      <path d="M 108 118.368 
L 777.6 118.368 
" clip-path="url(#p46fc462abe)" style="fill: none; stroke-dasharray: 2.96,1.28; stroke-dashoffset: 0; stroke: #b0b0b0; stroke-opacity: 0.5; stroke-width: 0.8"/>
     </g>
     <g id="line2d_16">
      <g>
       <use xlink:href="#m0596f3c15b" x="108" y="118.368" style="stroke: #000000; stroke-width: 0.8"/>
      </g>
     </g>
     <g id="text_9">
      <!-- 0.8 -->
      <g transform="translate(85.096875 122.167219) scale(0.1 -0.1)">
       <defs>
        <path id="DejaVuSans-38" d="M 2034 2216 
Q 1584 2216 1326 1975 
Q 1069 1734 1069 1313 
Q 1069 891 1326 650 
Q 1584 409 2034 409 
Q 2484 409 2743 651 
Q 3003 894 3003 1313 
Q 3003 1734 2745 1975 
Q 2488 2216 2034 2216 
z
M 1403 2484 
Q 997 2584 770 2862 
Q 544 3141 544 3541 
Q 544 4100 942 4425 
Q 1341 4750 2034 4750 
Q 2731 4750 3128 4425 
Q 3525 4100 3525 3541 
Q 3525 3141 3298 2862 
Q 3072 2584 2669 2484 
Q 3125 2378 3379 2068 
Q 3634 1759 3634 1313 
Q 3634 634 3220 271 
Q 2806 -91 2034 -91 
Q 1263 -91 848 271 
Q 434 634 434 1313 
Q 434 1759 690 2068 
Q 947 2378 1403 2484 
z
M 1172 3481 
Q 1172 3119 1398 2916 
Q 1625 2713 2034 2713 
Q 2441 2713 2670 2916 
Q 2900 3119 2900 3481 
Q 2900 3844 2670 4047 
Q 2441 4250 2034 4250 
Q 1625 4250 1398 4047 
Q 1172 3844 1172 3481 
z
" transform="scale(0.015625)"/>
       </defs>
       <use xlink:href="#DejaVuSans-30"/>
       <use xlink:href="#DejaVuSans-2e" x="63.623047"/>
       <use xlink:href="#DejaVuSans-38" x="95.410156"/>
      </g>
     </g>
    </g>
    <g id="ytick_6">
     <g id="line2d_17">
      <path d="M 108 51.84 
L 777.6 51.84 
" clip-path="url(#p46fc462abe)" style="fill: none; stroke-dasharray: 2.96,1.28; stroke-dashoffset: 0; stroke: #b0b0b0; stroke-opacity: 0.5; stroke-width: 0.8"/>
     </g>
     <g id="line2d_18">
      <g>
       <use xlink:href="#m0596f3c15b" x="108" y="51.84" style="stroke: #000000; stroke-width: 0.8"/>
      </g>
     </g>
     <g id="text_10">
      <!-- 1.0 -->
      <g transform="translate(85.096875 55.639219) scale(0.1 -0.1)">
       <use xlink:href="#DejaVuSans-31"/>
       <use xlink:href="#DejaVuSans-2e" x="63.623047"/>
       <use xlink:href="#DejaVuSans-30" x="95.410156"/>
      </g>
     </g>
    </g>
    <g id="text_11">
     <!-- Battle Won Mean -->
     <g transform="translate(78.60125 269.232187) rotate(-90) scale(0.12 -0.12)">
      <defs>
       <path id="DejaVuSans-42" d="M 1259 2228 
L 1259 519 
L 2272 519 
Q 2781 519 3026 730 
Q 3272 941 3272 1375 
Q 3272 1813 3026 2020 
Q 2781 2228 2272 2228 
L 1259 2228 
z
M 1259 4147 
L 1259 2741 
L 2194 2741 
Q 2656 2741 2882 2914 
Q 3109 3088 3109 3444 
Q 3109 3797 2882 3972 
Q 2656 4147 2194 4147 
L 1259 4147 
z
M 628 4666 
L 2241 4666 
Q 2963 4666 3353 4366 
Q 3744 4066 3744 3513 
Q 3744 3084 3544 2831 
Q 3344 2578 2956 2516 
Q 3422 2416 3680 2098 
Q 3938 1781 3938 1306 
Q 3938 681 3513 340 
Q 3088 0 2303 0 
L 628 0 
L 628 4666 
z
" transform="scale(0.015625)"/>
       <path id="DejaVuSans-6c" d="M 603 4863 
L 1178 4863 
L 1178 0 
L 603 0 
L 603 4863 
z
" transform="scale(0.015625)"/>
       <path id="DejaVuSans-57" d="M 213 4666 
L 850 4666 
L 1831 722 
L 2809 4666 
L 3519 4666 
L 4500 722 
L 5478 4666 
L 6119 4666 
L 4947 0 
L 4153 0 
L 3169 4050 
L 2175 0 
L 1381 0 
L 213 4666 
z
" transform="scale(0.015625)"/>
       <path id="DejaVuSans-6f" d="M 1959 3097 
Q 1497 3097 1228 2736 
Q 959 2375 959 1747 
Q 959 1119 1226 758 
Q 1494 397 1959 397 
Q 2419 397 2687 759 
Q 2956 1122 2956 1747 
Q 2956 2369 2687 2733 
Q 2419 3097 1959 3097 
z
M 1959 3584 
Q 2709 3584 3137 3096 
Q 3566 2609 3566 1747 
Q 3566 888 3137 398 
Q 2709 -91 1959 -91 
Q 1206 -91 779 398 
Q 353 888 353 1747 
Q 353 2609 779 3096 
Q 1206 3584 1959 3584 
z
" transform="scale(0.015625)"/>
      </defs>
      <use xlink:href="#DejaVuSans-42"/>
      <use xlink:href="#DejaVuSans-61" x="68.603516"/>
      <use xlink:href="#DejaVuSans-74" x="129.882812"/>
      <use xlink:href="#DejaVuSans-74" x="169.091797"/>
      <use xlink:href="#DejaVuSans-6c" x="208.300781"/>
      <use xlink:href="#DejaVuSans-65" x="236.083984"/>
      <use xlink:href="#DejaVuSans-20" x="297.607422"/>
      <use xlink:href="#DejaVuSans-57" x="329.394531"/>
      <use xlink:href="#DejaVuSans-6f" x="422.396484"/>
      <use xlink:href="#DejaVuSans-6e" x="483.578125"/>
      <use xlink:href="#DejaVuSans-20" x="546.957031"/>
      <use xlink:href="#DejaVuSans-4d" x="578.744141"/>
      <use xlink:href="#DejaVuSans-65" x="665.023438"/>
      <use xlink:href="#DejaVuSans-61" x="726.546875"/>
      <use xlink:href="#DejaVuSans-6e" x="787.826172"/>
     </g>
    </g>
   </g>
   <g id="line2d_19">
    <path d="M 108.148015 384.48 
L 111.532958 384.48 
L 114.832052 381.639836 
L 118.121937 373.211707 
L 121.545363 339.45644 
L 124.859259 346.025082 
L 128.245189 331.203823 
L 131.621909 310.698904 
L 134.971328 287.721096 
L 138.418766 286.109873 
L 141.718189 280.340295 
L 145.143919 259.545207 
L 148.558794 261.053062 
L 151.922685 254.979323 
L 155.213557 257.402725 
L 158.623827 253.605292 
L 162.013703 249.188782 
L 165.328586 249.926311 
L 168.726357 250.511481 
L 172.018215 270.606869 
L 175.362371 272.609971 
L 178.686792 289.565083 
L 182.000688 304.478097 
L 185.330372 302.450904 
L 188.637689 295.267586 
L 192.028882 281.189521 
L 195.437178 279.667937 
L 198.750745 277.063312 
L 202.136346 283.310316 
L 205.443005 285.528999 
L 208.816764 292.852452 
L 212.127371 280.676314 
L 215.458371 277.873275 
L 218.761741 275.631484 
L 222.059519 257.199709 
L 225.46025 253.548582 
L 228.825129 256.173548 
L 232.14955 249.955548 
L 235.553571 247.754072 
L 238.861546 239.062101 
L 242.181362 227.950498 
L 245.488021 212.131054 
L 248.821323 213.336925 
L 252.155283 246.181328 
L 255.466219 233.646515 
L 258.807086 233.3212 
L 262.224921 219.200565 
L 265.515463 216.220384 
L 268.863567 226.310488 
L 272.233379 210.820171 
L 275.627203 202.586044 
L 278.954914 205.700864 
L 282.299399 216.50877 
L 285.651121 208.522969 
L 288.983107 184.116263 
L 292.310489 174.292973 
L 295.725364 163.662345 
L 302.40052 149.463074 
L 305.833486 159.044474 
L 309.232572 159.779578 
L 312.672116 164.525666 
L 315.978118 153.076525 
L 319.296618 156.391224 
L 322.688469 149.340974 
L 326.01585 145.086779 
L 329.333693 140.29742 
L 332.689033 140.623935 
L 335.994376 128.411144 
L 339.314193 121.412914 
L 342.704398 124.130332 
L 346.003164 113.830264 
L 349.316401 112.520213 
L 352.652664 108.70017 
L 356.032344 100.100137 
L 359.442943 98.764109 
L 362.804861 93.537287 
L 366.13323 89.35583 
L 369.563235 91.554662 
L 372.975478 93.313729 
L 376.334108 96.106984 
L 379.701947 98.341589 
L 383.128992 93.199271 
L 386.512619 84.927417 
L 389.926836 82.467933 
L 393.216391 87.430348 
L 396.579296 83.08428 
L 399.8876 78.221422 
L 403.202812 75.717139 
L 406.548613 70.941711 
L 409.847378 69.89337 
L 413.183641 67.668695 
L 416.561347 65.888955 
L 419.883466 64.465162 
L 426.593159 64.909706 
L 429.962314 66.453765 
L 433.360742 64.917011 
L 436.664113 62.301609 
L 440.005309 64.367287 
L 443.350452 66.019829 
L 446.738355 72.885862 
L 450.123627 74.220689 
L 453.467455 69.744551 
L 456.838912 66.163641 
L 466.847699 65.937387 
L 470.181988 68.661908 
L 473.603112 68.069528 
L 476.932796 66.209621 
L 480.261165 79.967697 
L 483.698406 78.500158 
L 487.024143 78.712125 
L 490.314685 83.039698 
L 493.717061 82.343757 
L 497.065165 76.243006 
L 500.366232 76.906403 
L 503.687035 74.665124 
L 507.028561 71.486098 
L 510.373046 74.48688 
L 513.780027 69.957504 
L 517.071227 66.334003 
L 520.377228 67.593202 
L 523.741449 67.214563 
L 527.149088 64.139651 
L 533.916342 64.701379 
L 537.310495 62.129103 
L 540.613536 61.457281 
L 543.917564 62.305826 
L 547.332768 60.212661 
L 550.677911 59.924127 
L 554.062525 61.079303 
L 557.487926 59.231443 
L 560.895564 57.753154 
L 567.645715 58.119216 
L 570.939875 59.635374 
L 574.271204 65.006301 
L 577.609769 66.531041 
L 580.973989 64.978831 
L 584.385246 62.351065 
L 587.825119 61.634851 
L 591.17421 66.605882 
L 594.556192 65.038704 
L 597.871404 62.398963 
L 601.222468 61.673169 
L 604.537021 59.706535 
L 607.88052 58.133228 
L 611.231913 56.874583 
L 617.966933 57.556931 
L 621.296288 57.799543 
L 624.598342 59.379636 
L 627.950064 60.64371 
L 631.306062 61.654969 
L 634.60088 59.691975 
L 641.343136 59.360062 
L 644.718869 57.85605 
L 648.142625 60.81084 
L 651.530857 63.174672 
L 654.935536 60.907737 
L 658.338569 59.09419 
L 661.642926 59.029351 
L 664.984451 57.59148 
L 668.305912 61.985183 
L 671.702039 61.342145 
L 675.091586 60.827715 
L 678.538696 59.030172 
L 681.842724 57.592137 
L 685.153988 59.213711 
L 688.492224 59.124968 
L 691.782766 60.439975 
L 695.166064 60.105979 
L 698.457593 61.224785 
L 705.231755 60.34106 
L 708.630184 58.640848 
L 715.420134 58.68734 
L 718.81034 57.317872 
L 722.128511 58.994299 
L 725.475299 60.335441 
L 728.786235 58.636352 
L 732.092565 57.277082 
L 738.868701 57.81453 
L 742.275681 56.619624 
L 745.635626 55.663699 
L 748.974849 56.284958 
L 752.360779 58.167968 
L 762.414628 58.461756 
L 765.712078 57.137405 
L 769.08189 61.621923 
L 772.419139 61.051537 
L 772.419139 61.051537 
" clip-path="url(#p46fc462abe)" style="fill: none; stroke: #1f77b4; stroke-opacity: 0.9; stroke-width: 2.5; stroke-linecap: square"/>
   </g>
   <g id="line2d_20">
    <path d="M 108.132885 384.48 
L 111.499079 384.48 
L 114.877115 375.959508 
L 118.218969 357.717805 
L 121.569046 359.494398 
L 124.950371 360.631639 
L 128.241571 364.913225 
L 131.643947 362.953852 
L 134.994353 358.321312 
L 138.368441 357.971488 
L 141.746477 354.673932 
L 145.106422 352.145385 
L 148.451236 353.121998 
L 151.825653 352.43331 
L 155.213228 354.766748 
L 158.620208 358.029229 
L 161.963049 360.605393 
L 165.271353 361.233632 
L 168.578999 357.51329 
L 171.935655 360.165206 
L 175.296258 360.876728 
L 178.617718 355.858353 
L 181.944442 360.222444 
L 185.353068 358.134093 
L 188.656109 357.858232 
L 191.993029 360.418323 
L 195.321726 361.074244 
L 198.617531 353.266293 
L 201.988988 349.801673 
L 205.387746 345.644192 
L 208.719074 340.932687 
L 212.040535 341.326462 
L 215.429096 344.415127 
L 218.821605 348.272057 
L 222.257531 352.74346 
L 225.57636 350.774129 
L 228.98367 346.426174 
L 232.397558 344.334505 
L 235.688758 345.433787 
L 239.089489 346.313146 
L 242.488576 351.175034 
L 245.844245 339.81706 
L 249.219649 334.889313 
L 252.521374 332.333311 
L 255.878688 331.67462 
L 259.225805 342.236064 
L 262.596933 349.299048 
L 265.912473 353.563334 
L 269.347741 350.044604 
L 272.687293 354.159742 
L 275.993952 351.907768 
L 279.295349 354.264236 
L 282.622072 360.307433 
L 289.350185 361.525163 
L 292.682829 356.414111 
L 296.051326 355.097285 
L 299.404364 358.201836 
L 302.698853 349.597452 
L 306.035115 351.029964 
L 309.347695 346.631965 
L 312.74415 345.885572 
L 316.112318 341.130454 
L 319.407136 342.870364 
L 322.707217 331.788286 
L 326.117816 327.080627 
L 329.423489 320.542499 
L 332.798564 315.311997 
L 336.126274 291.723593 
L 339.499047 289.484874 
L 346.177164 288.75592 
L 349.569343 292.654736 
L 352.978955 295.773789 
L 356.388896 298.269031 
L 359.823178 298.879225 
L 363.219304 306.29738 
L 366.534186 316.389904 
L 369.996755 318.919923 
L 373.397486 327.873939 
L 376.707764 310.089151 
L 380.0733 309.72132 
L 383.454954 296.953057 
L 386.79615 290.896446 
L 390.212341 295.753157 
L 393.685435 289.936526 
L 396.988805 288.055221 
L 400.298425 279.620178 
L 403.651791 259.012142 
L 407.059101 254.999714 
L 410.432532 251.789771 
L 413.852669 240.905817 
L 417.280372 237.742654 
L 420.601175 237.984123 
L 423.937437 220.1593 
L 427.275345 208.671439 
L 430.632987 209.183152 
L 433.943922 202.662522 
L 437.35189 218.236017 
L 440.747029 211.290813 
L 444.05632 207.120651 
L 447.359032 206.55652 
L 450.751869 206.105215 
L 457.37999 219.315338 
L 460.825783 223.24227 
L 464.226186 226.383816 
L 467.586459 223.353054 
L 470.910552 218.156443 
L 474.3672 218.157155 
L 477.67978 222.315724 
L 480.974269 238.116579 
L 484.341121 239.669264 
L 487.743168 249.227412 
L 491.116928 244.39993 
L 494.408128 250.239943 
L 497.854579 249.367955 
L 501.185908 251.442364 
L 504.567561 239.241893 
L 507.884088 222.551514 
L 511.289425 221.673211 
L 514.636541 226.51457 
L 517.951753 227.615655 
L 521.37189 216.022525 
L 524.801567 221.994021 
L 528.169735 218.455215 
L 531.59053 218.396172 
L 535.008694 230.822938 
L 538.409097 256.01035 
L 541.786145 272.00228 
L 545.213519 277.865824 
L 548.624118 268.696659 
L 551.915976 248.887328 
L 555.322957 241.355864 
L 558.66218 235.330693 
L 562.060937 236.054554 
L 565.412001 244.949643 
L 568.74925 249.293715 
L 572.160836 248.610973 
L 575.527359 256.380779 
L 578.852438 251.508622 
L 582.244947 244.838898 
L 585.640415 222.871118 
L 589.031608 216.384896 
L 592.339254 201.493916 
L 595.751497 206.213133 
L 599.117034 190.584508 
L 602.469084 196.099606 
L 605.806334 189.423684 
L 609.205749 185.468948 
L 612.525565 176.761157 
L 615.836172 182.268924 
L 619.284268 199.14914 
L 622.599479 204.337313 
L 625.892653 191.855849 
L 629.287463 192.958679 
L 632.692471 181.366943 
L 636.114911 190.111555 
L 639.499854 197.107245 
L 642.967027 191.615797 
L 646.36743 195.538639 
L 649.67376 198.676913 
L 653.07778 183.169529 
L 656.421608 174.921622 
L 659.782211 172.481296 
L 663.300038 181.617037 
L 666.724452 179.223631 
L 670.065977 174.536905 
L 673.413752 173.559525 
L 676.75758 181.093621 
L 680.161929 182.962898 
L 683.506086 183.072317 
L 686.927868 180.387855 
L 690.222357 178.240286 
L 693.515859 176.52223 
L 696.830084 166.831785 
L 700.221605 159.079429 
L 703.549974 162.579544 
L 706.951034 152.905635 
L 710.289599 154.868507 
L 713.665661 150.894805 
L 717.031526 150.487846 
L 720.397392 155.706276 
L 723.7103 158.495022 
L 727.146884 159.340017 
L 730.486436 155.858012 
L 733.893746 150.300411 
L 737.25369 143.082329 
L 740.56627 141.465863 
L 743.998578 142.944692 
L 747.291752 145.513753 
L 750.661893 147.569003 
L 753.972829 150.599201 
L 757.299223 147.479361 
L 760.759818 154.685487 
L 764.097725 149.362391 
L 767.477077 152.033912 
L 770.874519 150.013128 
L 774.212755 151.168502 
L 777.6 150.706803 
L 777.6 150.706803 
" clip-path="url(#p46fc462abe)" style="fill: none; stroke: #ff7f0e; stroke-opacity: 0.9; stroke-width: 2.5; stroke-linecap: square"/>
   </g>
   <g id="line2d_21">
    <path d="M 108.142424 384.48 
L 114.827447 384.48 
L 118.135422 358.656829 
L 121.424978 314.800682 
L 124.738216 307.389838 
L 128.088951 314.622715 
L 131.409425 309.760412 
L 134.741411 286.9994 
L 138.156944 287.102602 
L 141.484654 300.826998 
L 144.918936 297.956328 
L 148.245001 300.134827 
L 151.603302 290.234437 
L 155.033636 292.532402 
L 158.460352 284.357827 
L 161.798588 280.738768 
L 165.094393 282.107675 
L 168.392829 288.818859 
L 175.083445 274.33609 
L 178.459507 272.791475 
L 181.806952 274.348371 
L 185.168871 263.057376 
L 188.536052 252.652594 
L 191.920008 249.903768 
L 195.258573 260.211938 
L 198.663909 243.453134 
L 202.040958 234.222223 
L 205.356827 232.393515 
L 208.667762 228.156617 
L 211.957318 234.478303 
L 215.28437 229.825694 
L 218.619646 219.171153 
L 221.973012 221.741965 
L 225.334273 216.865989 
L 228.711651 232.374817 
L 232.121592 240.621566 
L 235.522652 238.900966 
L 238.879636 223.662746 
L 242.267869 225.334374 
L 245.667613 244.691146 
L 249.034465 244.928934 
L 252.447696 235.416629 
L 259.118247 217.83843 
L 262.524899 219.288785 
L 265.923327 220.449054 
L 269.26255 219.991235 
L 276.041317 207.966653 
L 279.457179 201.689265 
L 282.893762 200.825406 
L 286.205356 195.976296 
L 289.589312 190.711014 
L 292.994977 187.8848 
L 296.407549 198.097871 
L 299.789203 195.180288 
L 303.223155 197.004233 
L 306.559747 199.849392 
L 309.976595 213.213531 
L 313.365156 214.202825 
L 316.691551 210.836258 
L 320.01663 222.003014 
L 323.397955 242.024421 
L 326.748032 240.023535 
L 330.18034 252.282832 
L 333.56923 251.002266 
L 336.962725 244.433812 
L 340.324314 232.249046 
L 343.636565 247.449238 
L 347.119527 247.135391 
L 350.417306 239.954314 
L 353.802577 230.051452 
L 357.099698 217.971162 
L 360.509639 220.780929 
L 363.816956 241.046744 
L 367.114406 262.803396 
L 370.435867 274.664717 
L 373.782984 282.767774 
L 377.17286 292.022219 
L 380.573592 285.565775 
L 383.974323 292.87462 
L 387.361239 293.177696 
L 390.748814 303.122156 
L 394.16007 304.147725 
L 397.459493 289.722179 
L 400.859896 275.409743 
L 404.284967 265.345795 
L 407.66991 272.540636 
L 410.98545 269.980509 
L 414.397036 263.774407 
L 417.77244 265.739525 
L 421.169553 270.083621 
L 424.549891 263.856897 
L 427.922335 239.471516 
L 431.254322 236.595213 
L 434.597492 225.978169 
L 438.002828 206.396537 
L 441.398625 205.977228 
L 444.759228 195.939783 
L 448.08957 186.523827 
L 451.513325 178.991063 
L 454.86735 186.824851 
L 458.236175 205.56588 
L 461.534941 206.698706 
L 464.900148 215.920964 
L 468.249567 210.824772 
L 471.556556 209.519817 
L 474.878345 202.931853 
L 478.224147 210.135483 
L 481.569619 200.652385 
L 484.983178 199.995908 
L 488.336544 191.154726 
L 491.639257 185.46778 
L 494.939338 172.602222 
L 498.317373 158.151777 
L 501.670411 160.451423 
L 505.081667 153.975139 
L 508.512331 159.88211 
L 511.924245 161.835689 
L 515.334186 156.468552 
L 518.760573 148.016841 
L 522.102099 160.659474 
L 525.53342 163.843579 
L 528.890733 163.618862 
L 532.27765 155.123088 
L 535.666211 153.870472 
L 539.052469 148.710379 
L 542.391034 141.810303 
L 545.840117 144.606243 
L 549.227362 138.526994 
L 552.626778 136.435597 
L 555.998564 133.376476 
L 559.378244 135.087179 
L 562.734242 125.367745 
L 566.031363 121.750197 
L 569.380453 123.014159 
L 572.777566 124.025329 
L 576.185534 120.676264 
L 579.57245 116.61101 
L 582.925488 116.130808 
L 586.22524 128.220646 
L 589.517426 146.208517 
L 592.862241 150.896815 
L 596.209686 162.963453 
L 599.604168 155.984764 
L 602.981217 155.945811 
L 606.318795 160.072649 
L 613.059407 172.390896 
L 616.372316 159.368718 
L 619.726998 155.880973 
L 623.027408 146.16078 
L 626.416627 135.612624 
L 629.766046 139.648099 
L 633.102637 135.946478 
L 636.430348 126.055184 
L 639.775491 120.914146 
L 643.160434 115.415317 
L 646.568072 105.472255 
L 649.930978 104.447802 
L 653.224151 98.084242 
L 656.572255 95.765395 
L 659.9197 96.682315 
L 663.213861 87.713852 
L 666.64584 86.08308 
L 670.015323 83.392464 
L 673.393359 84.011973 
L 676.686532 85.893578 
L 679.979377 81.854864 
L 683.356426 78.623892 
L 686.711108 88.513115 
L 690.100327 88.108493 
L 693.440536 91.942796 
L 696.778114 95.010238 
L 700.149242 94.692191 
L 703.57234 99.981751 
L 706.876039 108.3714 
L 710.168226 105.38112 
L 713.534421 101.602897 
L 716.87463 98.580319 
L 720.19938 98.934254 
L 723.543537 97.831403 
L 726.938676 96.949122 
L 730.275597 94.857299 
L 733.697379 97.341841 
L 737.092847 96.557473 
L 740.414966 109.789977 
L 743.750571 113.445983 
L 747.076636 117.756786 
L 750.388887 108.731429 
L 753.779422 116.757144 
L 757.091344 107.931716 
L 760.424975 106.415371 
L 763.778999 103.816297 
L 767.107697 104.509039 
L 770.470931 103.67723 
L 773.843703 94.695782 
L 777.135561 91.668625 
L 777.135561 91.668625 
" clip-path="url(#p46fc462abe)" style="fill: none; stroke: #2ca02c; stroke-opacity: 0.9; stroke-width: 2.5; stroke-linecap: square"/>
   </g>
   <g id="line2d_22">
    <path d="M 108.142424 384.48 
L 118.135422 384.48 
L 121.424978 383.917768 
L 124.738216 372.287378 
L 128.088951 366.680267 
L 131.409425 360.132716 
L 134.741411 348.147551 
L 138.156944 337.655461 
L 141.484654 335.391387 
L 144.918936 329.562555 
L 148.245001 324.68542 
L 151.603302 315.810514 
L 155.033636 312.806725 
L 158.460352 314.207859 
L 161.798588 310.507462 
L 165.094393 312.318242 
L 168.392829 311.492696 
L 171.725802 311.187134 
L 175.083445 310.202546 
L 178.459507 308.077719 
L 181.806952 305.045073 
L 185.168871 295.606848 
L 188.536052 294.416502 
L 191.920008 290.935682 
L 195.258573 291.567813 
L 198.663909 287.522906 
L 202.040958 279.181418 
L 205.356827 275.635245 
L 208.667762 275.92148 
L 211.957318 274.416491 
L 215.28437 270.81363 
L 218.619646 267.932164 
L 221.973012 264.373211 
L 225.334273 259.120544 
L 228.711651 261.670598 
L 232.121592 273.004832 
L 235.522652 273.123885 
L 242.267869 267.029919 
L 245.667613 271.892509 
L 249.034465 280.204072 
L 252.447696 281.655337 
L 255.81093 278.65814 
L 259.118247 277.405424 
L 262.524899 273.539592 
L 265.923327 271.112259 
L 269.26255 265.843954 
L 272.619864 263.625213 
L 276.041317 259.521722 
L 279.457179 255.906304 
L 282.893762 256.673049 
L 286.205356 249.663398 
L 289.589312 241.699483 
L 292.994977 242.428974 
L 296.407549 241.234216 
L 299.789203 241.941616 
L 303.223155 241.343291 
L 306.559747 248.046642 
L 309.976595 259.079327 
L 313.365156 264.881468 
L 316.691551 269.001178 
L 320.01663 269.574443 
L 326.748032 278.517087 
L 330.18034 281.69167 
L 333.56923 278.340835 
L 336.962725 277.614427 
L 340.324314 273.69304 
L 343.636565 280.802433 
L 347.119527 288.648148 
L 350.417306 281.678518 
L 353.802577 273.726814 
L 357.099698 272.11745 
L 360.509639 264.097959 
L 363.816956 270.354368 
L 367.114406 287.635495 
L 370.435867 299.066396 
L 373.782984 306.699117 
L 377.17286 310.537294 
L 380.573592 315.970335 
L 383.974323 315.119268 
L 387.361239 317.210415 
L 390.748814 318.689292 
L 394.16007 319.373433 
L 397.459493 313.683747 
L 400.859896 301.855497 
L 404.284967 299.669398 
L 407.66991 293.069519 
L 414.397036 285.284332 
L 417.77244 284.499785 
L 421.169553 279.547828 
L 424.549891 273.923062 
L 427.922335 263.11695 
L 431.254322 254.848691 
L 434.597492 245.085454 
L 438.002828 238.369804 
L 444.759228 238.578675 
L 448.08957 231.37644 
L 451.513325 220.070653 
L 454.86735 214.144524 
L 458.236175 218.201705 
L 461.534941 222.893713 
L 464.900148 234.240187 
L 468.249567 240.06328 
L 471.556556 247.97584 
L 474.878345 250.328672 
L 478.224147 253.295633 
L 481.569619 247.780507 
L 484.983178 241.133275 
L 488.336544 231.838272 
L 491.639257 224.944617 
L 498.317373 212.825357 
L 501.670411 210.490285 
L 505.081667 202.261967 
L 508.512331 204.402074 
L 511.924245 204.381658 
L 515.334186 202.286325 
L 518.760573 197.491559 
L 522.102099 198.009596 
L 525.53342 199.147155 
L 528.890733 191.379636 
L 532.27765 193.843188 
L 535.666211 192.921508 
L 539.052469 190.014774 
L 542.391034 184.681818 
L 545.840117 186.463455 
L 549.227362 180.328764 
L 552.626778 175.240229 
L 555.998564 171.530965 
L 559.378244 169.648251 
L 562.734242 165.611122 
L 566.031363 165.99707 
L 569.380453 162.690177 
L 572.777566 163.042643 
L 576.185534 160.427875 
L 582.925488 164.779026 
L 586.22524 162.149621 
L 589.517426 172.312197 
L 592.862241 176.824798 
L 596.209686 176.775838 
L 599.604168 179.397792 
L 602.981217 178.487735 
L 606.318795 184.91019 
L 609.668214 187.9445 
L 613.059407 192.179773 
L 616.372316 193.564317 
L 619.726998 185.510494 
L 623.027408 180.259396 
L 626.416627 175.199197 
L 629.766046 172.703357 
L 633.102637 171.746184 
L 636.430348 170.633947 
L 639.775491 162.814156 
L 643.160434 161.062826 
L 646.568072 152.385262 
L 649.930978 147.522211 
L 653.224151 141.402118 
L 656.572255 138.735695 
L 659.9197 135.216555 
L 663.213861 132.401243 
L 666.64584 125.602913 
L 670.015323 122.284831 
L 673.393359 124.495225 
L 676.686532 123.47768 
L 679.979377 121.970643 
L 683.356426 119.586915 
L 686.711108 118.345212 
L 690.100327 121.01089 
L 693.440536 134.294103 
L 696.778114 143.097781 
L 700.149242 148.754725 
L 703.57234 148.664901 
L 706.876039 146.655051 
L 710.168226 144.324041 
L 716.87463 139.967057 
L 720.19938 139.320144 
L 723.543537 140.535115 
L 726.938676 137.764894 
L 730.275597 133.746916 
L 733.697379 131.336412 
L 737.092847 129.643631 
L 740.414966 130.353337 
L 743.750571 136.344582 
L 747.076636 141.499144 
L 750.388887 149.238446 
L 753.779422 151.241758 
L 757.091344 149.032906 
L 760.424975 142.761326 
L 763.778999 141.932191 
L 767.107697 137.427253 
L 770.470931 133.823302 
L 773.843703 131.064881 
L 777.135561 130.812405 
L 777.135561 130.812405 
" clip-path="url(#p46fc462abe)" style="fill: none; stroke: #d62728; stroke-opacity: 0.9; stroke-width: 2.5; stroke-linecap: square"/>
   </g>
   <g id="patch_3">
    <path d="M 108 384.48 
L 108 51.84 
" style="fill: none; stroke: #000000; stroke-width: 0.8; stroke-linejoin: miter; stroke-linecap: square"/>
   </g>
   <g id="patch_4">
    <path d="M 108 384.48 
L 777.6 384.48 
" style="fill: none; stroke: #000000; stroke-width: 0.8; stroke-linejoin: miter; stroke-linecap: square"/>
   </g>
   <g id="text_12">
    <!-- 2s3z -->
    <g transform="translate(426.572031 45.84) scale(0.14 -0.14)">
     <defs>
      <path id="DejaVuSans-73" d="M 2834 3397 
L 2834 2853 
Q 2591 2978 2328 3040 
Q 2066 3103 1784 3103 
Q 1356 3103 1142 2972 
Q 928 2841 928 2578 
Q 928 2378 1081 2264 
Q 1234 2150 1697 2047 
L 1894 2003 
Q 2506 1872 2764 1633 
Q 3022 1394 3022 966 
Q 3022 478 2636 193 
Q 2250 -91 1575 -91 
Q 1294 -91 989 -36 
Q 684 19 347 128 
L 347 722 
Q 666 556 975 473 
Q 1284 391 1588 391 
Q 1994 391 2212 530 
Q 2431 669 2431 922 
Q 2431 1156 2273 1281 
Q 2116 1406 1581 1522 
L 1381 1569 
Q 847 1681 609 1914 
Q 372 2147 372 2553 
Q 372 3047 722 3315 
Q 1072 3584 1716 3584 
Q 2034 3584 2315 3537 
Q 2597 3491 2834 3397 
z
" transform="scale(0.015625)"/>
      <path id="DejaVuSans-33" d="M 2597 2516 
Q 3050 2419 3304 2112 
Q 3559 1806 3559 1356 
Q 3559 666 3084 287 
Q 2609 -91 1734 -91 
Q 1441 -91 1130 -33 
Q 819 25 488 141 
L 488 750 
Q 750 597 1062 519 
Q 1375 441 1716 441 
Q 2309 441 2620 675 
Q 2931 909 2931 1356 
Q 2931 1769 2642 2001 
Q 2353 2234 1838 2234 
L 1294 2234 
L 1294 2753 
L 1863 2753 
Q 2328 2753 2575 2939 
Q 2822 3125 2822 3475 
Q 2822 3834 2567 4026 
Q 2313 4219 1838 4219 
Q 1578 4219 1281 4162 
Q 984 4106 628 3988 
L 628 4550 
Q 988 4650 1302 4700 
Q 1616 4750 1894 4750 
Q 2613 4750 3031 4423 
Q 3450 4097 3450 3541 
Q 3450 3153 3228 2886 
Q 3006 2619 2597 2516 
z
" transform="scale(0.015625)"/>
      <path id="DejaVuSans-7a" d="M 353 3500 
L 3084 3500 
L 3084 2975 
L 922 459 
L 3084 459 
L 3084 0 
L 275 0 
L 275 525 
L 2438 3041 
L 353 3041 
L 353 3500 
z
" transform="scale(0.015625)"/>
     </defs>
     <use xlink:href="#DejaVuSans-32"/>
     <use xlink:href="#DejaVuSans-73" x="63.623047"/>
     <use xlink:href="#DejaVuSans-33" x="115.722656"/>
     <use xlink:href="#DejaVuSans-7a" x="179.345703"/>
    </g>
   </g>
   <g id="legend_1">
    <g id="patch_5">
     <path d="M 115 118.5525 
L 207.951562 118.5525 
Q 209.951562 118.5525 209.951562 116.5525 
L 209.951562 58.84 
Q 209.951562 56.84 207.951562 56.84 
L 115 56.84 
Q 113 56.84 113 58.84 
L 113 116.5525 
Q 113 118.5525 115 118.5525 
z
" style="fill: #ffffff; opacity: 0.8; stroke: #cccccc; stroke-linejoin: miter"/>
    </g>
    <g id="line2d_23">
     <path d="M 117 64.938438 
L 127 64.938438 
L 137 64.938438 
" style="fill: none; stroke: #1f77b4; stroke-opacity: 0.9; stroke-width: 2.5; stroke-linecap: square"/>
    </g>
    <g id="text_13">
     <!-- Intent(Ours) -->
     <g transform="translate(145 68.438438) scale(0.1 -0.1)">
      <defs>
       <path id="DejaVuSans-49" d="M 628 4666 
L 1259 4666 
L 1259 0 
L 628 0 
L 628 4666 
z
" transform="scale(0.015625)"/>
       <path id="DejaVuSans-28" d="M 1984 4856 
Q 1566 4138 1362 3434 
Q 1159 2731 1159 2009 
Q 1159 1288 1364 580 
Q 1569 -128 1984 -844 
L 1484 -844 
Q 1016 -109 783 600 
Q 550 1309 550 2009 
Q 550 2706 781 3412 
Q 1013 4119 1484 4856 
L 1984 4856 
z
" transform="scale(0.015625)"/>
       <path id="DejaVuSans-4f" d="M 2522 4238 
Q 1834 4238 1429 3725 
Q 1025 3213 1025 2328 
Q 1025 1447 1429 934 
Q 1834 422 2522 422 
Q 3209 422 3611 934 
Q 4013 1447 4013 2328 
Q 4013 3213 3611 3725 
Q 3209 4238 2522 4238 
z
M 2522 4750 
Q 3503 4750 4090 4092 
Q 4678 3434 4678 2328 
Q 4678 1225 4090 567 
Q 3503 -91 2522 -91 
Q 1538 -91 948 565 
Q 359 1222 359 2328 
Q 359 3434 948 4092 
Q 1538 4750 2522 4750 
z
" transform="scale(0.015625)"/>
       <path id="DejaVuSans-75" d="M 544 1381 
L 544 3500 
L 1119 3500 
L 1119 1403 
Q 1119 906 1312 657 
Q 1506 409 1894 409 
Q 2359 409 2629 706 
Q 2900 1003 2900 1516 
L 2900 3500 
L 3475 3500 
L 3475 0 
L 2900 0 
L 2900 538 
Q 2691 219 2414 64 
Q 2138 -91 1772 -91 
Q 1169 -91 856 284 
Q 544 659 544 1381 
z
M 1991 3584 
L 1991 3584 
z
" transform="scale(0.015625)"/>
       <path id="DejaVuSans-29" d="M 513 4856 
L 1013 4856 
Q 1481 4119 1714 3412 
Q 1947 2706 1947 2009 
Q 1947 1309 1714 600 
Q 1481 -109 1013 -844 
L 513 -844 
Q 928 -128 1133 580 
Q 1338 1288 1338 2009 
Q 1338 2731 1133 3434 
Q 928 4138 513 4856 
z
" transform="scale(0.015625)"/>
      </defs>
      <use xlink:href="#DejaVuSans-49"/>
      <use xlink:href="#DejaVuSans-6e" x="29.492188"/>
      <use xlink:href="#DejaVuSans-74" x="92.871094"/>
      <use xlink:href="#DejaVuSans-65" x="132.080078"/>
      <use xlink:href="#DejaVuSans-6e" x="193.603516"/>
      <use xlink:href="#DejaVuSans-74" x="256.982422"/>
      <use xlink:href="#DejaVuSans-28" x="296.191406"/>
      <use xlink:href="#DejaVuSans-4f" x="335.205078"/>
      <use xlink:href="#DejaVuSans-75" x="413.916016"/>
      <use xlink:href="#DejaVuSans-72" x="477.294922"/>
      <use xlink:href="#DejaVuSans-73" x="518.408203"/>
      <use xlink:href="#DejaVuSans-29" x="570.507812"/>
     </g>
    </g>
    <g id="line2d_24">
     <path d="M 117 79.616563 
L 127 79.616563 
L 137 79.616563 
" style="fill: none; stroke: #ff7f0e; stroke-opacity: 0.9; stroke-width: 2.5; stroke-linecap: square"/>
    </g>
    <g id="text_14">
     <!-- QMIX -->
     <g transform="translate(145 83.116563) scale(0.1 -0.1)">
      <defs>
       <path id="DejaVuSans-51" d="M 2522 4238 
Q 1834 4238 1429 3725 
Q 1025 3213 1025 2328 
Q 1025 1447 1429 934 
Q 1834 422 2522 422 
Q 3209 422 3611 934 
Q 4013 1447 4013 2328 
Q 4013 3213 3611 3725 
Q 3209 4238 2522 4238 
z
M 3406 84 
L 4238 -825 
L 3475 -825 
L 2784 -78 
Q 2681 -84 2626 -87 
Q 2572 -91 2522 -91 
Q 1538 -91 948 567 
Q 359 1225 359 2328 
Q 359 3434 948 4092 
Q 1538 4750 2522 4750 
Q 3503 4750 4090 4092 
Q 4678 3434 4678 2328 
Q 4678 1516 4351 937 
Q 4025 359 3406 84 
z
" transform="scale(0.015625)"/>
       <path id="DejaVuSans-58" d="M 403 4666 
L 1081 4666 
L 2241 2931 
L 3406 4666 
L 4084 4666 
L 2584 2425 
L 4184 0 
L 3506 0 
L 2194 1984 
L 872 0 
L 191 0 
L 1856 2491 
L 403 4666 
z
" transform="scale(0.015625)"/>
      </defs>
      <use xlink:href="#DejaVuSans-51"/>
      <use xlink:href="#DejaVuSans-4d" x="78.710938"/>
      <use xlink:href="#DejaVuSans-49" x="164.990234"/>
      <use xlink:href="#DejaVuSans-58" x="194.482422"/>
     </g>
    </g>
    <g id="line2d_25">
     <path d="M 117 94.294688 
L 127 94.294688 
L 137 94.294688 
" style="fill: none; stroke: #2ca02c; stroke-opacity: 0.9; stroke-width: 2.5; stroke-linecap: square"/>
    </g>
    <g id="text_15">
     <!-- MAIC -->
     <g transform="translate(145 97.794688) scale(0.1 -0.1)">
      <defs>
       <path id="DejaVuSans-41" d="M 2188 4044 
L 1331 1722 
L 3047 1722 
L 2188 4044 
z
M 1831 4666 
L 2547 4666 
L 4325 0 
L 3669 0 
L 3244 1197 
L 1141 1197 
L 716 0 
L 50 0 
L 1831 4666 
z
" transform="scale(0.015625)"/>
       <path id="DejaVuSans-43" d="M 4122 4306 
L 4122 3641 
Q 3803 3938 3442 4084 
Q 3081 4231 2675 4231 
Q 1875 4231 1450 3742 
Q 1025 3253 1025 2328 
Q 1025 1406 1450 917 
Q 1875 428 2675 428 
Q 3081 428 3442 575 
Q 3803 722 4122 1019 
L 4122 359 
Q 3791 134 3420 21 
Q 3050 -91 2638 -91 
Q 1578 -91 968 557 
Q 359 1206 359 2328 
Q 359 3453 968 4101 
Q 1578 4750 2638 4750 
Q 3056 4750 3426 4639 
Q 3797 4528 4122 4306 
z
" transform="scale(0.015625)"/>
      </defs>
      <use xlink:href="#DejaVuSans-4d"/>
      <use xlink:href="#DejaVuSans-41" x="86.279297"/>
      <use xlink:href="#DejaVuSans-49" x="154.6875"/>
      <use xlink:href="#DejaVuSans-43" x="184.179688"/>
     </g>
    </g>
    <g id="line2d_26">
     <path d="M 117 108.972813 
L 127 108.972813 
L 137 108.972813 
" style="fill: none; stroke: #d62728; stroke-opacity: 0.9; stroke-width: 2.5; stroke-linecap: square"/>
    </g>
    <g id="text_16">
     <!-- T2MAC -->
     <g transform="translate(145 112.472813) scale(0.1 -0.1)">
      <use xlink:href="#DejaVuSans-54"/>
      <use xlink:href="#DejaVuSans-32" x="61.083984"/>
      <use xlink:href="#DejaVuSans-4d" x="124.707031"/>
      <use xlink:href="#DejaVuSans-41" x="210.986328"/>
      <use xlink:href="#DejaVuSans-43" x="277.644531"/>
     </g>
    </g>
   </g>
  </g>
 </g>
 <defs>
  <clipPath id="p46fc462abe">
   <rect x="108" y="51.84" width="669.6" height="332.64"/>
  </clipPath>
 </defs>
</svg>
