<?xml version="1.0" encoding="utf-8" standalone="no"?>
<!DOCTYPE svg PUBLIC "-//W3C//DTD SVG 1.1//EN"
  "http://www.w3.org/Graphics/SVG/1.1/DTD/svg11.dtd">
<svg xmlns:xlink="http://www.w3.org/1999/xlink" width="864pt" height="432pt" viewBox="0 0 864 432" xmlns="http://www.w3.org/2000/svg" version="1.1">
 <metadata>
  <rdf:RDF xmlns:dc="http://purl.org/dc/elements/1.1/" xmlns:cc="http://creativecommons.org/ns#" xmlns:rdf="http://www.w3.org/1999/02/22-rdf-syntax-ns#">
   <cc:Work>
    <dc:type rdf:resource="http://purl.org/dc/dcmitype/StillImage"/>
    <dc:date>2026-04-18T20:23:01.273947</dc:date>
    <dc:format>image/svg+xml</dc:format>
    <dc:creator>
     <cc:Agent>
      <dc:title>Matplotlib v3.9.4, https://matplotlib.org/</dc:title>
     </cc:Agent>
    </dc:creator>
   </cc:Work>
  </rdf:RDF>
 </metadata>
 <defs>
  <style type="text/css">*{stroke-linejoin: round; stroke-linecap: butt}</style>
 </defs>
 <g id="figure_1">
  <g id="patch_1">
   <path d="M 0 432 
L 864 432 
L 864 0 
L 0 0 
z
" style="fill: #ffffff"/>
  </g>
  <g id="axes_1">
   <g id="patch_2">
    <path d="M 108 384.48 
L 777.6 384.48 
L 777.6 51.84 
L 108 51.84 
z
" style="fill: #ffffff"/>
   </g>
   <g id="matplotlib.axis_1">
    <g id="xtick_1">
     <g id="line2d_1">
      <path d="M 108 384.48 
L 108 51.84 
" clip-path="url(#p5d8095b684)" style="fill: none; stroke-dasharray: 2.96,1.28; stroke-dashoffset: 0; stroke: #b0b0b0; stroke-opacity: 0.5; stroke-width: 0.8"/>
     </g>
     <g id="line2d_2">
      <defs>
       <path id="ma192dffb0c" d="M 0 0 
L 0 3.5 
" style="stroke: #000000; stroke-width: 0.8"/>
      </defs>
      <g>
       <use xlink:href="#ma192dffb0c" x="108" y="384.48" style="stroke: #000000; stroke-width: 0.8"/>
      </g>
     </g>
     <g id="text_1">
      <!-- 0 -->
      <g transform="translate(104.81875 399.078438) scale(0.1 -0.1)">
       <defs>
        <path id="DejaVuSans-30" d="M 2034 4250 
Q 1547 4250 1301 3770 
Q 1056 3291 1056 2328 
Q 1056 1369 1301 889 
Q 1547 409 2034 409 
Q 2525 409 2770 889 
Q 3016 1369 3016 2328 
Q 3016 3291 2770 3770 
Q 2525 4250 2034 4250 
z
M 2034 4750 
Q 2819 4750 3233 4129 
Q 3647 3509 3647 2328 
Q 3647 1150 3233 529 
Q 2819 -91 2034 -91 
Q 1250 -91 836 529 
Q 422 1150 422 2328 
Q 422 3509 836 4129 
Q 1250 4750 2034 4750 
z
" transform="scale(0.015625)"/>
       </defs>
       <use xlink:href="#DejaVuSans-30"/>
      </g>
     </g>
    </g>
    <g id="xtick_2">
     <g id="line2d_3">
      <path d="M 436.46812 384.48 
L 436.46812 51.84 
" clip-path="url(#p5d8095b684)" style="fill: none; stroke-dasharray: 2.96,1.28; stroke-dashoffset: 0; stroke: #b0b0b0; stroke-opacity: 0.5; stroke-width: 0.8"/>
     </g>
     <g id="line2d_4">
      <g>
       <use xlink:href="#ma192dffb0c" x="436.46812" y="384.48" style="stroke: #000000; stroke-width: 0.8"/>
      </g>
     </g>
     <g id="text_2">
      <!-- 1M -->
      <g transform="translate(428.972808 399.078438) scale(0.1 -0.1)">
       <defs>
        <path id="DejaVuSans-31" d="M 794 531 
L 1825 531 
L 1825 4091 
L 703 3866 
L 703 4441 
L 1819 4666 
L 2450 4666 
L 2450 531 
L 3481 531 
L 3481 0 
L 794 0 
L 794 531 
z
" transform="scale(0.015625)"/>
        <path id="DejaVuSans-4d" d="M 628 4666 
L 1569 4666 
L 2759 1491 
L 3956 4666 
L 4897 4666 
L 4897 0 
L 4281 0 
L 4281 4097 
L 3078 897 
L 2444 897 
L 1241 4097 
L 1241 0 
L 628 0 
L 628 4666 
z
" transform="scale(0.015625)"/>
       </defs>
       <use xlink:href="#DejaVuSans-31"/>
       <use xlink:href="#DejaVuSans-4d" x="63.623047"/>
      </g>
     </g>
    </g>
    <g id="xtick_3">
     <g id="line2d_5">
      <path d="M 764.93624 384.48 
L 764.93624 51.84 
" clip-path="url(#p5d8095b684)" style="fill: none; stroke-dasharray: 2.96,1.28; stroke-dashoffset: 0; stroke: #b0b0b0; stroke-opacity: 0.5; stroke-width: 0.8"/>
     </g>
     <g id="line2d_6">
      <g>
       <use xlink:href="#ma192dffb0c" x="764.93624" y="384.48" style="stroke: #000000; stroke-width: 0.8"/>
      </g>
     </g>
     <g id="text_3">
      <!-- 2M -->
      <g transform="translate(757.440928 399.078438) scale(0.1 -0.1)">
       <defs>
        <path id="DejaVuSans-32" d="M 1228 531 
L 3431 531 
L 3431 0 
L 469 0 
L 469 531 
Q 828 903 1448 1529 
Q 2069 2156 2228 2338 
Q 2531 2678 2651 2914 
Q 2772 3150 2772 3378 
Q 2772 3750 2511 3984 
Q 2250 4219 1831 4219 
Q 1534 4219 1204 4116 
Q 875 4013 500 3803 
L 500 4441 
Q 881 4594 1212 4672 
Q 1544 4750 1819 4750 
Q 2544 4750 2975 4387 
Q 3406 4025 3406 3419 
Q 3406 3131 3298 2873 
Q 3191 2616 2906 2266 
Q 2828 2175 2409 1742 
Q 1991 1309 1228 531 
z
" transform="scale(0.015625)"/>
       </defs>
       <use xlink:href="#DejaVuSans-32"/>
       <use xlink:href="#DejaVuSans-4d" x="63.623047"/>
      </g>
     </g>
    </g>
    <g id="text_4">
     <!-- Training Step -->
     <g transform="translate(403.56 414.27625) scale(0.12 -0.12)">
      <defs>
       <path id="DejaVuSans-54" d="M -19 4666 
L 3928 4666 
L 3928 4134 
L 2272 4134 
L 2272 0 
L 1638 0 
L 1638 4134 
L -19 4134 
L -19 4666 
z
" transform="scale(0.015625)"/>
       <path id="DejaVuSans-72" d="M 2631 2963 
Q 2534 3019 2420 3045 
Q 2306 3072 2169 3072 
Q 1681 3072 1420 2755 
Q 1159 2438 1159 1844 
L 1159 0 
L 581 0 
L 581 3500 
L 1159 3500 
L 1159 2956 
Q 1341 3275 1631 3429 
Q 1922 3584 2338 3584 
Q 2397 3584 2469 3576 
Q 2541 3569 2628 3553 
L 2631 2963 
z
" transform="scale(0.015625)"/>
       <path id="DejaVuSans-61" d="M 2194 1759 
Q 1497 1759 1228 1600 
Q 959 1441 959 1056 
Q 959 750 1161 570 
Q 1363 391 1709 391 
Q 2188 391 2477 730 
Q 2766 1069 2766 1631 
L 2766 1759 
L 2194 1759 
z
M 3341 1997 
L 3341 0 
L 2766 0 
L 2766 531 
Q 2569 213 2275 61 
Q 1981 -91 1556 -91 
Q 1019 -91 701 211 
Q 384 513 384 1019 
Q 384 1609 779 1909 
Q 1175 2209 1959 2209 
L 2766 2209 
L 2766 2266 
Q 2766 2663 2505 2880 
Q 2244 3097 1772 3097 
Q 1472 3097 1187 3025 
Q 903 2953 641 2809 
L 641 3341 
Q 956 3463 1253 3523 
Q 1550 3584 1831 3584 
Q 2591 3584 2966 3190 
Q 3341 2797 3341 1997 
z
" transform="scale(0.015625)"/>
       <path id="DejaVuSans-69" d="M 603 3500 
L 1178 3500 
L 1178 0 
L 603 0 
L 603 3500 
z
M 603 4863 
L 1178 4863 
L 1178 4134 
L 603 4134 
L 603 4863 
z
" transform="scale(0.015625)"/>
       <path id="DejaVuSans-6e" d="M 3513 2113 
L 3513 0 
L 2938 0 
L 2938 2094 
Q 2938 2591 2744 2837 
Q 2550 3084 2163 3084 
Q 1697 3084 1428 2787 
Q 1159 2491 1159 1978 
L 1159 0 
L 581 0 
L 581 3500 
L 1159 3500 
L 1159 2956 
Q 1366 3272 1645 3428 
Q 1925 3584 2291 3584 
Q 2894 3584 3203 3211 
Q 3513 2838 3513 2113 
z
" transform="scale(0.015625)"/>
       <path id="DejaVuSans-67" d="M 2906 1791 
Q 2906 2416 2648 2759 
Q 2391 3103 1925 3103 
Q 1463 3103 1205 2759 
Q 947 2416 947 1791 
Q 947 1169 1205 825 
Q 1463 481 1925 481 
Q 2391 481 2648 825 
Q 2906 1169 2906 1791 
z
M 3481 434 
Q 3481 -459 3084 -895 
Q 2688 -1331 1869 -1331 
Q 1566 -1331 1297 -1286 
Q 1028 -1241 775 -1147 
L 775 -588 
Q 1028 -725 1275 -790 
Q 1522 -856 1778 -856 
Q 2344 -856 2625 -561 
Q 2906 -266 2906 331 
L 2906 616 
Q 2728 306 2450 153 
Q 2172 0 1784 0 
Q 1141 0 747 490 
Q 353 981 353 1791 
Q 353 2603 747 3093 
Q 1141 3584 1784 3584 
Q 2172 3584 2450 3431 
Q 2728 3278 2906 2969 
L 2906 3500 
L 3481 3500 
L 3481 434 
z
" transform="scale(0.015625)"/>
       <path id="DejaVuSans-20" transform="scale(0.015625)"/>
       <path id="DejaVuSans-53" d="M 3425 4513 
L 3425 3897 
Q 3066 4069 2747 4153 
Q 2428 4238 2131 4238 
Q 1616 4238 1336 4038 
Q 1056 3838 1056 3469 
Q 1056 3159 1242 3001 
Q 1428 2844 1947 2747 
L 2328 2669 
Q 3034 2534 3370 2195 
Q 3706 1856 3706 1288 
Q 3706 609 3251 259 
Q 2797 -91 1919 -91 
Q 1588 -91 1214 -16 
Q 841 59 441 206 
L 441 856 
Q 825 641 1194 531 
Q 1563 422 1919 422 
Q 2459 422 2753 634 
Q 3047 847 3047 1241 
Q 3047 1584 2836 1778 
Q 2625 1972 2144 2069 
L 1759 2144 
Q 1053 2284 737 2584 
Q 422 2884 422 3419 
Q 422 4038 858 4394 
Q 1294 4750 2059 4750 
Q 2388 4750 2728 4690 
Q 3069 4631 3425 4513 
z
" transform="scale(0.015625)"/>
       <path id="DejaVuSans-74" d="M 1172 4494 
L 1172 3500 
L 2356 3500 
L 2356 3053 
L 1172 3053 
L 1172 1153 
Q 1172 725 1289 603 
Q 1406 481 1766 481 
L 2356 481 
L 2356 0 
L 1766 0 
Q 1100 0 847 248 
Q 594 497 594 1153 
L 594 3053 
L 172 3053 
L 172 3500 
L 594 3500 
L 594 4494 
L 1172 4494 
z
" transform="scale(0.015625)"/>
       <path id="DejaVuSans-65" d="M 3597 1894 
L 3597 1613 
L 953 1613 
Q 991 1019 1311 708 
Q 1631 397 2203 397 
Q 2534 397 2845 478 
Q 3156 559 3463 722 
L 3463 178 
Q 3153 47 2828 -22 
Q 2503 -91 2169 -91 
Q 1331 -91 842 396 
Q 353 884 353 1716 
Q 353 2575 817 3079 
Q 1281 3584 2069 3584 
Q 2775 3584 3186 3129 
Q 3597 2675 3597 1894 
z
M 3022 2063 
Q 3016 2534 2758 2815 
Q 2500 3097 2075 3097 
Q 1594 3097 1305 2825 
Q 1016 2553 972 2059 
L 3022 2063 
z
" transform="scale(0.015625)"/>
       <path id="DejaVuSans-70" d="M 1159 525 
L 1159 -1331 
L 581 -1331 
L 581 3500 
L 1159 3500 
L 1159 2969 
Q 1341 3281 1617 3432 
Q 1894 3584 2278 3584 
Q 2916 3584 3314 3078 
Q 3713 2572 3713 1747 
Q 3713 922 3314 415 
Q 2916 -91 2278 -91 
Q 1894 -91 1617 61 
Q 1341 213 1159 525 
z
M 3116 1747 
Q 3116 2381 2855 2742 
Q 2594 3103 2138 3103 
Q 1681 3103 1420 2742 
Q 1159 2381 1159 1747 
Q 1159 1113 1420 752 
Q 1681 391 2138 391 
Q 2594 391 2855 752 
Q 3116 1113 3116 1747 
z
" transform="scale(0.015625)"/>
      </defs>
      <use xlink:href="#DejaVuSans-54"/>
      <use xlink:href="#DejaVuSans-72" x="46.333984"/>
      <use xlink:href="#DejaVuSans-61" x="87.447266"/>
      <use xlink:href="#DejaVuSans-69" x="148.726562"/>
      <use xlink:href="#DejaVuSans-6e" x="176.509766"/>
      <use xlink:href="#DejaVuSans-69" x="239.888672"/>
      <use xlink:href="#DejaVuSans-6e" x="267.671875"/>
      <use xlink:href="#DejaVuSans-67" x="331.050781"/>
      <use xlink:href="#DejaVuSans-20" x="394.527344"/>
      <use xlink:href="#DejaVuSans-53" x="426.314453"/>
      <use xlink:href="#DejaVuSans-74" x="489.791016"/>
      <use xlink:href="#DejaVuSans-65" x="529"/>
      <use xlink:href="#DejaVuSans-70" x="590.523438"/>
     </g>
    </g>
   </g>
   <g id="matplotlib.axis_2">
    <g id="ytick_1">
     <g id="line2d_7">
      <path d="M 108 384.48 
L 777.6 384.48 
" clip-path="url(#p5d8095b684)" style="fill: none; stroke-dasharray: 2.96,1.28; stroke-dashoffset: 0; stroke: #b0b0b0; stroke-opacity: 0.5; stroke-width: 0.8"/>
     </g>
     <g id="line2d_8">
      <defs>
       <path id="m8f385e3a17" d="M 0 0 
L -3.5 0 
" style="stroke: #000000; stroke-width: 0.8"/>
      </defs>
      <g>
       <use xlink:href="#m8f385e3a17" x="108" y="384.48" style="stroke: #000000; stroke-width: 0.8"/>
      </g>
     </g>
     <g id="text_5">
      <!-- 0.0 -->
      <g transform="translate(85.096875 388.279219) scale(0.1 -0.1)">
       <defs>
        <path id="DejaVuSans-2e" d="M 684 794 
L 1344 794 
L 1344 0 
L 684 0 
L 684 794 
z
" transform="scale(0.015625)"/>
       </defs>
       <use xlink:href="#DejaVuSans-30"/>
       <use xlink:href="#DejaVuSans-2e" x="63.623047"/>
       <use xlink:href="#DejaVuSans-30" x="95.410156"/>
      </g>
     </g>
    </g>
    <g id="ytick_2">
     <g id="line2d_9">
      <path d="M 108 317.952 
L 777.6 317.952 
" clip-path="url(#p5d8095b684)" style="fill: none; stroke-dasharray: 2.96,1.28; stroke-dashoffset: 0; stroke: #b0b0b0; stroke-opacity: 0.5; stroke-width: 0.8"/>
     </g>
     <g id="line2d_10">
      <g>
       <use xlink:href="#m8f385e3a17" x="108" y="317.952" style="stroke: #000000; stroke-width: 0.8"/>
      </g>
     </g>
     <g id="text_6">
      <!-- 0.2 -->
      <g transform="translate(85.096875 321.751219) scale(0.1 -0.1)">
       <use xlink:href="#DejaVuSans-30"/>
       <use xlink:href="#DejaVuSans-2e" x="63.623047"/>
       <use xlink:href="#DejaVuSans-32" x="95.410156"/>
      </g>
     </g>
    </g>
    <g id="ytick_3">
     <g id="line2d_11">
      <path d="M 108 251.424 
L 777.6 251.424 
" clip-path="url(#p5d8095b684)" style="fill: none; stroke-dasharray: 2.96,1.28; stroke-dashoffset: 0; stroke: #b0b0b0; stroke-opacity: 0.5; stroke-width: 0.8"/>
     </g>
     <g id="line2d_12">
      <g>
       <use xlink:href="#m8f385e3a17" x="108" y="251.424" style="stroke: #000000; stroke-width: 0.8"/>
      </g>
     </g>
     <g id="text_7">
      <!-- 0.4 -->
      <g transform="translate(85.096875 255.223219) scale(0.1 -0.1)">
       <defs>
        <path id="DejaVuSans-34" d="M 2419 4116 
L 825 1625 
L 2419 1625 
L 2419 4116 
z
M 2253 4666 
L 3047 4666 
L 3047 1625 
L 3713 1625 
L 3713 1100 
L 3047 1100 
L 3047 0 
L 2419 0 
L 2419 1100 
L 313 1100 
L 313 1709 
L 2253 4666 
z
" transform="scale(0.015625)"/>
       </defs>
       <use xlink:href="#DejaVuSans-30"/>
       <use xlink:href="#DejaVuSans-2e" x="63.623047"/>
       <use xlink:href="#DejaVuSans-34" x="95.410156"/>
      </g>
     </g>
    </g>
    <g id="ytick_4">
     <g id="line2d_13">
      <path d="M 108 184.896 
L 777.6 184.896 
" clip-path="url(#p5d8095b684)" style="fill: none; stroke-dasharray: 2.96,1.28; stroke-dashoffset: 0; stroke: #b0b0b0; stroke-opacity: 0.5; stroke-width: 0.8"/>
     </g>
     <g id="line2d_14">
      <g>
       <use xlink:href="#m8f385e3a17" x="108" y="184.896" style="stroke: #000000; stroke-width: 0.8"/>
      </g>
     </g>
     <g id="text_8">
      <!-- 0.6 -->
      <g transform="translate(85.096875 188.695219) scale(0.1 -0.1)">
       <defs>
        <path id="DejaVuSans-36" d="M 2113 2584 
Q 1688 2584 1439 2293 
Q 1191 2003 1191 1497 
Q 1191 994 1439 701 
Q 1688 409 2113 409 
Q 2538 409 2786 701 
Q 3034 994 3034 1497 
Q 3034 2003 2786 2293 
Q 2538 2584 2113 2584 
z
M 3366 4563 
L 3366 3988 
Q 3128 4100 2886 4159 
Q 2644 4219 2406 4219 
Q 1781 4219 1451 3797 
Q 1122 3375 1075 2522 
Q 1259 2794 1537 2939 
Q 1816 3084 2150 3084 
Q 2853 3084 3261 2657 
Q 3669 2231 3669 1497 
Q 3669 778 3244 343 
Q 2819 -91 2113 -91 
Q 1303 -91 875 529 
Q 447 1150 447 2328 
Q 447 3434 972 4092 
Q 1497 4750 2381 4750 
Q 2619 4750 2861 4703 
Q 3103 4656 3366 4563 
z
" transform="scale(0.015625)"/>
       </defs>
       <use xlink:href="#DejaVuSans-30"/>
       <use xlink:href="#DejaVuSans-2e" x="63.623047"/>
       <use xlink:href="#DejaVuSans-36" x="95.410156"/>
      </g>
     </g>
    </g>
    <g id="ytick_5">
     <g id="line2d_15">
      <path d="M 108 118.368 
L 777.6 118.368 
" clip-path="url(#p5d8095b684)" style="fill: none; stroke-dasharray: 2.96,1.28; stroke-dashoffset: 0; stroke: #b0b0b0; stroke-opacity: 0.5; stroke-width: 0.8"/>
     </g>
     <g id="line2d_16">
      <g>
       <use xlink:href="#m8f385e3a17" x="108" y="118.368" style="stroke: #000000; stroke-width: 0.8"/>
      </g>
     </g>
     <g id="text_9">
      <!-- 0.8 -->
      <g transform="translate(85.096875 122.167219) scale(0.1 -0.1)">
       <defs>
        <path id="DejaVuSans-38" d="M 2034 2216 
Q 1584 2216 1326 1975 
Q 1069 1734 1069 1313 
Q 1069 891 1326 650 
Q 1584 409 2034 409 
Q 2484 409 2743 651 
Q 3003 894 3003 1313 
Q 3003 1734 2745 1975 
Q 2488 2216 2034 2216 
z
M 1403 2484 
Q 997 2584 770 2862 
Q 544 3141 544 3541 
Q 544 4100 942 4425 
Q 1341 4750 2034 4750 
Q 2731 4750 3128 4425 
Q 3525 4100 3525 3541 
Q 3525 3141 3298 2862 
Q 3072 2584 2669 2484 
Q 3125 2378 3379 2068 
Q 3634 1759 3634 1313 
Q 3634 634 3220 271 
Q 2806 -91 2034 -91 
Q 1263 -91 848 271 
Q 434 634 434 1313 
Q 434 1759 690 2068 
Q 947 2378 1403 2484 
z
M 1172 3481 
Q 1172 3119 1398 2916 
Q 1625 2713 2034 2713 
Q 2441 2713 2670 2916 
Q 2900 3119 2900 3481 
Q 2900 3844 2670 4047 
Q 2441 4250 2034 4250 
Q 1625 4250 1398 4047 
Q 1172 3844 1172 3481 
z
" transform="scale(0.015625)"/>
       </defs>
       <use xlink:href="#DejaVuSans-30"/>
       <use xlink:href="#DejaVuSans-2e" x="63.623047"/>
       <use xlink:href="#DejaVuSans-38" x="95.410156"/>
      </g>
     </g>
    </g>
    <g id="ytick_6">
     <g id="line2d_17">
      <path d="M 108 51.84 
L 777.6 51.84 
" clip-path="url(#p5d8095b684)" style="fill: none; stroke-dasharray: 2.96,1.28; stroke-dashoffset: 0; stroke: #b0b0b0; stroke-opacity: 0.5; stroke-width: 0.8"/>
     </g>
     <g id="line2d_18">
      <g>
       <use xlink:href="#m8f385e3a17" x="108" y="51.84" style="stroke: #000000; stroke-width: 0.8"/>
      </g>
     </g>
     <g id="text_10">
      <!-- 1.0 -->
      <g transform="translate(85.096875 55.639219) scale(0.1 -0.1)">
       <use xlink:href="#DejaVuSans-31"/>
       <use xlink:href="#DejaVuSans-2e" x="63.623047"/>
       <use xlink:href="#DejaVuSans-30" x="95.410156"/>
      </g>
     </g>
    </g>
    <g id="text_11">
     <!-- Battle Won Mean -->
     <g transform="translate(78.60125 269.232187) rotate(-90) scale(0.12 -0.12)">
      <defs>
       <path id="DejaVuSans-42" d="M 1259 2228 
L 1259 519 
L 2272 519 
Q 2781 519 3026 730 
Q 3272 941 3272 1375 
Q 3272 1813 3026 2020 
Q 2781 2228 2272 2228 
L 1259 2228 
z
M 1259 4147 
L 1259 2741 
L 2194 2741 
Q 2656 2741 2882 2914 
Q 3109 3088 3109 3444 
Q 3109 3797 2882 3972 
Q 2656 4147 2194 4147 
L 1259 4147 
z
M 628 4666 
L 2241 4666 
Q 2963 4666 3353 4366 
Q 3744 4066 3744 3513 
Q 3744 3084 3544 2831 
Q 3344 2578 2956 2516 
Q 3422 2416 3680 2098 
Q 3938 1781 3938 1306 
Q 3938 681 3513 340 
Q 3088 0 2303 0 
L 628 0 
L 628 4666 
z
" transform="scale(0.015625)"/>
       <path id="DejaVuSans-6c" d="M 603 4863 
L 1178 4863 
L 1178 0 
L 603 0 
L 603 4863 
z
" transform="scale(0.015625)"/>
       <path id="DejaVuSans-57" d="M 213 4666 
L 850 4666 
L 1831 722 
L 2809 4666 
L 3519 4666 
L 4500 722 
L 5478 4666 
L 6119 4666 
L 4947 0 
L 4153 0 
L 3169 4050 
L 2175 0 
L 1381 0 
L 213 4666 
z
" transform="scale(0.015625)"/>
       <path id="DejaVuSans-6f" d="M 1959 3097 
Q 1497 3097 1228 2736 
Q 959 2375 959 1747 
Q 959 1119 1226 758 
Q 1494 397 1959 397 
Q 2419 397 2687 759 
Q 2956 1122 2956 1747 
Q 2956 2369 2687 2733 
Q 2419 3097 1959 3097 
z
M 1959 3584 
Q 2709 3584 3137 3096 
Q 3566 2609 3566 1747 
Q 3566 888 3137 398 
Q 2709 -91 1959 -91 
Q 1206 -91 779 398 
Q 353 888 353 1747 
Q 353 2609 779 3096 
Q 1206 3584 1959 3584 
z
" transform="scale(0.015625)"/>
      </defs>
      <use xlink:href="#DejaVuSans-42"/>
      <use xlink:href="#DejaVuSans-61" x="68.603516"/>
      <use xlink:href="#DejaVuSans-74" x="129.882812"/>
      <use xlink:href="#DejaVuSans-74" x="169.091797"/>
      <use xlink:href="#DejaVuSans-6c" x="208.300781"/>
      <use xlink:href="#DejaVuSans-65" x="236.083984"/>
      <use xlink:href="#DejaVuSans-20" x="297.607422"/>
      <use xlink:href="#DejaVuSans-57" x="329.394531"/>
      <use xlink:href="#DejaVuSans-6f" x="422.396484"/>
      <use xlink:href="#DejaVuSans-6e" x="483.578125"/>
      <use xlink:href="#DejaVuSans-20" x="546.957031"/>
      <use xlink:href="#DejaVuSans-4d" x="578.744141"/>
      <use xlink:href="#DejaVuSans-65" x="665.023438"/>
      <use xlink:href="#DejaVuSans-61" x="726.546875"/>
      <use xlink:href="#DejaVuSans-6e" x="787.826172"/>
     </g>
    </g>
   </g>
   <g id="line2d_19">
    <path d="M 108.06865 384.48 
L 111.394061 372.93 
L 114.708961 266.897213 
L 117.99627 262.125121 
L 121.307557 273.784711 
L 124.635596 241.801584 
L 127.956738 253.356512 
L 131.254229 256.555994 
L 134.545151 276.501888 
L 137.867935 243.24453 
L 141.154587 236.239935 
L 144.499706 230.868851 
L 147.823146 236.97899 
L 151.10947 211.295625 
L 154.427655 199.78967 
L 157.72646 204.99629 
L 161.014098 210.525539 
L 164.322429 220.548998 
L 167.666562 210.220348 
L 170.957813 195.000809 
L 174.286837 187.085643 
L 177.626701 182.176288 
L 180.962295 178.261923 
L 184.269641 166.783331 
L 187.566147 157.620046 
L 190.906667 144.741112 
L 194.207115 137.230732 
L 197.49311 139.561095 
L 200.815565 130.318574 
L 204.158057 118.766558 
L 207.44865 113.692221 
L 210.774719 106.860363 
L 214.076809 101.396826 
L 217.384483 92.867134 
L 220.723689 91.591191 
L 224.048444 96.116422 
L 227.342651 96.963356 
L 230.668062 89.323096 
L 233.957342 85.983922 
L 237.249249 83.312783 
L 240.569733 78.403703 
L 243.861312 73.09051 
L 247.15322 77.156685 
L 250.495054 76.251299 
L 253.8024 72.754885 
L 257.110731 69.95781 
L 260.401653 71.8783 
L 263.727064 72.028643 
L 267.019629 69.376866 
L 270.32566 70.027502 
L 273.624794 78.864103 
L 276.957432 74.845244 
L 280.284814 73.016183 
L 283.580663 68.780922 
L 286.88111 66.778727 
L 290.184843 67.948986 
L 293.478721 66.113182 
L 296.802818 68.802551 
L 300.146624 69.568042 
L 303.481232 67.408429 
L 306.782994 68.452744 
L 310.103478 65.130192 
L 313.448926 70.788158 
L 316.742147 71.156527 
L 320.082668 68.679219 
L 323.389028 65.311374 
L 326.718381 64.003097 
L 330.005361 61.570477 
L 333.329459 59.624381 
L 339.991449 59.316802 
L 343.320474 60.593443 
L 346.622564 63.000754 
L 349.949617 81.558605 
L 353.25532 78.386885 
L 356.565951 80.007509 
L 359.85753 77.146009 
L 363.190824 73.470806 
L 366.478461 69.144644 
L 369.791391 67.069714 
L 373.095123 65.40977 
L 376.401483 69.625817 
L 379.707515 68.840655 
L 383.053291 68.212525 
L 386.356367 64.93802 
L 389.699187 62.318416 
L 393.01343 61.608732 
L 396.321104 59.654985 
L 399.665895 63.635987 
L 402.978496 77.90879 
L 406.324601 76.853032 
L 409.659537 71.850425 
L 412.964584 72.00634 
L 416.294265 69.359071 
L 419.620662 72.785258 
L 422.948372 71.368208 
L 426.234039 68.848565 
L 429.53153 76.534853 
L 432.831978 71.595883 
L 439.467691 71.968165 
L 442.813796 69.328531 
L 446.12147 65.830824 
L 449.455093 65.804661 
L 452.75981 69.94173 
L 456.087192 67.707383 
L 459.429356 67.305907 
L 462.734402 65.598725 
L 466.048974 64.232978 
L 469.342195 61.754383 
L 472.66892 63.929506 
L 476.016339 67.055604 
L 479.342078 70.942484 
L 482.677015 69.893989 
L 486.010638 71.82719 
L 492.597738 72.116201 
L 495.93366 69.44696 
L 499.233451 67.311566 
L 502.536198 64.217253 
L 505.886573 63.127801 
L 509.22775 62.25624 
L 512.571227 60.172992 
L 515.898609 58.506393 
L 519.233218 57.173115 
L 522.532351 57.49249 
L 525.830171 56.361992 
L 529.157553 56.843593 
L 532.459972 80.790874 
L 535.754179 80.544698 
L 539.090758 77.57576 
L 542.429636 76.586608 
L 545.719573 96.585286 
L 552.327366 81.585782 
L 555.647193 75.636626 
L 558.945999 70.877301 
L 562.257943 67.06984 
L 565.598135 64.023872 
L 568.931101 61.587098 
L 572.220709 61.023677 
L 578.842627 60.212351 
L 582.171651 59.923879 
L 585.5148 58.307104 
L 588.827072 59.785684 
L 592.154126 58.196547 
L 595.459172 58.311237 
L 598.767831 59.788991 
L 602.093899 58.199192 
L 605.422924 58.313353 
L 608.726328 57.018682 
L 612.062578 55.982946 
L 615.382077 57.926358 
L 618.677269 65.025086 
L 621.977717 63.774068 
L 625.272581 61.387254 
L 628.600291 62.249805 
L 631.901068 60.167844 
L 635.189033 58.502275 
L 638.498021 59.941821 
L 641.840184 59.707456 
L 645.183004 58.133965 
L 648.506773 61.033172 
L 651.83317 60.580536 
L 655.160552 58.832429 
L 658.452131 62.977942 
L 661.742068 63.522355 
L 665.074377 61.185884 
L 668.370554 67.632707 
L 671.685783 65.860164 
L 675.006267 67.214131 
L 678.315255 64.139305 
L 681.617017 61.679444 
L 684.913851 61.097554 
L 688.205759 62.018044 
L 691.521644 62.754437 
L 694.862822 61.957548 
L 698.212212 61.320037 
L 701.515944 62.196031 
L 704.838071 60.124825 
L 708.141146 94.503859 
L 714.84945 80.253669 
L 718.189314 77.342936 
L 721.547572 75.01435 
L 724.852947 70.37948 
L 728.178358 72.215583 
L 731.517894 77.842465 
L 734.84856 78.185971 
L 738.158534 81.232777 
L 741.501354 76.74022 
L 744.815597 73.146175 
L 748.14495 70.270938 
L 751.462149 72.128749 
L 754.747487 70.843001 
L 758.084724 68.428399 
L 761.410463 65.110719 
L 764.71321 62.456576 
L 768.016286 60.33326 
L 771.358449 58.634608 
L 771.358449 58.634608 
" clip-path="url(#p5d8095b684)" style="fill: none; stroke: #1f77b4; stroke-opacity: 0.9; stroke-width: 2.5; stroke-linecap: square"/>
   </g>
   <g id="line2d_20">
    <path d="M 108.073905 384.48 
L 111.375667 384.48 
L 114.722429 347.557867 
L 118.036672 296.681219 
L 121.347959 279.507486 
L 124.678297 287.298305 
L 127.967577 261.032252 
L 131.267039 267.383338 
L 134.592779 265.617689 
L 137.915234 265.853468 
L 141.216667 273.613343 
L 144.553575 292.958031 
L 147.870774 281.528055 
L 151.204726 259.572844 
L 157.804964 271.32913 
L 161.138916 273.211696 
L 164.477465 266.233651 
L 167.797293 241.0094 
L 171.109894 243.397047 
L 174.433663 256.488383 
L 177.774512 279.484387 
L 181.122587 251.810149 
L 184.469349 256.188796 
L 187.770782 248.554194 
L 191.098821 222.994103 
L 194.417006 227.582377 
L 197.727965 204.863958 
L 201.055347 179.764325 
L 204.352838 170.800363 
L 207.65887 178.894308 
L 210.959318 192.30207 
L 214.266663 189.155661 
L 217.579921 178.319034 
L 224.214977 163.828278 
L 227.532177 151.129325 
L 230.857588 158.993094 
L 234.164605 152.807449 
L 237.457169 139.542197 
L 240.789478 128.930631 
L 244.135912 137.075199 
L 247.448513 149.13498 
L 250.766041 140.763529 
L 254.100321 143.768954 
L 257.421462 135.08486 
L 260.752785 141.998082 
L 264.060459 141.984464 
L 267.368462 150.289718 
L 270.704056 156.933868 
L 274.007131 149.775011 
L 277.303965 150.97802 
L 280.596201 146.396384 
L 283.912416 156.591167 
L 287.263447 164.746971 
L 290.585574 156.025543 
L 293.900474 153.206425 
L 297.210776 149.565131 
L 300.517793 142.494091 
L 303.851744 136.837264 
L 307.144637 129.539801 
L 310.445413 127.859838 
L 313.779693 125.129868 
L 317.135324 142.349907 
L 320.469275 164.441936 
L 323.777934 158.553546 
L 327.084623 149.684834 
L 330.397552 166.151871 
L 333.711796 168.237497 
L 337.009944 157.431996 
L 340.340611 152.945596 
L 343.684088 143.812477 
L 347.014426 135.11998 
L 350.328998 153.113986 
L 353.658022 138.403186 
L 356.99493 133.564549 
L 360.307859 133.851639 
L 363.594183 122.99331 
L 366.898572 110.148646 
L 370.23121 102.644917 
L 373.516876 96.641933 
L 376.844258 100.155547 
L 383.470774 86.36555 
L 386.796186 83.61844 
L 390.110429 93.894752 
L 393.419417 93.799801 
L 396.758624 86.79384 
L 400.095531 88.119072 
L 403.41076 83.635259 
L 406.719748 88.364208 
L 410.061254 82.445365 
L 413.359731 83.254294 
L 416.653938 79.743436 
L 419.952086 76.93475 
L 423.281439 76.0738 
L 426.569405 75.38504 
L 429.900728 73.448033 
L 433.242235 73.284427 
L 436.55812 74.53954 
L 439.879261 72.771633 
L 443.215184 69.971305 
L 446.50512 67.731043 
L 449.792758 70.096833 
L 453.093205 70.603466 
L 456.436026 72.394772 
L 459.725962 77.985816 
L 463.050388 74.142652 
L 466.365617 75.22612 
L 469.689057 71.934895 
L 473.015782 76.231916 
L 476.346449 81.055531 
L 479.643284 75.212425 
L 482.983476 74.69594 
L 486.330238 72.896753 
L 489.642839 72.843403 
L 492.962009 70.028721 
L 496.250303 69.162978 
L 499.552393 65.698382 
L 502.861381 64.312705 
L 506.170041 68.748165 
L 509.492167 65.366532 
L 512.822834 64.047224 
L 516.125252 61.605779 
L 519.467087 61.038622 
L 522.802681 61.970899 
L 526.139917 64.102719 
L 529.439708 65.808175 
L 532.739827 64.400539 
L 536.03469 64.660433 
L 539.333167 63.482345 
L 542.62606 62.539874 
L 545.926179 61.785898 
L 549.261445 59.796719 
L 552.603936 59.591374 
L 555.889274 63.585098 
L 559.231109 61.236078 
L 562.524002 67.672862 
L 569.132124 66.962634 
L 572.472316 66.710109 
L 575.780318 65.122086 
L 579.111314 63.851667 
L 582.402564 61.449334 
L 585.746698 60.913466 
L 589.062584 63.256773 
L 592.347922 67.903419 
L 595.666764 67.462737 
L 599.002358 65.724188 
L 602.295907 67.105351 
L 605.616063 68.21028 
L 612.247178 67.306582 
L 615.584085 66.985267 
L 618.915737 70.886215 
L 622.247718 71.234972 
L 625.554735 67.355977 
L 628.878175 68.410782 
L 632.207857 72.026627 
L 635.538523 70.761303 
L 638.824519 69.749044 
L 642.153871 75.869234 
L 645.475341 71.063387 
L 648.799767 78.306711 
L 655.437451 78.757893 
L 658.767789 80.304315 
L 662.059039 78.769452 
L 665.392991 81.699562 
L 668.685884 79.885649 
L 672.031003 79.820518 
L 675.365612 81.154416 
L 678.661789 78.063534 
L 681.968806 72.818827 
L 685.278122 68.623062 
L 688.588096 65.266449 
L 691.884273 63.967158 
L 695.211655 67.085725 
L 698.49765 65.422579 
L 701.820434 64.092062 
L 705.130407 63.027648 
L 708.437753 60.790118 
L 711.725062 63.158095 
L 715.013684 63.666477 
L 718.343366 61.301182 
L 721.681259 66.338947 
L 724.979736 64.825156 
L 728.318614 63.614124 
L 731.610193 61.259299 
L 734.906699 62.14744 
L 738.237037 62.857954 
L 741.563763 64.812363 
L 744.871108 62.21789 
L 748.206373 62.914314 
L 751.500252 66.24345 
L 754.808911 63.36276 
L 758.096548 61.058208 
L 761.441011 60.600565 
L 764.755254 63.006452 
L 768.073439 63.545163 
L 768.073439 63.545163 
" clip-path="url(#p5d8095b684)" style="fill: none; stroke: #ff7f0e; stroke-opacity: 0.9; stroke-width: 2.5; stroke-linecap: square"/>
   </g>
   <g id="line2d_21">
    <path d="M 108.06865 384.48 
L 111.395375 342.129999 
L 114.710932 291.322622 
L 118.001197 282.971464 
L 121.333835 286.368219 
L 124.658918 260.36634 
L 127.998453 237.408456 
L 131.331748 221.124827 
L 134.669969 230.045123 
L 138.004906 233.593056 
L 141.292215 231.732636 
L 144.62321 255.606724 
L 147.910847 260.881355 
L 151.196186 267.891388 
L 154.530465 271.947834 
L 157.863103 259.452558 
L 161.197711 272.272731 
L 164.531006 283.834462 
L 167.865943 277.53884 
L 171.188726 254.307228 
L 174.47702 251.20719 
L 177.764658 245.944924 
L 181.095325 245.931863 
L 184.384276 229.210524 
L 187.689651 220.035757 
L 191.081084 246.073299 
L 194.369707 219.63672 
L 197.661286 220.72949 
L 200.993923 228.543684 
L 204.285502 204.260888 
L 207.584965 184.845484 
L 210.901507 169.320088 
L 214.21805 161.064839 
L 217.557257 155.849227 
L 220.882668 151.677689 
L 224.205123 148.341069 
L 227.538089 144.285803 
L 230.840508 141.04197 
L 234.125846 138.447146 
L 237.443374 140.529995 
L 240.762544 153.285351 
L 244.072517 153.786324 
L 247.40614 152.800993 
L 250.726953 156.170979 
L 254.030028 150.55054 
L 257.347885 148.826371 
L 260.675595 148.833098 
L 264.010532 143.294354 
L 267.326089 148.565578 
L 270.671209 150.010483 
L 274.012715 162.254528 
L 277.313491 163.733637 
L 283.928182 152.00346 
L 287.246367 151.374767 
L 290.56291 139.78377 
L 293.887335 136.055004 
L 297.200922 133.071994 
L 300.511224 130.68559 
L 303.821854 134.320479 
L 307.122301 137.228388 
L 310.414209 128.466702 
L 313.741919 125.615359 
L 317.039082 152.440304 
L 320.341829 153.110244 
L 323.663627 163.348198 
L 326.988053 150.748553 
L 330.2908 150.370843 
L 333.593547 138.980672 
L 336.931112 139.570537 
L 340.219078 135.884428 
L 343.532664 134.321543 
L 346.871871 138.615235 
L 350.172319 139.278187 
L 353.477365 131.492548 
L 356.806061 134.96604 
L 360.093698 133.586833 
L 363.405642 133.869466 
L 366.705761 141.025575 
L 370.032158 142.592461 
L 373.326365 143.84597 
L 376.664586 139.304775 
L 379.961092 134.28582 
L 383.253328 128.884657 
L 386.545893 124.563727 
L 389.844698 123.87898 
L 393.167153 126.103184 
L 396.472199 134.812549 
L 399.786771 130.692039 
L 403.124664 132.93963 
L 406.416243 133.351704 
L 409.723917 128.137364 
L 413.065752 122.57989 
L 416.376711 111.203913 
L 419.715261 114.577132 
L 423.006511 114.503706 
L 426.322068 106.128965 
L 429.658976 107.745172 
L 432.984387 111.810139 
L 436.329835 116.448111 
L 439.667728 120.158489 
L 443.008249 125.898792 
L 446.330704 124.947033 
L 449.654473 125.571627 
L 452.990066 124.685301 
L 456.298069 126.74824 
L 459.615925 125.626591 
L 462.941337 120.571272 
L 466.255908 137.317016 
L 469.583947 136.853613 
L 472.873556 126.780891 
L 476.21112 127.038715 
L 479.514196 118.928973 
L 482.805446 115.213177 
L 486.130857 115.012542 
L 492.755403 131.078425 
L 496.044025 119.38874 
L 499.388488 115.580991 
L 502.708315 113.920794 
L 506.025186 108.434637 
L 509.367021 104.045711 
L 512.703271 122.710568 
L 516.006675 121.010455 
L 519.346539 115.492364 
L 522.660126 108.30589 
L 525.952362 105.328712 
L 529.283357 101.560971 
L 532.613367 99.932777 
L 535.974909 102.788221 
L 539.292109 106.458576 
L 545.890048 106.754291 
L 549.174729 115.175434 
L 552.475177 108.052346 
L 555.767084 110.669875 
L 559.096437 125.237899 
L 562.403454 111.944318 
L 565.690106 104.081454 
L 568.991539 99.177162 
L 572.315308 96.639731 
L 575.613457 89.065783 
L 578.927043 85.778627 
L 582.22979 84.5349 
L 585.546004 82.15392 
L 588.886196 95.495137 
L 592.231973 95.08011 
L 595.534391 86.432088 
L 598.819072 80.899669 
L 602.112294 77.859737 
L 605.454785 76.813789 
L 608.753262 77.36303 
L 612.078673 73.644423 
L 615.408355 72.05554 
L 618.723255 70.784433 
L 622.02436 66.995546 
L 625.342873 68.122437 
L 632.01209 67.250362 
L 635.322063 68.32629 
L 638.611671 66.41503 
L 641.960732 64.886023 
L 645.245413 62.276818 
L 648.580022 61.575453 
L 651.872586 65.172361 
L 655.158253 65.27789 
L 658.467241 63.976311 
L 665.089815 64.596841 
L 668.38008 66.203473 
L 671.670017 63.330779 
L 678.269927 64.183701 
L 681.610119 63.100959 
L 684.908267 65.006767 
L 688.202803 62.373414 
L 691.50325 64.424731 
L 694.798114 63.293784 
L 698.102503 63.775028 
L 701.398681 62.774021 
L 704.713581 61.973216 
L 708.002204 65.490571 
L 711.305279 64.146456 
L 714.596201 63.071163 
L 721.180673 64.017547 
L 724.487033 62.968036 
L 727.826569 60.742429 
L 731.153622 60.347942 
L 734.460311 62.804353 
L 737.773569 61.997481 
L 741.07336 59.965985 
L 744.384318 58.340788 
L 751.039739 58.495302 
L 754.366136 59.936243 
L 757.687606 73.562996 
L 761.046192 74.762395 
L 764.332516 70.177916 
L 767.660226 69.282334 
L 771.001404 65.793867 
L 774.29791 64.389093 
L 777.6 63.265273 
L 777.6 63.265273 
" clip-path="url(#p5d8095b684)" style="fill: none; stroke: #2ca02c; stroke-opacity: 0.9; stroke-width: 2.5; stroke-linecap: square"/>
   </g>
   <g id="line2d_22">
    <path d="M 108.06865 384.48 
L 117.99627 384.48 
L 121.307557 382.712984 
L 124.635596 368.618032 
L 127.956738 347.951551 
L 131.254229 331.378793 
L 134.545151 320.699713 
L 141.154587 302.224387 
L 144.499706 295.014016 
L 147.823146 283.31188 
L 151.10947 269.340939 
L 154.427655 261.709026 
L 157.72646 260.992657 
L 161.014098 253.031382 
L 164.322429 260.325709 
L 167.666562 255.313048 
L 170.957813 242.129874 
L 174.286837 233.8576 
L 177.626701 228.088311 
L 180.962295 223.128121 
L 184.269641 214.122467 
L 187.566147 200.003788 
L 190.906667 188.599149 
L 194.207115 176.731162 
L 197.49311 169.971083 
L 200.815565 162.33743 
L 204.158057 154.289579 
L 207.44865 147.65309 
L 210.774719 143.887489 
L 214.076809 139.643303 
L 217.384483 134.874071 
L 220.723689 131.37953 
L 224.048444 128.104485 
L 227.342651 127.129748 
L 230.668062 124.623729 
L 233.957342 118.079496 
L 237.249249 113.454981 
L 240.569733 112.065839 
L 243.861312 111.271661 
L 247.15322 110.839412 
L 250.495054 110.2815 
L 253.8024 109.467936 
L 257.110731 108.454994 
L 260.401653 109.527574 
L 263.727064 107.265547 
L 270.32566 107.217441 
L 273.624794 107.816345 
L 276.957432 107.555076 
L 280.284814 102.688251 
L 283.580663 100.064584 
L 286.88111 95.963647 
L 290.184843 93.914912 
L 293.478721 91.462335 
L 296.802818 90.039467 
L 300.146624 94.707262 
L 303.481232 92.253126 
L 306.782994 90.218496 
L 310.103478 88.856795 
L 313.448926 87.767435 
L 316.742147 88.408772 
L 320.082668 92.998314 
L 323.389028 97.946729 
L 326.718381 97.36123 
L 330.005361 95.474645 
L 333.329459 94.104178 
L 336.666695 93.351341 
L 339.991449 92.287072 
L 343.320474 89.895656 
L 346.622564 89.188374 
L 349.949617 90.191605 
L 353.25532 90.517437 
L 356.565951 91.251949 
L 359.85753 91.685559 
L 363.190824 91.875541 
L 366.478461 92.51055 
L 369.791391 90.228441 
L 373.095123 89.611509 
L 376.401483 95.030167 
L 379.707515 93.908519 
L 383.053291 91.927947 
L 389.699187 87.530694 
L 393.01343 85.727349 
L 399.665895 85.267932 
L 402.978496 91.300934 
L 406.324601 97.046986 
L 409.659537 93.8111 
L 412.964584 92.163824 
L 416.294265 91.18306 
L 419.620662 89.474448 
L 429.53153 97.932348 
L 432.831978 100.127997 
L 439.467691 95.680586 
L 442.813796 93.949084 
L 446.12147 98.167587 
L 449.455093 93.13852 
L 452.75981 92.253384 
L 456.087192 92.326784 
L 459.429356 89.157428 
L 462.734402 86.87183 
L 466.048974 83.715465 
L 469.342195 83.737296 
L 472.66892 84.234527 
L 476.016339 87.90114 
L 479.342078 85.239175 
L 482.677015 90.686841 
L 486.010638 88.879887 
L 489.305502 86.091908 
L 492.597738 83.791789 
L 495.93366 84.02343 
L 499.233451 82.764631 
L 502.536198 82.123704 
L 505.886573 80.224963 
L 509.22775 79.255139 
L 512.571227 80.048337 
L 515.898609 79.010168 
L 519.233218 79.582135 
L 522.532351 79.996122 
L 525.830171 80.216899 
L 529.157553 78.55102 
L 532.459972 81.995534 
L 535.754179 84.920118 
L 539.090758 88.160092 
L 542.429636 88.758474 
L 545.719573 91.573648 
L 549.036773 91.158388 
L 552.327366 90.958473 
L 555.647193 88.312666 
L 558.945999 85.975747 
L 562.257943 84.894196 
L 565.598135 84.873395 
L 568.931101 83.656715 
L 572.220709 83.530372 
L 575.554989 81.425897 
L 578.842627 80.306409 
L 582.171651 78.090728 
L 585.5148 75.36508 
L 588.827072 74.288865 
L 592.154126 74.486291 
L 595.459172 72.267032 
L 598.767831 74.578549 
L 602.093899 74.804841 
L 605.422924 80.734158 
L 608.726328 80.133213 
L 612.062578 78.083402 
L 615.382077 78.751874 
L 618.677269 80.870206 
L 621.977717 81.301164 
L 625.272581 78.642931 
L 628.600291 79.596345 
L 631.901068 78.278676 
L 635.189033 77.541204 
L 638.498021 76.637414 
L 641.840184 76.913931 
L 645.183004 75.527945 
L 648.506773 74.570357 
L 651.83317 76.771229 
L 655.160552 77.904303 
L 658.452131 78.340047 
L 661.742068 78.237538 
L 665.074377 77.11603 
L 668.370554 78.547306 
L 671.685783 85.112843 
L 675.006267 87.100391 
L 678.315255 85.284313 
L 681.617017 86.751527 
L 684.913851 85.31322 
L 688.205759 84.855576 
L 691.521644 84.842498 
L 694.862822 86.557999 
L 698.212212 89.288113 
L 701.515944 90.730492 
L 704.838071 93.507317 
L 711.490207 95.135859 
L 714.84945 91.281488 
L 718.189314 88.197991 
L 721.547572 89.242393 
L 724.852947 90.801045 
L 728.178358 89.994277 
L 731.517894 89.55996 
L 734.84856 91.291506 
L 738.158534 94.000029 
L 741.501354 100.600794 
L 744.815597 103.987915 
L 748.14495 100.026331 
L 751.462149 97.920535 
L 754.747487 96.078995 
L 758.084724 91.467647 
L 761.410463 88.470119 
L 764.71321 89.626415 
L 768.016286 86.619395 
L 771.358449 84.621131 
L 771.358449 84.621131 
" clip-path="url(#p5d8095b684)" style="fill: none; stroke: #d62728; stroke-opacity: 0.9; stroke-width: 2.5; stroke-linecap: square"/>
   </g>
   <g id="patch_3">
    <path d="M 108 384.48 
L 108 51.84 
" style="fill: none; stroke: #000000; stroke-width: 0.8; stroke-linejoin: miter; stroke-linecap: square"/>
   </g>
   <g id="patch_4">
    <path d="M 108 384.48 
L 777.6 384.48 
" style="fill: none; stroke: #000000; stroke-width: 0.8; stroke-linejoin: miter; stroke-linecap: square"/>
   </g>
   <g id="text_12">
    <!-- 3m -->
    <g transform="translate(431.527812 45.84) scale(0.14 -0.14)">
     <defs>
      <path id="DejaVuSans-33" d="M 2597 2516 
Q 3050 2419 3304 2112 
Q 3559 1806 3559 1356 
Q 3559 666 3084 287 
Q 2609 -91 1734 -91 
Q 1441 -91 1130 -33 
Q 819 25 488 141 
L 488 750 
Q 750 597 1062 519 
Q 1375 441 1716 441 
Q 2309 441 2620 675 
Q 2931 909 2931 1356 
Q 2931 1769 2642 2001 
Q 2353 2234 1838 2234 
L 1294 2234 
L 1294 2753 
L 1863 2753 
Q 2328 2753 2575 2939 
Q 2822 3125 2822 3475 
Q 2822 3834 2567 4026 
Q 2313 4219 1838 4219 
Q 1578 4219 1281 4162 
Q 984 4106 628 3988 
L 628 4550 
Q 988 4650 1302 4700 
Q 1616 4750 1894 4750 
Q 2613 4750 3031 4423 
Q 3450 4097 3450 3541 
Q 3450 3153 3228 2886 
Q 3006 2619 2597 2516 
z
" transform="scale(0.015625)"/>
      <path id="DejaVuSans-6d" d="M 3328 2828 
Q 3544 3216 3844 3400 
Q 4144 3584 4550 3584 
Q 5097 3584 5394 3201 
Q 5691 2819 5691 2113 
L 5691 0 
L 5113 0 
L 5113 2094 
Q 5113 2597 4934 2840 
Q 4756 3084 4391 3084 
Q 3944 3084 3684 2787 
Q 3425 2491 3425 1978 
L 3425 0 
L 2847 0 
L 2847 2094 
Q 2847 2600 2669 2842 
Q 2491 3084 2119 3084 
Q 1678 3084 1418 2786 
Q 1159 2488 1159 1978 
L 1159 0 
L 581 0 
L 581 3500 
L 1159 3500 
L 1159 2956 
Q 1356 3278 1631 3431 
Q 1906 3584 2284 3584 
Q 2666 3584 2933 3390 
Q 3200 3197 3328 2828 
z
" transform="scale(0.015625)"/>
     </defs>
     <use xlink:href="#DejaVuSans-33"/>
     <use xlink:href="#DejaVuSans-6d" x="63.623047"/>
    </g>
   </g>
   <g id="legend_1">
    <g id="patch_5">
     <path d="M 677.648438 379.48 
L 770.6 379.48 
Q 772.6 379.48 772.6 377.48 
L 772.6 319.7675 
Q 772.6 317.7675 770.6 317.7675 
L 677.648438 317.7675 
Q 675.648438 317.7675 675.648438 319.7675 
L 675.648438 377.48 
Q 675.648438 379.48 677.648438 379.48 
z
" style="fill: #ffffff; opacity: 0.8; stroke: #cccccc; stroke-linejoin: miter"/>
    </g>
    <g id="line2d_23">
     <path d="M 679.648438 325.865937 
L 689.648438 325.865937 
L 699.648438 325.865937 
" style="fill: none; stroke: #1f77b4; stroke-opacity: 0.9; stroke-width: 2.5; stroke-linecap: square"/>
    </g>
    <g id="text_13">
     <!-- Intent(Ours) -->
     <g transform="translate(707.648438 329.365937) scale(0.1 -0.1)">
      <defs>
       <path id="DejaVuSans-49" d="M 628 4666 
L 1259 4666 
L 1259 0 
L 628 0 
L 628 4666 
z
" transform="scale(0.015625)"/>
       <path id="DejaVuSans-28" d="M 1984 4856 
Q 1566 4138 1362 3434 
Q 1159 2731 1159 2009 
Q 1159 1288 1364 580 
Q 1569 -128 1984 -844 
L 1484 -844 
Q 1016 -109 783 600 
Q 550 1309 550 2009 
Q 550 2706 781 3412 
Q 1013 4119 1484 4856 
L 1984 4856 
z
" transform="scale(0.015625)"/>
       <path id="DejaVuSans-4f" d="M 2522 4238 
Q 1834 4238 1429 3725 
Q 1025 3213 1025 2328 
Q 1025 1447 1429 934 
Q 1834 422 2522 422 
Q 3209 422 3611 934 
Q 4013 1447 4013 2328 
Q 4013 3213 3611 3725 
Q 3209 4238 2522 4238 
z
M 2522 4750 
Q 3503 4750 4090 4092 
Q 4678 3434 4678 2328 
Q 4678 1225 4090 567 
Q 3503 -91 2522 -91 
Q 1538 -91 948 565 
Q 359 1222 359 2328 
Q 359 3434 948 4092 
Q 1538 4750 2522 4750 
z
" transform="scale(0.015625)"/>
       <path id="DejaVuSans-75" d="M 544 1381 
L 544 3500 
L 1119 3500 
L 1119 1403 
Q 1119 906 1312 657 
Q 1506 409 1894 409 
Q 2359 409 2629 706 
Q 2900 1003 2900 1516 
L 2900 3500 
L 3475 3500 
L 3475 0 
L 2900 0 
L 2900 538 
Q 2691 219 2414 64 
Q 2138 -91 1772 -91 
Q 1169 -91 856 284 
Q 544 659 544 1381 
z
M 1991 3584 
L 1991 3584 
z
" transform="scale(0.015625)"/>
       <path id="DejaVuSans-73" d="M 2834 3397 
L 2834 2853 
Q 2591 2978 2328 3040 
Q 2066 3103 1784 3103 
Q 1356 3103 1142 2972 
Q 928 2841 928 2578 
Q 928 2378 1081 2264 
Q 1234 2150 1697 2047 
L 1894 2003 
Q 2506 1872 2764 1633 
Q 3022 1394 3022 966 
Q 3022 478 2636 193 
Q 2250 -91 1575 -91 
Q 1294 -91 989 -36 
Q 684 19 347 128 
L 347 722 
Q 666 556 975 473 
Q 1284 391 1588 391 
Q 1994 391 2212 530 
Q 2431 669 2431 922 
Q 2431 1156 2273 1281 
Q 2116 1406 1581 1522 
L 1381 1569 
Q 847 1681 609 1914 
Q 372 2147 372 2553 
Q 372 3047 722 3315 
Q 1072 3584 1716 3584 
Q 2034 3584 2315 3537 
Q 2597 3491 2834 3397 
z
" transform="scale(0.015625)"/>
       <path id="DejaVuSans-29" d="M 513 4856 
L 1013 4856 
Q 1481 4119 1714 3412 
Q 1947 2706 1947 2009 
Q 1947 1309 1714 600 
Q 1481 -109 1013 -844 
L 513 -844 
Q 928 -128 1133 580 
Q 1338 1288 1338 2009 
Q 1338 2731 1133 3434 
Q 928 4138 513 4856 
z
" transform="scale(0.015625)"/>
      </defs>
      <use xlink:href="#DejaVuSans-49"/>
      <use xlink:href="#DejaVuSans-6e" x="29.492188"/>
      <use xlink:href="#DejaVuSans-74" x="92.871094"/>
      <use xlink:href="#DejaVuSans-65" x="132.080078"/>
      <use xlink:href="#DejaVuSans-6e" x="193.603516"/>
      <use xlink:href="#DejaVuSans-74" x="256.982422"/>
      <use xlink:href="#DejaVuSans-28" x="296.191406"/>
      <use xlink:href="#DejaVuSans-4f" x="335.205078"/>
      <use xlink:href="#DejaVuSans-75" x="413.916016"/>
      <use xlink:href="#DejaVuSans-72" x="477.294922"/>
      <use xlink:href="#DejaVuSans-73" x="518.408203"/>
      <use xlink:href="#DejaVuSans-29" x="570.507812"/>
     </g>
    </g>
    <g id="line2d_24">
     <path d="M 679.648438 340.544062 
L 689.648438 340.544062 
L 699.648438 340.544062 
" style="fill: none; stroke: #ff7f0e; stroke-opacity: 0.9; stroke-width: 2.5; stroke-linecap: square"/>
    </g>
    <g id="text_14">
     <!-- QMIX -->
     <g transform="translate(707.648438 344.044062) scale(0.1 -0.1)">
      <defs>
       <path id="DejaVuSans-51" d="M 2522 4238 
Q 1834 4238 1429 3725 
Q 1025 3213 1025 2328 
Q 1025 1447 1429 934 
Q 1834 422 2522 422 
Q 3209 422 3611 934 
Q 4013 1447 4013 2328 
Q 4013 3213 3611 3725 
Q 3209 4238 2522 4238 
z
M 3406 84 
L 4238 -825 
L 3475 -825 
L 2784 -78 
Q 2681 -84 2626 -87 
Q 2572 -91 2522 -91 
Q 1538 -91 948 567 
Q 359 1225 359 2328 
Q 359 3434 948 4092 
Q 1538 4750 2522 4750 
Q 3503 4750 4090 4092 
Q 4678 3434 4678 2328 
Q 4678 1516 4351 937 
Q 4025 359 3406 84 
z
" transform="scale(0.015625)"/>
       <path id="DejaVuSans-58" d="M 403 4666 
L 1081 4666 
L 2241 2931 
L 3406 4666 
L 4084 4666 
L 2584 2425 
L 4184 0 
L 3506 0 
L 2194 1984 
L 872 0 
L 191 0 
L 1856 2491 
L 403 4666 
z
" transform="scale(0.015625)"/>
      </defs>
      <use xlink:href="#DejaVuSans-51"/>
      <use xlink:href="#DejaVuSans-4d" x="78.710938"/>
      <use xlink:href="#DejaVuSans-49" x="164.990234"/>
      <use xlink:href="#DejaVuSans-58" x="194.482422"/>
     </g>
    </g>
    <g id="line2d_25">
     <path d="M 679.648438 355.222188 
L 689.648438 355.222188 
L 699.648438 355.222188 
" style="fill: none; stroke: #2ca02c; stroke-opacity: 0.9; stroke-width: 2.5; stroke-linecap: square"/>
    </g>
    <g id="text_15">
     <!-- MAIC -->
     <g transform="translate(707.648438 358.722188) scale(0.1 -0.1)">
      <defs>
       <path id="DejaVuSans-41" d="M 2188 4044 
L 1331 1722 
L 3047 1722 
L 2188 4044 
z
M 1831 4666 
L 2547 4666 
L 4325 0 
L 3669 0 
L 3244 1197 
L 1141 1197 
L 716 0 
L 50 0 
L 1831 4666 
z
" transform="scale(0.015625)"/>
       <path id="DejaVuSans-43" d="M 4122 4306 
L 4122 3641 
Q 3803 3938 3442 4084 
Q 3081 4231 2675 4231 
Q 1875 4231 1450 3742 
Q 1025 3253 1025 2328 
Q 1025 1406 1450 917 
Q 1875 428 2675 428 
Q 3081 428 3442 575 
Q 3803 722 4122 1019 
L 4122 359 
Q 3791 134 3420 21 
Q 3050 -91 2638 -91 
Q 1578 -91 968 557 
Q 359 1206 359 2328 
Q 359 3453 968 4101 
Q 1578 4750 2638 4750 
Q 3056 4750 3426 4639 
Q 3797 4528 4122 4306 
z
" transform="scale(0.015625)"/>
      </defs>
      <use xlink:href="#DejaVuSans-4d"/>
      <use xlink:href="#DejaVuSans-41" x="86.279297"/>
      <use xlink:href="#DejaVuSans-49" x="154.6875"/>
      <use xlink:href="#DejaVuSans-43" x="184.179688"/>
     </g>
    </g>
    <g id="line2d_26">
     <path d="M 679.648438 369.900312 
L 689.648438 369.900312 
L 699.648438 369.900312 
" style="fill: none; stroke: #d62728; stroke-opacity: 0.9; stroke-width: 2.5; stroke-linecap: square"/>
    </g>
    <g id="text_16">
     <!-- T2MAC -->
     <g transform="translate(707.648438 373.400312) scale(0.1 -0.1)">
      <use xlink:href="#DejaVuSans-54"/>
      <use xlink:href="#DejaVuSans-32" x="61.083984"/>
      <use xlink:href="#DejaVuSans-4d" x="124.707031"/>
      <use xlink:href="#DejaVuSans-41" x="210.986328"/>
      <use xlink:href="#DejaVuSans-43" x="277.644531"/>
     </g>
    </g>
   </g>
  </g>
 </g>
 <defs>
  <clipPath id="p5d8095b684">
   <rect x="108" y="51.84" width="669.6" height="332.64"/>
  </clipPath>
 </defs>
</svg>
