<?xml version="1.0" encoding="utf-8" standalone="no"?>
<!DOCTYPE svg PUBLIC "-//W3C//DTD SVG 1.1//EN"
  "http://www.w3.org/Graphics/SVG/1.1/DTD/svg11.dtd">
<svg xmlns:xlink="http://www.w3.org/1999/xlink" width="864pt" height="432pt" viewBox="0 0 864 432" xmlns="http://www.w3.org/2000/svg" version="1.1">
 <metadata>
  <rdf:RDF xmlns:dc="http://purl.org/dc/elements/1.1/" xmlns:cc="http://creativecommons.org/ns#" xmlns:rdf="http://www.w3.org/1999/02/22-rdf-syntax-ns#">
   <cc:Work>
    <dc:type rdf:resource="http://purl.org/dc/dcmitype/StillImage"/>
    <dc:date>2026-04-18T20:42:43.787050</dc:date>
    <dc:format>image/svg+xml</dc:format>
    <dc:creator>
     <cc:Agent>
      <dc:title>Matplotlib v3.9.4, https://matplotlib.org/</dc:title>
     </cc:Agent>
    </dc:creator>
   </cc:Work>
  </rdf:RDF>
 </metadata>
 <defs>
  <style type="text/css">*{stroke-linejoin: round; stroke-linecap: butt}</style>
 </defs>
 <g id="figure_1">
  <g id="patch_1">
   <path d="M 0 432 
L 864 432 
L 864 0 
L 0 0 
z
" style="fill: #ffffff"/>
  </g>
  <g id="axes_1">
   <g id="patch_2">
    <path d="M 108 384.48 
L 777.6 384.48 
L 777.6 51.84 
L 108 51.84 
z
" style="fill: #ffffff"/>
   </g>
   <g id="matplotlib.axis_1">
    <g id="xtick_1">
     <g id="line2d_1">
      <path d="M 108 384.48 
L 108 51.84 
" clip-path="url(#p440d5f792b)" style="fill: none; stroke-dasharray: 2.96,1.28; stroke-dashoffset: 0; stroke: #b0b0b0; stroke-opacity: 0.5; stroke-width: 0.8"/>
     </g>
     <g id="line2d_2">
      <defs>
       <path id="ma0896b0650" d="M 0 0 
L 0 3.5 
" style="stroke: #000000; stroke-width: 0.8"/>
      </defs>
      <g>
       <use xlink:href="#ma0896b0650" x="108" y="384.48" style="stroke: #000000; stroke-width: 0.8"/>
      </g>
     </g>
     <g id="text_1">
      <!-- 0 -->
      <g transform="translate(104.81875 399.078438) scale(0.1 -0.1)">
       <defs>
        <path id="DejaVuSans-30" d="M 2034 4250 
Q 1547 4250 1301 3770 
Q 1056 3291 1056 2328 
Q 1056 1369 1301 889 
Q 1547 409 2034 409 
Q 2525 409 2770 889 
Q 3016 1369 3016 2328 
Q 3016 3291 2770 3770 
Q 2525 4250 2034 4250 
z
M 2034 4750 
Q 2819 4750 3233 4129 
Q 3647 3509 3647 2328 
Q 3647 1150 3233 529 
Q 2819 -91 2034 -91 
Q 1250 -91 836 529 
Q 422 1150 422 2328 
Q 422 3509 836 4129 
Q 1250 4750 2034 4750 
z
" transform="scale(0.015625)"/>
       </defs>
       <use xlink:href="#DejaVuSans-30"/>
      </g>
     </g>
    </g>
    <g id="xtick_2">
     <g id="line2d_3">
      <path d="M 435.869655 384.48 
L 435.869655 51.84 
" clip-path="url(#p440d5f792b)" style="fill: none; stroke-dasharray: 2.96,1.28; stroke-dashoffset: 0; stroke: #b0b0b0; stroke-opacity: 0.5; stroke-width: 0.8"/>
     </g>
     <g id="line2d_4">
      <g>
       <use xlink:href="#ma0896b0650" x="435.869655" y="384.48" style="stroke: #000000; stroke-width: 0.8"/>
      </g>
     </g>
     <g id="text_2">
      <!-- 1M -->
      <g transform="translate(428.374343 399.078438) scale(0.1 -0.1)">
       <defs>
        <path id="DejaVuSans-31" d="M 794 531 
L 1825 531 
L 1825 4091 
L 703 3866 
L 703 4441 
L 1819 4666 
L 2450 4666 
L 2450 531 
L 3481 531 
L 3481 0 
L 794 0 
L 794 531 
z
" transform="scale(0.015625)"/>
        <path id="DejaVuSans-4d" d="M 628 4666 
L 1569 4666 
L 2759 1491 
L 3956 4666 
L 4897 4666 
L 4897 0 
L 4281 0 
L 4281 4097 
L 3078 897 
L 2444 897 
L 1241 4097 
L 1241 0 
L 628 0 
L 628 4666 
z
" transform="scale(0.015625)"/>
       </defs>
       <use xlink:href="#DejaVuSans-31"/>
       <use xlink:href="#DejaVuSans-4d" x="63.623047"/>
      </g>
     </g>
    </g>
    <g id="xtick_3">
     <g id="line2d_5">
      <path d="M 763.73931 384.48 
L 763.73931 51.84 
" clip-path="url(#p440d5f792b)" style="fill: none; stroke-dasharray: 2.96,1.28; stroke-dashoffset: 0; stroke: #b0b0b0; stroke-opacity: 0.5; stroke-width: 0.8"/>
     </g>
     <g id="line2d_6">
      <g>
       <use xlink:href="#ma0896b0650" x="763.73931" y="384.48" style="stroke: #000000; stroke-width: 0.8"/>
      </g>
     </g>
     <g id="text_3">
      <!-- 2M -->
      <g transform="translate(756.243998 399.078438) scale(0.1 -0.1)">
       <defs>
        <path id="DejaVuSans-32" d="M 1228 531 
L 3431 531 
L 3431 0 
L 469 0 
L 469 531 
Q 828 903 1448 1529 
Q 2069 2156 2228 2338 
Q 2531 2678 2651 2914 
Q 2772 3150 2772 3378 
Q 2772 3750 2511 3984 
Q 2250 4219 1831 4219 
Q 1534 4219 1204 4116 
Q 875 4013 500 3803 
L 500 4441 
Q 881 4594 1212 4672 
Q 1544 4750 1819 4750 
Q 2544 4750 2975 4387 
Q 3406 4025 3406 3419 
Q 3406 3131 3298 2873 
Q 3191 2616 2906 2266 
Q 2828 2175 2409 1742 
Q 1991 1309 1228 531 
z
" transform="scale(0.015625)"/>
       </defs>
       <use xlink:href="#DejaVuSans-32"/>
       <use xlink:href="#DejaVuSans-4d" x="63.623047"/>
      </g>
     </g>
    </g>
    <g id="text_4">
     <!-- Training Step -->
     <g transform="translate(403.56 414.27625) scale(0.12 -0.12)">
      <defs>
       <path id="DejaVuSans-54" d="M -19 4666 
L 3928 4666 
L 3928 4134 
L 2272 4134 
L 2272 0 
L 1638 0 
L 1638 4134 
L -19 4134 
L -19 4666 
z
" transform="scale(0.015625)"/>
       <path id="DejaVuSans-72" d="M 2631 2963 
Q 2534 3019 2420 3045 
Q 2306 3072 2169 3072 
Q 1681 3072 1420 2755 
Q 1159 2438 1159 1844 
L 1159 0 
L 581 0 
L 581 3500 
L 1159 3500 
L 1159 2956 
Q 1341 3275 1631 3429 
Q 1922 3584 2338 3584 
Q 2397 3584 2469 3576 
Q 2541 3569 2628 3553 
L 2631 2963 
z
" transform="scale(0.015625)"/>
       <path id="DejaVuSans-61" d="M 2194 1759 
Q 1497 1759 1228 1600 
Q 959 1441 959 1056 
Q 959 750 1161 570 
Q 1363 391 1709 391 
Q 2188 391 2477 730 
Q 2766 1069 2766 1631 
L 2766 1759 
L 2194 1759 
z
M 3341 1997 
L 3341 0 
L 2766 0 
L 2766 531 
Q 2569 213 2275 61 
Q 1981 -91 1556 -91 
Q 1019 -91 701 211 
Q 384 513 384 1019 
Q 384 1609 779 1909 
Q 1175 2209 1959 2209 
L 2766 2209 
L 2766 2266 
Q 2766 2663 2505 2880 
Q 2244 3097 1772 3097 
Q 1472 3097 1187 3025 
Q 903 2953 641 2809 
L 641 3341 
Q 956 3463 1253 3523 
Q 1550 3584 1831 3584 
Q 2591 3584 2966 3190 
Q 3341 2797 3341 1997 
z
" transform="scale(0.015625)"/>
       <path id="DejaVuSans-69" d="M 603 3500 
L 1178 3500 
L 1178 0 
L 603 0 
L 603 3500 
z
M 603 4863 
L 1178 4863 
L 1178 4134 
L 603 4134 
L 603 4863 
z
" transform="scale(0.015625)"/>
       <path id="DejaVuSans-6e" d="M 3513 2113 
L 3513 0 
L 2938 0 
L 2938 2094 
Q 2938 2591 2744 2837 
Q 2550 3084 2163 3084 
Q 1697 3084 1428 2787 
Q 1159 2491 1159 1978 
L 1159 0 
L 581 0 
L 581 3500 
L 1159 3500 
L 1159 2956 
Q 1366 3272 1645 3428 
Q 1925 3584 2291 3584 
Q 2894 3584 3203 3211 
Q 3513 2838 3513 2113 
z
" transform="scale(0.015625)"/>
       <path id="DejaVuSans-67" d="M 2906 1791 
Q 2906 2416 2648 2759 
Q 2391 3103 1925 3103 
Q 1463 3103 1205 2759 
Q 947 2416 947 1791 
Q 947 1169 1205 825 
Q 1463 481 1925 481 
Q 2391 481 2648 825 
Q 2906 1169 2906 1791 
z
M 3481 434 
Q 3481 -459 3084 -895 
Q 2688 -1331 1869 -1331 
Q 1566 -1331 1297 -1286 
Q 1028 -1241 775 -1147 
L 775 -588 
Q 1028 -725 1275 -790 
Q 1522 -856 1778 -856 
Q 2344 -856 2625 -561 
Q 2906 -266 2906 331 
L 2906 616 
Q 2728 306 2450 153 
Q 2172 0 1784 0 
Q 1141 0 747 490 
Q 353 981 353 1791 
Q 353 2603 747 3093 
Q 1141 3584 1784 3584 
Q 2172 3584 2450 3431 
Q 2728 3278 2906 2969 
L 2906 3500 
L 3481 3500 
L 3481 434 
z
" transform="scale(0.015625)"/>
       <path id="DejaVuSans-20" transform="scale(0.015625)"/>
       <path id="DejaVuSans-53" d="M 3425 4513 
L 3425 3897 
Q 3066 4069 2747 4153 
Q 2428 4238 2131 4238 
Q 1616 4238 1336 4038 
Q 1056 3838 1056 3469 
Q 1056 3159 1242 3001 
Q 1428 2844 1947 2747 
L 2328 2669 
Q 3034 2534 3370 2195 
Q 3706 1856 3706 1288 
Q 3706 609 3251 259 
Q 2797 -91 1919 -91 
Q 1588 -91 1214 -16 
Q 841 59 441 206 
L 441 856 
Q 825 641 1194 531 
Q 1563 422 1919 422 
Q 2459 422 2753 634 
Q 3047 847 3047 1241 
Q 3047 1584 2836 1778 
Q 2625 1972 2144 2069 
L 1759 2144 
Q 1053 2284 737 2584 
Q 422 2884 422 3419 
Q 422 4038 858 4394 
Q 1294 4750 2059 4750 
Q 2388 4750 2728 4690 
Q 3069 4631 3425 4513 
z
" transform="scale(0.015625)"/>
       <path id="DejaVuSans-74" d="M 1172 4494 
L 1172 3500 
L 2356 3500 
L 2356 3053 
L 1172 3053 
L 1172 1153 
Q 1172 725 1289 603 
Q 1406 481 1766 481 
L 2356 481 
L 2356 0 
L 1766 0 
Q 1100 0 847 248 
Q 594 497 594 1153 
L 594 3053 
L 172 3053 
L 172 3500 
L 594 3500 
L 594 4494 
L 1172 4494 
z
" transform="scale(0.015625)"/>
       <path id="DejaVuSans-65" d="M 3597 1894 
L 3597 1613 
L 953 1613 
Q 991 1019 1311 708 
Q 1631 397 2203 397 
Q 2534 397 2845 478 
Q 3156 559 3463 722 
L 3463 178 
Q 3153 47 2828 -22 
Q 2503 -91 2169 -91 
Q 1331 -91 842 396 
Q 353 884 353 1716 
Q 353 2575 817 3079 
Q 1281 3584 2069 3584 
Q 2775 3584 3186 3129 
Q 3597 2675 3597 1894 
z
M 3022 2063 
Q 3016 2534 2758 2815 
Q 2500 3097 2075 3097 
Q 1594 3097 1305 2825 
Q 1016 2553 972 2059 
L 3022 2063 
z
" transform="scale(0.015625)"/>
       <path id="DejaVuSans-70" d="M 1159 525 
L 1159 -1331 
L 581 -1331 
L 581 3500 
L 1159 3500 
L 1159 2969 
Q 1341 3281 1617 3432 
Q 1894 3584 2278 3584 
Q 2916 3584 3314 3078 
Q 3713 2572 3713 1747 
Q 3713 922 3314 415 
Q 2916 -91 2278 -91 
Q 1894 -91 1617 61 
Q 1341 213 1159 525 
z
M 3116 1747 
Q 3116 2381 2855 2742 
Q 2594 3103 2138 3103 
Q 1681 3103 1420 2742 
Q 1159 2381 1159 1747 
Q 1159 1113 1420 752 
Q 1681 391 2138 391 
Q 2594 391 2855 752 
Q 3116 1113 3116 1747 
z
" transform="scale(0.015625)"/>
      </defs>
      <use xlink:href="#DejaVuSans-54"/>
      <use xlink:href="#DejaVuSans-72" x="46.333984"/>
      <use xlink:href="#DejaVuSans-61" x="87.447266"/>
      <use xlink:href="#DejaVuSans-69" x="148.726562"/>
      <use xlink:href="#DejaVuSans-6e" x="176.509766"/>
      <use xlink:href="#DejaVuSans-69" x="239.888672"/>
      <use xlink:href="#DejaVuSans-6e" x="267.671875"/>
      <use xlink:href="#DejaVuSans-67" x="331.050781"/>
      <use xlink:href="#DejaVuSans-20" x="394.527344"/>
      <use xlink:href="#DejaVuSans-53" x="426.314453"/>
      <use xlink:href="#DejaVuSans-74" x="489.791016"/>
      <use xlink:href="#DejaVuSans-65" x="529"/>
      <use xlink:href="#DejaVuSans-70" x="590.523438"/>
     </g>
    </g>
   </g>
   <g id="matplotlib.axis_2">
    <g id="ytick_1">
     <g id="line2d_7">
      <path d="M 108 384.48 
L 777.6 384.48 
" clip-path="url(#p440d5f792b)" style="fill: none; stroke-dasharray: 2.96,1.28; stroke-dashoffset: 0; stroke: #b0b0b0; stroke-opacity: 0.5; stroke-width: 0.8"/>
     </g>
     <g id="line2d_8">
      <defs>
       <path id="m4a3407f60d" d="M 0 0 
L -3.5 0 
" style="stroke: #000000; stroke-width: 0.8"/>
      </defs>
      <g>
       <use xlink:href="#m4a3407f60d" x="108" y="384.48" style="stroke: #000000; stroke-width: 0.8"/>
      </g>
     </g>
     <g id="text_5">
      <!-- 0.0 -->
      <g transform="translate(85.096875 388.279219) scale(0.1 -0.1)">
       <defs>
        <path id="DejaVuSans-2e" d="M 684 794 
L 1344 794 
L 1344 0 
L 684 0 
L 684 794 
z
" transform="scale(0.015625)"/>
       </defs>
       <use xlink:href="#DejaVuSans-30"/>
       <use xlink:href="#DejaVuSans-2e" x="63.623047"/>
       <use xlink:href="#DejaVuSans-30" x="95.410156"/>
      </g>
     </g>
    </g>
    <g id="ytick_2">
     <g id="line2d_9">
      <path d="M 108 317.952 
L 777.6 317.952 
" clip-path="url(#p440d5f792b)" style="fill: none; stroke-dasharray: 2.96,1.28; stroke-dashoffset: 0; stroke: #b0b0b0; stroke-opacity: 0.5; stroke-width: 0.8"/>
     </g>
     <g id="line2d_10">
      <g>
       <use xlink:href="#m4a3407f60d" x="108" y="317.952" style="stroke: #000000; stroke-width: 0.8"/>
      </g>
     </g>
     <g id="text_6">
      <!-- 0.2 -->
      <g transform="translate(85.096875 321.751219) scale(0.1 -0.1)">
       <use xlink:href="#DejaVuSans-30"/>
       <use xlink:href="#DejaVuSans-2e" x="63.623047"/>
       <use xlink:href="#DejaVuSans-32" x="95.410156"/>
      </g>
     </g>
    </g>
    <g id="ytick_3">
     <g id="line2d_11">
      <path d="M 108 251.424 
L 777.6 251.424 
" clip-path="url(#p440d5f792b)" style="fill: none; stroke-dasharray: 2.96,1.28; stroke-dashoffset: 0; stroke: #b0b0b0; stroke-opacity: 0.5; stroke-width: 0.8"/>
     </g>
     <g id="line2d_12">
      <g>
       <use xlink:href="#m4a3407f60d" x="108" y="251.424" style="stroke: #000000; stroke-width: 0.8"/>
      </g>
     </g>
     <g id="text_7">
      <!-- 0.4 -->
      <g transform="translate(85.096875 255.223219) scale(0.1 -0.1)">
       <defs>
        <path id="DejaVuSans-34" d="M 2419 4116 
L 825 1625 
L 2419 1625 
L 2419 4116 
z
M 2253 4666 
L 3047 4666 
L 3047 1625 
L 3713 1625 
L 3713 1100 
L 3047 1100 
L 3047 0 
L 2419 0 
L 2419 1100 
L 313 1100 
L 313 1709 
L 2253 4666 
z
" transform="scale(0.015625)"/>
       </defs>
       <use xlink:href="#DejaVuSans-30"/>
       <use xlink:href="#DejaVuSans-2e" x="63.623047"/>
       <use xlink:href="#DejaVuSans-34" x="95.410156"/>
      </g>
     </g>
    </g>
    <g id="ytick_4">
     <g id="line2d_13">
      <path d="M 108 184.896 
L 777.6 184.896 
" clip-path="url(#p440d5f792b)" style="fill: none; stroke-dasharray: 2.96,1.28; stroke-dashoffset: 0; stroke: #b0b0b0; stroke-opacity: 0.5; stroke-width: 0.8"/>
     </g>
     <g id="line2d_14">
      <g>
       <use xlink:href="#m4a3407f60d" x="108" y="184.896" style="stroke: #000000; stroke-width: 0.8"/>
      </g>
     </g>
     <g id="text_8">
      <!-- 0.6 -->
      <g transform="translate(85.096875 188.695219) scale(0.1 -0.1)">
       <defs>
        <path id="DejaVuSans-36" d="M 2113 2584 
Q 1688 2584 1439 2293 
Q 1191 2003 1191 1497 
Q 1191 994 1439 701 
Q 1688 409 2113 409 
Q 2538 409 2786 701 
Q 3034 994 3034 1497 
Q 3034 2003 2786 2293 
Q 2538 2584 2113 2584 
z
M 3366 4563 
L 3366 3988 
Q 3128 4100 2886 4159 
Q 2644 4219 2406 4219 
Q 1781 4219 1451 3797 
Q 1122 3375 1075 2522 
Q 1259 2794 1537 2939 
Q 1816 3084 2150 3084 
Q 2853 3084 3261 2657 
Q 3669 2231 3669 1497 
Q 3669 778 3244 343 
Q 2819 -91 2113 -91 
Q 1303 -91 875 529 
Q 447 1150 447 2328 
Q 447 3434 972 4092 
Q 1497 4750 2381 4750 
Q 2619 4750 2861 4703 
Q 3103 4656 3366 4563 
z
" transform="scale(0.015625)"/>
       </defs>
       <use xlink:href="#DejaVuSans-30"/>
       <use xlink:href="#DejaVuSans-2e" x="63.623047"/>
       <use xlink:href="#DejaVuSans-36" x="95.410156"/>
      </g>
     </g>
    </g>
    <g id="ytick_5">
     <g id="line2d_15">
      <path d="M 108 118.368 
L 777.6 118.368 
" clip-path="url(#p440d5f792b)" style="fill: none; stroke-dasharray: 2.96,1.28; stroke-dashoffset: 0; stroke: #b0b0b0; stroke-opacity: 0.5; stroke-width: 0.8"/>
     </g>
     <g id="line2d_16">
      <g>
       <use xlink:href="#m4a3407f60d" x="108" y="118.368" style="stroke: #000000; stroke-width: 0.8"/>
      </g>
     </g>
     <g id="text_9">
      <!-- 0.8 -->
      <g transform="translate(85.096875 122.167219) scale(0.1 -0.1)">
       <defs>
        <path id="DejaVuSans-38" d="M 2034 2216 
Q 1584 2216 1326 1975 
Q 1069 1734 1069 1313 
Q 1069 891 1326 650 
Q 1584 409 2034 409 
Q 2484 409 2743 651 
Q 3003 894 3003 1313 
Q 3003 1734 2745 1975 
Q 2488 2216 2034 2216 
z
M 1403 2484 
Q 997 2584 770 2862 
Q 544 3141 544 3541 
Q 544 4100 942 4425 
Q 1341 4750 2034 4750 
Q 2731 4750 3128 4425 
Q 3525 4100 3525 3541 
Q 3525 3141 3298 2862 
Q 3072 2584 2669 2484 
Q 3125 2378 3379 2068 
Q 3634 1759 3634 1313 
Q 3634 634 3220 271 
Q 2806 -91 2034 -91 
Q 1263 -91 848 271 
Q 434 634 434 1313 
Q 434 1759 690 2068 
Q 947 2378 1403 2484 
z
M 1172 3481 
Q 1172 3119 1398 2916 
Q 1625 2713 2034 2713 
Q 2441 2713 2670 2916 
Q 2900 3119 2900 3481 
Q 2900 3844 2670 4047 
Q 2441 4250 2034 4250 
Q 1625 4250 1398 4047 
Q 1172 3844 1172 3481 
z
" transform="scale(0.015625)"/>
       </defs>
       <use xlink:href="#DejaVuSans-30"/>
       <use xlink:href="#DejaVuSans-2e" x="63.623047"/>
       <use xlink:href="#DejaVuSans-38" x="95.410156"/>
      </g>
     </g>
    </g>
    <g id="ytick_6">
     <g id="line2d_17">
      <path d="M 108 51.84 
L 777.6 51.84 
" clip-path="url(#p440d5f792b)" style="fill: none; stroke-dasharray: 2.96,1.28; stroke-dashoffset: 0; stroke: #b0b0b0; stroke-opacity: 0.5; stroke-width: 0.8"/>
     </g>
     <g id="line2d_18">
      <g>
       <use xlink:href="#m4a3407f60d" x="108" y="51.84" style="stroke: #000000; stroke-width: 0.8"/>
      </g>
     </g>
     <g id="text_10">
      <!-- 1.0 -->
      <g transform="translate(85.096875 55.639219) scale(0.1 -0.1)">
       <use xlink:href="#DejaVuSans-31"/>
       <use xlink:href="#DejaVuSans-2e" x="63.623047"/>
       <use xlink:href="#DejaVuSans-30" x="95.410156"/>
      </g>
     </g>
    </g>
    <g id="text_11">
     <!-- Battle Won Mean -->
     <g transform="translate(78.60125 269.232187) rotate(-90) scale(0.12 -0.12)">
      <defs>
       <path id="DejaVuSans-42" d="M 1259 2228 
L 1259 519 
L 2272 519 
Q 2781 519 3026 730 
Q 3272 941 3272 1375 
Q 3272 1813 3026 2020 
Q 2781 2228 2272 2228 
L 1259 2228 
z
M 1259 4147 
L 1259 2741 
L 2194 2741 
Q 2656 2741 2882 2914 
Q 3109 3088 3109 3444 
Q 3109 3797 2882 3972 
Q 2656 4147 2194 4147 
L 1259 4147 
z
M 628 4666 
L 2241 4666 
Q 2963 4666 3353 4366 
Q 3744 4066 3744 3513 
Q 3744 3084 3544 2831 
Q 3344 2578 2956 2516 
Q 3422 2416 3680 2098 
Q 3938 1781 3938 1306 
Q 3938 681 3513 340 
Q 3088 0 2303 0 
L 628 0 
L 628 4666 
z
" transform="scale(0.015625)"/>
       <path id="DejaVuSans-6c" d="M 603 4863 
L 1178 4863 
L 1178 0 
L 603 0 
L 603 4863 
z
" transform="scale(0.015625)"/>
       <path id="DejaVuSans-57" d="M 213 4666 
L 850 4666 
L 1831 722 
L 2809 4666 
L 3519 4666 
L 4500 722 
L 5478 4666 
L 6119 4666 
L 4947 0 
L 4153 0 
L 3169 4050 
L 2175 0 
L 1381 0 
L 213 4666 
z
" transform="scale(0.015625)"/>
       <path id="DejaVuSans-6f" d="M 1959 3097 
Q 1497 3097 1228 2736 
Q 959 2375 959 1747 
Q 959 1119 1226 758 
Q 1494 397 1959 397 
Q 2419 397 2687 759 
Q 2956 1122 2956 1747 
Q 2956 2369 2687 2733 
Q 2419 3097 1959 3097 
z
M 1959 3584 
Q 2709 3584 3137 3096 
Q 3566 2609 3566 1747 
Q 3566 888 3137 398 
Q 2709 -91 1959 -91 
Q 1206 -91 779 398 
Q 353 888 353 1747 
Q 353 2609 779 3096 
Q 1206 3584 1959 3584 
z
" transform="scale(0.015625)"/>
      </defs>
      <use xlink:href="#DejaVuSans-42"/>
      <use xlink:href="#DejaVuSans-61" x="68.603516"/>
      <use xlink:href="#DejaVuSans-74" x="129.882812"/>
      <use xlink:href="#DejaVuSans-74" x="169.091797"/>
      <use xlink:href="#DejaVuSans-6c" x="208.300781"/>
      <use xlink:href="#DejaVuSans-65" x="236.083984"/>
      <use xlink:href="#DejaVuSans-20" x="297.607422"/>
      <use xlink:href="#DejaVuSans-57" x="329.394531"/>
      <use xlink:href="#DejaVuSans-6f" x="422.396484"/>
      <use xlink:href="#DejaVuSans-6e" x="483.578125"/>
      <use xlink:href="#DejaVuSans-20" x="546.957031"/>
      <use xlink:href="#DejaVuSans-4d" x="578.744141"/>
      <use xlink:href="#DejaVuSans-65" x="665.023438"/>
      <use xlink:href="#DejaVuSans-61" x="726.546875"/>
      <use xlink:href="#DejaVuSans-6e" x="787.826172"/>
     </g>
    </g>
   </g>
   <g id="line2d_19">
    <path d="M 108.032787 384.48 
L 216.646823 384.48 
L 219.957979 383.934467 
L 229.839643 384.200743 
L 236.441626 384.301289 
L 239.730814 383.858365 
L 243.009511 383.542082 
L 246.291814 383.729679 
L 252.864289 383.330939 
L 256.152822 383.191147 
L 259.441682 382.717827 
L 262.736772 380.40909 
L 266.019403 380.144435 
L 269.312526 376.09749 
L 272.596469 377.36334 
L 275.8791 374.847491 
L 279.179763 374.058559 
L 282.468296 373.895279 
L 285.749616 374.780227 
L 289.031263 371.667411 
L 292.329632 371.477045 
L 295.637509 370.214717 
L 298.923746 367.950231 
L 302.226049 365.528604 
L 305.521139 363.977217 
L 308.805738 363.819982 
L 312.116565 361.857816 
L 318.710352 364.714406 
L 322.00577 361.275524 
L 325.305122 361.414524 
L 328.592343 359.734429 
L 331.875958 357.345896 
L 335.177277 355.974235 
L 338.482859 356.783623 
L 341.764179 356.854844 
L 345.050416 354.654042 
L 348.329441 350.883429 
L 351.623219 348.816026 
L 354.920605 349.978359 
L 358.199957 353.466995 
L 361.480293 353.371087 
L 364.775383 352.159574 
L 368.069489 351.769259 
L 371.377366 351.781052 
L 374.665899 352.847018 
L 377.963284 352.78392 
L 381.252472 355.447556 
L 384.539366 356.530163 
L 387.837079 359.48908 
L 391.123644 360.380597 
L 394.407259 360.113042 
L 397.698742 358.220875 
L 400.98334 352.2407 
L 404.262365 350.565955 
L 407.558766 344.458965 
L 410.849594 347.595269 
L 414.145668 347.448215 
L 417.431905 345.071043 
L 420.721093 343.898728 
L 424.003397 343.801649 
L 427.311274 346.267319 
L 430.622429 345.640838 
L 433.912929 340.984767 
L 437.218839 338.095066 
L 440.501142 337.32106 
L 443.792625 333.018035 
L 447.100502 325.846829 
L 450.391986 321.367925 
L 453.686748 322.250104 
L 456.9661 317.165057 
L 460.256272 319.172893 
L 463.544149 317.541013 
L 466.834321 310.55461 
L 470.125805 305.772629 
L 473.410403 299.195031 
L 476.69369 297.304177 
L 479.976976 296.998541 
L 483.268788 296.897104 
L 486.558632 296.553818 
L 489.844214 294.31283 
L 493.144222 292.21279 
L 496.425541 293.828898 
L 499.712762 297.077856 
L 502.995393 295.486925 
L 506.274418 296.983977 
L 509.572131 299.062784 
L 512.860991 294.396689 
L 516.14854 294.79004 
L 519.445925 297.049459 
L 526.016105 297.927874 
L 529.306933 296.59351 
L 532.612187 294.078458 
L 535.897441 291.422767 
L 539.185318 288.573569 
L 542.490572 284.426855 
L 545.778121 283.38432 
L 549.062391 288.967296 
L 552.348301 286.901837 
L 555.643391 289.490227 
L 558.936186 293.044182 
L 562.229309 297.45434 
L 565.524727 293.962857 
L 568.812604 294.673343 
L 572.113595 293.568724 
L 575.402456 295.329511 
L 578.688365 294.151608 
L 581.968701 290.617286 
L 585.265431 292.979589 
L 588.567406 290.205584 
L 591.853316 284.720954 
L 595.152996 282.086096 
L 598.435955 280.530125 
L 601.732684 283.256206 
L 608.311717 277.692196 
L 611.600249 277.881757 
L 614.892061 278.799485 
L 618.173708 276.356044 
L 621.477978 276.506607 
L 624.761265 274.309816 
L 628.058978 273.741392 
L 631.348494 271.85319 
L 634.653093 270.428471 
L 637.940642 269.632068 
L 641.219666 271.705039 
L 644.504592 267.735796 
L 647.793453 269.21879 
L 651.076739 263.824577 
L 654.383961 262.013926 
L 657.680362 262.625294 
L 660.961354 266.491031 
L 664.247591 271.287434 
L 667.534157 272.673947 
L 670.818755 275.200722 
L 674.108271 275.019177 
L 677.399755 271.587781 
L 680.688287 274.294225 
L 683.96764 277.38632 
L 687.248959 274.575723 
L 690.542738 266.097976 
L 693.838156 262.158984 
L 697.129311 259.407188 
L 700.435549 258.524944 
L 703.716868 251.294083 
L 707.010647 255.075021 
L 710.294589 255.468017 
L 713.576565 257.895711 
L 716.857884 257.913189 
L 720.150679 254.907199 
L 723.441179 253.401435 
L 730.006769 253.503188 
L 733.2894 255.188235 
L 736.573342 248.89883 
L 739.872695 249.231064 
L 743.162539 249.126565 
L 746.473694 253.869361 
L 749.761243 256.640602 
L 753.042563 255.773515 
L 756.334702 255.860223 
L 759.645202 254.347884 
L 762.952095 255.201549 
L 766.239972 253.300525 
L 769.527193 257.664201 
L 772.813103 256.15181 
L 776.095734 254.846638 
L 776.095734 254.846638 
" clip-path="url(#p440d5f792b)" style="fill: none; stroke: #1f77b4; stroke-opacity: 0.9; stroke-width: 2.5; stroke-linecap: square"/>
   </g>
   <g id="line2d_20">
    <path d="M 108.262296 384.48 
L 298.83227 384.48 
L 302.285066 381.707993 
L 305.64409 382.262396 
L 312.48673 383.060734 
L 315.914607 383.344588 
L 319.223468 378.027666 
L 322.719542 379.318133 
L 326.236928 378.964507 
L 329.593329 380.067606 
L 333.027764 380.950085 
L 336.444166 381.656068 
L 339.794338 382.220855 
L 346.655011 383.034147 
L 353.418634 383.554654 
L 360.148486 383.887779 
L 363.481937 382.620223 
L 370.368183 383.289743 
L 376.958691 383.718235 
L 380.35247 382.484588 
L 386.985273 383.202936 
L 390.284298 382.072349 
L 397.167921 382.939103 
L 404.041053 383.493826 
L 410.749922 383.848849 
L 414.167635 382.589079 
L 420.823717 383.269811 
L 424.228971 383.511848 
L 427.56275 380.933479 
L 430.962102 381.642783 
L 434.311619 378.052226 
L 437.733266 379.337781 
L 441.162127 380.366225 
L 444.638529 381.18898 
L 451.384447 382.373747 
L 454.719865 382.794998 
L 458.004136 381.745998 
L 464.871038 382.730239 
L 471.547447 383.360153 
L 474.834996 379.426122 
L 478.223201 380.436898 
L 481.542882 379.859518 
L 484.860267 378.011614 
L 491.677333 377.845433 
L 495.071112 379.172347 
L 501.802931 378.588302 
L 505.126218 378.380641 
L 508.551472 379.600513 
L 512.027874 380.57641 
L 515.386243 379.971128 
L 518.736415 380.872903 
L 522.185276 381.594322 
L 525.558071 382.171458 
L 532.345629 383.002533 
L 535.660391 381.912026 
L 542.418113 382.836497 
L 545.778449 383.165197 
L 549.096818 382.042158 
L 555.776506 382.919781 
L 562.547342 383.48146 
L 565.835875 383.681168 
L 569.178506 382.454934 
L 572.551301 381.473947 
L 575.890326 382.075158 
L 582.677556 382.940901 
L 585.983793 381.862721 
L 592.658236 382.804941 
L 596.022834 378.981953 
L 602.677605 378.46645 
L 606.025809 379.66916 
L 612.630744 378.906262 
L 615.91108 378.63501 
L 619.334694 379.804008 
L 622.785195 380.739206 
L 626.157334 380.101365 
L 629.539965 380.977092 
L 632.867842 380.291674 
L 636.19867 381.129339 
L 639.50917 381.799471 
L 646.348203 382.764461 
L 649.69149 380.335569 
L 653.072154 379.778455 
L 656.519376 380.718764 
L 659.836761 380.085011 
L 663.189556 380.964009 
L 666.626941 381.667207 
L 669.959736 380.843766 
L 673.425974 381.571013 
L 676.719097 377.99481 
L 680.140745 379.291848 
L 683.561409 377.557478 
L 686.977483 376.169983 
L 690.284376 375.059986 
L 693.607663 376.943989 
L 696.967344 377.065191 
L 700.265384 378.548153 
L 703.584409 378.348522 
L 706.985073 379.574818 
L 710.393606 380.555854 
L 713.747713 379.954683 
L 717.079196 378.087747 
L 720.378548 379.366197 
L 723.802163 379.002958 
L 727.188729 375.940366 
L 730.569721 376.262293 
L 733.964155 377.905834 
L 737.383508 376.448667 
L 740.742205 372.510934 
L 747.475992 371.830197 
L 750.916656 372.974158 
L 754.330435 375.275326 
L 757.636345 377.116261 
L 761.032746 378.589009 
L 764.389476 379.767207 
L 767.70555 379.323766 
L 771.153427 380.355013 
L 771.153427 380.355013 
" clip-path="url(#p440d5f792b)" style="fill: none; stroke: #ff7f0e; stroke-opacity: 0.9; stroke-width: 2.5; stroke-linecap: square"/>
   </g>
   <g id="line2d_21">
    <path d="M 108.262296 384.48 
L 169.165396 384.48 
L 172.525404 381.675668 
L 179.330011 382.692732 
L 186.024781 383.339201 
L 192.825454 383.751134 
L 202.832691 384.107372 
L 216.396987 384.327511 
L 219.780274 384.358024 
L 223.133724 381.609304 
L 229.716691 382.643023 
L 236.439659 383.304445 
L 243.332462 383.72769 
L 246.701979 383.878164 
L 249.987561 382.612445 
L 256.72102 383.284794 
L 260.049225 380.751747 
L 263.406282 380.11138 
L 266.725962 379.599092 
L 270.218102 380.575291 
L 273.56434 381.356244 
L 276.901397 380.594987 
L 280.354192 379.985984 
L 283.652233 380.884794 
L 286.931913 381.603839 
L 290.300774 382.179074 
L 297.036201 383.00741 
L 300.425717 381.915925 
L 303.759168 382.428741 
L 307.133274 381.452991 
L 310.430332 377.900389 
L 313.902143 377.830311 
L 317.236906 376.388247 
L 320.52052 378.006599 
L 323.90184 377.915279 
L 327.239881 375.070222 
L 330.638906 376.952178 
L 337.229414 377.167394 
L 340.630733 378.629916 
L 343.991397 379.799933 
L 347.300258 380.735946 
L 350.666824 381.484757 
L 353.974373 380.697805 
L 357.329463 381.454244 
L 360.741275 380.673395 
L 364.12325 381.434716 
L 367.46752 382.043773 
L 370.816381 382.531019 
L 374.240324 380.148815 
L 377.522627 381.015052 
L 380.889848 381.708041 
L 387.643635 382.705947 
L 394.364308 383.344606 
L 397.746611 383.571685 
L 401.122357 382.367348 
L 408.00303 383.127902 
L 414.570259 383.614658 
L 424.79553 384.036945 
L 438.200808 384.298525 
L 441.605079 384.33482 
L 444.905743 382.977856 
L 451.69953 383.518628 
L 458.369382 383.864722 
L 461.724145 382.601777 
L 465.090055 381.591422 
L 468.4058 380.783137 
L 471.768104 378.75051 
L 475.164505 375.738408 
L 478.55271 374.714726 
L 481.934358 373.895781 
L 485.32158 371.854625 
L 488.617981 374.3797 
L 491.951432 376.39976 
L 495.276358 378.015808 
L 498.673743 379.308646 
L 502.051457 380.342917 
L 508.743604 379.337467 
L 512.075088 380.365973 
L 515.480998 381.188779 
L 518.777727 379.075023 
L 522.173145 378.770018 
L 525.503645 377.140015 
L 528.86726 373.064011 
L 532.203006 371.189209 
L 535.564981 371.075367 
L 538.878104 373.756294 
L 542.200407 375.901035 
L 545.619432 377.616828 
L 548.901407 378.989462 
L 552.286989 380.08757 
L 555.658473 378.194056 
L 558.954547 376.679245 
L 565.597842 376.992716 
L 568.888669 378.490173 
L 572.297202 379.688139 
L 575.662129 377.874511 
L 579.042137 379.195609 
L 582.345096 380.252487 
L 585.647727 379.711989 
L 592.398563 378.933673 
L 595.729391 378.656939 
L 599.070055 379.821551 
L 602.388751 380.753241 
L 605.772366 381.498593 
L 609.070079 382.094874 
L 612.466153 381.185899 
L 615.771735 380.458719 
L 619.148792 381.262975 
L 622.57962 381.90638 
L 625.946842 381.035104 
L 629.246194 381.724083 
L 635.952112 382.716213 
L 639.30917 383.068971 
L 642.669834 381.965177 
L 645.95771 381.082141 
L 649.286243 380.375713 
L 652.666252 378.42457 
L 656.109866 379.635656 
L 659.457744 377.832525 
L 666.24399 377.730816 
L 669.6099 379.080653 
L 676.295818 378.529618 
L 679.746974 379.719694 
L 683.063047 380.671755 
L 686.369613 381.433404 
L 689.708637 380.656723 
L 693.102416 381.421379 
L 696.509638 382.033103 
L 699.873252 379.750482 
L 703.295228 379.310386 
L 706.709335 380.344309 
L 710.019835 381.171447 
L 713.370335 381.833158 
L 716.755589 382.362526 
L 720.229368 382.786021 
L 723.58413 381.738817 
L 726.992007 379.515053 
L 733.893336 378.807634 
L 737.32318 379.942107 
L 740.650401 380.849686 
L 744.025819 381.575749 
L 747.309106 379.384599 
L 750.807148 377.631679 
L 754.144205 376.229343 
L 757.469787 376.493474 
L 760.870451 378.09078 
L 764.183246 379.368624 
L 770.88818 378.713919 
L 774.240648 379.867135 
L 777.6 379.403708 
L 777.6 379.403708 
" clip-path="url(#p440d5f792b)" style="fill: none; stroke: #2ca02c; stroke-opacity: 0.9; stroke-width: 2.5; stroke-linecap: square"/>
   </g>
   <g id="line2d_22">
    <path d="M 108.032787 384.48 
L 180.410013 384.48 
L 183.714284 383.143127 
L 190.292333 383.62586 
L 200.188422 384.043326 
L 203.469414 382.79856 
L 210.052381 383.404358 
L 216.646823 383.791786 
L 219.957979 383.929485 
L 223.24684 382.708631 
L 229.839643 383.346457 
L 233.148503 382.242422 
L 239.730814 383.048036 
L 246.291814 383.563578 
L 252.864289 383.893504 
L 256.152822 378.688382 
L 259.441682 378.516141 
L 262.736772 377.04776 
L 266.019403 374.542483 
L 269.312526 371.207699 
L 272.596469 372.531615 
L 275.8791 370.929597 
L 279.179763 369.647988 
L 282.468296 368.622705 
L 285.749616 367.80248 
L 289.031263 364.485172 
L 292.329632 361.831329 
L 295.637509 359.708258 
L 298.923746 362.001491 
L 302.226049 361.174952 
L 305.521139 359.183159 
L 308.805738 362.911971 
L 312.116565 364.564458 
L 315.422803 364.555886 
L 318.710352 363.218469 
L 322.00577 364.809656 
L 325.305122 362.090923 
L 328.592343 365.23818 
L 331.875958 362.433743 
L 335.177277 364.181875 
L 338.482859 360.258139 
L 341.764179 353.12747 
L 345.050416 350.084056 
L 348.329441 352.971565 
L 351.623219 349.959332 
L 354.920605 348.880106 
L 358.199957 353.338965 
L 361.480293 347.592131 
L 364.775383 348.316905 
L 368.069489 348.896724 
L 371.377366 350.691139 
L 374.665899 348.134991 
L 377.963284 347.420633 
L 381.252472 349.510267 
L 384.539366 356.504213 
L 387.837079 360.768811 
L 391.123644 357.527689 
L 394.407259 354.934791 
L 397.698742 352.860473 
L 400.98334 352.531578 
L 404.262365 348.276783 
L 407.558766 339.550707 
L 410.849594 337.892086 
L 414.145668 339.226309 
L 417.431905 337.632567 
L 420.721093 335.027013 
L 424.003397 335.603691 
L 427.311274 328.081673 
L 430.622429 323.394619 
L 433.912929 330.289455 
L 437.218839 331.813644 
L 440.501142 334.363555 
L 443.792625 343.056284 
L 447.100502 336.704868 
L 450.391986 334.284854 
L 453.686748 339.001643 
L 456.9661 334.791714 
L 460.256272 332.754331 
L 463.544149 333.785545 
L 466.834321 330.618836 
L 470.125805 326.754909 
L 473.410403 327.655447 
L 476.69369 328.375878 
L 479.976976 328.952223 
L 483.268788 325.421618 
L 486.558632 330.580494 
L 489.844214 334.707595 
L 493.144222 330.025916 
L 496.425541 319.627774 
L 499.712762 324.614859 
L 502.995393 324.612847 
L 506.274418 321.950117 
L 509.572131 317.158815 
L 512.860991 314.656332 
L 516.14854 320.637706 
L 519.445925 321.431124 
L 522.731835 322.065859 
L 526.016105 321.243087 
L 529.306933 325.90711 
L 532.612187 332.299448 
L 535.897441 337.413318 
L 539.185318 336.182175 
L 542.490572 337.85838 
L 545.778121 343.191024 
L 549.062391 340.80434 
L 552.348301 336.233871 
L 555.643391 343.221977 
L 558.936186 343.490222 
L 562.229309 346.365938 
L 565.524727 340.68315 
L 568.812604 341.45916 
L 572.113595 347.402208 
L 575.402456 349.495527 
L 578.688365 352.500741 
L 581.968701 353.574353 
L 585.265431 355.763803 
L 588.567406 360.176482 
L 591.853316 358.384386 
L 595.152996 359.611829 
L 598.435955 355.271543 
L 601.732684 351.799314 
L 605.021873 354.343771 
L 608.311717 352.387657 
L 611.600249 356.145006 
L 614.892061 357.820325 
L 618.173708 357.83002 
L 621.477978 352.515536 
L 624.761265 354.916749 
L 628.058978 356.837719 
L 631.348494 358.374496 
L 634.653093 359.603917 
L 637.940642 363.248573 
L 641.219666 362.172619 
L 644.504592 359.981295 
L 647.793453 354.236556 
L 651.076739 350.971325 
L 654.383961 345.698019 
L 657.680362 345.471056 
L 660.961354 339.967244 
L 664.247591 342.216995 
L 667.534157 342.686237 
L 670.818755 341.731069 
L 674.108271 342.297496 
L 677.399755 344.081196 
L 680.688287 342.847037 
L 683.96764 343.19027 
L 687.248959 347.456536 
L 690.542738 350.869549 
L 693.838156 349.608279 
L 697.129311 347.268703 
L 700.435549 341.405362 
L 703.716868 340.70637 
L 707.010647 338.816616 
L 710.294589 339.965933 
L 713.576565 338.224267 
L 716.857884 338.161493 
L 720.150679 335.450154 
L 723.441179 331.950523 
L 726.725449 329.150818 
L 730.006769 324.249935 
L 733.2894 325.651468 
L 736.573342 326.772695 
L 739.872695 318.355755 
L 743.162539 326.258364 
L 746.473694 329.919332 
L 749.761243 326.195305 
L 753.042563 331.199444 
L 756.334702 327.219395 
L 759.645202 324.035356 
L 762.952095 328.140925 
L 766.239972 331.42538 
L 769.527193 322.077904 
L 772.813103 330.566643 
L 776.095734 334.696514 
L 776.095734 334.696514 
" clip-path="url(#p440d5f792b)" style="fill: none; stroke: #d62728; stroke-opacity: 0.9; stroke-width: 2.5; stroke-linecap: square"/>
   </g>
   <g id="patch_3">
    <path d="M 108 384.48 
L 108 51.84 
" style="fill: none; stroke: #000000; stroke-width: 0.8; stroke-linejoin: miter; stroke-linecap: square"/>
   </g>
   <g id="patch_4">
    <path d="M 108 384.48 
L 777.6 384.48 
" style="fill: none; stroke: #000000; stroke-width: 0.8; stroke-linejoin: miter; stroke-linecap: square"/>
   </g>
   <g id="text_12">
    <!-- 5m_large -->
    <g transform="translate(410.287188 45.84) scale(0.14 -0.14)">
     <defs>
      <path id="DejaVuSans-35" d="M 691 4666 
L 3169 4666 
L 3169 4134 
L 1269 4134 
L 1269 2991 
Q 1406 3038 1543 3061 
Q 1681 3084 1819 3084 
Q 2600 3084 3056 2656 
Q 3513 2228 3513 1497 
Q 3513 744 3044 326 
Q 2575 -91 1722 -91 
Q 1428 -91 1123 -41 
Q 819 9 494 109 
L 494 744 
Q 775 591 1075 516 
Q 1375 441 1709 441 
Q 2250 441 2565 725 
Q 2881 1009 2881 1497 
Q 2881 1984 2565 2268 
Q 2250 2553 1709 2553 
Q 1456 2553 1204 2497 
Q 953 2441 691 2322 
L 691 4666 
z
" transform="scale(0.015625)"/>
      <path id="DejaVuSans-6d" d="M 3328 2828 
Q 3544 3216 3844 3400 
Q 4144 3584 4550 3584 
Q 5097 3584 5394 3201 
Q 5691 2819 5691 2113 
L 5691 0 
L 5113 0 
L 5113 2094 
Q 5113 2597 4934 2840 
Q 4756 3084 4391 3084 
Q 3944 3084 3684 2787 
Q 3425 2491 3425 1978 
L 3425 0 
L 2847 0 
L 2847 2094 
Q 2847 2600 2669 2842 
Q 2491 3084 2119 3084 
Q 1678 3084 1418 2786 
Q 1159 2488 1159 1978 
L 1159 0 
L 581 0 
L 581 3500 
L 1159 3500 
L 1159 2956 
Q 1356 3278 1631 3431 
Q 1906 3584 2284 3584 
Q 2666 3584 2933 3390 
Q 3200 3197 3328 2828 
z
" transform="scale(0.015625)"/>
      <path id="DejaVuSans-5f" d="M 3263 -1063 
L 3263 -1509 
L -63 -1509 
L -63 -1063 
L 3263 -1063 
z
" transform="scale(0.015625)"/>
     </defs>
     <use xlink:href="#DejaVuSans-35"/>
     <use xlink:href="#DejaVuSans-6d" x="63.623047"/>
     <use xlink:href="#DejaVuSans-5f" x="161.035156"/>
     <use xlink:href="#DejaVuSans-6c" x="211.035156"/>
     <use xlink:href="#DejaVuSans-61" x="238.818359"/>
     <use xlink:href="#DejaVuSans-72" x="300.097656"/>
     <use xlink:href="#DejaVuSans-67" x="339.460938"/>
     <use xlink:href="#DejaVuSans-65" x="402.9375"/>
    </g>
   </g>
   <g id="legend_1">
    <g id="patch_5">
     <path d="M 677.648438 118.5525 
L 770.6 118.5525 
Q 772.6 118.5525 772.6 116.5525 
L 772.6 58.84 
Q 772.6 56.84 770.6 56.84 
L 677.648438 56.84 
Q 675.648438 56.84 675.648438 58.84 
L 675.648438 116.5525 
Q 675.648438 118.5525 677.648438 118.5525 
z
" style="fill: #ffffff; opacity: 0.8; stroke: #cccccc; stroke-linejoin: miter"/>
    </g>
    <g id="line2d_23">
     <path d="M 679.648438 64.938438 
L 689.648438 64.938438 
L 699.648438 64.938438 
" style="fill: none; stroke: #1f77b4; stroke-opacity: 0.9; stroke-width: 2.5; stroke-linecap: square"/>
    </g>
    <g id="text_13">
     <!-- Intent(Ours) -->
     <g transform="translate(707.648438 68.438438) scale(0.1 -0.1)">
      <defs>
       <path id="DejaVuSans-49" d="M 628 4666 
L 1259 4666 
L 1259 0 
L 628 0 
L 628 4666 
z
" transform="scale(0.015625)"/>
       <path id="DejaVuSans-28" d="M 1984 4856 
Q 1566 4138 1362 3434 
Q 1159 2731 1159 2009 
Q 1159 1288 1364 580 
Q 1569 -128 1984 -844 
L 1484 -844 
Q 1016 -109 783 600 
Q 550 1309 550 2009 
Q 550 2706 781 3412 
Q 1013 4119 1484 4856 
L 1984 4856 
z
" transform="scale(0.015625)"/>
       <path id="DejaVuSans-4f" d="M 2522 4238 
Q 1834 4238 1429 3725 
Q 1025 3213 1025 2328 
Q 1025 1447 1429 934 
Q 1834 422 2522 422 
Q 3209 422 3611 934 
Q 4013 1447 4013 2328 
Q 4013 3213 3611 3725 
Q 3209 4238 2522 4238 
z
M 2522 4750 
Q 3503 4750 4090 4092 
Q 4678 3434 4678 2328 
Q 4678 1225 4090 567 
Q 3503 -91 2522 -91 
Q 1538 -91 948 565 
Q 359 1222 359 2328 
Q 359 3434 948 4092 
Q 1538 4750 2522 4750 
z
" transform="scale(0.015625)"/>
       <path id="DejaVuSans-75" d="M 544 1381 
L 544 3500 
L 1119 3500 
L 1119 1403 
Q 1119 906 1312 657 
Q 1506 409 1894 409 
Q 2359 409 2629 706 
Q 2900 1003 2900 1516 
L 2900 3500 
L 3475 3500 
L 3475 0 
L 2900 0 
L 2900 538 
Q 2691 219 2414 64 
Q 2138 -91 1772 -91 
Q 1169 -91 856 284 
Q 544 659 544 1381 
z
M 1991 3584 
L 1991 3584 
z
" transform="scale(0.015625)"/>
       <path id="DejaVuSans-73" d="M 2834 3397 
L 2834 2853 
Q 2591 2978 2328 3040 
Q 2066 3103 1784 3103 
Q 1356 3103 1142 2972 
Q 928 2841 928 2578 
Q 928 2378 1081 2264 
Q 1234 2150 1697 2047 
L 1894 2003 
Q 2506 1872 2764 1633 
Q 3022 1394 3022 966 
Q 3022 478 2636 193 
Q 2250 -91 1575 -91 
Q 1294 -91 989 -36 
Q 684 19 347 128 
L 347 722 
Q 666 556 975 473 
Q 1284 391 1588 391 
Q 1994 391 2212 530 
Q 2431 669 2431 922 
Q 2431 1156 2273 1281 
Q 2116 1406 1581 1522 
L 1381 1569 
Q 847 1681 609 1914 
Q 372 2147 372 2553 
Q 372 3047 722 3315 
Q 1072 3584 1716 3584 
Q 2034 3584 2315 3537 
Q 2597 3491 2834 3397 
z
" transform="scale(0.015625)"/>
       <path id="DejaVuSans-29" d="M 513 4856 
L 1013 4856 
Q 1481 4119 1714 3412 
Q 1947 2706 1947 2009 
Q 1947 1309 1714 600 
Q 1481 -109 1013 -844 
L 513 -844 
Q 928 -128 1133 580 
Q 1338 1288 1338 2009 
Q 1338 2731 1133 3434 
Q 928 4138 513 4856 
z
" transform="scale(0.015625)"/>
      </defs>
      <use xlink:href="#DejaVuSans-49"/>
      <use xlink:href="#DejaVuSans-6e" x="29.492188"/>
      <use xlink:href="#DejaVuSans-74" x="92.871094"/>
      <use xlink:href="#DejaVuSans-65" x="132.080078"/>
      <use xlink:href="#DejaVuSans-6e" x="193.603516"/>
      <use xlink:href="#DejaVuSans-74" x="256.982422"/>
      <use xlink:href="#DejaVuSans-28" x="296.191406"/>
      <use xlink:href="#DejaVuSans-4f" x="335.205078"/>
      <use xlink:href="#DejaVuSans-75" x="413.916016"/>
      <use xlink:href="#DejaVuSans-72" x="477.294922"/>
      <use xlink:href="#DejaVuSans-73" x="518.408203"/>
      <use xlink:href="#DejaVuSans-29" x="570.507812"/>
     </g>
    </g>
    <g id="line2d_24">
     <path d="M 679.648438 79.616563 
L 689.648438 79.616563 
L 699.648438 79.616563 
" style="fill: none; stroke: #ff7f0e; stroke-opacity: 0.9; stroke-width: 2.5; stroke-linecap: square"/>
    </g>
    <g id="text_14">
     <!-- QMIX -->
     <g transform="translate(707.648438 83.116563) scale(0.1 -0.1)">
      <defs>
       <path id="DejaVuSans-51" d="M 2522 4238 
Q 1834 4238 1429 3725 
Q 1025 3213 1025 2328 
Q 1025 1447 1429 934 
Q 1834 422 2522 422 
Q 3209 422 3611 934 
Q 4013 1447 4013 2328 
Q 4013 3213 3611 3725 
Q 3209 4238 2522 4238 
z
M 3406 84 
L 4238 -825 
L 3475 -825 
L 2784 -78 
Q 2681 -84 2626 -87 
Q 2572 -91 2522 -91 
Q 1538 -91 948 567 
Q 359 1225 359 2328 
Q 359 3434 948 4092 
Q 1538 4750 2522 4750 
Q 3503 4750 4090 4092 
Q 4678 3434 4678 2328 
Q 4678 1516 4351 937 
Q 4025 359 3406 84 
z
" transform="scale(0.015625)"/>
       <path id="DejaVuSans-58" d="M 403 4666 
L 1081 4666 
L 2241 2931 
L 3406 4666 
L 4084 4666 
L 2584 2425 
L 4184 0 
L 3506 0 
L 2194 1984 
L 872 0 
L 191 0 
L 1856 2491 
L 403 4666 
z
" transform="scale(0.015625)"/>
      </defs>
      <use xlink:href="#DejaVuSans-51"/>
      <use xlink:href="#DejaVuSans-4d" x="78.710938"/>
      <use xlink:href="#DejaVuSans-49" x="164.990234"/>
      <use xlink:href="#DejaVuSans-58" x="194.482422"/>
     </g>
    </g>
    <g id="line2d_25">
     <path d="M 679.648438 94.294688 
L 689.648438 94.294688 
L 699.648438 94.294688 
" style="fill: none; stroke: #2ca02c; stroke-opacity: 0.9; stroke-width: 2.5; stroke-linecap: square"/>
    </g>
    <g id="text_15">
     <!-- MAIC -->
     <g transform="translate(707.648438 97.794688) scale(0.1 -0.1)">
      <defs>
       <path id="DejaVuSans-41" d="M 2188 4044 
L 1331 1722 
L 3047 1722 
L 2188 4044 
z
M 1831 4666 
L 2547 4666 
L 4325 0 
L 3669 0 
L 3244 1197 
L 1141 1197 
L 716 0 
L 50 0 
L 1831 4666 
z
" transform="scale(0.015625)"/>
       <path id="DejaVuSans-43" d="M 4122 4306 
L 4122 3641 
Q 3803 3938 3442 4084 
Q 3081 4231 2675 4231 
Q 1875 4231 1450 3742 
Q 1025 3253 1025 2328 
Q 1025 1406 1450 917 
Q 1875 428 2675 428 
Q 3081 428 3442 575 
Q 3803 722 4122 1019 
L 4122 359 
Q 3791 134 3420 21 
Q 3050 -91 2638 -91 
Q 1578 -91 968 557 
Q 359 1206 359 2328 
Q 359 3453 968 4101 
Q 1578 4750 2638 4750 
Q 3056 4750 3426 4639 
Q 3797 4528 4122 4306 
z
" transform="scale(0.015625)"/>
      </defs>
      <use xlink:href="#DejaVuSans-4d"/>
      <use xlink:href="#DejaVuSans-41" x="86.279297"/>
      <use xlink:href="#DejaVuSans-49" x="154.6875"/>
      <use xlink:href="#DejaVuSans-43" x="184.179688"/>
     </g>
    </g>
    <g id="line2d_26">
     <path d="M 679.648438 108.972813 
L 689.648438 108.972813 
L 699.648438 108.972813 
" style="fill: none; stroke: #d62728; stroke-opacity: 0.9; stroke-width: 2.5; stroke-linecap: square"/>
    </g>
    <g id="text_16">
     <!-- T2MAC -->
     <g transform="translate(707.648438 112.472813) scale(0.1 -0.1)">
      <use xlink:href="#DejaVuSans-54"/>
      <use xlink:href="#DejaVuSans-32" x="61.083984"/>
      <use xlink:href="#DejaVuSans-4d" x="124.707031"/>
      <use xlink:href="#DejaVuSans-41" x="210.986328"/>
      <use xlink:href="#DejaVuSans-43" x="277.644531"/>
     </g>
    </g>
   </g>
  </g>
 </g>
 <defs>
  <clipPath id="p440d5f792b">
   <rect x="108" y="51.84" width="669.6" height="332.64"/>
  </clipPath>
 </defs>
</svg>
