<?xml version="1.0" encoding="utf-8" standalone="no"?>
<!DOCTYPE svg PUBLIC "-//W3C//DTD SVG 1.1//EN"
  "http://www.w3.org/Graphics/SVG/1.1/DTD/svg11.dtd">
<svg xmlns:xlink="http://www.w3.org/1999/xlink" width="864pt" height="432pt" viewBox="0 0 864 432" xmlns="http://www.w3.org/2000/svg" version="1.1">
 <metadata>
  <rdf:RDF xmlns:dc="http://purl.org/dc/elements/1.1/" xmlns:cc="http://creativecommons.org/ns#" xmlns:rdf="http://www.w3.org/1999/02/22-rdf-syntax-ns#">
   <cc:Work>
    <dc:type rdf:resource="http://purl.org/dc/dcmitype/StillImage"/>
    <dc:date>2026-04-18T20:46:05.907794</dc:date>
    <dc:format>image/svg+xml</dc:format>
    <dc:creator>
     <cc:Agent>
      <dc:title>Matplotlib v3.9.4, https://matplotlib.org/</dc:title>
     </cc:Agent>
    </dc:creator>
   </cc:Work>
  </rdf:RDF>
 </metadata>
 <defs>
  <style type="text/css">*{stroke-linejoin: round; stroke-linecap: butt}</style>
 </defs>
 <g id="figure_1">
  <g id="patch_1">
   <path d="M 0 432 
L 864 432 
L 864 0 
L 0 0 
z
" style="fill: #ffffff"/>
  </g>
  <g id="axes_1">
   <g id="patch_2">
    <path d="M 108 384.48 
L 777.6 384.48 
L 777.6 51.84 
L 108 51.84 
z
" style="fill: #ffffff"/>
   </g>
   <g id="matplotlib.axis_1">
    <g id="xtick_1">
     <g id="line2d_1">
      <path d="M 108 384.48 
L 108 51.84 
" clip-path="url(#pf1a07e6943)" style="fill: none; stroke-dasharray: 2.96,1.28; stroke-dashoffset: 0; stroke: #b0b0b0; stroke-opacity: 0.5; stroke-width: 0.8"/>
     </g>
     <g id="line2d_2">
      <defs>
       <path id="m7d36b9c12c" d="M 0 0 
L 0 3.5 
" style="stroke: #000000; stroke-width: 0.8"/>
      </defs>
      <g>
       <use xlink:href="#m7d36b9c12c" x="108" y="384.48" style="stroke: #000000; stroke-width: 0.8"/>
      </g>
     </g>
     <g id="text_1">
      <!-- 0 -->
      <g transform="translate(104.81875 399.078438) scale(0.1 -0.1)">
       <defs>
        <path id="DejaVuSans-30" d="M 2034 4250 
Q 1547 4250 1301 3770 
Q 1056 3291 1056 2328 
Q 1056 1369 1301 889 
Q 1547 409 2034 409 
Q 2525 409 2770 889 
Q 3016 1369 3016 2328 
Q 3016 3291 2770 3770 
Q 2525 4250 2034 4250 
z
M 2034 4750 
Q 2819 4750 3233 4129 
Q 3647 3509 3647 2328 
Q 3647 1150 3233 529 
Q 2819 -91 2034 -91 
Q 1250 -91 836 529 
Q 422 1150 422 2328 
Q 422 3509 836 4129 
Q 1250 4750 2034 4750 
z
" transform="scale(0.015625)"/>
       </defs>
       <use xlink:href="#DejaVuSans-30"/>
      </g>
     </g>
    </g>
    <g id="xtick_2">
     <g id="line2d_3">
      <path d="M 436.155829 384.48 
L 436.155829 51.84 
" clip-path="url(#pf1a07e6943)" style="fill: none; stroke-dasharray: 2.96,1.28; stroke-dashoffset: 0; stroke: #b0b0b0; stroke-opacity: 0.5; stroke-width: 0.8"/>
     </g>
     <g id="line2d_4">
      <g>
       <use xlink:href="#m7d36b9c12c" x="436.155829" y="384.48" style="stroke: #000000; stroke-width: 0.8"/>
      </g>
     </g>
     <g id="text_2">
      <!-- 1M -->
      <g transform="translate(428.660516 399.078438) scale(0.1 -0.1)">
       <defs>
        <path id="DejaVuSans-31" d="M 794 531 
L 1825 531 
L 1825 4091 
L 703 3866 
L 703 4441 
L 1819 4666 
L 2450 4666 
L 2450 531 
L 3481 531 
L 3481 0 
L 794 0 
L 794 531 
z
" transform="scale(0.015625)"/>
        <path id="DejaVuSans-4d" d="M 628 4666 
L 1569 4666 
L 2759 1491 
L 3956 4666 
L 4897 4666 
L 4897 0 
L 4281 0 
L 4281 4097 
L 3078 897 
L 2444 897 
L 1241 4097 
L 1241 0 
L 628 0 
L 628 4666 
z
" transform="scale(0.015625)"/>
       </defs>
       <use xlink:href="#DejaVuSans-31"/>
       <use xlink:href="#DejaVuSans-4d" x="63.623047"/>
      </g>
     </g>
    </g>
    <g id="xtick_3">
     <g id="line2d_5">
      <path d="M 764.311658 384.48 
L 764.311658 51.84 
" clip-path="url(#pf1a07e6943)" style="fill: none; stroke-dasharray: 2.96,1.28; stroke-dashoffset: 0; stroke: #b0b0b0; stroke-opacity: 0.5; stroke-width: 0.8"/>
     </g>
     <g id="line2d_6">
      <g>
       <use xlink:href="#m7d36b9c12c" x="764.311658" y="384.48" style="stroke: #000000; stroke-width: 0.8"/>
      </g>
     </g>
     <g id="text_3">
      <!-- 2M -->
      <g transform="translate(756.816345 399.078438) scale(0.1 -0.1)">
       <defs>
        <path id="DejaVuSans-32" d="M 1228 531 
L 3431 531 
L 3431 0 
L 469 0 
L 469 531 
Q 828 903 1448 1529 
Q 2069 2156 2228 2338 
Q 2531 2678 2651 2914 
Q 2772 3150 2772 3378 
Q 2772 3750 2511 3984 
Q 2250 4219 1831 4219 
Q 1534 4219 1204 4116 
Q 875 4013 500 3803 
L 500 4441 
Q 881 4594 1212 4672 
Q 1544 4750 1819 4750 
Q 2544 4750 2975 4387 
Q 3406 4025 3406 3419 
Q 3406 3131 3298 2873 
Q 3191 2616 2906 2266 
Q 2828 2175 2409 1742 
Q 1991 1309 1228 531 
z
" transform="scale(0.015625)"/>
       </defs>
       <use xlink:href="#DejaVuSans-32"/>
       <use xlink:href="#DejaVuSans-4d" x="63.623047"/>
      </g>
     </g>
    </g>
    <g id="text_4">
     <!-- Training Step -->
     <g transform="translate(403.56 414.27625) scale(0.12 -0.12)">
      <defs>
       <path id="DejaVuSans-54" d="M -19 4666 
L 3928 4666 
L 3928 4134 
L 2272 4134 
L 2272 0 
L 1638 0 
L 1638 4134 
L -19 4134 
L -19 4666 
z
" transform="scale(0.015625)"/>
       <path id="DejaVuSans-72" d="M 2631 2963 
Q 2534 3019 2420 3045 
Q 2306 3072 2169 3072 
Q 1681 3072 1420 2755 
Q 1159 2438 1159 1844 
L 1159 0 
L 581 0 
L 581 3500 
L 1159 3500 
L 1159 2956 
Q 1341 3275 1631 3429 
Q 1922 3584 2338 3584 
Q 2397 3584 2469 3576 
Q 2541 3569 2628 3553 
L 2631 2963 
z
" transform="scale(0.015625)"/>
       <path id="DejaVuSans-61" d="M 2194 1759 
Q 1497 1759 1228 1600 
Q 959 1441 959 1056 
Q 959 750 1161 570 
Q 1363 391 1709 391 
Q 2188 391 2477 730 
Q 2766 1069 2766 1631 
L 2766 1759 
L 2194 1759 
z
M 3341 1997 
L 3341 0 
L 2766 0 
L 2766 531 
Q 2569 213 2275 61 
Q 1981 -91 1556 -91 
Q 1019 -91 701 211 
Q 384 513 384 1019 
Q 384 1609 779 1909 
Q 1175 2209 1959 2209 
L 2766 2209 
L 2766 2266 
Q 2766 2663 2505 2880 
Q 2244 3097 1772 3097 
Q 1472 3097 1187 3025 
Q 903 2953 641 2809 
L 641 3341 
Q 956 3463 1253 3523 
Q 1550 3584 1831 3584 
Q 2591 3584 2966 3190 
Q 3341 2797 3341 1997 
z
" transform="scale(0.015625)"/>
       <path id="DejaVuSans-69" d="M 603 3500 
L 1178 3500 
L 1178 0 
L 603 0 
L 603 3500 
z
M 603 4863 
L 1178 4863 
L 1178 4134 
L 603 4134 
L 603 4863 
z
" transform="scale(0.015625)"/>
       <path id="DejaVuSans-6e" d="M 3513 2113 
L 3513 0 
L 2938 0 
L 2938 2094 
Q 2938 2591 2744 2837 
Q 2550 3084 2163 3084 
Q 1697 3084 1428 2787 
Q 1159 2491 1159 1978 
L 1159 0 
L 581 0 
L 581 3500 
L 1159 3500 
L 1159 2956 
Q 1366 3272 1645 3428 
Q 1925 3584 2291 3584 
Q 2894 3584 3203 3211 
Q 3513 2838 3513 2113 
z
" transform="scale(0.015625)"/>
       <path id="DejaVuSans-67" d="M 2906 1791 
Q 2906 2416 2648 2759 
Q 2391 3103 1925 3103 
Q 1463 3103 1205 2759 
Q 947 2416 947 1791 
Q 947 1169 1205 825 
Q 1463 481 1925 481 
Q 2391 481 2648 825 
Q 2906 1169 2906 1791 
z
M 3481 434 
Q 3481 -459 3084 -895 
Q 2688 -1331 1869 -1331 
Q 1566 -1331 1297 -1286 
Q 1028 -1241 775 -1147 
L 775 -588 
Q 1028 -725 1275 -790 
Q 1522 -856 1778 -856 
Q 2344 -856 2625 -561 
Q 2906 -266 2906 331 
L 2906 616 
Q 2728 306 2450 153 
Q 2172 0 1784 0 
Q 1141 0 747 490 
Q 353 981 353 1791 
Q 353 2603 747 3093 
Q 1141 3584 1784 3584 
Q 2172 3584 2450 3431 
Q 2728 3278 2906 2969 
L 2906 3500 
L 3481 3500 
L 3481 434 
z
" transform="scale(0.015625)"/>
       <path id="DejaVuSans-20" transform="scale(0.015625)"/>
       <path id="DejaVuSans-53" d="M 3425 4513 
L 3425 3897 
Q 3066 4069 2747 4153 
Q 2428 4238 2131 4238 
Q 1616 4238 1336 4038 
Q 1056 3838 1056 3469 
Q 1056 3159 1242 3001 
Q 1428 2844 1947 2747 
L 2328 2669 
Q 3034 2534 3370 2195 
Q 3706 1856 3706 1288 
Q 3706 609 3251 259 
Q 2797 -91 1919 -91 
Q 1588 -91 1214 -16 
Q 841 59 441 206 
L 441 856 
Q 825 641 1194 531 
Q 1563 422 1919 422 
Q 2459 422 2753 634 
Q 3047 847 3047 1241 
Q 3047 1584 2836 1778 
Q 2625 1972 2144 2069 
L 1759 2144 
Q 1053 2284 737 2584 
Q 422 2884 422 3419 
Q 422 4038 858 4394 
Q 1294 4750 2059 4750 
Q 2388 4750 2728 4690 
Q 3069 4631 3425 4513 
z
" transform="scale(0.015625)"/>
       <path id="DejaVuSans-74" d="M 1172 4494 
L 1172 3500 
L 2356 3500 
L 2356 3053 
L 1172 3053 
L 1172 1153 
Q 1172 725 1289 603 
Q 1406 481 1766 481 
L 2356 481 
L 2356 0 
L 1766 0 
Q 1100 0 847 248 
Q 594 497 594 1153 
L 594 3053 
L 172 3053 
L 172 3500 
L 594 3500 
L 594 4494 
L 1172 4494 
z
" transform="scale(0.015625)"/>
       <path id="DejaVuSans-65" d="M 3597 1894 
L 3597 1613 
L 953 1613 
Q 991 1019 1311 708 
Q 1631 397 2203 397 
Q 2534 397 2845 478 
Q 3156 559 3463 722 
L 3463 178 
Q 3153 47 2828 -22 
Q 2503 -91 2169 -91 
Q 1331 -91 842 396 
Q 353 884 353 1716 
Q 353 2575 817 3079 
Q 1281 3584 2069 3584 
Q 2775 3584 3186 3129 
Q 3597 2675 3597 1894 
z
M 3022 2063 
Q 3016 2534 2758 2815 
Q 2500 3097 2075 3097 
Q 1594 3097 1305 2825 
Q 1016 2553 972 2059 
L 3022 2063 
z
" transform="scale(0.015625)"/>
       <path id="DejaVuSans-70" d="M 1159 525 
L 1159 -1331 
L 581 -1331 
L 581 3500 
L 1159 3500 
L 1159 2969 
Q 1341 3281 1617 3432 
Q 1894 3584 2278 3584 
Q 2916 3584 3314 3078 
Q 3713 2572 3713 1747 
Q 3713 922 3314 415 
Q 2916 -91 2278 -91 
Q 1894 -91 1617 61 
Q 1341 213 1159 525 
z
M 3116 1747 
Q 3116 2381 2855 2742 
Q 2594 3103 2138 3103 
Q 1681 3103 1420 2742 
Q 1159 2381 1159 1747 
Q 1159 1113 1420 752 
Q 1681 391 2138 391 
Q 2594 391 2855 752 
Q 3116 1113 3116 1747 
z
" transform="scale(0.015625)"/>
      </defs>
      <use xlink:href="#DejaVuSans-54"/>
      <use xlink:href="#DejaVuSans-72" x="46.333984"/>
      <use xlink:href="#DejaVuSans-61" x="87.447266"/>
      <use xlink:href="#DejaVuSans-69" x="148.726562"/>
      <use xlink:href="#DejaVuSans-6e" x="176.509766"/>
      <use xlink:href="#DejaVuSans-69" x="239.888672"/>
      <use xlink:href="#DejaVuSans-6e" x="267.671875"/>
      <use xlink:href="#DejaVuSans-67" x="331.050781"/>
      <use xlink:href="#DejaVuSans-20" x="394.527344"/>
      <use xlink:href="#DejaVuSans-53" x="426.314453"/>
      <use xlink:href="#DejaVuSans-74" x="489.791016"/>
      <use xlink:href="#DejaVuSans-65" x="529"/>
      <use xlink:href="#DejaVuSans-70" x="590.523438"/>
     </g>
    </g>
   </g>
   <g id="matplotlib.axis_2">
    <g id="ytick_1">
     <g id="line2d_7">
      <path d="M 108 384.48 
L 777.6 384.48 
" clip-path="url(#pf1a07e6943)" style="fill: none; stroke-dasharray: 2.96,1.28; stroke-dashoffset: 0; stroke: #b0b0b0; stroke-opacity: 0.5; stroke-width: 0.8"/>
     </g>
     <g id="line2d_8">
      <defs>
       <path id="m319254fc51" d="M 0 0 
L -3.5 0 
" style="stroke: #000000; stroke-width: 0.8"/>
      </defs>
      <g>
       <use xlink:href="#m319254fc51" x="108" y="384.48" style="stroke: #000000; stroke-width: 0.8"/>
      </g>
     </g>
     <g id="text_5">
      <!-- 0.0 -->
      <g transform="translate(85.096875 388.279219) scale(0.1 -0.1)">
       <defs>
        <path id="DejaVuSans-2e" d="M 684 794 
L 1344 794 
L 1344 0 
L 684 0 
L 684 794 
z
" transform="scale(0.015625)"/>
       </defs>
       <use xlink:href="#DejaVuSans-30"/>
       <use xlink:href="#DejaVuSans-2e" x="63.623047"/>
       <use xlink:href="#DejaVuSans-30" x="95.410156"/>
      </g>
     </g>
    </g>
    <g id="ytick_2">
     <g id="line2d_9">
      <path d="M 108 317.952 
L 777.6 317.952 
" clip-path="url(#pf1a07e6943)" style="fill: none; stroke-dasharray: 2.96,1.28; stroke-dashoffset: 0; stroke: #b0b0b0; stroke-opacity: 0.5; stroke-width: 0.8"/>
     </g>
     <g id="line2d_10">
      <g>
       <use xlink:href="#m319254fc51" x="108" y="317.952" style="stroke: #000000; stroke-width: 0.8"/>
      </g>
     </g>
     <g id="text_6">
      <!-- 0.2 -->
      <g transform="translate(85.096875 321.751219) scale(0.1 -0.1)">
       <use xlink:href="#DejaVuSans-30"/>
       <use xlink:href="#DejaVuSans-2e" x="63.623047"/>
       <use xlink:href="#DejaVuSans-32" x="95.410156"/>
      </g>
     </g>
    </g>
    <g id="ytick_3">
     <g id="line2d_11">
      <path d="M 108 251.424 
L 777.6 251.424 
" clip-path="url(#pf1a07e6943)" style="fill: none; stroke-dasharray: 2.96,1.28; stroke-dashoffset: 0; stroke: #b0b0b0; stroke-opacity: 0.5; stroke-width: 0.8"/>
     </g>
     <g id="line2d_12">
      <g>
       <use xlink:href="#m319254fc51" x="108" y="251.424" style="stroke: #000000; stroke-width: 0.8"/>
      </g>
     </g>
     <g id="text_7">
      <!-- 0.4 -->
      <g transform="translate(85.096875 255.223219) scale(0.1 -0.1)">
       <defs>
        <path id="DejaVuSans-34" d="M 2419 4116 
L 825 1625 
L 2419 1625 
L 2419 4116 
z
M 2253 4666 
L 3047 4666 
L 3047 1625 
L 3713 1625 
L 3713 1100 
L 3047 1100 
L 3047 0 
L 2419 0 
L 2419 1100 
L 313 1100 
L 313 1709 
L 2253 4666 
z
" transform="scale(0.015625)"/>
       </defs>
       <use xlink:href="#DejaVuSans-30"/>
       <use xlink:href="#DejaVuSans-2e" x="63.623047"/>
       <use xlink:href="#DejaVuSans-34" x="95.410156"/>
      </g>
     </g>
    </g>
    <g id="ytick_4">
     <g id="line2d_13">
      <path d="M 108 184.896 
L 777.6 184.896 
" clip-path="url(#pf1a07e6943)" style="fill: none; stroke-dasharray: 2.96,1.28; stroke-dashoffset: 0; stroke: #b0b0b0; stroke-opacity: 0.5; stroke-width: 0.8"/>
     </g>
     <g id="line2d_14">
      <g>
       <use xlink:href="#m319254fc51" x="108" y="184.896" style="stroke: #000000; stroke-width: 0.8"/>
      </g>
     </g>
     <g id="text_8">
      <!-- 0.6 -->
      <g transform="translate(85.096875 188.695219) scale(0.1 -0.1)">
       <defs>
        <path id="DejaVuSans-36" d="M 2113 2584 
Q 1688 2584 1439 2293 
Q 1191 2003 1191 1497 
Q 1191 994 1439 701 
Q 1688 409 2113 409 
Q 2538 409 2786 701 
Q 3034 994 3034 1497 
Q 3034 2003 2786 2293 
Q 2538 2584 2113 2584 
z
M 3366 4563 
L 3366 3988 
Q 3128 4100 2886 4159 
Q 2644 4219 2406 4219 
Q 1781 4219 1451 3797 
Q 1122 3375 1075 2522 
Q 1259 2794 1537 2939 
Q 1816 3084 2150 3084 
Q 2853 3084 3261 2657 
Q 3669 2231 3669 1497 
Q 3669 778 3244 343 
Q 2819 -91 2113 -91 
Q 1303 -91 875 529 
Q 447 1150 447 2328 
Q 447 3434 972 4092 
Q 1497 4750 2381 4750 
Q 2619 4750 2861 4703 
Q 3103 4656 3366 4563 
z
" transform="scale(0.015625)"/>
       </defs>
       <use xlink:href="#DejaVuSans-30"/>
       <use xlink:href="#DejaVuSans-2e" x="63.623047"/>
       <use xlink:href="#DejaVuSans-36" x="95.410156"/>
      </g>
     </g>
    </g>
    <g id="ytick_5">
     <g id="line2d_15">
      <path d="M 108 118.368 
L 777.6 118.368 
" clip-path="url(#pf1a07e6943)" style="fill: none; stroke-dasharray: 2.96,1.28; stroke-dashoffset: 0; stroke: #b0b0b0; stroke-opacity: 0.5; stroke-width: 0.8"/>
     </g>
     <g id="line2d_16">
      <g>
       <use xlink:href="#m319254fc51" x="108" y="118.368" style="stroke: #000000; stroke-width: 0.8"/>
      </g>
     </g>
     <g id="text_9">
      <!-- 0.8 -->
      <g transform="translate(85.096875 122.167219) scale(0.1 -0.1)">
       <defs>
        <path id="DejaVuSans-38" d="M 2034 2216 
Q 1584 2216 1326 1975 
Q 1069 1734 1069 1313 
Q 1069 891 1326 650 
Q 1584 409 2034 409 
Q 2484 409 2743 651 
Q 3003 894 3003 1313 
Q 3003 1734 2745 1975 
Q 2488 2216 2034 2216 
z
M 1403 2484 
Q 997 2584 770 2862 
Q 544 3141 544 3541 
Q 544 4100 942 4425 
Q 1341 4750 2034 4750 
Q 2731 4750 3128 4425 
Q 3525 4100 3525 3541 
Q 3525 3141 3298 2862 
Q 3072 2584 2669 2484 
Q 3125 2378 3379 2068 
Q 3634 1759 3634 1313 
Q 3634 634 3220 271 
Q 2806 -91 2034 -91 
Q 1263 -91 848 271 
Q 434 634 434 1313 
Q 434 1759 690 2068 
Q 947 2378 1403 2484 
z
M 1172 3481 
Q 1172 3119 1398 2916 
Q 1625 2713 2034 2713 
Q 2441 2713 2670 2916 
Q 2900 3119 2900 3481 
Q 2900 3844 2670 4047 
Q 2441 4250 2034 4250 
Q 1625 4250 1398 4047 
Q 1172 3844 1172 3481 
z
" transform="scale(0.015625)"/>
       </defs>
       <use xlink:href="#DejaVuSans-30"/>
       <use xlink:href="#DejaVuSans-2e" x="63.623047"/>
       <use xlink:href="#DejaVuSans-38" x="95.410156"/>
      </g>
     </g>
    </g>
    <g id="ytick_6">
     <g id="line2d_17">
      <path d="M 108 51.84 
L 777.6 51.84 
" clip-path="url(#pf1a07e6943)" style="fill: none; stroke-dasharray: 2.96,1.28; stroke-dashoffset: 0; stroke: #b0b0b0; stroke-opacity: 0.5; stroke-width: 0.8"/>
     </g>
     <g id="line2d_18">
      <g>
       <use xlink:href="#m319254fc51" x="108" y="51.84" style="stroke: #000000; stroke-width: 0.8"/>
      </g>
     </g>
     <g id="text_10">
      <!-- 1.0 -->
      <g transform="translate(85.096875 55.639219) scale(0.1 -0.1)">
       <use xlink:href="#DejaVuSans-31"/>
       <use xlink:href="#DejaVuSans-2e" x="63.623047"/>
       <use xlink:href="#DejaVuSans-30" x="95.410156"/>
      </g>
     </g>
    </g>
    <g id="text_11">
     <!-- Battle Won Mean -->
     <g transform="translate(78.60125 269.232187) rotate(-90) scale(0.12 -0.12)">
      <defs>
       <path id="DejaVuSans-42" d="M 1259 2228 
L 1259 519 
L 2272 519 
Q 2781 519 3026 730 
Q 3272 941 3272 1375 
Q 3272 1813 3026 2020 
Q 2781 2228 2272 2228 
L 1259 2228 
z
M 1259 4147 
L 1259 2741 
L 2194 2741 
Q 2656 2741 2882 2914 
Q 3109 3088 3109 3444 
Q 3109 3797 2882 3972 
Q 2656 4147 2194 4147 
L 1259 4147 
z
M 628 4666 
L 2241 4666 
Q 2963 4666 3353 4366 
Q 3744 4066 3744 3513 
Q 3744 3084 3544 2831 
Q 3344 2578 2956 2516 
Q 3422 2416 3680 2098 
Q 3938 1781 3938 1306 
Q 3938 681 3513 340 
Q 3088 0 2303 0 
L 628 0 
L 628 4666 
z
" transform="scale(0.015625)"/>
       <path id="DejaVuSans-6c" d="M 603 4863 
L 1178 4863 
L 1178 0 
L 603 0 
L 603 4863 
z
" transform="scale(0.015625)"/>
       <path id="DejaVuSans-57" d="M 213 4666 
L 850 4666 
L 1831 722 
L 2809 4666 
L 3519 4666 
L 4500 722 
L 5478 4666 
L 6119 4666 
L 4947 0 
L 4153 0 
L 3169 4050 
L 2175 0 
L 1381 0 
L 213 4666 
z
" transform="scale(0.015625)"/>
       <path id="DejaVuSans-6f" d="M 1959 3097 
Q 1497 3097 1228 2736 
Q 959 2375 959 1747 
Q 959 1119 1226 758 
Q 1494 397 1959 397 
Q 2419 397 2687 759 
Q 2956 1122 2956 1747 
Q 2956 2369 2687 2733 
Q 2419 3097 1959 3097 
z
M 1959 3584 
Q 2709 3584 3137 3096 
Q 3566 2609 3566 1747 
Q 3566 888 3137 398 
Q 2709 -91 1959 -91 
Q 1206 -91 779 398 
Q 353 888 353 1747 
Q 353 2609 779 3096 
Q 1206 3584 1959 3584 
z
" transform="scale(0.015625)"/>
      </defs>
      <use xlink:href="#DejaVuSans-42"/>
      <use xlink:href="#DejaVuSans-61" x="68.603516"/>
      <use xlink:href="#DejaVuSans-74" x="129.882812"/>
      <use xlink:href="#DejaVuSans-74" x="169.091797"/>
      <use xlink:href="#DejaVuSans-6c" x="208.300781"/>
      <use xlink:href="#DejaVuSans-65" x="236.083984"/>
      <use xlink:href="#DejaVuSans-20" x="297.607422"/>
      <use xlink:href="#DejaVuSans-57" x="329.394531"/>
      <use xlink:href="#DejaVuSans-6f" x="422.396484"/>
      <use xlink:href="#DejaVuSans-6e" x="483.578125"/>
      <use xlink:href="#DejaVuSans-20" x="546.957031"/>
      <use xlink:href="#DejaVuSans-4d" x="578.744141"/>
      <use xlink:href="#DejaVuSans-65" x="665.023438"/>
      <use xlink:href="#DejaVuSans-61" x="726.546875"/>
      <use xlink:href="#DejaVuSans-6e" x="787.826172"/>
     </g>
    </g>
   </g>
   <g id="line2d_19">
    <path d="M 108.131262 384.48 
L 111.497157 376.483846 
L 114.864035 371.240466 
L 118.170205 367.057486 
L 121.470469 349.71084 
L 124.763841 344.525319 
L 128.173708 321.031747 
L 131.472986 320.577125 
L 134.80344 315.134993 
L 138.167694 317.030525 
L 141.468613 309.347668 
L 144.834835 301.968221 
L 148.154132 303.088146 
L 151.517401 306.584278 
L 154.863278 295.205519 
L 158.212436 286.526841 
L 161.572095 281.320494 
L 164.921254 272.408654 
L 168.327511 279.480845 
L 171.737707 283.02931 
L 175.031407 289.20844 
L 178.430117 294.940044 
L 181.786823 294.729794 
L 185.128762 308.265911 
L 188.510079 314.291493 
L 191.87663 311.093529 
L 195.178534 311.295311 
L 198.514566 309.593958 
L 201.873569 310.712898 
L 205.243073 314.691244 
L 208.628329 324.50071 
L 212.021132 321.402113 
L 215.308925 325.704417 
L 218.653489 327.912653 
L 221.985912 328.138214 
L 225.377074 333.556329 
L 228.6839 333.505973 
L 232.05603 331.688401 
L 235.355965 336.170389 
L 238.698888 338.476156 
L 242.058219 335.04856 
L 245.403768 338.538222 
L 248.731268 333.86626 
L 252.07091 339.191605 
L 255.353453 338.973737 
L 258.654372 341.038446 
L 262.005828 339.870724 
L 265.383207 341.70862 
L 268.675267 335.478785 
L 271.978483 328.052922 
L 275.298108 321.518264 
L 278.612481 313.78254 
L 282.007254 300.827873 
L 285.31769 306.16233 
L 288.648143 310.737885 
L 292.001567 314.706323 
L 295.344163 310.882012 
L 298.659193 291.817814 
L 302.039526 296.39126 
L 305.397873 298.26801 
L 308.725045 290.007999 
L 312.102096 283.954393 
L 315.480133 284.457514 
L 318.782037 293.066017 
L 322.139399 289.555157 
L 325.435068 291.314126 
L 328.789149 294.800302 
L 332.138635 290.082309 
L 335.440539 291.735848 
L 338.775587 279.971514 
L 342.14345 270.381209 
L 345.429602 267.698568 
L 348.763994 274.719855 
L 352.160407 271.455626 
L 355.522035 280.992501 
L 358.828861 275.021449 
L 362.149798 270.856358 
L 365.503551 270.019087 
L 368.857632 266.854469 
L 372.16577 268.299162 
L 375.531993 267.734365 
L 378.854571 267.521492 
L 382.24442 271.509195 
L 385.609658 275.750804 
L 388.918782 279.676644 
L 392.267612 282.284763 
L 395.557702 276.628776 
L 398.91769 284.53702 
L 402.235345 284.626617 
L 408.917911 278.231875 
L 412.210298 277.401087 
L 415.614915 277.47247 
L 418.947337 281.647976 
L 422.311591 271.029381 
L 425.625637 273.646402 
L 428.945917 280.105122 
L 432.33872 283.160098 
L 435.672127 273.379176 
L 438.979282 263.114966 
L 442.359287 261.635199 
L 445.743886 264.410504 
L 449.096982 262.090403 
L 452.434983 259.957122 
L 455.748373 265.853697 
L 459.090968 273.243957 
L 462.420437 268.325566 
L 465.817506 272.056866 
L 469.103002 275.236493 
L 472.442644 272.968794 
L 475.780973 269.491436 
L 479.131444 263.660348 
L 482.445818 253.804279 
L 485.80154 253.328223 
L 489.146104 241.402813 
L 492.503466 249.945147 
L 495.833592 248.854919 
L 499.16142 247.982736 
L 502.529283 255.977189 
L 505.82528 253.957752 
L 509.179689 253.173801 
L 512.485859 253.913525 
L 515.858645 254.005786 
L 519.255058 255.420887 
L 522.577307 254.898709 
L 525.894963 254.719932 
L 529.262826 253.783545 
L 532.546681 252.480037 
L 535.911591 259.278029 
L 539.204635 261.377733 
L 542.556419 267.881186 
L 545.839946 268.62895 
L 549.208794 276.35516 
L 552.604222 267.935226 
L 555.971101 265.464581 
L 559.277927 266.326975 
L 562.60313 249.600522 
L 565.984776 261.091452 
L 569.364781 264.262265 
L 572.671607 259.343192 
L 576.048002 255.935198 
L 582.735162 248.503826 
L 586.117792 252.184854 
L 589.471545 249.260684 
L 592.805608 250.247746 
L 596.133764 252.432955 
L 599.462249 251.313536 
L 602.82519 251.890028 
L 606.159253 251.73947 
L 609.500536 254.199853 
L 612.80769 250.872683 
L 616.098109 246.910975 
L 619.403294 250.031179 
L 622.731451 244.193459 
L 626.089797 244.807968 
L 629.396296 243.359174 
L 632.7658 237.246308 
L 636.142851 245.18615 
L 639.444427 243.107321 
L 642.779475 242.992753 
L 646.139134 244.956202 
L 649.447929 244.309361 
L 652.759022 244.527902 
L 656.079959 247.570322 
L 659.413037 241.42 
L 662.710675 242.503171 
L 666.010282 239.297737 
L 669.349924 240.805361 
L 672.726319 243.445254 
L 676.054804 245.27041 
L 679.364256 246.085328 
L 682.767231 250.536814 
L 686.08784 263.465451 
L 689.382197 265.690362 
L 692.683772 264.79729 
L 695.978129 260.057971 
L 699.362072 256.390776 
L 702.713199 253.906276 
L 706.056122 241.559521 
L 709.373778 255.887616 
L 712.735734 258.091886 
L 716.069798 258.421509 
L 719.392704 254.393078 
L 722.680169 247.146463 
L 726.03064 238.666588 
L 729.352561 250.009271 
L 736.05941 241.646386 
L 739.416116 243.831315 
L 742.802028 243.746053 
L 746.107213 243.216981 
L 749.44948 241.35993 
L 752.813078 248.190289 
L 756.114982 238.58063 
L 759.483501 236.159705 
L 762.837582 239.212563 
L 766.171645 233.702676 
L 769.502755 235.860941 
L 772.876853 236.344624 
L 772.876853 236.344624 
" clip-path="url(#pf1a07e6943)" style="fill: none; stroke: #1f77b4; stroke-opacity: 0.9; stroke-width: 2.5; stroke-linecap: square"/>
   </g>
   <g id="line2d_20">
    <path d="M 108.241195 384.48 
L 118.46128 384.48 
L 121.882304 367.987853 
L 125.164847 372.458142 
L 128.813612 375.500553 
L 132.20904 375.993074 
L 135.72687 377.953596 
L 139.363822 379.415889 
L 142.733982 380.523888 
L 146.07789 381.373495 
L 149.43197 382.030939 
L 156.278286 382.944753 
L 162.928363 383.510174 
L 166.341512 382.296272 
L 173.042126 383.091583 
L 179.790651 383.595129 
L 183.106994 383.773154 
L 186.423664 371.382008 
L 189.780699 374.01154 
L 193.134451 376.111579 
L 196.48361 377.78932 
L 199.805531 379.130049 
L 203.111373 380.201698 
L 206.462828 381.058419 
L 209.795251 381.743413 
L 216.771516 382.729209 
L 220.173179 383.079545 
L 223.68904 380.586625 
L 226.996523 381.365553 
L 230.346994 381.988604 
L 233.738156 382.486987 
L 237.064016 381.499425 
L 240.345902 382.095619 
L 243.63993 382.572546 
L 247.149557 382.954069 
L 250.501012 379.100993 
L 253.861328 380.176853 
L 257.221972 381.03752 
L 260.507468 380.339992 
L 263.867456 381.168016 
L 267.233022 381.830428 
L 273.886709 382.784287 
L 280.521036 383.39475 
L 287.258403 383.785442 
L 297.282579 384.124387 
L 300.649458 384.19551 
L 304.023884 382.866405 
L 310.680525 383.4473 
L 313.96635 383.65384 
L 317.273504 382.433071 
L 320.611177 382.842457 
L 323.92391 380.397965 
L 327.260271 381.214372 
L 330.628134 381.867498 
L 337.271977 382.807999 
L 343.969965 383.409919 
L 350.76115 383.795148 
L 360.863756 384.129356 
L 377.736544 384.365101 
L 387.733811 384.421172 
L 391.043263 383.046937 
L 394.356324 383.33355 
L 397.751424 382.17684 
L 401.097301 382.637472 
L 404.47304 381.619977 
L 407.812354 382.191982 
L 414.463744 383.015668 
L 421.166327 383.542828 
L 424.532221 383.730262 
L 427.887287 382.49421 
L 434.587244 383.209094 
L 437.892758 383.463275 
L 441.215992 382.28062 
L 444.545461 381.334496 
L 447.903479 381.963597 
L 451.213587 381.080878 
L 454.576856 381.760702 
L 461.201338 382.739649 
L 467.91114 383.366176 
L 474.594034 383.767152 
L 484.473165 384.115022 
L 497.798917 384.330505 
L 507.762384 384.403459 
L 511.058381 381.646767 
L 514.466936 380.827413 
L 517.785904 381.557931 
L 521.153767 380.756345 
L 524.504895 381.501076 
L 527.859632 380.71086 
L 531.144143 381.464688 
L 534.472956 382.067751 
L 541.072826 382.93616 
L 547.804943 383.491943 
L 554.412361 383.847643 
L 564.472306 384.156233 
L 567.773225 384.220987 
L 571.11582 382.886789 
L 577.747522 383.460345 
L 587.769072 383.957937 
L 591.095916 381.290349 
L 594.448684 381.928279 
L 601.119108 382.846899 
L 607.774764 383.434815 
L 611.132783 383.643852 
L 614.442563 382.425082 
L 617.810426 381.450065 
L 621.143177 382.056052 
L 627.828367 382.928673 
L 631.215592 381.852939 
L 634.525371 382.378351 
L 637.888312 380.026681 
L 641.170199 380.917345 
L 644.544953 377.471876 
L 647.859655 377.4875 
L 651.184202 378.886 
L 657.860204 378.40504 
L 661.175234 376.848032 
L 667.834172 377.10074 
L 671.126232 378.576592 
L 674.461607 379.757274 
L 677.812735 380.701819 
L 681.135969 378.685455 
L 684.493003 379.844364 
L 687.809346 379.385491 
L 691.167693 377.632393 
L 694.454829 377.615914 
L 697.796768 376.216731 
L 701.112783 377.869385 
L 704.461285 379.191508 
L 711.099221 378.600565 
L 714.433941 377.004452 
L 717.795241 374.341562 
L 721.118147 376.369249 
L 724.46107 375.219399 
L 727.812854 377.071519 
L 731.182358 375.781215 
L 734.485903 373.362972 
L 737.788463 372.814378 
L 741.158295 375.147502 
L 744.44051 377.014002 
L 747.740773 378.507201 
L 751.085993 379.701761 
L 754.377396 380.657409 
L 757.713429 378.649927 
L 761.073416 379.815942 
L 764.376633 380.748753 
L 767.778952 378.723003 
L 771.106781 379.874402 
L 771.106781 379.874402 
" clip-path="url(#pf1a07e6943)" style="fill: none; stroke: #ff7f0e; stroke-opacity: 0.9; stroke-width: 2.5; stroke-linecap: square"/>
   </g>
   <g id="line2d_21">
    <path d="M 108.139138 384.48 
L 118.355942 384.48 
L 121.647016 367.987853 
L 125.236057 357.430819 
L 128.775874 364.276245 
L 132.13783 369.131587 
L 135.480754 372.677147 
L 138.830896 362.899892 
L 142.145927 367.621497 
L 145.453409 368.265449 
L 148.774346 371.697012 
L 152.09233 372.921461 
L 155.587846 375.317471 
L 158.904188 377.203051 
L 162.222828 374.438182 
L 165.519154 376.483388 
L 168.838122 378.106096 
L 172.341185 379.395746 
L 175.62701 380.422063 
L 178.92596 379.84338 
L 182.248538 380.776211 
L 185.561927 375.950178 
L 188.91568 365.141308 
L 192.247118 369.020771 
L 195.825001 372.120111 
L 199.175144 374.596879 
L 202.504941 359.91879 
L 205.894462 363.449403 
L 209.212774 360.722822 
L 212.812972 365.478025 
L 216.204462 369.28083 
L 219.668475 372.322207 
L 223.055371 374.754752 
L 226.403217 376.700433 
L 229.716279 378.25675 
L 233.064781 379.501659 
L 236.375873 380.497493 
L 239.74308 378.521731 
L 243.083378 375.55507 
L 246.440412 373.181854 
L 249.781039 374.055542 
L 253.136432 371.982321 
L 256.452775 374.481966 
L 259.81145 375.095594 
L 266.493687 375.9792 
L 269.825453 377.67939 
L 276.497845 377.632809 
L 279.896555 374.844222 
L 283.310032 376.771392 
L 286.70382 376.927114 
L 289.998504 370.121659 
L 293.415263 372.993338 
L 296.697806 375.290678 
L 300.084374 377.128546 
L 303.415155 378.59884 
L 306.809927 379.775074 
L 310.145631 379.330058 
L 313.489867 380.360048 
L 316.798991 381.184039 
L 320.177355 381.843231 
L 326.958039 382.792469 
L 330.315401 380.357974 
L 333.648808 379.796379 
L 340.350735 378.987682 
L 343.69694 378.700146 
L 347.020502 377.084116 
L 350.348986 378.563293 
L 353.669923 379.746635 
L 360.343629 378.955846 
L 363.705913 380.060677 
L 370.416372 379.156833 
L 373.77275 377.449466 
L 377.068747 374.697573 
L 380.373604 369.724059 
L 383.718168 368.517247 
L 387.004977 370.323797 
L 390.364965 368.997038 
L 393.674416 366.54963 
L 397.048842 368.749704 
L 400.379624 371.895763 
L 403.725173 374.412611 
L 407.010997 373.654088 
L 410.336856 370.275271 
L 413.656809 371.730216 
L 420.355454 371.330538 
L 423.6695 373.960431 
L 426.985514 370.520344 
L 430.291028 371.926275 
L 433.620497 370.27902 
L 436.916166 373.119216 
L 440.283373 368.461373 
L 443.624984 370.279099 
L 446.927872 373.119279 
L 450.250122 375.391423 
L 453.550713 377.209138 
L 456.863446 378.663311 
L 460.21884 378.440649 
L 463.590313 379.648519 
L 466.970646 379.228815 
L 470.321117 376.121052 
L 473.649601 376.406842 
L 477.017136 375.249473 
L 480.332823 374.323578 
L 483.707906 373.582863 
L 487.03639 371.60429 
L 490.383908 370.021432 
L 493.763913 371.527146 
L 497.073036 374.117717 
L 500.392332 373.418173 
L 503.733287 372.858538 
L 507.116902 371.024831 
L 510.497891 373.715865 
L 513.869036 374.482692 
L 517.198177 373.710153 
L 520.581792 374.478123 
L 523.896166 370.934498 
L 527.242042 366.713598 
L 530.535086 363.336879 
L 533.868821 366.179503 
L 537.219949 369.839602 
L 540.565497 369.995682 
L 543.910061 372.892546 
L 547.194245 372.438036 
L 550.492867 373.460429 
L 553.873857 371.506343 
L 557.164275 374.101075 
L 560.502605 372.01886 
L 563.822557 374.511088 
L 567.197312 373.73287 
L 570.547454 374.496296 
L 573.926475 376.493037 
L 577.296635 378.090429 
L 580.61626 373.824343 
L 583.98281 375.955475 
L 587.287011 376.27438 
L 590.649952 377.915504 
L 593.940371 379.228403 
L 597.367959 380.278722 
L 600.654439 381.118978 
L 604.018036 379.019182 
L 607.341927 377.339346 
L 610.639565 373.223476 
L 614.017601 374.088781 
L 617.327052 373.395025 
L 620.676539 374.22602 
L 624.024385 376.276816 
L 627.388638 373.759453 
L 630.698418 375.903562 
L 634.046264 376.23285 
L 637.379999 375.11028 
L 640.704217 372.826224 
L 644.003496 366.840979 
L 647.347732 368.982783 
L 650.719205 367.924227 
L 654.105117 367.077381 
L 657.402755 367.785905 
L 660.726317 366.966724 
L 664.091883 366.311379 
L 667.456793 364.401103 
L 670.754103 364.258883 
L 674.049772 358.601106 
L 677.365458 363.776885 
L 680.731025 367.917508 
L 684.047367 371.230006 
L 687.344349 369.722005 
L 690.733871 368.515604 
L 694.067934 363.392483 
L 700.699963 363.499589 
L 704.0547 367.695671 
L 707.445206 371.052537 
L 710.7773 370.96603 
L 714.09594 372.282824 
L 717.455928 370.564259 
L 720.790319 370.575407 
L 724.080738 362.268325 
L 727.407581 363.93866 
L 730.699313 363.888928 
L 734.06652 362.463142 
L 737.403864 364.094514 
L 740.784198 368.171611 
L 744.181267 367.275289 
L 747.485796 370.716231 
L 750.834626 370.696985 
L 754.191004 366.523588 
L 757.531302 368.72887 
L 760.846004 370.493096 
L 764.219446 369.132477 
L 767.593544 370.815982 
L 770.944672 373.548785 
L 774.314832 374.349028 
L 777.6 373.603222 
L 777.6 373.603222 
" clip-path="url(#pf1a07e6943)" style="fill: none; stroke: #2ca02c; stroke-opacity: 0.9; stroke-width: 2.5; stroke-linecap: square"/>
   </g>
   <g id="line2d_22">
    <path d="M 109.575148 384.48 
L 376.267062 384.48 
L 380.116658 382.400999 
L 389.072687 383.14944 
L 400.741908 383.798753 
L 413.364422 384.131202 
L 434.003127 384.365706 
L 472.294646 384.46466 
L 552.214045 384.479823 
L 555.699716 359.531859 
L 559.156838 364.521487 
L 563.438943 368.513189 
L 566.901643 363.390552 
L 571.589677 367.608441 
L 576.315121 370.982753 
L 580.469574 373.682202 
L 584.891802 375.841762 
L 592.940808 378.951528 
L 596.583994 380.057222 
L 600.929106 380.941778 
L 608.842255 382.215538 
L 612.930749 382.66843 
L 620.787456 383.320595 
L 628.693714 383.737981 
L 644.578097 384.176069 
L 667.111573 384.400326 
L 671.51805 384.416261 
L 675.796217 382.350009 
L 679.733431 380.697007 
L 687.452312 382.058885 
L 691.377384 382.543108 
L 695.187601 380.851486 
L 698.574498 379.498189 
L 702.057872 378.415551 
L 705.738468 379.628441 
L 709.185088 380.598753 
L 713.241094 381.375002 
L 716.569251 379.917002 
L 719.890516 380.829601 
L 723.726658 381.559681 
L 731.527578 382.610996 
L 734.855078 382.984797 
L 742.636309 383.52307 
L 754.286169 383.990052 
L 758.13675 384.088041 
L 761.807173 382.087433 
L 768.51435 382.948757 
L 772.133908 383.255006 
L 776.040604 377.263005 
L 776.040604 377.263005 
" clip-path="url(#pf1a07e6943)" style="fill: none; stroke: #d62728; stroke-opacity: 0.9; stroke-width: 2.5; stroke-linecap: square"/>
   </g>
   <g id="patch_3">
    <path d="M 108 384.48 
L 108 51.84 
" style="fill: none; stroke: #000000; stroke-width: 0.8; stroke-linejoin: miter; stroke-linecap: square"/>
   </g>
   <g id="patch_4">
    <path d="M 108 384.48 
L 777.6 384.48 
" style="fill: none; stroke: #000000; stroke-width: 0.8; stroke-linejoin: miter; stroke-linecap: square"/>
   </g>
   <g id="text_12">
    <!-- 5z_vs_1ul -->
    <g transform="translate(409.047969 45.84) scale(0.14 -0.14)">
     <defs>
      <path id="DejaVuSans-35" d="M 691 4666 
L 3169 4666 
L 3169 4134 
L 1269 4134 
L 1269 2991 
Q 1406 3038 1543 3061 
Q 1681 3084 1819 3084 
Q 2600 3084 3056 2656 
Q 3513 2228 3513 1497 
Q 3513 744 3044 326 
Q 2575 -91 1722 -91 
Q 1428 -91 1123 -41 
Q 819 9 494 109 
L 494 744 
Q 775 591 1075 516 
Q 1375 441 1709 441 
Q 2250 441 2565 725 
Q 2881 1009 2881 1497 
Q 2881 1984 2565 2268 
Q 2250 2553 1709 2553 
Q 1456 2553 1204 2497 
Q 953 2441 691 2322 
L 691 4666 
z
" transform="scale(0.015625)"/>
      <path id="DejaVuSans-7a" d="M 353 3500 
L 3084 3500 
L 3084 2975 
L 922 459 
L 3084 459 
L 3084 0 
L 275 0 
L 275 525 
L 2438 3041 
L 353 3041 
L 353 3500 
z
" transform="scale(0.015625)"/>
      <path id="DejaVuSans-5f" d="M 3263 -1063 
L 3263 -1509 
L -63 -1509 
L -63 -1063 
L 3263 -1063 
z
" transform="scale(0.015625)"/>
      <path id="DejaVuSans-76" d="M 191 3500 
L 800 3500 
L 1894 563 
L 2988 3500 
L 3597 3500 
L 2284 0 
L 1503 0 
L 191 3500 
z
" transform="scale(0.015625)"/>
      <path id="DejaVuSans-73" d="M 2834 3397 
L 2834 2853 
Q 2591 2978 2328 3040 
Q 2066 3103 1784 3103 
Q 1356 3103 1142 2972 
Q 928 2841 928 2578 
Q 928 2378 1081 2264 
Q 1234 2150 1697 2047 
L 1894 2003 
Q 2506 1872 2764 1633 
Q 3022 1394 3022 966 
Q 3022 478 2636 193 
Q 2250 -91 1575 -91 
Q 1294 -91 989 -36 
Q 684 19 347 128 
L 347 722 
Q 666 556 975 473 
Q 1284 391 1588 391 
Q 1994 391 2212 530 
Q 2431 669 2431 922 
Q 2431 1156 2273 1281 
Q 2116 1406 1581 1522 
L 1381 1569 
Q 847 1681 609 1914 
Q 372 2147 372 2553 
Q 372 3047 722 3315 
Q 1072 3584 1716 3584 
Q 2034 3584 2315 3537 
Q 2597 3491 2834 3397 
z
" transform="scale(0.015625)"/>
      <path id="DejaVuSans-75" d="M 544 1381 
L 544 3500 
L 1119 3500 
L 1119 1403 
Q 1119 906 1312 657 
Q 1506 409 1894 409 
Q 2359 409 2629 706 
Q 2900 1003 2900 1516 
L 2900 3500 
L 3475 3500 
L 3475 0 
L 2900 0 
L 2900 538 
Q 2691 219 2414 64 
Q 2138 -91 1772 -91 
Q 1169 -91 856 284 
Q 544 659 544 1381 
z
M 1991 3584 
L 1991 3584 
z
" transform="scale(0.015625)"/>
     </defs>
     <use xlink:href="#DejaVuSans-35"/>
     <use xlink:href="#DejaVuSans-7a" x="63.623047"/>
     <use xlink:href="#DejaVuSans-5f" x="116.113281"/>
     <use xlink:href="#DejaVuSans-76" x="166.113281"/>
     <use xlink:href="#DejaVuSans-73" x="225.292969"/>
     <use xlink:href="#DejaVuSans-5f" x="277.392578"/>
     <use xlink:href="#DejaVuSans-31" x="327.392578"/>
     <use xlink:href="#DejaVuSans-75" x="391.015625"/>
     <use xlink:href="#DejaVuSans-6c" x="454.394531"/>
    </g>
   </g>
   <g id="legend_1">
    <g id="patch_5">
     <path d="M 677.648438 118.5525 
L 770.6 118.5525 
Q 772.6 118.5525 772.6 116.5525 
L 772.6 58.84 
Q 772.6 56.84 770.6 56.84 
L 677.648438 56.84 
Q 675.648438 56.84 675.648438 58.84 
L 675.648438 116.5525 
Q 675.648438 118.5525 677.648438 118.5525 
z
" style="fill: #ffffff; opacity: 0.8; stroke: #cccccc; stroke-linejoin: miter"/>
    </g>
    <g id="line2d_23">
     <path d="M 679.648438 64.938438 
L 689.648438 64.938438 
L 699.648438 64.938438 
" style="fill: none; stroke: #1f77b4; stroke-opacity: 0.9; stroke-width: 2.5; stroke-linecap: square"/>
    </g>
    <g id="text_13">
     <!-- Intent(Ours) -->
     <g transform="translate(707.648438 68.438438) scale(0.1 -0.1)">
      <defs>
       <path id="DejaVuSans-49" d="M 628 4666 
L 1259 4666 
L 1259 0 
L 628 0 
L 628 4666 
z
" transform="scale(0.015625)"/>
       <path id="DejaVuSans-28" d="M 1984 4856 
Q 1566 4138 1362 3434 
Q 1159 2731 1159 2009 
Q 1159 1288 1364 580 
Q 1569 -128 1984 -844 
L 1484 -844 
Q 1016 -109 783 600 
Q 550 1309 550 2009 
Q 550 2706 781 3412 
Q 1013 4119 1484 4856 
L 1984 4856 
z
" transform="scale(0.015625)"/>
       <path id="DejaVuSans-4f" d="M 2522 4238 
Q 1834 4238 1429 3725 
Q 1025 3213 1025 2328 
Q 1025 1447 1429 934 
Q 1834 422 2522 422 
Q 3209 422 3611 934 
Q 4013 1447 4013 2328 
Q 4013 3213 3611 3725 
Q 3209 4238 2522 4238 
z
M 2522 4750 
Q 3503 4750 4090 4092 
Q 4678 3434 4678 2328 
Q 4678 1225 4090 567 
Q 3503 -91 2522 -91 
Q 1538 -91 948 565 
Q 359 1222 359 2328 
Q 359 3434 948 4092 
Q 1538 4750 2522 4750 
z
" transform="scale(0.015625)"/>
       <path id="DejaVuSans-29" d="M 513 4856 
L 1013 4856 
Q 1481 4119 1714 3412 
Q 1947 2706 1947 2009 
Q 1947 1309 1714 600 
Q 1481 -109 1013 -844 
L 513 -844 
Q 928 -128 1133 580 
Q 1338 1288 1338 2009 
Q 1338 2731 1133 3434 
Q 928 4138 513 4856 
z
" transform="scale(0.015625)"/>
      </defs>
      <use xlink:href="#DejaVuSans-49"/>
      <use xlink:href="#DejaVuSans-6e" x="29.492188"/>
      <use xlink:href="#DejaVuSans-74" x="92.871094"/>
      <use xlink:href="#DejaVuSans-65" x="132.080078"/>
      <use xlink:href="#DejaVuSans-6e" x="193.603516"/>
      <use xlink:href="#DejaVuSans-74" x="256.982422"/>
      <use xlink:href="#DejaVuSans-28" x="296.191406"/>
      <use xlink:href="#DejaVuSans-4f" x="335.205078"/>
      <use xlink:href="#DejaVuSans-75" x="413.916016"/>
      <use xlink:href="#DejaVuSans-72" x="477.294922"/>
      <use xlink:href="#DejaVuSans-73" x="518.408203"/>
      <use xlink:href="#DejaVuSans-29" x="570.507812"/>
     </g>
    </g>
    <g id="line2d_24">
     <path d="M 679.648438 79.616563 
L 689.648438 79.616563 
L 699.648438 79.616563 
" style="fill: none; stroke: #ff7f0e; stroke-opacity: 0.9; stroke-width: 2.5; stroke-linecap: square"/>
    </g>
    <g id="text_14">
     <!-- QMIX -->
     <g transform="translate(707.648438 83.116563) scale(0.1 -0.1)">
      <defs>
       <path id="DejaVuSans-51" d="M 2522 4238 
Q 1834 4238 1429 3725 
Q 1025 3213 1025 2328 
Q 1025 1447 1429 934 
Q 1834 422 2522 422 
Q 3209 422 3611 934 
Q 4013 1447 4013 2328 
Q 4013 3213 3611 3725 
Q 3209 4238 2522 4238 
z
M 3406 84 
L 4238 -825 
L 3475 -825 
L 2784 -78 
Q 2681 -84 2626 -87 
Q 2572 -91 2522 -91 
Q 1538 -91 948 567 
Q 359 1225 359 2328 
Q 359 3434 948 4092 
Q 1538 4750 2522 4750 
Q 3503 4750 4090 4092 
Q 4678 3434 4678 2328 
Q 4678 1516 4351 937 
Q 4025 359 3406 84 
z
" transform="scale(0.015625)"/>
       <path id="DejaVuSans-58" d="M 403 4666 
L 1081 4666 
L 2241 2931 
L 3406 4666 
L 4084 4666 
L 2584 2425 
L 4184 0 
L 3506 0 
L 2194 1984 
L 872 0 
L 191 0 
L 1856 2491 
L 403 4666 
z
" transform="scale(0.015625)"/>
      </defs>
      <use xlink:href="#DejaVuSans-51"/>
      <use xlink:href="#DejaVuSans-4d" x="78.710938"/>
      <use xlink:href="#DejaVuSans-49" x="164.990234"/>
      <use xlink:href="#DejaVuSans-58" x="194.482422"/>
     </g>
    </g>
    <g id="line2d_25">
     <path d="M 679.648438 94.294688 
L 689.648438 94.294688 
L 699.648438 94.294688 
" style="fill: none; stroke: #2ca02c; stroke-opacity: 0.9; stroke-width: 2.5; stroke-linecap: square"/>
    </g>
    <g id="text_15">
     <!-- MAIC -->
     <g transform="translate(707.648438 97.794688) scale(0.1 -0.1)">
      <defs>
       <path id="DejaVuSans-41" d="M 2188 4044 
L 1331 1722 
L 3047 1722 
L 2188 4044 
z
M 1831 4666 
L 2547 4666 
L 4325 0 
L 3669 0 
L 3244 1197 
L 1141 1197 
L 716 0 
L 50 0 
L 1831 4666 
z
" transform="scale(0.015625)"/>
       <path id="DejaVuSans-43" d="M 4122 4306 
L 4122 3641 
Q 3803 3938 3442 4084 
Q 3081 4231 2675 4231 
Q 1875 4231 1450 3742 
Q 1025 3253 1025 2328 
Q 1025 1406 1450 917 
Q 1875 428 2675 428 
Q 3081 428 3442 575 
Q 3803 722 4122 1019 
L 4122 359 
Q 3791 134 3420 21 
Q 3050 -91 2638 -91 
Q 1578 -91 968 557 
Q 359 1206 359 2328 
Q 359 3453 968 4101 
Q 1578 4750 2638 4750 
Q 3056 4750 3426 4639 
Q 3797 4528 4122 4306 
z
" transform="scale(0.015625)"/>
      </defs>
      <use xlink:href="#DejaVuSans-4d"/>
      <use xlink:href="#DejaVuSans-41" x="86.279297"/>
      <use xlink:href="#DejaVuSans-49" x="154.6875"/>
      <use xlink:href="#DejaVuSans-43" x="184.179688"/>
     </g>
    </g>
    <g id="line2d_26">
     <path d="M 679.648438 108.972813 
L 689.648438 108.972813 
L 699.648438 108.972813 
" style="fill: none; stroke: #d62728; stroke-opacity: 0.9; stroke-width: 2.5; stroke-linecap: square"/>
    </g>
    <g id="text_16">
     <!-- T2MAC -->
     <g transform="translate(707.648438 112.472813) scale(0.1 -0.1)">
      <use xlink:href="#DejaVuSans-54"/>
      <use xlink:href="#DejaVuSans-32" x="61.083984"/>
      <use xlink:href="#DejaVuSans-4d" x="124.707031"/>
      <use xlink:href="#DejaVuSans-41" x="210.986328"/>
      <use xlink:href="#DejaVuSans-43" x="277.644531"/>
     </g>
    </g>
   </g>
  </g>
 </g>
 <defs>
  <clipPath id="pf1a07e6943">
   <rect x="108" y="51.84" width="669.6" height="332.64"/>
  </clipPath>
 </defs>
</svg>
