<?xml version="1.0" encoding="utf-8" standalone="no"?>
<!DOCTYPE svg PUBLIC "-//W3C//DTD SVG 1.1//EN"
  "http://www.w3.org/Graphics/SVG/1.1/DTD/svg11.dtd">
<svg xmlns:xlink="http://www.w3.org/1999/xlink" width="342.72pt" height="282.96pt" viewBox="0 0 342.72 282.96" xmlns="http://www.w3.org/2000/svg" version="1.1">
 <metadata>
  <rdf:RDF xmlns:dc="http://purl.org/dc/elements/1.1/" xmlns:cc="http://creativecommons.org/ns#" xmlns:rdf="http://www.w3.org/1999/02/22-rdf-syntax-ns#">
   <cc:Work>
    <dc:type rdf:resource="http://purl.org/dc/dcmitype/StillImage"/>
    <dc:date>2026-04-06T10:24:36.086723</dc:date>
    <dc:format>image/svg+xml</dc:format>
    <dc:creator>
     <cc:Agent>
      <dc:title>Matplotlib v3.9.4, https://matplotlib.org/</dc:title>
     </cc:Agent>
    </dc:creator>
   </cc:Work>
  </rdf:RDF>
 </metadata>
 <defs>
  <style type="text/css">*{stroke-linejoin: round; stroke-linecap: butt}</style>
 </defs>
 <g id="figure_1">
  <g id="patch_1">
   <path d="M 0 282.96 
L 342.72 282.96 
L 342.72 0 
L 0 0 
z
" style="fill: #ffffff"/>
  </g>
  <g id="axes_1">
   <g id="patch_2">
    <path d="M 42.84 251.8344 
L 308.448 251.8344 
L 308.448 33.9552 
L 42.84 33.9552 
z
" style="fill: #ffffff"/>
   </g>
   <g id="matplotlib.axis_1">
    <g id="xtick_1">
     <g id="line2d_1">
      <path d="M 54.901241 251.8344 
L 54.901241 33.9552 
" clip-path="url(#p54d1e3a1f2)" style="fill: none; stroke: #b0b0b0; stroke-width: 0.8; stroke-linecap: square"/>
     </g>
     <g id="line2d_2">
      <defs>
       <path id="m3db053db09" d="M 0 0 
L 0 3.5 
" style="stroke: #000000; stroke-width: 0.8"/>
      </defs>
      <g>
       <use xlink:href="#m3db053db09" x="54.901241" y="251.8344" style="stroke: #000000; stroke-width: 0.8"/>
      </g>
     </g>
     <g id="text_1">
      <!-- 0.0 -->
      <g transform="translate(46.949678 266.432838) scale(0.1 -0.1)">
       <defs>
        <path id="DejaVuSans-30" d="M 2034 4250 
Q 1547 4250 1301 3770 
Q 1056 3291 1056 2328 
Q 1056 1369 1301 889 
Q 1547 409 2034 409 
Q 2525 409 2770 889 
Q 3016 1369 3016 2328 
Q 3016 3291 2770 3770 
Q 2525 4250 2034 4250 
z
M 2034 4750 
Q 2819 4750 3233 4129 
Q 3647 3509 3647 2328 
Q 3647 1150 3233 529 
Q 2819 -91 2034 -91 
Q 1250 -91 836 529 
Q 422 1150 422 2328 
Q 422 3509 836 4129 
Q 1250 4750 2034 4750 
z
" transform="scale(0.015625)"/>
        <path id="DejaVuSans-2e" d="M 684 794 
L 1344 794 
L 1344 0 
L 684 0 
L 684 794 
z
" transform="scale(0.015625)"/>
       </defs>
       <use xlink:href="#DejaVuSans-30"/>
       <use xlink:href="#DejaVuSans-2e" x="63.623047"/>
       <use xlink:href="#DejaVuSans-30" x="95.410156"/>
      </g>
     </g>
    </g>
    <g id="xtick_2">
     <g id="line2d_3">
      <path d="M 114.153144 251.8344 
L 114.153144 33.9552 
" clip-path="url(#p54d1e3a1f2)" style="fill: none; stroke: #b0b0b0; stroke-width: 0.8; stroke-linecap: square"/>
     </g>
     <g id="line2d_4">
      <g>
       <use xlink:href="#m3db053db09" x="114.153144" y="251.8344" style="stroke: #000000; stroke-width: 0.8"/>
      </g>
     </g>
     <g id="text_2">
      <!-- 0.5 -->
      <g transform="translate(106.201582 266.432838) scale(0.1 -0.1)">
       <defs>
        <path id="DejaVuSans-35" d="M 691 4666 
L 3169 4666 
L 3169 4134 
L 1269 4134 
L 1269 2991 
Q 1406 3038 1543 3061 
Q 1681 3084 1819 3084 
Q 2600 3084 3056 2656 
Q 3513 2228 3513 1497 
Q 3513 744 3044 326 
Q 2575 -91 1722 -91 
Q 1428 -91 1123 -41 
Q 819 9 494 109 
L 494 744 
Q 775 591 1075 516 
Q 1375 441 1709 441 
Q 2250 441 2565 725 
Q 2881 1009 2881 1497 
Q 2881 1984 2565 2268 
Q 2250 2553 1709 2553 
Q 1456 2553 1204 2497 
Q 953 2441 691 2322 
L 691 4666 
z
" transform="scale(0.015625)"/>
       </defs>
       <use xlink:href="#DejaVuSans-30"/>
       <use xlink:href="#DejaVuSans-2e" x="63.623047"/>
       <use xlink:href="#DejaVuSans-35" x="95.410156"/>
      </g>
     </g>
    </g>
    <g id="xtick_3">
     <g id="line2d_5">
      <path d="M 173.405048 251.8344 
L 173.405048 33.9552 
" clip-path="url(#p54d1e3a1f2)" style="fill: none; stroke: #b0b0b0; stroke-width: 0.8; stroke-linecap: square"/>
     </g>
     <g id="line2d_6">
      <g>
       <use xlink:href="#m3db053db09" x="173.405048" y="251.8344" style="stroke: #000000; stroke-width: 0.8"/>
      </g>
     </g>
     <g id="text_3">
      <!-- 1.0 -->
      <g transform="translate(165.453486 266.432838) scale(0.1 -0.1)">
       <defs>
        <path id="DejaVuSans-31" d="M 794 531 
L 1825 531 
L 1825 4091 
L 703 3866 
L 703 4441 
L 1819 4666 
L 2450 4666 
L 2450 531 
L 3481 531 
L 3481 0 
L 794 0 
L 794 531 
z
" transform="scale(0.015625)"/>
       </defs>
       <use xlink:href="#DejaVuSans-31"/>
       <use xlink:href="#DejaVuSans-2e" x="63.623047"/>
       <use xlink:href="#DejaVuSans-30" x="95.410156"/>
      </g>
     </g>
    </g>
    <g id="xtick_4">
     <g id="line2d_7">
      <path d="M 232.656952 251.8344 
L 232.656952 33.9552 
" clip-path="url(#p54d1e3a1f2)" style="fill: none; stroke: #b0b0b0; stroke-width: 0.8; stroke-linecap: square"/>
     </g>
     <g id="line2d_8">
      <g>
       <use xlink:href="#m3db053db09" x="232.656952" y="251.8344" style="stroke: #000000; stroke-width: 0.8"/>
      </g>
     </g>
     <g id="text_4">
      <!-- 1.5 -->
      <g transform="translate(224.70539 266.432838) scale(0.1 -0.1)">
       <use xlink:href="#DejaVuSans-31"/>
       <use xlink:href="#DejaVuSans-2e" x="63.623047"/>
       <use xlink:href="#DejaVuSans-35" x="95.410156"/>
      </g>
     </g>
    </g>
    <g id="xtick_5">
     <g id="line2d_9">
      <path d="M 291.908856 251.8344 
L 291.908856 33.9552 
" clip-path="url(#p54d1e3a1f2)" style="fill: none; stroke: #b0b0b0; stroke-width: 0.8; stroke-linecap: square"/>
     </g>
     <g id="line2d_10">
      <g>
       <use xlink:href="#m3db053db09" x="291.908856" y="251.8344" style="stroke: #000000; stroke-width: 0.8"/>
      </g>
     </g>
     <g id="text_5">
      <!-- 2.0 -->
      <g transform="translate(283.957294 266.432838) scale(0.1 -0.1)">
       <defs>
        <path id="DejaVuSans-32" d="M 1228 531 
L 3431 531 
L 3431 0 
L 469 0 
L 469 531 
Q 828 903 1448 1529 
Q 2069 2156 2228 2338 
Q 2531 2678 2651 2914 
Q 2772 3150 2772 3378 
Q 2772 3750 2511 3984 
Q 2250 4219 1831 4219 
Q 1534 4219 1204 4116 
Q 875 4013 500 3803 
L 500 4441 
Q 881 4594 1212 4672 
Q 1544 4750 1819 4750 
Q 2544 4750 2975 4387 
Q 3406 4025 3406 3419 
Q 3406 3131 3298 2873 
Q 3191 2616 2906 2266 
Q 2828 2175 2409 1742 
Q 1991 1309 1228 531 
z
" transform="scale(0.015625)"/>
       </defs>
       <use xlink:href="#DejaVuSans-32"/>
       <use xlink:href="#DejaVuSans-2e" x="63.623047"/>
       <use xlink:href="#DejaVuSans-30" x="95.410156"/>
      </g>
     </g>
    </g>
    <g id="text_6">
     <!-- Step -->
     <g transform="translate(164.258844 280.110963) scale(0.1 -0.1)">
      <defs>
       <path id="DejaVuSans-53" d="M 3425 4513 
L 3425 3897 
Q 3066 4069 2747 4153 
Q 2428 4238 2131 4238 
Q 1616 4238 1336 4038 
Q 1056 3838 1056 3469 
Q 1056 3159 1242 3001 
Q 1428 2844 1947 2747 
L 2328 2669 
Q 3034 2534 3370 2195 
Q 3706 1856 3706 1288 
Q 3706 609 3251 259 
Q 2797 -91 1919 -91 
Q 1588 -91 1214 -16 
Q 841 59 441 206 
L 441 856 
Q 825 641 1194 531 
Q 1563 422 1919 422 
Q 2459 422 2753 634 
Q 3047 847 3047 1241 
Q 3047 1584 2836 1778 
Q 2625 1972 2144 2069 
L 1759 2144 
Q 1053 2284 737 2584 
Q 422 2884 422 3419 
Q 422 4038 858 4394 
Q 1294 4750 2059 4750 
Q 2388 4750 2728 4690 
Q 3069 4631 3425 4513 
z
" transform="scale(0.015625)"/>
       <path id="DejaVuSans-74" d="M 1172 4494 
L 1172 3500 
L 2356 3500 
L 2356 3053 
L 1172 3053 
L 1172 1153 
Q 1172 725 1289 603 
Q 1406 481 1766 481 
L 2356 481 
L 2356 0 
L 1766 0 
Q 1100 0 847 248 
Q 594 497 594 1153 
L 594 3053 
L 172 3053 
L 172 3500 
L 594 3500 
L 594 4494 
L 1172 4494 
z
" transform="scale(0.015625)"/>
       <path id="DejaVuSans-65" d="M 3597 1894 
L 3597 1613 
L 953 1613 
Q 991 1019 1311 708 
Q 1631 397 2203 397 
Q 2534 397 2845 478 
Q 3156 559 3463 722 
L 3463 178 
Q 3153 47 2828 -22 
Q 2503 -91 2169 -91 
Q 1331 -91 842 396 
Q 353 884 353 1716 
Q 353 2575 817 3079 
Q 1281 3584 2069 3584 
Q 2775 3584 3186 3129 
Q 3597 2675 3597 1894 
z
M 3022 2063 
Q 3016 2534 2758 2815 
Q 2500 3097 2075 3097 
Q 1594 3097 1305 2825 
Q 1016 2553 972 2059 
L 3022 2063 
z
" transform="scale(0.015625)"/>
       <path id="DejaVuSans-70" d="M 1159 525 
L 1159 -1331 
L 581 -1331 
L 581 3500 
L 1159 3500 
L 1159 2969 
Q 1341 3281 1617 3432 
Q 1894 3584 2278 3584 
Q 2916 3584 3314 3078 
Q 3713 2572 3713 1747 
Q 3713 922 3314 415 
Q 2916 -91 2278 -91 
Q 1894 -91 1617 61 
Q 1341 213 1159 525 
z
M 3116 1747 
Q 3116 2381 2855 2742 
Q 2594 3103 2138 3103 
Q 1681 3103 1420 2742 
Q 1159 2381 1159 1747 
Q 1159 1113 1420 752 
Q 1681 391 2138 391 
Q 2594 391 2855 752 
Q 3116 1113 3116 1747 
z
" transform="scale(0.015625)"/>
      </defs>
      <use xlink:href="#DejaVuSans-53"/>
      <use xlink:href="#DejaVuSans-74" x="63.476562"/>
      <use xlink:href="#DejaVuSans-65" x="102.685547"/>
      <use xlink:href="#DejaVuSans-70" x="164.208984"/>
     </g>
    </g>
    <g id="text_7">
     <!-- 1e6 -->
     <g transform="translate(289.569875 279.110963) scale(0.1 -0.1)">
      <defs>
       <path id="DejaVuSans-36" d="M 2113 2584 
Q 1688 2584 1439 2293 
Q 1191 2003 1191 1497 
Q 1191 994 1439 701 
Q 1688 409 2113 409 
Q 2538 409 2786 701 
Q 3034 994 3034 1497 
Q 3034 2003 2786 2293 
Q 2538 2584 2113 2584 
z
M 3366 4563 
L 3366 3988 
Q 3128 4100 2886 4159 
Q 2644 4219 2406 4219 
Q 1781 4219 1451 3797 
Q 1122 3375 1075 2522 
Q 1259 2794 1537 2939 
Q 1816 3084 2150 3084 
Q 2853 3084 3261 2657 
Q 3669 2231 3669 1497 
Q 3669 778 3244 343 
Q 2819 -91 2113 -91 
Q 1303 -91 875 529 
Q 447 1150 447 2328 
Q 447 3434 972 4092 
Q 1497 4750 2381 4750 
Q 2619 4750 2861 4703 
Q 3103 4656 3366 4563 
z
" transform="scale(0.015625)"/>
      </defs>
      <use xlink:href="#DejaVuSans-31"/>
      <use xlink:href="#DejaVuSans-65" x="63.623047"/>
      <use xlink:href="#DejaVuSans-36" x="125.146484"/>
     </g>
    </g>
   </g>
   <g id="matplotlib.axis_2">
    <g id="ytick_1">
     <g id="line2d_11">
      <path d="M 42.84 251.8344 
L 308.448 251.8344 
" clip-path="url(#p54d1e3a1f2)" style="fill: none; stroke: #b0b0b0; stroke-width: 0.8; stroke-linecap: square"/>
     </g>
     <g id="line2d_12">
      <defs>
       <path id="m5040d070cf" d="M 0 0 
L -3.5 0 
" style="stroke: #000000; stroke-width: 0.8"/>
      </defs>
      <g>
       <use xlink:href="#m5040d070cf" x="42.84" y="251.8344" style="stroke: #000000; stroke-width: 0.8"/>
      </g>
     </g>
     <g id="text_8">
      <!-- 0.0 -->
      <g transform="translate(19.936875 255.633619) scale(0.1 -0.1)">
       <use xlink:href="#DejaVuSans-30"/>
       <use xlink:href="#DejaVuSans-2e" x="63.623047"/>
       <use xlink:href="#DejaVuSans-30" x="95.410156"/>
      </g>
     </g>
    </g>
    <g id="ytick_2">
     <g id="line2d_13">
      <path d="M 42.84 208.25856 
L 308.448 208.25856 
" clip-path="url(#p54d1e3a1f2)" style="fill: none; stroke: #b0b0b0; stroke-width: 0.8; stroke-linecap: square"/>
     </g>
     <g id="line2d_14">
      <g>
       <use xlink:href="#m5040d070cf" x="42.84" y="208.25856" style="stroke: #000000; stroke-width: 0.8"/>
      </g>
     </g>
     <g id="text_9">
      <!-- 0.2 -->
      <g transform="translate(19.936875 212.057779) scale(0.1 -0.1)">
       <use xlink:href="#DejaVuSans-30"/>
       <use xlink:href="#DejaVuSans-2e" x="63.623047"/>
       <use xlink:href="#DejaVuSans-32" x="95.410156"/>
      </g>
     </g>
    </g>
    <g id="ytick_3">
     <g id="line2d_15">
      <path d="M 42.84 164.68272 
L 308.448 164.68272 
" clip-path="url(#p54d1e3a1f2)" style="fill: none; stroke: #b0b0b0; stroke-width: 0.8; stroke-linecap: square"/>
     </g>
     <g id="line2d_16">
      <g>
       <use xlink:href="#m5040d070cf" x="42.84" y="164.68272" style="stroke: #000000; stroke-width: 0.8"/>
      </g>
     </g>
     <g id="text_10">
      <!-- 0.4 -->
      <g transform="translate(19.936875 168.481939) scale(0.1 -0.1)">
       <defs>
        <path id="DejaVuSans-34" d="M 2419 4116 
L 825 1625 
L 2419 1625 
L 2419 4116 
z
M 2253 4666 
L 3047 4666 
L 3047 1625 
L 3713 1625 
L 3713 1100 
L 3047 1100 
L 3047 0 
L 2419 0 
L 2419 1100 
L 313 1100 
L 313 1709 
L 2253 4666 
z
" transform="scale(0.015625)"/>
       </defs>
       <use xlink:href="#DejaVuSans-30"/>
       <use xlink:href="#DejaVuSans-2e" x="63.623047"/>
       <use xlink:href="#DejaVuSans-34" x="95.410156"/>
      </g>
     </g>
    </g>
    <g id="ytick_4">
     <g id="line2d_17">
      <path d="M 42.84 121.10688 
L 308.448 121.10688 
" clip-path="url(#p54d1e3a1f2)" style="fill: none; stroke: #b0b0b0; stroke-width: 0.8; stroke-linecap: square"/>
     </g>
     <g id="line2d_18">
      <g>
       <use xlink:href="#m5040d070cf" x="42.84" y="121.10688" style="stroke: #000000; stroke-width: 0.8"/>
      </g>
     </g>
     <g id="text_11">
      <!-- 0.6 -->
      <g transform="translate(19.936875 124.906099) scale(0.1 -0.1)">
       <use xlink:href="#DejaVuSans-30"/>
       <use xlink:href="#DejaVuSans-2e" x="63.623047"/>
       <use xlink:href="#DejaVuSans-36" x="95.410156"/>
      </g>
     </g>
    </g>
    <g id="ytick_5">
     <g id="line2d_19">
      <path d="M 42.84 77.53104 
L 308.448 77.53104 
" clip-path="url(#p54d1e3a1f2)" style="fill: none; stroke: #b0b0b0; stroke-width: 0.8; stroke-linecap: square"/>
     </g>
     <g id="line2d_20">
      <g>
       <use xlink:href="#m5040d070cf" x="42.84" y="77.53104" style="stroke: #000000; stroke-width: 0.8"/>
      </g>
     </g>
     <g id="text_12">
      <!-- 0.8 -->
      <g transform="translate(19.936875 81.330259) scale(0.1 -0.1)">
       <defs>
        <path id="DejaVuSans-38" d="M 2034 2216 
Q 1584 2216 1326 1975 
Q 1069 1734 1069 1313 
Q 1069 891 1326 650 
Q 1584 409 2034 409 
Q 2484 409 2743 651 
Q 3003 894 3003 1313 
Q 3003 1734 2745 1975 
Q 2488 2216 2034 2216 
z
M 1403 2484 
Q 997 2584 770 2862 
Q 544 3141 544 3541 
Q 544 4100 942 4425 
Q 1341 4750 2034 4750 
Q 2731 4750 3128 4425 
Q 3525 4100 3525 3541 
Q 3525 3141 3298 2862 
Q 3072 2584 2669 2484 
Q 3125 2378 3379 2068 
Q 3634 1759 3634 1313 
Q 3634 634 3220 271 
Q 2806 -91 2034 -91 
Q 1263 -91 848 271 
Q 434 634 434 1313 
Q 434 1759 690 2068 
Q 947 2378 1403 2484 
z
M 1172 3481 
Q 1172 3119 1398 2916 
Q 1625 2713 2034 2713 
Q 2441 2713 2670 2916 
Q 2900 3119 2900 3481 
Q 2900 3844 2670 4047 
Q 2441 4250 2034 4250 
Q 1625 4250 1398 4047 
Q 1172 3844 1172 3481 
z
" transform="scale(0.015625)"/>
       </defs>
       <use xlink:href="#DejaVuSans-30"/>
       <use xlink:href="#DejaVuSans-2e" x="63.623047"/>
       <use xlink:href="#DejaVuSans-38" x="95.410156"/>
      </g>
     </g>
    </g>
    <g id="ytick_6">
     <g id="line2d_21">
      <path d="M 42.84 33.9552 
L 308.448 33.9552 
" clip-path="url(#p54d1e3a1f2)" style="fill: none; stroke: #b0b0b0; stroke-width: 0.8; stroke-linecap: square"/>
     </g>
     <g id="line2d_22">
      <g>
       <use xlink:href="#m5040d070cf" x="42.84" y="33.9552" style="stroke: #000000; stroke-width: 0.8"/>
      </g>
     </g>
     <g id="text_13">
      <!-- 1.0 -->
      <g transform="translate(19.936875 37.754419) scale(0.1 -0.1)">
       <use xlink:href="#DejaVuSans-31"/>
       <use xlink:href="#DejaVuSans-2e" x="63.623047"/>
       <use xlink:href="#DejaVuSans-30" x="95.410156"/>
      </g>
     </g>
    </g>
    <g id="text_14">
     <!-- Battle Won Mean -->
     <g transform="translate(13.857187 185.454956) rotate(-90) scale(0.1 -0.1)">
      <defs>
       <path id="DejaVuSans-42" d="M 1259 2228 
L 1259 519 
L 2272 519 
Q 2781 519 3026 730 
Q 3272 941 3272 1375 
Q 3272 1813 3026 2020 
Q 2781 2228 2272 2228 
L 1259 2228 
z
M 1259 4147 
L 1259 2741 
L 2194 2741 
Q 2656 2741 2882 2914 
Q 3109 3088 3109 3444 
Q 3109 3797 2882 3972 
Q 2656 4147 2194 4147 
L 1259 4147 
z
M 628 4666 
L 2241 4666 
Q 2963 4666 3353 4366 
Q 3744 4066 3744 3513 
Q 3744 3084 3544 2831 
Q 3344 2578 2956 2516 
Q 3422 2416 3680 2098 
Q 3938 1781 3938 1306 
Q 3938 681 3513 340 
Q 3088 0 2303 0 
L 628 0 
L 628 4666 
z
" transform="scale(0.015625)"/>
       <path id="DejaVuSans-61" d="M 2194 1759 
Q 1497 1759 1228 1600 
Q 959 1441 959 1056 
Q 959 750 1161 570 
Q 1363 391 1709 391 
Q 2188 391 2477 730 
Q 2766 1069 2766 1631 
L 2766 1759 
L 2194 1759 
z
M 3341 1997 
L 3341 0 
L 2766 0 
L 2766 531 
Q 2569 213 2275 61 
Q 1981 -91 1556 -91 
Q 1019 -91 701 211 
Q 384 513 384 1019 
Q 384 1609 779 1909 
Q 1175 2209 1959 2209 
L 2766 2209 
L 2766 2266 
Q 2766 2663 2505 2880 
Q 2244 3097 1772 3097 
Q 1472 3097 1187 3025 
Q 903 2953 641 2809 
L 641 3341 
Q 956 3463 1253 3523 
Q 1550 3584 1831 3584 
Q 2591 3584 2966 3190 
Q 3341 2797 3341 1997 
z
" transform="scale(0.015625)"/>
       <path id="DejaVuSans-6c" d="M 603 4863 
L 1178 4863 
L 1178 0 
L 603 0 
L 603 4863 
z
" transform="scale(0.015625)"/>
       <path id="DejaVuSans-20" transform="scale(0.015625)"/>
       <path id="DejaVuSans-57" d="M 213 4666 
L 850 4666 
L 1831 722 
L 2809 4666 
L 3519 4666 
L 4500 722 
L 5478 4666 
L 6119 4666 
L 4947 0 
L 4153 0 
L 3169 4050 
L 2175 0 
L 1381 0 
L 213 4666 
z
" transform="scale(0.015625)"/>
       <path id="DejaVuSans-6f" d="M 1959 3097 
Q 1497 3097 1228 2736 
Q 959 2375 959 1747 
Q 959 1119 1226 758 
Q 1494 397 1959 397 
Q 2419 397 2687 759 
Q 2956 1122 2956 1747 
Q 2956 2369 2687 2733 
Q 2419 3097 1959 3097 
z
M 1959 3584 
Q 2709 3584 3137 3096 
Q 3566 2609 3566 1747 
Q 3566 888 3137 398 
Q 2709 -91 1959 -91 
Q 1206 -91 779 398 
Q 353 888 353 1747 
Q 353 2609 779 3096 
Q 1206 3584 1959 3584 
z
" transform="scale(0.015625)"/>
       <path id="DejaVuSans-6e" d="M 3513 2113 
L 3513 0 
L 2938 0 
L 2938 2094 
Q 2938 2591 2744 2837 
Q 2550 3084 2163 3084 
Q 1697 3084 1428 2787 
Q 1159 2491 1159 1978 
L 1159 0 
L 581 0 
L 581 3500 
L 1159 3500 
L 1159 2956 
Q 1366 3272 1645 3428 
Q 1925 3584 2291 3584 
Q 2894 3584 3203 3211 
Q 3513 2838 3513 2113 
z
" transform="scale(0.015625)"/>
       <path id="DejaVuSans-4d" d="M 628 4666 
L 1569 4666 
L 2759 1491 
L 3956 4666 
L 4897 4666 
L 4897 0 
L 4281 0 
L 4281 4097 
L 3078 897 
L 2444 897 
L 1241 4097 
L 1241 0 
L 628 0 
L 628 4666 
z
" transform="scale(0.015625)"/>
      </defs>
      <use xlink:href="#DejaVuSans-42"/>
      <use xlink:href="#DejaVuSans-61" x="68.603516"/>
      <use xlink:href="#DejaVuSans-74" x="129.882812"/>
      <use xlink:href="#DejaVuSans-74" x="169.091797"/>
      <use xlink:href="#DejaVuSans-6c" x="208.300781"/>
      <use xlink:href="#DejaVuSans-65" x="236.083984"/>
      <use xlink:href="#DejaVuSans-20" x="297.607422"/>
      <use xlink:href="#DejaVuSans-57" x="329.394531"/>
      <use xlink:href="#DejaVuSans-6f" x="422.396484"/>
      <use xlink:href="#DejaVuSans-6e" x="483.578125"/>
      <use xlink:href="#DejaVuSans-20" x="546.957031"/>
      <use xlink:href="#DejaVuSans-4d" x="578.744141"/>
      <use xlink:href="#DejaVuSans-65" x="665.023438"/>
      <use xlink:href="#DejaVuSans-61" x="726.546875"/>
      <use xlink:href="#DejaVuSans-6e" x="787.826172"/>
     </g>
    </g>
   </g>
   <g id="line2d_23">
    <path d="M 54.913091 251.8344 
L 93.102247 251.880899 
L 93.585654 252.064169 
L 93.827358 252.066167 
L 94.069061 251.938608 
L 94.552468 251.190103 
L 95.035876 250.300862 
L 95.277579 250.06841 
L 95.519283 250.110162 
L 96.00269 250.84671 
L 96.486097 251.742929 
L 96.7278 251.992175 
L 97.211207 252.042698 
L 98.178021 251.777131 
L 101.320167 251.837858 
L 101.803574 251.261469 
L 102.528685 250.251502 
L 103.012092 249.990353 
L 103.253795 250.027427 
L 103.737202 250.441403 
L 104.704016 251.776111 
L 104.94572 251.825695 
L 105.187423 251.666861 
L 106.154238 250.499925 
L 106.637645 250.475611 
L 107.362755 250.672306 
L 108.329569 250.573732 
L 109.05468 250.908185 
L 109.296383 250.647378 
L 109.538087 249.917287 
L 110.021494 246.772826 
L 110.504901 243.567437 
L 110.746604 243.029893 
L 110.988308 243.727546 
L 111.713419 248.532323 
L 111.955122 248.574184 
L 112.196826 246.72717 
L 112.921936 236.911291 
L 113.16364 235.698812 
L 113.405343 237.050242 
L 114.372157 250.415955 
L 114.613861 250.119643 
L 115.097268 244.600059 
L 115.580675 238.920844 
L 115.822378 238.168424 
L 116.064082 238.744331 
L 117.030896 243.650459 
L 117.2726 243.817243 
L 117.514303 243.825702 
L 117.756007 243.987271 
L 117.99771 244.61289 
L 118.722821 248.216132 
L 118.964524 248.450202 
L 119.206228 247.392466 
L 119.689635 241.757944 
L 120.173042 236.131997 
L 120.414745 235.162781 
L 120.656449 235.874655 
L 121.623263 243.165991 
L 121.864966 243.269332 
L 122.10667 242.558359 
L 123.315188 236.655401 
L 124.040298 234.779741 
L 124.765409 233.459722 
L 125.248816 232.968064 
L 125.490519 232.902175 
L 125.732223 233.024337 
L 125.973926 233.390556 
L 126.21563 234.056836 
L 127.182444 238.004136 
L 127.424147 238.013276 
L 127.665851 237.119952 
L 128.390962 232.461328 
L 128.632665 231.861605 
L 128.874369 232.465387 
L 129.357776 236.436811 
L 130.082886 243.488252 
L 130.32459 244.7723 
L 130.566293 245.178216 
L 130.807997 244.533785 
L 131.0497 242.666795 
L 132.258218 227.612332 
L 132.499921 228.218078 
L 132.983328 232.982773 
L 133.466735 237.1874 
L 133.708439 237.366362 
L 133.950143 236.383827 
L 134.916957 229.619 
L 135.400364 228.202088 
L 135.883771 227.777508 
L 136.125474 227.75755 
L 136.367178 227.903561 
L 136.608881 228.276981 
L 136.850585 228.939248 
L 137.333992 231.275984 
L 138.059102 235.308253 
L 138.300806 236.037372 
L 138.542509 236.253106 
L 138.784213 236.018702 
L 139.025916 235.407276 
L 139.509324 233.345 
L 140.234434 228.951647 
L 141.442952 221.002084 
L 141.684655 220.128934 
L 141.926359 219.773507 
L 142.168062 219.932855 
L 142.409766 220.528232 
L 142.893173 222.70709 
L 143.618283 227.564338 
L 144.343394 234.284218 
L 144.826801 238.802924 
L 145.068505 240.23149 
L 145.310208 240.680232 
L 145.551912 239.919316 
L 146.035319 235.897362 
L 146.760429 229.517994 
L 147.243836 227.723062 
L 147.48554 227.455315 
L 147.727243 227.503208 
L 148.21065 228.211231 
L 148.935761 229.418585 
L 149.902575 230.000051 
L 150.144278 230.59977 
L 151.111093 233.936946 
L 151.352796 233.785925 
L 152.31961 230.616763 
L 152.561314 231.282817 
L 153.044721 235.274671 
L 153.528128 239.272106 
L 153.769831 239.916393 
L 154.011535 239.425386 
L 154.736645 236.388496 
L 154.978349 236.645274 
L 155.461756 239.684003 
L 155.945163 242.892533 
L 156.186867 243.369683 
L 156.42857 242.903479 
L 156.911977 240.329795 
L 157.395384 237.576128 
L 157.878791 235.979631 
L 158.362198 235.227107 
L 158.845605 234.666709 
L 159.087309 233.925286 
L 159.329012 232.511643 
L 159.570716 230.152109 
L 160.53753 215.994438 
L 160.779233 215.028121 
L 161.020937 216.429017 
L 161.746048 224.996562 
L 161.987751 225.19857 
L 162.229455 222.522428 
L 162.954565 210.157017 
L 163.196269 209.751796 
L 163.437972 213.098511 
L 164.404786 236.408439 
L 164.64649 237.523729 
L 164.888193 236.217024 
L 166.096711 221.856175 
L 166.338414 220.605193 
L 166.580118 219.943121 
L 166.821821 219.797301 
L 167.063525 220.06634 
L 168.272043 222.618356 
L 168.513746 222.905236 
L 168.75545 223.397149 
L 168.997153 224.289554 
L 169.48056 227.735535 
L 169.963967 231.716443 
L 170.205671 232.990316 
L 170.447374 233.310895 
L 170.689078 232.603031 
L 171.172485 228.755393 
L 172.622706 211.598521 
L 172.86441 210.488919 
L 173.106113 210.296226 
L 173.347817 210.8453 
L 173.831224 213.459205 
L 174.556334 218.209837 
L 174.798038 219.024544 
L 175.039741 219.014858 
L 175.281445 217.967421 
L 175.764852 213.36951 
L 177.215073 196.319448 
L 177.69848 193.688305 
L 177.940183 193.473507 
L 178.181887 194.180495 
L 178.42359 195.951888 
L 178.906998 203.0464 
L 179.390405 211.309179 
L 179.632108 213.524755 
L 179.873812 213.176441 
L 180.115515 209.875679 
L 180.840626 195.64467 
L 181.082329 194.476678 
L 181.324033 196.753888 
L 182.290847 214.987643 
L 182.53255 215.594659 
L 182.774254 214.058039 
L 183.257661 206.66204 
L 184.224475 188.58842 
L 184.466179 185.924029 
L 184.707882 184.80546 
L 184.949586 185.123446 
L 185.674696 187.907974 
L 185.9164 187.161835 
L 186.883214 178.898932 
L 187.124917 179.02913 
L 187.366621 180.677419 
L 188.575138 192.532599 
L 188.816842 193.270914 
L 189.058545 193.604268 
L 190.75047 194.319605 
L 190.992174 194.394834 
L 191.233877 194.322094 
L 191.475581 194.011488 
L 191.717284 193.373116 
L 192.200691 191.046188 
L 193.167505 185.805032 
L 193.409209 185.126582 
L 193.650912 184.88563 
L 193.892616 185.161148 
L 194.134319 186.032053 
L 194.617726 189.535246 
L 196.067948 203.499348 
L 196.309651 203.776582 
L 196.551355 202.571952 
L 197.034762 196.496825 
L 197.518169 190.352473 
L 197.759872 189.114172 
L 198.001576 189.589301 
L 198.243279 191.359368 
L 199.451797 203.620387 
L 199.6935 203.873365 
L 199.935204 202.541373 
L 200.176907 199.305889 
L 201.143722 181.222503 
L 201.385425 180.41135 
L 201.627129 181.985614 
L 202.110536 189.132689 
L 202.593943 196.328231 
L 203.07735 199.994794 
L 203.319053 200.623644 
L 203.560757 200.57606 
L 203.80246 199.958064 
L 204.769274 196.027168 
L 205.010978 195.790815 
L 205.252681 195.934284 
L 205.736088 196.43821 
L 205.977792 196.337186 
L 206.219495 195.748783 
L 206.702903 193.479369 
L 207.669717 188.410905 
L 208.394827 185.969394 
L 209.119938 184.489244 
L 210.328455 182.883787 
L 210.811862 181.257489 
L 212.02038 175.231937 
L 212.262084 175.031263 
L 212.503787 175.659409 
L 212.745491 177.361541 
L 212.987194 180.382829 
L 213.470601 190.709523 
L 213.954008 201.30721 
L 214.195712 203.836044 
L 214.437415 203.03276 
L 214.920822 193.488513 
L 215.404229 183.499654 
L 215.645933 182.10959 
L 215.887636 183.667177 
L 216.85445 197.954264 
L 217.096154 199.247185 
L 217.821265 200.900512 
L 218.304672 204.87763 
L 218.546375 206.896029 
L 218.788079 207.832354 
L 219.029782 206.859005 
L 219.271486 203.33504 
L 220.2383 183.585712 
L 220.480003 183.387996 
L 220.721707 185.595948 
L 221.446817 194.825747 
L 221.688521 195.131233 
L 221.930224 193.889421 
L 222.413631 190.169008 
L 222.655335 189.392973 
L 222.897038 190.198771 
L 223.863853 198.139721 
L 224.105556 198.158327 
L 224.34726 196.991879 
L 224.830667 192.12485 
L 225.797481 180.825106 
L 226.039184 180.308032 
L 226.280888 181.738957 
L 226.764295 189.454122 
L 227.247702 197.036225 
L 227.489405 198.222836 
L 227.731109 196.992824 
L 228.214516 189.848617 
L 228.939627 177.585165 
L 229.423034 173.048698 
L 229.664737 172.177615 
L 229.906441 172.327098 
L 230.389848 174.802291 
L 230.873255 177.548076 
L 231.114958 178.055144 
L 231.598365 177.761848 
L 231.840069 177.949854 
L 232.081772 179.027487 
L 232.565179 184.821889 
L 233.048586 191.27306 
L 233.29029 192.663358 
L 233.531993 191.828185 
L 234.0154 185.115197 
L 234.498808 177.087601 
L 234.740511 174.51828 
L 234.982215 173.200292 
L 235.223918 172.898428 
L 235.465622 173.376432 
L 235.949029 175.746085 
L 237.640953 186.06801 
L 237.882657 186.001258 
L 238.12436 184.922584 
L 238.607767 180.04637 
L 239.091174 175.346529 
L 239.332878 174.60501 
L 239.574581 175.423474 
L 240.299692 180.967934 
L 240.541396 181.487778 
L 240.783099 180.553846 
L 241.749913 173.78444 
L 241.991617 174.079621 
L 242.958431 177.820042 
L 243.200134 177.263316 
L 244.166948 172.869448 
L 244.408652 172.710537 
L 245.133762 173.410815 
L 245.375466 173.28157 
L 245.858873 172.607801 
L 246.100577 172.783929 
L 246.34228 173.790356 
L 246.825687 178.915751 
L 247.309094 183.765036 
L 247.550798 183.876375 
L 247.792501 181.388624 
L 248.759315 165.039865 
L 249.001019 166.076075 
L 249.967833 180.232359 
L 250.209536 178.60099 
L 250.692943 168.459537 
L 251.176351 158.808478 
L 251.418054 157.466419 
L 251.659758 158.432492 
L 252.868275 170.396604 
L 253.593386 173.733585 
L 254.076793 177.697627 
L 255.28531 189.058351 
L 255.527014 190.229162 
L 255.768717 190.606182 
L 256.010421 190.005473 
L 256.493828 186.409567 
L 256.977235 182.773045 
L 257.218939 182.162251 
L 257.460642 182.650185 
L 258.427456 187.005033 
L 258.66916 186.679714 
L 258.910863 185.540403 
L 259.39427 181.126728 
L 260.361084 169.414963 
L 260.602788 168.660751 
L 260.844491 169.859809 
L 261.327898 176.947573 
L 262.053009 188.724373 
L 262.294713 190.665947 
L 262.536416 191.491 
L 262.77812 191.295541 
L 263.019823 190.17558 
L 263.50323 185.502098 
L 263.986637 177.943089 
L 265.195155 154.123488 
L 265.436858 152.139797 
L 265.678562 152.266506 
L 265.920265 154.016271 
L 266.645376 161.4019 
L 266.887079 162.265389 
L 267.128783 162.278361 
L 267.370486 162.001065 
L 267.61219 161.993747 
L 267.853894 162.816512 
L 268.579004 168.62243 
L 268.820708 168.785911 
L 269.062411 166.5275 
L 270.029225 145.919978 
L 270.270929 146.130517 
L 270.512632 150.782635 
L 271.479446 177.83385 
L 271.72115 178.237149 
L 271.962853 176.075686 
L 272.44626 169.583928 
L 272.687964 167.993848 
L 272.929667 168.428136 
L 273.413075 172.492204 
L 273.654778 174.56474 
L 273.896482 175.646617 
L 274.138185 175.476227 
L 274.379889 174.302695 
L 274.863296 170.036115 
L 275.83011 160.737157 
L 276.071813 159.387249 
L 276.313517 158.768971 
L 276.55522 158.850998 
L 276.796924 159.474052 
L 277.280331 161.697096 
L 278.005441 165.191551 
L 278.247145 165.885682 
L 278.488848 166.143727 
L 278.730552 165.892392 
L 279.213959 164.981173 
L 279.455663 165.080994 
L 279.697366 166.057859 
L 280.422477 172.642733 
L 280.66418 173.251211 
L 280.905884 171.527426 
L 281.389291 160.677811 
L 281.872698 148.929072 
L 282.114401 146.471645 
L 282.356105 147.653606 
L 282.839512 156.429371 
L 283.322919 164.492072 
L 283.564622 165.408077 
L 283.806326 164.751009 
L 284.289733 162.670782 
L 284.531437 163.219779 
L 284.77314 165.591502 
L 285.739954 179.305256 
L 285.981658 180.346914 
L 286.223361 180.102868 
L 286.465065 178.84622 
L 286.948472 174.387714 
L 287.673582 167.070317 
L 287.915286 165.635306 
L 288.156989 165.179814 
L 288.398693 165.633357 
L 288.8821 167.457953 
L 289.123803 167.896361 
L 289.365507 167.425056 
L 290.332321 162.534838 
L 290.574025 163.212485 
L 291.540839 169.548501 
L 291.782542 168.477667 
L 292.507653 161.057332 
L 292.749356 160.630084 
L 292.99106 162.80287 
L 293.957874 179.931125 
L 294.199577 180.248156 
L 294.441281 178.066175 
L 294.924688 169.297069 
L 295.408095 159.817068 
L 295.649799 156.746467 
L 295.891502 155.821325 
L 296.133206 157.816036 
L 296.374909 163.504995 
L 296.374909 163.504995 
" clip-path="url(#p54d1e3a1f2)" style="fill: none; stroke: #1f77b4; stroke-width: 1.5; stroke-linecap: square"/>
   </g>
   <g id="patch_3">
    <path d="M 42.84 251.8344 
L 42.84 33.9552 
" style="fill: none; stroke: #000000; stroke-width: 0.8; stroke-linejoin: miter; stroke-linecap: square"/>
   </g>
   <g id="patch_4">
    <path d="M 308.448 251.8344 
L 308.448 33.9552 
" style="fill: none; stroke: #000000; stroke-width: 0.8; stroke-linejoin: miter; stroke-linecap: square"/>
   </g>
   <g id="patch_5">
    <path d="M 42.84 251.8344 
L 308.448 251.8344 
" style="fill: none; stroke: #000000; stroke-width: 0.8; stroke-linejoin: miter; stroke-linecap: square"/>
   </g>
   <g id="patch_6">
    <path d="M 42.84 33.9552 
L 308.448 33.9552 
" style="fill: none; stroke: #000000; stroke-width: 0.8; stroke-linejoin: miter; stroke-linecap: square"/>
   </g>
   <g id="text_15">
    <!-- 5m_large -->
    <g transform="translate(147.775875 27.9552) scale(0.12 -0.12)">
     <defs>
      <path id="DejaVuSans-6d" d="M 3328 2828 
Q 3544 3216 3844 3400 
Q 4144 3584 4550 3584 
Q 5097 3584 5394 3201 
Q 5691 2819 5691 2113 
L 5691 0 
L 5113 0 
L 5113 2094 
Q 5113 2597 4934 2840 
Q 4756 3084 4391 3084 
Q 3944 3084 3684 2787 
Q 3425 2491 3425 1978 
L 3425 0 
L 2847 0 
L 2847 2094 
Q 2847 2600 2669 2842 
Q 2491 3084 2119 3084 
Q 1678 3084 1418 2786 
Q 1159 2488 1159 1978 
L 1159 0 
L 581 0 
L 581 3500 
L 1159 3500 
L 1159 2956 
Q 1356 3278 1631 3431 
Q 1906 3584 2284 3584 
Q 2666 3584 2933 3390 
Q 3200 3197 3328 2828 
z
" transform="scale(0.015625)"/>
      <path id="DejaVuSans-5f" d="M 3263 -1063 
L 3263 -1509 
L -63 -1509 
L -63 -1063 
L 3263 -1063 
z
" transform="scale(0.015625)"/>
      <path id="DejaVuSans-72" d="M 2631 2963 
Q 2534 3019 2420 3045 
Q 2306 3072 2169 3072 
Q 1681 3072 1420 2755 
Q 1159 2438 1159 1844 
L 1159 0 
L 581 0 
L 581 3500 
L 1159 3500 
L 1159 2956 
Q 1341 3275 1631 3429 
Q 1922 3584 2338 3584 
Q 2397 3584 2469 3576 
Q 2541 3569 2628 3553 
L 2631 2963 
z
" transform="scale(0.015625)"/>
      <path id="DejaVuSans-67" d="M 2906 1791 
Q 2906 2416 2648 2759 
Q 2391 3103 1925 3103 
Q 1463 3103 1205 2759 
Q 947 2416 947 1791 
Q 947 1169 1205 825 
Q 1463 481 1925 481 
Q 2391 481 2648 825 
Q 2906 1169 2906 1791 
z
M 3481 434 
Q 3481 -459 3084 -895 
Q 2688 -1331 1869 -1331 
Q 1566 -1331 1297 -1286 
Q 1028 -1241 775 -1147 
L 775 -588 
Q 1028 -725 1275 -790 
Q 1522 -856 1778 -856 
Q 2344 -856 2625 -561 
Q 2906 -266 2906 331 
L 2906 616 
Q 2728 306 2450 153 
Q 2172 0 1784 0 
Q 1141 0 747 490 
Q 353 981 353 1791 
Q 353 2603 747 3093 
Q 1141 3584 1784 3584 
Q 2172 3584 2450 3431 
Q 2728 3278 2906 2969 
L 2906 3500 
L 3481 3500 
L 3481 434 
z
" transform="scale(0.015625)"/>
     </defs>
     <use xlink:href="#DejaVuSans-35"/>
     <use xlink:href="#DejaVuSans-6d" x="63.623047"/>
     <use xlink:href="#DejaVuSans-5f" x="161.035156"/>
     <use xlink:href="#DejaVuSans-6c" x="211.035156"/>
     <use xlink:href="#DejaVuSans-61" x="238.818359"/>
     <use xlink:href="#DejaVuSans-72" x="300.097656"/>
     <use xlink:href="#DejaVuSans-67" x="339.460938"/>
     <use xlink:href="#DejaVuSans-65" x="402.9375"/>
    </g>
   </g>
   <g id="legend_1">
    <g id="patch_7">
     <path d="M 181.205812 56.91145 
L 301.448 56.91145 
Q 303.448 56.91145 303.448 54.91145 
L 303.448 40.9552 
Q 303.448 38.9552 301.448 38.9552 
L 181.205812 38.9552 
Q 179.205812 38.9552 179.205812 40.9552 
L 179.205812 54.91145 
Q 179.205812 56.91145 181.205812 56.91145 
z
" style="fill: #ffffff; opacity: 0.8; stroke: #cccccc; stroke-linejoin: miter"/>
    </g>
    <g id="line2d_24">
     <path d="M 183.205812 47.053638 
L 193.205812 47.053638 
L 203.205812 47.053638 
" style="fill: none; stroke: #1f77b4; stroke-width: 1.5; stroke-linecap: square"/>
    </g>
    <g id="text_16">
     <!-- battle_won_mean -->
     <g transform="translate(211.205812 50.553638) scale(0.1 -0.1)">
      <defs>
       <path id="DejaVuSans-62" d="M 3116 1747 
Q 3116 2381 2855 2742 
Q 2594 3103 2138 3103 
Q 1681 3103 1420 2742 
Q 1159 2381 1159 1747 
Q 1159 1113 1420 752 
Q 1681 391 2138 391 
Q 2594 391 2855 752 
Q 3116 1113 3116 1747 
z
M 1159 2969 
Q 1341 3281 1617 3432 
Q 1894 3584 2278 3584 
Q 2916 3584 3314 3078 
Q 3713 2572 3713 1747 
Q 3713 922 3314 415 
Q 2916 -91 2278 -91 
Q 1894 -91 1617 61 
Q 1341 213 1159 525 
L 1159 0 
L 581 0 
L 581 4863 
L 1159 4863 
L 1159 2969 
z
" transform="scale(0.015625)"/>
       <path id="DejaVuSans-77" d="M 269 3500 
L 844 3500 
L 1563 769 
L 2278 3500 
L 2956 3500 
L 3675 769 
L 4391 3500 
L 4966 3500 
L 4050 0 
L 3372 0 
L 2619 2869 
L 1863 0 
L 1184 0 
L 269 3500 
z
" transform="scale(0.015625)"/>
      </defs>
      <use xlink:href="#DejaVuSans-62"/>
      <use xlink:href="#DejaVuSans-61" x="63.476562"/>
      <use xlink:href="#DejaVuSans-74" x="124.755859"/>
      <use xlink:href="#DejaVuSans-74" x="163.964844"/>
      <use xlink:href="#DejaVuSans-6c" x="203.173828"/>
      <use xlink:href="#DejaVuSans-65" x="230.957031"/>
      <use xlink:href="#DejaVuSans-5f" x="292.480469"/>
      <use xlink:href="#DejaVuSans-77" x="342.480469"/>
      <use xlink:href="#DejaVuSans-6f" x="424.267578"/>
      <use xlink:href="#DejaVuSans-6e" x="485.449219"/>
      <use xlink:href="#DejaVuSans-5f" x="548.828125"/>
      <use xlink:href="#DejaVuSans-6d" x="598.828125"/>
      <use xlink:href="#DejaVuSans-65" x="696.240234"/>
      <use xlink:href="#DejaVuSans-61" x="757.763672"/>
      <use xlink:href="#DejaVuSans-6e" x="819.042969"/>
     </g>
    </g>
   </g>
  </g>
 </g>
 <defs>
  <clipPath id="p54d1e3a1f2">
   <rect x="42.84" y="33.9552" width="265.608" height="217.8792"/>
  </clipPath>
 </defs>
</svg>
